<?xml version="1.0" encoding="UTF-8"?>
<svg class="" width="512" height="512" version="1.1" viewBox="0 0 24 24" xml:space="preserve" xmlns="http://www.w3.org/2000/svg"><g transform="matrix(1.0636 0 0 1.0636 -4.0818 -1.4002)"><g fill="#fff"><path class="" d="m5.657 6.282c3.49-3.043 9.196-3.043 12.686 0a1 1 0 0 0 1.314-1.507c-4.242-3.7-11.072-3.7-15.314 0a1 1 0 0 0 1.314 1.507z" data-original="#000000"/><path class="" d="m10.324 8.754c0.912-0.796 2.44-0.796 3.352 0a1.0004 1.0004 0 1 0 1.315-1.508c-1.666-1.452-4.316-1.452-5.982 0a1.0004 1.0004 0 1 0 1.315 1.508zm1.676 1.246a1 1 0 0 1 1 1v3h2a3 3 0 0 1 3 3v4a1 1 0 0 1-1 1h-10a1 1 0 0 1-1-1v-4a3 3 0 0 1 3-3h2v-3a1 1 0 0 1 1-1z" data-original="#000000"/></g></g><path d="m22.919 19.05h-2.405a0.14147 0.13407 0 0 1-0.14147-0.13408v-2.2793c0-0.37023-0.31674-0.67041-0.70739-0.67041-0.39066 0-0.70738 0.30017-0.70738 0.67041v2.2793a0.14147 0.13407 0 0 1-0.14147 0.13408h-2.405c-0.39066 0-0.70738 0.30017-0.70738 0.67041 0 0.37024 0.31673 0.67041 0.70738 0.67041h2.405a0.14147 0.13407 0 0 1 0.14147 0.13407v2.2793c0 0.37023 0.31673 0.67041 0.70738 0.67041 0.39066 0 0.70739-0.30017 0.70739-0.67041v-2.2793a0.14147 0.13407 0 0 1 0.14147-0.13407h2.405c0.39066 0 0.70739-0.30017 0.70739-0.67041 0-0.37024-0.31674-0.67041-0.70739-0.67041z" fill="#fff" stroke-width=".01568" data-original="#000000"/></svg>
