<?xml version="1.0" encoding="UTF-8"?>
<svg version="1.1" viewBox="0 0 333.19 122.69" xmlns="http://www.w3.org/2000/svg">
<g transform="matrix(1.3333 0 0 -1.3333 -122.3 332.64)">
<g transform="scale(.1)">
<path d="m1170.7 1999.9-62.123 0.177 18.55 266.56 26.435-0.083 17.138-266.65" fill="#dbd9d9"/>
<path d="m1154.7 2292.7-35.889 0.118 0.1952 61.519 35.862-0.086-0.1685-61.55" fill="#dbd9d9"/>
<path d="m1149.5 2260.7 15.995 32.101 55.057-27.457-16.035-32.088-55.017 27.444" fill="#dbd9d9"/>
<path d="m1110.4 2290.1 17.935-31.02-53.213-30.82-17.966 31.038 53.244 30.802" fill="#dbd9d9"/>
<path d="m1192 2340.6-73.683 0.1911 0.4603 154.01 39.65-0.086 33.573-154.12" fill="#28282b"/>
<path d="m1168.3 2209.9 32.865 65.936 140.01-71.082-17.691-35.497-155.18 40.643" fill="#28282b"/>
<path d="m1057.9 2302.3 36.873-63.787-126.14-68.304-19.875 34.357 109.14 97.734" fill="#28282b"/>
<path d="m1178.2 2284.3c-0.091-21.837-17.791-39.49-39.664-39.439-21.806 0.05-39.477 17.809-39.408 39.646 0.069 21.838 17.818 39.481 39.655 39.413 21.829-0.05 39.477-17.809 39.417-39.619" fill="#dbd9d9"/>
<path d="m1158.3 2284.3c-0.049-10.854-8.8587-19.616-19.708-19.598-10.823 0.031-19.593 8.8585-19.584 19.681 0.063 10.849 8.8496 19.589 19.708 19.575 10.809-0.027 19.611-8.8497 19.584-19.659" fill="#fff"/>
<path d="m1078.6 1984.4 0.1063 34.234 121.9-0.2929-0.1111-34.27-121.89 0.3286" fill="#d7ca9d"/>
<path d="m1207.9 2355.3s17.547 14.97 74.735 1.161c57.215-13.796 81.862 17.497 81.862 17.497s-15.678-33.427-53.097-32.122c-41.653 1.4644-70.783 21.57-103.5 13.464" fill="#28282b"/>
<path d="m1207.8 2329.4s17.556 14.953 74.762 1.1743c57.21-13.81 81.844 17.488 81.844 17.488s-15.656-33.472-53.074-32.145c-41.657 1.4956-70.787 21.557-103.53 13.482" fill="#28282b"/>
<path d="m1207.7 2303.5s17.547 14.926 74.757 1.1608c57.219-13.805 81.844 17.488 81.844 17.488s-15.687-33.454-53.088-32.118c-41.64 1.4598-70.805 21.548-103.51 13.469" fill="#28282b"/>
<path d="m941.63 2389.3s17.587 14.934 74.793 1.1562c57.188-13.787 81.817 17.475 81.817 17.475s-15.668-33.4-53.052-32.1c-41.675 1.4869-70.832 21.58-103.56 13.469" fill="#28282b"/>
<path d="m941.56 2363.4s17.578 14.93 74.775 1.1474c57.215-13.774 81.813 17.506 81.813 17.506s-15.66-33.441-53.043-32.141c-41.671 1.5003-70.828 21.571-103.55 13.487" fill="#28282b"/>
<path d="m941.49 2337.5s17.574 14.961 74.762 1.1742c57.215-13.796 81.835 17.484 81.835 17.484s-15.664-33.432-53.056-32.114c-41.662 1.4823-70.814 21.566-103.54 13.455" fill="#28282b"/>
<path d="m1144.9 2064-0.7604 1.8882-1.1722-0.6984-1.1399 0.7102-0.787-1.8907-68.339-41.872-78.405-48.042-77.017-47.216 54.393-23.628 12.305 7.4376-0.90875-332.56 98.5-0.2443 123.63-0.331 2.254-0.01-0.014-0.018 101.93-0.2644 0.8882 326.96 11.521-3.0639 56.949 22.784-233.83 140.06" fill="#dbd9d9"/>
<path d="m1081.6 1591.3 0.624 221.5 123.61-0.2986-0.6037-221.53-123.63 0.3332" fill="#fff"/>
<path d="m1120.3 1883.6 54.94-0.1624-0.1401-54.963-54.945 0.149 0.1447 54.976" fill="#28282b"/>
<path d="m1018.7 1883.9 54.914-0.1532-0.1419-54.953-54.916 0.1631 0.1444 54.943" fill="#28282b"/>
<path d="m1276.8 1828.2-54.963 0.1402 0.1313 54.981 54.999-0.1449-0.1671-54.976" fill="#28282b"/>
<path d="m3207.4 1890.4-46.582 0.05 13.582 199.96 19.866-0.017 13.133-199.99" fill="#dbd9d9"/>
<path d="m3195.1 2110.1-26.915 0.011 0.07 46.138 26.905-0.01-0.061-46.142" fill="#dbd9d9"/>
<path d="m3191.1 2086 11.975 24.085 41.331-20.52-11.954-24.114-41.352 20.549" fill="#dbd9d9"/>
<path d="m3161.9 2108 13.502-23.22-39.888-23.189-13.524 23.25 39.909 23.16" fill="#dbd9d9"/>
<path d="m3223 2146-55.246 0.048 0.1163 115.56 29.755-0.046 25.376-115.57" fill="#28282b"/>
<path d="m3205.4 2048 24.59 49.512 105.1-53.138-13.237-26.67-116.45 30.296" fill="#28282b"/>
<path d="m3122.4 2117.1 27.765-47.772-94.517-51.369-14.944 25.716 81.697 73.425" fill="#28282b"/>
<path d="m3212.7 2103.8c-0.034-16.412-13.324-29.65-29.69-29.61-16.365-0.015-29.616 13.3-29.621 29.662 0.043 16.376 13.33 29.637 29.681 29.614 16.396-0.018 29.64-13.32 29.63-29.666" fill="#dbd9d9"/>
<path d="m3197.7 2103.8c-0.011-8.1174-6.6145-14.725-14.741-14.71-8.1171 0.012-14.731 6.6275-14.71 14.741 0.015 8.1264 6.6146 14.725 14.741 14.71 8.13-0.01 14.712-6.6212 14.71-14.741" fill="#fff"/>
<path d="m3138.3 1878.8 0.021 25.687 91.472-0.1241-0.02-25.655-91.473 0.092" fill="#d7ca9d"/>
<path d="m3234.9 2157.1s13.134 11.209 56.065 0.941c42.917-10.274 61.352 13.222 61.352 13.222s-11.694-25.092-39.749-24.122c-31.255 1.0396-53.126 16.05-77.668 9.9588" fill="#28282b"/>
<path d="m3234.8 2137.6s13.152 11.256 56.063 0.9944c42.936-10.28 61.352 13.223 61.352 13.223s-11.685-25.127-39.738-24.18c-31.257 1.0627-53.147 16.08-77.677 9.9627" fill="#28282b"/>
<path d="m3234.8 2118.2s13.129 11.222 56.061 0.9313c42.922-10.234 61.322 13.255 61.322 13.255s-11.656-25.106-39.731-24.162c-31.26 1.0539-53.131 16.096-77.651 9.9753" fill="#28282b"/>
<path d="m3035.1 2182.3s13.125 11.212 56.055 0.9432c42.924-10.255 61.365 13.229 61.365 13.229s-11.732-25.11-39.763-24.16c-31.244 1.069-53.116 16.079-77.657 9.9883" fill="#28282b"/>
<path d="m3035.1 2162.9s13.135 11.209 56.068 0.95c42.917-10.275 61.342 13.226 61.342 13.226s-11.698-25.134-39.744-24.167c-31.27 1.0562-53.138 16.076-77.667 9.9911" fill="#28282b"/>
<path d="m3035.1 2143.4s13.141 11.227 56.068 0.9501c42.917-10.275 61.363 13.251 61.363 13.251s-11.73-25.133-39.763-24.161c-31.251 1.0499-53.141 16.068-77.668 9.96" fill="#28282b"/>
<path d="m3186.7 1935.4-0.7494 1.8272-1.142-0.6797-1.1379 0.7032-0.7759-1.836-219.22-134.84 53.353-23.105 12.083 7.3022-0.2392-209.4 319.96-0.3513 0.2701 203.94 11.295-3.0011 55.795 22.445-229.49 137" fill="#28282b"/>
<path d="m3324.6 1600.1-86.066 0.1211 0.099 85.829-106.65 0.1141-0.1058-85.848-78.803 0.1022 0.236 199.09 131.39 79.606 140.12-85.368-0.2198-193.64" fill="#dbd9d9"/>
<path d="m3081.1 1707.4 60.611-0.047 0.061 62.576-60.602 0.043-0.07-62.572" fill="#fff"/>
<path d="m3294.5 1769.8-60.561 0.04-0.089-62.566 60.582-0.068 0.067 62.594" fill="#fff"/>
<path d="m2919.9 1575.6-182.13 0.5427 1.2459 412.99 182.11-0.5292-1.228-413.01" fill="#28282b"/>
<path d="m2805.4 1933.7-35.752 0.093-0.094-35.762 35.743-0.091 0.1043 35.76" fill="#fff"/>
<path d="m2885.1 1933.4-35.778 0.1178-0.1043-35.76 35.794-0.09 0.089 35.733" fill="#fff"/>
<path d="m2805.2 1862.2-35.727 0.1182-0.1332-35.806 35.741-0.1005 0.1196 35.788" fill="#fff"/>
<path d="m2884.9 1861.9-35.788 0.1196-0.1098-35.79 35.766-0.1257 0.1313 35.796" fill="#fff"/>
<path d="m2805 1790.6-35.731 0.099-0.1117-35.8 35.735-0.079 0.108 35.78" fill="#fff"/>
<path d="m2884.7 1790.4-35.79 0.1099-0.1196-35.788 35.803-0.092 0.1061 35.77" fill="#fff"/>
<path d="m2804.8 1719.1-35.749 0.1121-0.1159-35.768 35.745-0.1319 0.1197 35.788" fill="#fff"/>
<path d="m2884.5 1718.8-35.778 0.1178-0.1018-35.802 35.786-0.078 0.094 35.762" fill="#fff"/>
<path d="m2540.9 1862.2 0.5356-287.58 138.04 0.2554-0.5222 287.59-138.05-0.2732" fill="#dbd9d9"/>
<path d="m2657.5 1649.4-92.011-0.176-0.047 22.535 91.999 0.168 0.058-22.527" fill="#fff"/>
<path d="m2657.3 1749.5-91.994-0.1385-0.029 22.522 91.978 0.1618 0.045-22.545" fill="#fff"/>
<path d="m2657.4 1682.7-92.003-0.1877-0.053 22.557 92.022 0.184 0.033-22.553" fill="#fff"/>
<path d="m2657.4 1716.1-91.991-0.1796-0.041 22.565 91.984 0.1403 0.048-22.526" fill="#fff"/>
<path d="m2657.3 1782.9-91.996-0.1483-0.046 22.484 92.011 0.176 0.031-22.512" fill="#fff"/>
<path d="m2657.2 1816.2-91.997-0.1581-0.044 22.494 91.985 0.2011 0.057-22.537" fill="#fff"/>
<path d="m1821.4 1963.2-376.21 0.2423 69.995 178.55 233.77-0.1676 72.437-178.63" fill="#dbd9d9"/>
<path d="m1475.3 1978.5 315.79-0.1769-52.29 148.33-213.2 0.1224-50.293-148.28" fill="#28282b"/>
<path d="m1585.9 2057-71.744 0.024 21.487 61.916 60.193-0.038-9.9365-61.901" fill="#fff"/>
<path d="m1667.7 2056.9-69.81 0.037 7.3005 61.901 54.314-0.029 8.1954-61.91" fill="#fff"/>
<path d="m1749.5 2056.8-69.786 0.065-10.832 61.91 60.208-0.054 20.41-61.92" fill="#fff"/>
<path d="m1574.6 1986.4-87.42 0.042 25.391 61.891 71.958-0.044-9.9298-61.889" fill="#fff"/>
<path d="m1677 1986.4-87.42 0.042 7.2938 61.889 71.958-0.044 8.1679-61.887" fill="#fff"/>
<path d="m1779.4 1986.3-87.442 0.046-10.822 61.912 71.948-0.047 26.315-61.912" fill="#fff"/>
<path d="m1681.9 1906-97.182 0.041 0.031 64.775 97.197-0.057-0.046-64.759" fill="#dbd9d9"/>
<path d="m1699.5 1896.2-132.55 0.069 0.039 30.456 132.54-0.1032-0.028-30.422" fill="#dbd9d9"/>
<path d="m1861.8 1813.7-55.212 96.113-329.03 0.2191-45.698-96.079 27.606-0.018c-0.048-75.648-0.078-151.29-0.1327-226.95 0.039-4.5835 3.8364-8.4111 8.4216-8.4135 116.24-0.08 232.46-0.1664 348.74-0.2259 5.044 0 10.087-0.039 15.104 0.012 2.4892-0.032 4.368 0.8821 5.7068 2.2533l0.2447 0.1966 0.1961 0.2553c1.3789 1.3412 2.2585 3.2136 2.2676 5.6752 0.062 75.672 0.097 151.3 0.1202 226.96l21.67 0.01" fill="#28282b"/>
<path d="m1823.2 1595.2c-19.622 0.01-39.254 0.017-58.848 0.036l0.061 90.061-232.97 0.1535-0.067-90.042c-16.199-0.01-32.363 0-48.524 0-2.2308 0-4.4712 0-6.7144 0.015 0.036 72.841 0.091 145.69 0.131 218.55l347.08-0.2309c-0.077-72.843-0.1143-145.72-0.1531-218.55" fill="#fff"/>
<path d="m1577.4 1786.3-73.54 0.04-0.039-73.509 73.54-0.04 0.039 73.509" fill="#28282b"/>
<path d="m1790 1786.1-73.546 0.059-0.058-73.514 73.556-0.056 0.048 73.512" fill="#28282b"/>
<path d="m1685.5 1786.2-73.521 0.045-0.048-73.512 73.531-0.043 0.039 73.509" fill="#28282b"/>
<path d="m2293.7 1826-58.413 102.33-205.52 0.6363 0.1459 43.4-77.886 0.26-0.1269-43.399-19.151 0.064-48.849-101.99 29.387-0.087c-0.2638-80.429-0.5269-160.87-0.7623-241.27-0.01-4.8575 4.0055-8.9584 8.9029-8.9662 123.56-0.4045 199.89-0.6476 323.48-1.0306 5.3484-0.01 10.727-0.027 16.057-0.07 2.6137 0 4.6468 0.9303 6.0802 2.3991l0.2479 0.2336 0.2373 0.243c1.4461 1.4195 2.3996 3.4334 2.4281 6.0788 0.2453 80.398 0.5002 160.81 0.7544 241.23l22.986-0.06" fill="#28282b"/>
<path d="m2252.1 1593.8c-120.61 0.3823-194 0.6131-314.59 1.0068-2.3525-0.016-4.7371 0.01-7.1406 0.012 0.263 77.455 0.5171 154.89 0.7712 232.32l321.7-1.0162c-0.243-77.454-0.4986-154.86-0.7411-232.32" fill="#dbd9d9"/>
<path d="m1992.8 1803.6-40.807 0.1546-0.1247-40.825 40.806-0.1357 0.1257 40.805" fill="#fff"/>
<path d="m2050.5 1803.4-40.826 0.1337-0.1447-40.816 40.826-0.1347 0.1447 40.816" fill="#fff"/>
<path d="m2108.2 1803.2-40.806 0.1456-0.1337-40.836 40.806-0.1357 0.1336 40.826" fill="#fff"/>
<path d="m2165.9 1803-40.817 0.1547-0.1347-40.816 40.806-0.1456 0.1457 40.806" fill="#fff"/>
<path d="m2223.6 1802.8-40.766 0.1476-0.1347-40.816 40.807-0.1556 0.095 40.824" fill="#fff"/>
<path d="m1992.6 1750.3-40.815 0.1246-0.1167-40.785 40.796-0.1457 0.1356 40.806" fill="#fff"/>
<path d="m2050.3 1750.1-40.806 0.1457-0.1546-40.817 40.806-0.1357 0.1557 40.807" fill="#fff"/>
<path d="m2108 1750-40.826 0.1337-0.1256-40.805 40.816-0.1347 0.1357 40.806" fill="#fff"/>
<path d="m2165.7 1749.8-40.804 0.1057-0.1347-40.806 40.805-0.1156 0.1347 40.816" fill="#fff"/>
<path d="m2223.4 1749.6-40.785 0.1266-0.1257-40.805 40.785-0.1266 0.1256 40.805" fill="#fff"/>
<path d="m1992.4 1697.1-40.785 0.1166-0.1456-40.796 40.806-0.1356 0.1247 40.815" fill="#fff"/>
<path d="m2050.2 1696.9-40.845 0.1227-0.1237-40.825 40.834-0.1037 0.1356 40.806" fill="#fff"/>
<path d="m2107.8 1696.7-40.775 0.1166-0.1547-40.817 40.805-0.1157 0.1246 40.815" fill="#fff"/>
<path d="m2165.6 1696.5-40.796 0.1456-0.1457-40.806 40.816-0.1447 0.1247 40.805" fill="#fff"/>
<path d="m2223.2 1696.3-40.765 0.1276-0.1556-40.797 40.807-0.1557 0.1147 40.825" fill="#fff"/>
<path d="m2587 2060.1-346.5-0.1723 64.291 164.49 215.29 0.1047 66.916-164.42" fill="#dbd9d9"/>
<path d="m2268.3 2073.8 290.85 0.1301-48.324 136.56-196.36-0.083-46.157-136.61" fill="#28282b"/>
<path d="m2370.1 2146.2-66.079-0.03 19.703 56.997 55.491 0.032-9.1145-56.998" fill="#fff"/>
<path d="m2445.4 2146.2-64.267-0.039 6.6387 56.976 50.031 0.037 7.5967-56.974" fill="#fff"/>
<path d="m2520.7 2146.2-64.266-0.028-10.051 56.981 55.449 0.014 18.867-56.966" fill="#fff"/>
<path d="m2359.7 2081.2-80.496-0.051 23.32 57.011 66.249 0.02-9.0733-56.98" fill="#fff"/>
<path d="m2454.1 2081.2-80.505-0.03 6.6604 57.004 66.24 0.031 7.6049-57.005" fill="#fff"/>
<path d="m2548.4 2081.3-80.486-0.052-10.081 56.982 66.29 0.038 24.277-56.969" fill="#fff"/>
<path d="m2458.6 2007.3-89.482-0.055-0.033 59.658 89.492 0.045 0.024-59.648" fill="#dbd9d9"/>
<path d="m2474.9 1998.2-122.03-0.045-0.01 28.01 122.01 0.046 0.03-28.012" fill="#dbd9d9"/>
<path d="m2496.5 1948.2c0.039-82.539 0.086-165.11 0.1343-247.67 0-28.721 0.017-57.413 0.042-86.176 0-13.033 0.01-26.007 0.01-39.08-51.492-0.01-103.03-0.048-154.55-0.056-0.067 130.89-0.1327 261.78-0.21 392.66-0.013 13.024-0.01 26.037-0.024 39.021 51.533 0.018 103.05 0.066 154.57 0.095 0-19.605 0-39.23 0.025-58.796" fill="#28282b"/>
<path d="m2391.1 1978.1h-28.29l0.013-28.301h28.31l-0.033 28.302" fill="#dbd9d9"/>
<path d="m2433.6 1978.1-28.29 0.01 0.012-28.321h28.3l-0.022 28.312" fill="#dbd9d9"/>
<path d="m2476.1 1978.1-28.321-0.012 0.012-28.321 28.332 0.031-0.023 28.302" fill="#dbd9d9"/>
<path d="m2391.1 1937.2-28.29 0.01 0.012-28.311 28.311 0.012-0.033 28.292" fill="#dbd9d9"/>
<path d="m2433.6 1937.3-28.323-0.042 0.032-28.312 28.291 0.013-4e-4 28.34" fill="#dbd9d9"/>
<path d="m2476.1 1937.3-28.36 8e-4 0.032-28.322 28.322 0.022 0.01 28.3" fill="#dbd9d9"/>
<path d="m2391.2 1896.4-28.311-0.012 0.032-28.312 28.302 0.023-0.023 28.302" fill="#dbd9d9"/>
<path d="m2433.6 1896.4-28.292-0.033-0.01-28.29h28.31l-0.012 28.321" fill="#dbd9d9"/>
<path d="m2476.1 1896.4-28.33-1e-3 0.022-28.312 28.331 0.011-0.023 28.302" fill="#dbd9d9"/>
<path d="m2391.2 1855.5-28.312-0.022 0.023-28.302 28.292 0.023v28.3" fill="#dbd9d9"/>
<path d="m2433.7 1855.5h-28.32l0.01-28.341 28.312 0.032v28.31" fill="#dbd9d9"/>
<path d="m2476.1 1855.5-28.33 0.01 0.011-28.331 28.332 0.021-0.013 28.301" fill="#dbd9d9"/>
<path d="m2391.2 1814.7-28.311-0.012 0.011-28.331 28.312 0.032-0.012 28.311" fill="#dbd9d9"/>
<path d="m2433.7 1814.7-28.312-0.022 0.023-28.302h28.31l-0.021 28.322" fill="#dbd9d9"/>
<path d="m2476.2 1814.7-28.311-0.012-0.01-28.32 28.342 0.03-0.023 28.302" fill="#dbd9d9"/>
<path d="m2391.2 1773.8h-28.29l0.013-28.301 28.29-0.01-0.012 28.311" fill="#dbd9d9"/>
<path d="m2433.7 1773.8-28.302-0.023v-28.32l28.312 0.032-0.012 28.311" fill="#dbd9d9"/>
<path d="m2476.2 1773.9-28.331-0.011 0.011-28.331 28.312 0.032 0.01 28.31" fill="#dbd9d9"/>
<path d="m2391.2 1732.9-28.302-0.023 0.012-28.311 28.302 0.023-0.012 28.311" fill="#dbd9d9"/>
<path d="m2433.7 1733-28.312-0.022 0.013-28.291h28.31l-0.012 28.311" fill="#dbd9d9"/>
<path d="m2476.2 1733-28.34-3e-4 0.041-28.333 28.322 0.021-0.022 28.312" fill="#dbd9d9"/>
<path d="m2391.3 1692.1-28.292-0.023v-28.3l28.302 0.033-0.013 28.291" fill="#dbd9d9"/>
<path d="m2433.7 1692.1-28.312-0.022 0.023-28.292h28.3l-0.012 28.311" fill="#dbd9d9"/>
<path d="m2476.2 1692.1-28.34-3e-4 0.01-28.341 28.332 0.031v28.31" fill="#dbd9d9"/>
<path d="m663.08 2109.8h-0.019l0.117-0.08z" fill="#64616e"/>
</g>
</g>
</svg>
