<?xml version="1.0" encoding="UTF-8"?>
<svg version="1.1" viewBox="0 0 502.88 338.08" xml:space="preserve" xmlns="http://www.w3.org/2000/svg"><defs><clipPath id="b"><path d="m2330.3 566.14h-80.47l80.46 7e-3c23.38 0 44.02 15.25 50.89 37.59l15.06 48.942h-146.41v0.011h159.72c29.41 0 53.24 23.829 53.24 53.239v217.95h19.97v106.48-106.48h-19.97v-217.95c0-29.418-23.83-53.27-53.24-53.27h-13.3l-15.05-48.922c-6.88-22.328-27.53-37.597-50.9-37.597"/></clipPath><radialGradient id="a" cx="0" cy="0" r="1" gradientTransform="matrix(3188.6 0 0 -2834.3 2250 2e3)" gradientUnits="userSpaceOnUse"><stop stop-color="#fff" offset="0"/><stop stop-color="#fff" offset=".39785"/><stop stop-color="#e5e5e4" offset="1"/></radialGradient><clipPath id="d"><path d="m2902.5 1765.7c37.37 71.3 67.55 148.57 84.93 232.08 0.96 4.49 1.89 8.99 2.77 13.47-0.4-2.2-0.82-4.39-1.25-6.57-0.47-2.33-1.02-4.6-1.52-6.9-17.38-83.51-47.56-160.78-84.93-232.08"/></clipPath><clipPath id="c"><path d="m2937.5 2465.2c-49.53 109.1-124.5 205.29-218.05 280.01 93.18-74.25 168.41-170.13 218.05-280.01m-684.58 444.01h-0.03 0.03m-0.55 0h-0.17 0.17m-0.58 0c-0.09 0.01-0.22 0.01-0.31 0.01 0.1 0 0.2 0 0.31-0.01m-0.64 0.01h-0.4 0.4m-0.64 0h-0.66 0.66"/></clipPath></defs><g transform="matrix(1.3333 0 0 -1.3333 -48.562 387.9)"><g transform="scale(.1)"><path d="m2257 1897.8c-1.37 0-2.77 0.17-4.16 0.51l-11.12 2.76c-9.21 2.29-14.83 11.61-12.54 20.82 2.29 9.22 11.62 14.81 20.83 12.54l11.12-2.76c9.21-2.29 14.83-11.61 12.54-20.82-1.94-7.82-8.96-13.05-16.67-13.05m66.72-16.55c-1.37 0-2.76 0.17-4.15 0.51l-11.12 2.76c-9.22 2.29-14.83 11.61-12.54 20.82s11.63 14.8 20.82 12.54l11.12-2.76c9.22-2.29 14.82-11.61 12.54-20.82-1.94-7.83-8.95-13.05-16.67-13.05m66.73-16.55c-1.37 0-2.76 0.16-4.15 0.5l-11.12 2.77c-9.22 2.28-14.83 11.61-12.54 20.82 2.28 9.21 11.62 14.8 20.82 12.54l11.12-2.77c9.22-2.28 14.82-11.61 12.54-20.82-1.95-7.82-8.96-13.04-16.67-13.04m66.73-16.56c-1.37 0-2.76 0.16-4.14 0.51l-11.13 2.76c-9.22 2.27-14.83 11.59-12.55 20.81 2.28 9.21 11.62 14.87 20.82 12.54l11.12-2.75c9.21-2.27 14.83-11.59 12.55-20.81-1.94-7.82-8.96-13.06-16.67-13.06m66.73-16.55c-1.37 0-2.76 0.16-4.14 0.51l-11.13 2.75c-9.22 2.28-14.83 11.59-12.55 20.81 2.28 9.21 11.61 14.89 20.81 12.55l11.13-2.75c9.22-2.28 14.83-11.59 12.55-20.81-1.94-7.82-8.96-13.06-16.67-13.06m66.71-16.56c-1.36 0-2.76 0.16-4.16 0.51l-11.11 2.76c-9.21 2.3-14.82 11.61-12.53 20.83 2.29 9.2 11.56 14.81 20.83 12.53l11.11-2.76c9.21-2.3 14.83-11.61 12.53-20.83-1.94-7.82-8.95-13.04-16.67-13.04m66.73-16.55c-1.36 0-2.76 0.16-4.15 0.5l-11.12 2.77c-9.22 2.28-14.82 11.61-12.54 20.82 2.3 9.21 11.6 14.79 20.82 12.54l11.12-2.77c9.22-2.28 14.83-11.61 12.54-20.82-1.94-7.82-8.95-13.04-16.67-13.04m66.73-16.56c-1.37 0-2.76 0.17-4.15 0.51l-11.12 2.76c-9.22 2.29-14.83 11.62-12.54 20.83 2.28 9.2 11.62 14.8 20.82 12.53l11.12-2.76c9.22-2.28 14.83-11.61 12.54-20.82-1.94-7.82-8.95-13.05-16.67-13.05m66.73-16.55c-1.37 0-2.75 0.16-4.14 0.51l-11.12 2.75c-9.22 2.28-14.84 11.59-12.55 20.81 2.27 9.21 11.62 14.87 20.81 12.55l11.12-2.75c9.22-2.28 14.83-11.59 12.55-20.81-1.93-7.83-8.96-13.06-16.67-13.06m66.73-16.55c-1.37 0-2.76 0.15-4.14 0.51l-11.13 2.75c-9.21 2.27-14.83 11.59-12.54 20.81 2.27 9.21 11.61 14.87 20.81 12.55l11.12-2.75c9.21-2.28 14.83-11.6 12.55-20.82-1.94-7.82-8.96-13.05-16.67-13.05m66.73-16.55c-1.37 0-2.76 0.15-4.14 0.5l-11.13 2.76c-9.22 2.27-14.83 11.59-12.55 20.81 2.28 9.21 11.61 14.88 20.81 12.55l11.13-2.76c9.22-2.27 14.83-11.59 12.55-20.81-1.94-7.82-8.96-13.05-16.67-13.05m66.72-16.57c-1.37 0-2.77 0.17-4.16 0.51l-11.12 2.76c-9.21 2.3-14.82 11.62-12.53 20.83 2.3 9.2 11.57 14.79 20.83 12.53l11.12-2.76c9.21-2.29 14.82-11.61 12.53-20.83-1.95-7.81-8.96-13.04-16.67-13.04m66.72-16.55c-1.36 0-2.76 0.17-4.15 0.51l-11.12 2.76c-9.22 2.29-14.82 11.61-12.54 20.82 2.29 9.21 11.63 14.81 20.82 12.54l11.12-2.76c9.22-2.29 14.83-11.61 12.54-20.82-1.94-7.82-8.95-13.05-16.67-13.05m66.73-16.55c-1.36 0-2.75 0.15-4.14 0.51l-11.12 2.75c-9.21 2.27-14.84 11.59-12.55 20.81 2.28 9.21 11.62 14.86 20.81 12.55l11.12-2.76c9.22-2.27 14.84-11.59 12.55-20.81-1.93-7.82-8.95-13.05-16.67-13.05m66.73-16.56c-1.37 0-2.75 0.16-4.14 0.51l-11.12 2.76c-9.22 2.27-14.84 11.59-12.55 20.81 2.27 9.21 11.61 14.87 20.81 12.55l11.12-2.76c9.22-2.27 14.84-11.59 12.55-20.81-1.93-7.82-8.95-13.06-16.67-13.06m66.73-16.55c-1.37 0-2.75 0.16-4.14 0.51l-11.12 2.75c-9.21 2.28-14.84 11.6-12.55 20.81 2.27 9.21 11.6 14.89 20.81 12.55l11.12-2.75c9.22-2.28 14.84-11.59 12.55-20.81-1.93-7.82-8.96-13.06-16.67-13.06m66.72-16.56c-1.37 0-2.76 0.17-4.16 0.51l-11.11 2.76c-9.21 2.3-14.83 11.61-12.53 20.83 2.29 9.2 11.56 14.78 20.83 12.53l11.11-2.76c9.21-2.3 14.82-11.61 12.53-20.83-1.95-7.82-8.96-13.04-16.67-13.04m66.73-16.55c-1.37 0-2.77 0.16-4.15 0.5l-11.13 2.77c-9.22 2.28-14.82 11.61-12.54 20.82 2.29 9.21 11.64 14.79 20.83 12.54l11.12-2.77c9.22-2.28 14.82-11.61 12.54-20.82-1.95-7.82-8.96-13.04-16.67-13.04m66.73-16.56c-1.37 0-2.76 0.16-4.14 0.51l-11.13 2.76c-9.22 2.27-14.83 11.59-12.55 20.81 2.28 9.21 11.62 14.86 20.81 12.55l11.13-2.76c9.22-2.27 14.83-11.59 12.55-20.81-1.94-7.82-8.96-13.06-16.67-13.06m66.72-16.55c-1.36 0-2.75 0.16-4.14 0.51l-11.12 2.75c-9.21 2.28-14.83 11.59-12.55 20.81 2.28 9.21 11.61 14.88 20.81 12.55l11.12-2.75c9.22-2.28 14.84-11.59 12.55-20.81-1.93-7.83-8.95-13.06-16.67-13.06m66.73-16.55c-1.37 0-2.75 0.15-4.14 0.51l-11.12 2.75c-9.22 2.28-14.83 11.59-12.55 20.81 2.28 9.21 11.6 14.88 20.81 12.55l11.12-2.75c9.21-2.28 14.84-11.6 12.55-20.81-1.93-7.83-8.95-13.06-16.67-13.06m66.73-16.56c-1.37 0-2.76 0.16-4.15 0.5l-11.12 2.77c-9.22 2.28-14.83 11.61-12.54 20.82s11.63 14.81 20.82 12.54l11.12-2.77c9.22-2.28 14.83-11.61 12.54-20.82-1.94-7.82-8.95-13.04-16.67-13.04m66.72-16.56c-1.37 0-2.76 0.17-4.16 0.51l-11.11 2.76c-9.21 2.3-14.83 11.62-12.53 20.83 2.28 9.2 11.55 14.79 20.83 12.53l11.11-2.76c9.21-2.29 14.83-11.61 12.53-20.83-1.94-7.81-8.96-13.04-16.67-13.04" fill="#6aba2f"/><path d="m2237.3 1897.8c-7.71 0-14.72 5.23-16.66 13.05-2.29 9.21 3.33 18.53 12.53 20.82l11.13 2.76c9.22 2.26 18.54-3.32 20.83-12.54 2.28-9.21-3.33-18.53-12.54-20.82l-11.13-2.76c-1.39-0.34-2.78-0.51-4.16-0.51m-66.72-16.55c-7.71 0-14.72 5.22-16.66 13.04-2.29 9.22 3.32 18.54 12.53 20.83l11.12 2.76c9.2 2.27 18.54-3.32 20.82-12.53 2.29-9.22-3.32-18.54-12.53-20.83l-11.12-2.76c-1.39-0.34-2.79-0.51-4.16-0.51m-66.73-16.55c-7.71 0-14.72 5.22-16.66 13.04-2.29 9.21 3.32 18.54 12.53 20.82l11.13 2.77c9.21 2.26 18.53-3.32 20.82-12.54 2.29-9.21-3.32-18.54-12.53-20.82l-11.13-2.77c-1.39-0.34-2.79-0.5-4.16-0.5m-66.73-16.56c-7.71 0-14.73 5.24-16.67 13.06-2.28 9.22 3.34 18.54 12.56 20.81l11.12 2.75c9.19 2.35 18.53-3.33 20.82-12.54 2.28-9.22-3.34-18.54-12.56-20.81l-11.12-2.76c-1.39-0.35-2.78-0.51-4.15-0.51m-66.72-16.55c-7.71 0-14.73 5.23-16.67 13.06-2.28 9.21 3.34 18.53 12.55 20.81l11.12 2.75c9.2 2.36 18.53-3.32 20.82-12.55 2.28-9.2-3.34-18.53-12.56-20.81l-11.11-2.75c-1.39-0.35-2.78-0.51-4.15-0.51m-66.73-16.56c-7.71 0-14.72 5.22-16.66 13.05-2.29 9.21 3.32 18.53 12.53 20.82l11.12 2.76c9.21 2.26 18.54-3.32 20.83-12.54 2.29-9.21-3.33-18.53-12.53-20.82l-11.13-2.76c-1.39-0.35-2.79-0.51-4.16-0.51m-66.72-16.55c-7.71 0-14.72 5.22-16.67 13.03-2.29 9.22 3.32 18.55 12.54 20.83l11.12 2.77c9.19 2.26 18.53-3.32 20.82-12.53 2.29-9.22-3.32-18.55-12.53-20.83l-11.12-2.77c-1.39-0.34-2.79-0.5-4.16-0.5m-66.73-16.56c-7.71 0-14.72 5.23-16.66 13.04-2.29 9.22 3.32 18.55 12.53 20.83l11.12 2.76c9.21 2.27 18.53-3.32 20.82-12.52 2.29-9.22-3.32-18.55-12.53-20.84l-11.12-2.76c-1.39-0.34-2.79-0.51-4.16-0.51m-66.73-16.55c-7.71 0-14.73 5.23-16.67 13.06-2.28 9.22 3.34 18.53 12.56 20.81l11.12 2.75c9.19 2.35 18.53-3.34 20.81-12.55 2.28-9.22-3.34-18.53-12.55-20.81l-11.12-2.75c-1.39-0.35-2.78-0.51-4.15-0.51m-66.72-16.55c-7.72 0-14.73 5.22-16.67 13.05-2.28 9.21 3.34 18.54 12.55 20.82l11.12 2.75c9.2 2.35 18.53-3.32 20.82-12.55 2.28-9.21-3.34-18.54-12.56-20.81l-11.12-2.75c-1.38-0.36-2.78-0.51-4.14-0.51m-66.73-16.55c-7.72 0-14.73 5.23-16.67 13.05-2.28 9.22 3.34 18.54 12.55 20.81l11.13 2.76c9.2 2.36 18.53-3.34 20.81-12.55 2.28-9.22-3.34-18.54-12.55-20.81l-11.12-2.76c-1.39-0.35-2.78-0.5-4.15-0.5m-66.73-16.57c-7.71 0-14.72 5.23-16.66 13.05-2.29 9.21 3.32 18.53 12.53 20.82l11.12 2.76c9.22 2.27 18.54-3.32 20.83-12.54 2.29-9.2-3.33-18.53-12.54-20.82l-11.12-2.76c-1.39-0.34-2.79-0.51-4.16-0.51m-66.72-16.55c-7.71 0-14.72 5.23-16.67 13.04-2.29 9.22 3.32 18.54 12.54 20.83l11.11 2.76c9.21 2.27 18.54-3.32 20.83-12.53 2.29-9.22-3.32-18.54-12.53-20.83l-11.12-2.76c-1.39-0.34-2.79-0.51-4.16-0.51m-66.73-16.55c-7.72 0-14.73 5.23-16.67 13.05-2.28 9.22 3.34 18.54 12.55 20.81l11.13 2.76c9.19 2.34 18.53-3.34 20.81-12.55 2.28-9.22-3.34-18.54-12.55-20.81l-11.13-2.75c-1.38-0.36-2.77-0.51-4.14-0.51m-66.73-16.56c-7.71 0-14.73 5.24-16.67 13.06-2.28 9.22 3.34 18.54 12.55 20.81l11.13 2.76c9.19 2.35 18.53-3.34 20.81-12.55 2.28-9.22-3.34-18.54-12.55-20.81l-11.12-2.76c-1.39-0.35-2.78-0.51-4.15-0.51m-66.72-16.55c-7.72 0-14.73 5.23-16.67 13.06-2.28 9.21 3.34 18.53 12.55 20.81l11.12 2.75c9.2 2.37 18.53-3.32 20.81-12.55 2.28-9.2-3.34-18.53-12.55-20.81l-11.12-2.75c-1.38-0.35-2.78-0.51-4.14-0.51m-66.73-16.56c-7.71 0-14.72 5.22-16.67 13.05-2.29 9.21 3.33 18.53 12.54 20.82l11.12 2.76c9.2 2.27 18.54-3.32 20.83-12.54 2.29-9.21-3.33-18.53-12.54-20.82l-11.12-2.76c-1.39-0.34-2.79-0.51-4.16-0.51m-66.73-16.55c-7.71 0-14.72 5.22-16.67 13.04-2.29 9.21 3.33 18.54 12.54 20.82l11.12 2.77c9.2 2.27 18.54-3.32 20.83-12.54 2.29-9.21-3.33-18.54-12.54-20.82l-11.12-2.77c-1.39-0.34-2.79-0.5-4.16-0.5m-66.72-16.56c-7.72 0-14.74 5.23-16.67 13.06-2.28 9.21 3.34 18.54 12.55 20.81l11.12 2.76c9.19 2.33 18.52-3.34 20.81-12.55 2.28-9.21-3.34-18.54-12.55-20.81l-11.12-2.76c-1.38-0.35-2.78-0.51-4.14-0.51m-66.733-16.55c-7.715 0-14.731 5.23-16.668 13.06-2.282 9.22 3.339 18.53 12.55 20.81l11.125 2.75c9.196 2.35 18.532-3.34 20.817-12.55 2.277-9.22-3.34-18.53-12.555-20.81l-11.125-2.75c-1.387-0.35-2.777-0.51-4.144-0.51m-66.727-16.55c-7.715 0-14.734 5.23-16.672 13.06-2.281 9.21 3.34 18.53 12.555 20.81l11.125 2.75c9.195 2.35 18.527-3.33 20.812-12.55 2.282-9.22-3.34-18.53-12.55-20.81l-11.125-2.75c-1.387-0.36-2.778-0.51-4.145-0.51m-66.723-16.56c-7.711 0-14.722 5.22-16.668 13.03-2.289 9.22 3.321 18.55 12.536 20.83l11.117 2.77c9.199 2.26 18.535-3.32 20.824-12.53 2.293-9.22-3.316-18.55-12.531-20.83l-11.117-2.77c-1.395-0.34-2.79-0.5-4.161-0.5m-66.73-16.56c-7.711 0-14.723 5.23-16.664 13.05-2.289 9.21 3.324 18.53 12.535 20.82l11.121 2.76c9.215 2.28 18.535-3.32 20.824-12.54 2.293-9.2-3.324-18.53-12.531-20.82l-11.125-2.76c-1.391-0.34-2.789-0.51-4.16-0.51" fill="#28272b"/><path d="m2248.4 1900.6c-6.95 0-13.49 4.23-16.09 11.12-3.35 8.89 1.14 18.8 10.02 22.15l5.36 2.02c8.91 3.36 18.79-1.14 22.14-10.02 3.35-8.89-1.13-18.8-10.01-22.15l-5.36-2.02c-2-0.75-4.05-1.1-6.06-1.1" fill="#266185"/><path d="m3316.6 2302.8c-6.94 0-13.49 4.25-16.08 11.14-3.35 8.88 1.14 18.8 10.03 22.14l10.52 3.96c8.88 3.34 18.79-1.15 22.14-10.02 3.35-8.89-1.14-18.8-10.03-22.14l-10.52-3.97c-2-0.75-4.05-1.11-6.06-1.11m-63.13-23.77c-6.95 0-13.49 4.24-16.09 11.13-3.35 8.88 1.14 18.8 10.02 22.15l10.52 3.96c8.88 3.33 18.8-1.13 22.15-10.02 3.35-8.88-1.14-18.8-10.02-22.15l-10.52-3.96c-2-0.76-4.04-1.11-6.06-1.11m-63.15-23.78c-6.94 0-13.48 4.25-16.08 11.14-3.35 8.88 1.14 18.8 10.03 22.14l10.52 3.97c8.87 3.34 18.8-1.15 22.14-10.03 3.35-8.89-1.14-18.8-10.03-22.14l-10.52-3.97c-2-0.75-4.05-1.11-6.06-1.11m-63.13-23.76c-6.95 0-13.49 4.24-16.09 11.13-3.35 8.88 1.15 18.8 10.03 22.14l10.52 3.96c8.88 3.34 18.81-1.15 22.14-10.03 3.35-8.88-1.14-18.79-10.03-22.14l-10.52-3.96c-1.99-0.75-4.04-1.1-6.05-1.1m-63.15-23.78c-6.95 0-13.49 4.25-16.08 11.14-3.35 8.88 1.15 18.8 10.03 22.14l10.52 3.96c8.88 3.32 18.8-1.15 22.14-10.04 3.35-8.88-1.15-18.79-10.03-22.14l-10.52-3.96c-2-0.74-4.05-1.1-6.06-1.1m-63.13-23.77c-6.95 0-13.5 4.24-16.09 11.13-3.35 8.88 1.15 18.8 10.03 22.14l10.52 3.96c8.89 3.34 18.79-1.15 22.14-10.03s-1.14-18.79-10.03-22.14l-10.52-3.96c-1.99-0.75-4.04-1.1-6.05-1.1m-63.15-23.78c-6.95 0-13.49 4.25-16.08 11.14-3.35 8.89 1.15 18.8 10.03 22.14l10.53 3.96c8.88 3.33 18.79-1.15 22.13-10.04 3.35-8.88-1.15-18.79-10.03-22.14l-10.52-3.95c-1.99-0.75-4.04-1.11-6.06-1.11m-63.13-23.77c-6.95 0-13.5 4.24-16.09 11.14-3.35 8.88 1.16 18.79 10.03 22.14l10.53 3.96c8.88 3.34 18.81-1.15 22.14-10.04 3.35-8.88-1.15-18.79-10.03-22.14l-10.53-3.96c-1.99-0.75-4.04-1.1-6.05-1.1m-63.15-23.78c-6.95 0-13.49 4.25-16.08 11.15-3.35 8.88 1.15 18.79 10.03 22.13l10.53 3.96c8.87 3.33 18.8-1.14 22.13-10.04 3.36-8.88-1.15-18.79-10.02-22.13l-10.53-3.96c-1.99-0.75-4.04-1.11-6.06-1.11m-63.13-23.77c-6.95 0-13.5 4.25-16.08 11.14-3.35 8.88 1.15 18.79 10.02 22.14l10.53 3.96c8.89 3.32 18.8-1.15 22.14-10.04 3.35-8.88-1.15-18.79-10.03-22.14l-10.53-3.96c-1.99-0.75-4.04-1.1-6.05-1.1m-63.14-23.78c-6.94 0-13.48 4.25-16.08 11.14-3.35 8.88 1.14 18.79 10.03 22.14l10.52 3.96c8.87 3.33 18.81-1.15 22.14-10.03 3.35-8.88-1.15-18.79-10.03-22.14l-10.52-3.96c-1.99-0.75-4.04-1.11-6.06-1.11m-63.14-23.77c-6.95 0-13.5 4.25-16.08 11.14-3.35 8.88 1.15 18.8 10.02 22.14l10.53 3.96c8.88 3.33 18.8-1.15 22.14-10.04 3.35-8.88-1.15-18.79-10.03-22.14l-10.53-3.96c-1.99-0.74-4.04-1.1-6.05-1.1m-63.14-23.78c-6.94 0-13.49 4.25-16.08 11.14-3.35 8.88 1.14 18.8 10.03 22.14l10.52 3.96c8.86 3.35 18.79-1.15 22.14-10.03s-1.15-18.79-10.03-22.14l-10.52-3.96c-1.99-0.75-4.04-1.11-6.06-1.11m-63.14-23.77c-6.95 0-13.5 4.25-16.08 11.14-3.35 8.89 1.15 18.8 10.03 22.14l10.52 3.96c8.89 3.33 18.8-1.15 22.14-10.04 3.35-8.88-1.15-18.79-10.03-22.14l-10.52-3.96c-2-0.74-4.05-1.1-6.06-1.1m-63.13-23.77c-6.95 0-13.49 4.24-16.09 11.13-3.35 8.89 1.14 18.8 10.03 22.14l10.52 3.96c8.89 3.34 18.79-1.14 22.14-10.03 3.35-8.88-1.15-18.79-10.03-22.14l-10.52-3.96c-1.99-0.75-4.04-1.1-6.05-1.1m-63.15-23.78c-6.94 0-13.48 4.24-16.08 11.13-3.35 8.88 1.14 18.79 10.03 22.14l10.52 3.97c8.88 3.33 18.79-1.14 22.14-10.03 3.35-8.88-1.14-18.79-10.03-22.14l-10.52-3.96c-2-0.76-4.05-1.11-6.06-1.11m-63.13-23.77c-6.95 0-13.49 4.24-16.09 11.14-3.35 8.87 1.14 18.78 10.03 22.13l10.53 3.97c8.87 3.35 18.8-1.14 22.14-10.03 3.35-8.88-1.14-18.79-10.03-22.14l-10.53-3.96c-1.99-0.76-4.04-1.11-6.05-1.11" fill="#28272b"/><path d="m3379.8 2326.6c-6.96 0-13.5 4.25-16.09 11.14-3.35 8.89 1.15 18.8 10.03 22.14l5.36 2.02c8.89 3.33 18.8-1.15 22.14-10.04 3.35-8.88-1.15-18.79-10.03-22.14l-5.36-2.01c-1.99-0.75-4.04-1.11-6.05-1.11" fill="#28272b"/><path d="m2250 1900.6c-2.02 0-4.07 0.35-6.06 1.1l-5.37 2.02c-8.88 3.35-13.36 13.26-10.01 22.15 3.34 8.88 13.27 13.36 22.14 10.02l5.36-2.02c8.88-3.35 13.37-13.26 10.02-22.15-2.59-6.89-9.14-11.12-16.08-11.12" fill="#6aba2f"/><path d="m1181.8 2302.8c-2.01 0-4.05 0.35-6.05 1.11l-10.52 3.96c-8.88 3.34-13.37 13.25-10.03 22.13 3.35 8.89 13.25 13.38 22.14 10.03l10.52-3.96c8.88-3.34 13.38-13.25 10.03-22.13-2.59-6.89-9.13-11.14-16.09-11.14zm63.14-23.78c-2.01 0-4.05 0.36-6.05 1.11l-10.52 3.96c-8.88 3.34-13.37 13.25-10.03 22.14 3.35 8.88 13.26 13.37 22.14 10.03l10.52-3.96c8.88-3.34 13.38-13.25 10.03-22.14-2.59-6.89-9.13-11.14-16.09-11.14zm63.14-23.77c-2.01 0-4.05 0.36-6.05 1.11l-10.52 3.96c-8.88 3.34-13.37 13.25-10.03 22.14 3.35 8.88 13.24 13.36 22.14 10.03l10.52-3.96c8.88-3.34 13.38-13.26 10.03-22.14-2.59-6.89-9.14-11.14-16.09-11.14zm63.14-23.78c-2.01 0-4.05 0.36-6.05 1.11l-10.52 3.96c-8.88 3.34-13.38 13.25-10.03 22.14 3.34 8.88 13.25 13.38 22.14 10.03l10.52-3.96c8.88-3.34 13.37-13.25 10.03-22.14-2.59-6.89-9.14-11.14-16.09-11.14zm63.14-23.77c-2.01 0-4.05 0.36-6.05 1.11l-10.52 3.96c-8.88 3.34-13.38 13.25-10.03 22.14 3.34 8.87 13.25 13.36 22.14 10.03l10.52-3.96c8.88-3.34 13.37-13.26 10.03-22.14-2.59-6.89-9.14-11.14-16.09-11.14zm63.14-23.77c-2.01 0-4.05 0.35-6.05 1.1l-10.52 3.96c-8.88 3.34-13.38 13.26-10.03 22.14 3.34 8.88 13.26 13.38 22.14 10.03l10.52-3.96c8.88-3.34 13.37-13.25 10.03-22.14-2.59-6.89-9.14-11.13-16.09-11.13zm63.14-23.78c-2.01 0-4.05 0.36-6.05 1.11l-10.52 3.96c-8.88 3.34-13.38 13.25-10.03 22.14 3.35 8.88 13.24 13.37 22.14 10.03l10.52-3.96c8.88-3.34 13.37-13.25 10.03-22.14-2.59-6.89-9.14-11.14-16.09-11.14zm63.14-23.77c-2.01 0-4.05 0.35-6.05 1.11l-10.52 3.96c-8.88 3.34-13.38 13.25-10.03 22.13 3.34 8.89 13.25 13.36 22.14 10.03l10.52-3.96c8.88-3.34 13.37-13.25 10.03-22.14-2.59-6.89-9.14-11.13-16.09-11.13zm63.14-23.78c-2.01 0-4.05 0.36-6.05 1.11l-10.52 3.96c-8.88 3.34-13.38 13.25-10.03 22.14 3.34 8.88 13.25 13.37 22.14 10.03l10.52-3.96c8.88-3.34 13.37-13.25 10.03-22.14-2.59-6.89-9.14-11.14-16.09-11.14zm63.14-23.77c-2.01 0-4.05 0.35-6.05 1.11l-10.52 3.96c-8.89 3.34-13.38 13.25-10.03 22.14 3.34 8.87 13.23 13.36 22.14 10.02l10.52-3.96c8.88-3.34 13.37-13.25 10.03-22.13-2.59-6.89-9.14-11.14-16.09-11.14zm63.14-23.78c-2.01 0-4.05 0.36-6.05 1.11l-10.52 3.96c-8.89 3.34-13.38 13.25-10.03 22.14 3.35 8.88 13.24 13.38 22.14 10.03l10.52-3.96c8.88-3.34 13.37-13.25 10.03-22.14-2.6-6.89-9.14-11.14-16.09-11.14zm63.14-23.77c-2.01 0-4.05 0.36-6.05 1.11l-10.52 3.96c-8.89 3.34-13.38 13.25-10.03 22.14 3.34 8.88 13.25 13.37 22.14 10.03l10.52-3.96c8.88-3.34 13.37-13.26 10.03-22.14-2.6-6.89-9.14-11.14-16.09-11.14zm63.14-23.78c-2.01 0-4.05 0.36-6.05 1.11l-10.52 3.96c-8.89 3.34-13.38 13.26-10.03 22.14 3.34 8.88 13.25 13.37 22.14 10.03l10.52-3.96c8.88-3.34 13.37-13.25 10.03-22.14-2.6-6.89-9.14-11.14-16.09-11.14zm63.14-23.77c-2.01 0-4.06 0.36-6.05 1.11l-10.52 3.96c-8.89 3.34-13.38 13.25-10.03 22.14 3.35 8.88 13.24 13.37 22.13 10.03l10.53-3.96c8.88-3.34 13.37-13.26 10.03-22.14-2.6-6.89-9.14-11.14-16.09-11.14zm63.14-23.77c-2.01 0-4.06 0.35-6.05 1.1l-10.52 3.96c-8.89 3.35-13.38 13.26-10.03 22.14s13.24 13.37 22.13 10.03l10.53-3.96c8.88-3.34 13.37-13.25 10.03-22.14-2.6-6.88-9.14-11.13-16.09-11.13zm63.14-23.78c-2.01 0-4.06 0.35-6.06 1.11l-10.52 3.96c-8.88 3.35-13.37 13.26-10.02 22.15 3.35 8.88 13.26 13.36 22.14 10.02l10.52-3.97c8.88-3.35 13.37-13.26 10.03-22.15-2.6-6.88-9.14-11.12-16.09-11.12zm63.14-23.77c-2.02 0-4.06 0.35-6.06 1.11l-10.52 3.96c-8.88 3.35-13.37 13.26-10.02 22.15 3.34 8.88 13.25 13.36 22.14 10.02l10.52-3.97c8.88-3.35 13.37-13.26 10.03-22.14-2.6-6.89-9.15-11.13-16.09-11.13" fill="#6aba2f"/><path d="m1118.6 2326.6c-2 0-4.05 0.36-6.04 1.11l-5.36 2.01c-8.89 3.35-13.38 13.26-10.04 22.14 3.33 8.88 13.24 13.38 22.14 10.04l5.36-2.02c8.88-3.34 13.38-13.25 10.04-22.14-2.6-6.89-9.14-11.14-16.1-11.14" fill="#6aba2f"/><path d="m2243.5 1892.2c-4.59 0-9.17 1.82-12.55 5.44l-7.83 8.37c-6.49 6.93-6.13 17.81 0.8 24.29 6.94 6.5 17.8 6.13 24.29-0.8l7.84-8.37c6.48-6.93 6.12-17.81-0.81-24.29-3.32-3.11-7.53-4.64-11.74-4.64m46.97-50.2c-4.59 0-9.17 1.83-12.56 5.45l-7.82 8.37c-6.49 6.93-6.11 17.81 0.82 24.3 6.94 6.47 17.8 6.12 24.3-0.82l7.82-8.37c6.48-6.94 6.11-17.81-0.82-24.3-3.32-3.09-7.53-4.63-11.74-4.63m46.98-50.18c-4.58 0-9.16 1.82-12.54 5.44l-7.83 8.36c-6.49 6.92-6.14 17.8 0.79 24.28 6.91 6.48 17.79 6.14 24.29-0.79l7.83-8.36c6.49-6.92 6.14-17.8-0.79-24.29-3.31-3.1-7.53-4.64-11.75-4.64m46.98-50.2c-4.58 0-9.16 1.83-12.53 5.44l-7.84 8.36c-6.49 6.92-6.14 17.8 0.79 24.29 6.91 6.47 17.8 6.15 24.29-0.79l7.83-8.36c6.5-6.93 6.15-17.81-0.79-24.29-3.31-3.11-7.53-4.65-11.75-4.65m46.98-50.19c-4.59 0-9.17 1.82-12.55 5.43l-7.82 8.36c-6.49 6.94-6.13 17.82 0.8 24.3 6.94 6.49 17.82 6.12 24.29-0.8l7.83-8.36c6.48-6.93 6.12-17.81-0.8-24.3-3.33-3.1-7.54-4.63-11.75-4.63m46.98-50.2c-4.58 0-9.16 1.83-12.54 5.44l-7.83 8.36c-6.5 6.92-6.14 17.8 0.79 24.29 6.9 6.47 17.79 6.15 24.29-0.8l7.83-8.35c6.49-6.93 6.14-17.81-0.79-24.29-3.31-3.11-7.53-4.65-11.75-4.65m46.98-50.19c-4.58 0-9.16 1.82-12.54 5.43l-7.83 8.36c-6.49 6.93-6.14 17.81 0.79 24.29 6.92 6.47 17.8 6.15 24.29-0.79l7.83-8.36c6.5-6.92 6.14-17.8-0.79-24.29-3.31-3.1-7.53-4.64-11.75-4.64m46.97-50.2c-4.59 0-9.17 1.83-12.55 5.45l-7.83 8.37c-6.48 6.93-6.11 17.81 0.82 24.29 6.94 6.48 17.81 6.13 24.3-0.82l7.82-8.36c6.49-6.94 6.12-17.82-0.82-24.3-3.32-3.1-7.53-4.63-11.74-4.63m46.99-50.2c-4.59 0-9.17 1.83-12.55 5.44l-7.83 8.37c-6.49 6.94-6.13 17.82 0.8 24.3 6.94 6.48 17.81 6.12 24.29-0.8l7.84-8.37c6.48-6.93 6.12-17.81-0.81-24.3-3.32-3.1-7.53-4.64-11.74-4.64m46.98-50.19c-4.59 0-9.17 1.82-12.55 5.44l-7.83 8.37c-6.49 6.93-6.12 17.81 0.8 24.29 6.94 6.5 17.82 6.13 24.3-0.8l7.83-8.37c6.48-6.93 6.12-17.81-0.8-24.29-3.32-3.11-7.54-4.64-11.75-4.64m46.97-50.2c-4.59 0-9.17 1.83-12.56 5.45l-7.82 8.37c-6.48 6.94-6.11 17.81 0.82 24.3 6.94 6.46 17.8 6.12 24.3-0.82l7.82-8.37c6.48-6.93 6.11-17.81-0.82-24.3-3.32-3.09-7.53-4.63-11.74-4.63m46.98-50.19c-4.59 0-9.17 1.82-12.54 5.44l-7.84 8.37c-6.48 6.93-6.12 17.81 0.8 24.29 6.94 6.5 17.83 6.14 24.3-0.8l7.83-8.37c6.49-6.93 6.13-17.81-0.8-24.29-3.32-3.11-7.54-4.64-11.75-4.64m46.99-50.2c-4.59 0-9.17 1.83-12.55 5.44l-7.83 8.37c-6.49 6.94-6.13 17.81 0.8 24.3 6.93 6.48 17.81 6.12 24.29-0.8l7.84-8.37c6.48-6.94 6.12-17.81-0.81-24.3-3.32-3.1-7.53-4.64-11.74-4.64m46.97-50.19c-4.59 0-9.17 1.82-12.56 5.45l-7.82 8.37c-6.49 6.93-6.12 17.81 0.82 24.29s17.79 6.14 24.3-0.82l7.82-8.37c6.48-6.93 6.11-17.81-0.82-24.29-3.32-3.1-7.53-4.63-11.74-4.63m46.98-50.19c-4.58 0-9.16 1.83-12.54 5.44l-7.83 8.36c-6.49 6.92-6.14 17.8 0.79 24.29 6.91 6.47 17.79 6.14 24.29-0.79l7.83-8.36c6.5-6.93 6.14-17.8-0.79-24.29-3.31-3.1-7.53-4.65-11.75-4.65m46.98-50.19c-4.58 0-9.16 1.82-12.54 5.44l-7.83 8.36c-6.49 6.92-6.14 17.8 0.79 24.28 6.92 6.48 17.81 6.15 24.29-0.79l7.83-8.36c6.5-6.92 6.15-17.8-0.79-24.28-3.31-3.11-7.53-4.65-11.75-4.65m46.98-50.2c-4.58 0-9.16 1.83-12.54 5.44l-7.83 8.36c-6.5 6.92-6.15 17.8 0.79 24.29 6.9 6.47 17.79 6.14 24.28-0.79l7.84-8.36c6.49-6.93 6.14-17.81-0.8-24.29-3.31-3.11-7.53-4.65-11.74-4.65m46.98-50.19c-4.58 0-9.16 1.82-12.54 5.44l-7.83 8.35c-6.5 6.93-6.15 17.81 0.79 24.29 6.9 6.48 17.8 6.15 24.29-0.79l7.83-8.36c6.49-6.92 6.14-17.8-0.79-24.29-3.31-3.1-7.53-4.64-11.75-4.64m46.98-50.201c-4.58 0-9.16 1.832-12.54 5.441l-7.83 8.36c-6.49 6.92-6.14 17.8 0.79 24.29 6.91 6.47 17.79 6.14 24.29-0.79l7.83-8.36c6.49-6.93 6.14-17.808-0.79-24.289-3.31-3.109-7.53-4.652-11.75-4.652m46.97-50.188c-4.59 0-9.17 1.821-12.54 5.438l-7.84 8.363c-6.48 6.938-6.12 17.816 0.8 24.297 6.95 6.5 17.83 6.133 24.3-0.797l7.83-8.371c6.49-6.93 6.13-17.813-0.8-24.301-3.32-3.101-7.54-4.629-11.75-4.629m46.99-50.199c-4.59 0-9.17 1.828-12.55 5.438l-7.83 8.371c-6.49 6.929-6.13 17.808 0.8 24.3 6.93 6.489 17.82 6.118 24.29-0.8l7.83-8.371c6.49-6.942 6.13-17.821-0.8-24.301-3.32-3.11-7.53-4.637-11.74-4.637m46.98-50.203c-4.59 0-9.17 1.832-12.55 5.441l-7.83 8.371c-6.49 6.938-6.13 17.821 0.8 24.297 6.94 6.492 17.81 6.121 24.3-0.797l7.83-8.371c6.48-6.929 6.12-17.808-0.8-24.3-3.32-3.098-7.54-4.641-11.75-4.641m46.97-50.188c-4.59 0-9.17 1.829-12.55 5.438l-7.83 8.371c-6.48 6.93-6.12 17.809 0.8 24.289 6.95 6.5 17.81 6.141 24.3-0.801l7.83-8.367c6.49-6.93 6.12-17.812-0.8-24.289-3.32-3.113-7.54-4.641-11.75-4.641m46.98-50.203c-4.59 0-9.17 1.832-12.55 5.442l-7.83 8.371c-6.48 6.937-6.12 17.82 0.8 24.301 6.95 6.488 17.83 6.117 24.3-0.801l7.83-8.371c6.49-6.93 6.13-17.809-0.8-24.301-3.32-3.098-7.54-4.641-11.75-4.641" fill="#28272b"/><path d="m2238 1892.2c-4.21 0-8.43 1.53-11.74 4.64-6.93 6.48-7.29 17.36-0.81 24.29l7.83 8.37c6.5 6.93 17.37 7.3 24.3 0.8 6.93-6.48 7.29-17.36 0.8-24.29l-7.83-8.37c-3.38-3.62-7.96-5.44-12.55-5.44m-46.98-50.2c-4.21 0-8.42 1.54-11.74 4.64-6.93 6.48-7.29 17.36-0.81 24.3l7.84 8.37c6.48 6.93 17.36 7.29 24.29 0.8s7.29-17.37 0.81-24.3l-7.84-8.37c-3.38-3.61-7.96-5.44-12.55-5.44m-46.98-50.18c-4.21 0-8.43 1.53-11.74 4.64-6.93 6.49-7.29 17.36-0.8 24.29l7.83 8.36c6.48 6.92 17.36 7.29 24.29 0.8s7.29-17.36 0.8-24.29l-7.83-8.36c-3.38-3.62-7.96-5.44-12.55-5.44m-46.98-50.2c-4.2 0-8.42 1.53-11.74 4.64-6.93 6.49-7.28 17.36-0.8 24.3l7.83 8.36c6.48 6.92 17.37 7.29 24.29 0.8 6.93-6.5 7.29-17.37 0.8-24.3l-7.83-8.36c-3.38-3.61-7.96-5.44-12.55-5.44m-46.98-50.19c-4.21 0-8.43 1.54-11.75 4.64-6.92 6.49-7.28 17.37-0.79 24.29l7.83 8.36c6.49 6.92 17.37 7.29 24.3 0.79 6.93-6.48 7.28-17.36 0.79-24.29l-7.83-8.36c-3.38-3.61-7.96-5.43-12.55-5.43m-46.98-50.2c-4.2 0-8.42 1.53-11.74 4.64-6.93 6.49-7.28 17.36-0.79 24.3l7.82 8.35c6.48 6.94 17.37 7.3 24.29 0.81 6.93-6.5 7.29-17.37 0.8-24.3l-7.83-8.36c-3.38-3.61-7.96-5.44-12.55-5.44m-46.97-50.19c-4.21 0-8.43 1.53-11.75 4.63-6.92 6.5-7.28 17.37-0.79 24.3l7.83 8.36c6.48 6.92 17.35 7.29 24.29 0.8 6.93-6.49 7.28-17.36 0.79-24.3l-7.82-8.36c-3.38-3.61-7.96-5.43-12.55-5.43m-46.99-50.2c-4.21 0-8.42 1.53-11.73 4.64-6.94 6.48-7.29 17.36-0.81 24.3l7.83 8.36c6.49 6.94 17.37 7.3 24.29 0.81 6.94-6.49 7.29-17.37 0.81-24.3l-7.83-8.37c-3.39-3.61-7.97-5.44-12.56-5.44m-46.97-50.2c-4.21 0-8.43 1.54-11.74 4.64-6.93 6.49-7.29 17.37-0.81 24.3l7.83 8.37c6.49 6.92 17.36 7.28 24.3 0.8 6.93-6.48 7.29-17.36 0.8-24.3l-7.83-8.37c-3.38-3.61-7.96-5.44-12.55-5.44m-46.98-50.19c-4.21 0-8.42 1.53-11.73 4.64-6.94 6.48-7.3 17.35-0.82 24.28l7.83 8.37c6.48 6.94 17.36 7.31 24.29 0.81 6.93-6.48 7.3-17.35 0.81-24.28l-7.82-8.37c-3.39-3.63-7.97-5.45-12.56-5.45m-46.98-50.2c-4.21 0-8.43 1.54-11.74 4.64-6.94 6.49-7.29 17.37-0.81 24.3l7.83 8.37c6.49 6.92 17.36 7.28 24.3 0.8 6.93-6.49 7.29-17.36 0.8-24.3l-7.83-8.37c-3.38-3.61-7.96-5.44-12.55-5.44m-46.98-50.19c-4.21 0-8.42 1.53-11.74 4.64-6.93 6.48-7.29 17.36-0.8 24.29l7.83 8.37c6.49 6.94 17.36 7.3 24.29 0.8 6.93-6.48 7.29-17.36 0.81-24.29l-7.84-8.37c-3.38-3.62-7.96-5.44-12.55-5.44m-46.98-50.2c-4.2 0-8.42 1.54-11.73 4.64-6.94 6.49-7.3 17.36-0.82 24.29l7.83 8.37c6.49 6.93 17.37 7.3 24.29 0.81 6.94-6.49 7.3-17.35 0.82-24.29l-7.83-8.37c-3.38-3.62-7.96-5.45-12.56-5.45m-46.98-50.19c-4.21 0-8.42 1.53-11.74 4.64-6.93 6.48-7.29 17.36-0.8 24.29l7.83 8.37c6.49 6.93 17.36 7.3 24.29 0.8 6.93-6.48 7.29-17.36 0.8-24.29l-7.83-8.37c-3.38-3.62-7.96-5.44-12.55-5.44m-46.98-50.19c-4.21 0-8.43 1.55-11.75 4.65-6.92 6.49-7.28 17.36-0.79 24.29l7.84 8.36c6.48 6.92 17.36 7.27 24.29 0.79 6.93-6.49 7.28-17.37 0.79-24.29l-7.83-8.36c-3.38-3.61-7.96-5.44-12.55-5.44m-46.98-50.19c-4.21 0-8.42 1.53-11.74 4.64-6.93 6.49-7.28 17.36-0.79 24.29l7.82 8.36c6.49 6.93 17.36 7.3 24.29 0.8 6.93-6.49 7.29-17.36 0.8-24.29l-7.83-8.36c-3.38-3.62-7.96-5.44-12.55-5.44m-46.98-50.2c-4.21 0-8.43 1.54-11.75 4.65-6.92 6.48-7.28 17.36-0.79 24.29l7.83 8.36c6.49 6.92 17.37 7.27 24.3 0.79 6.93-6.49 7.28-17.37 0.79-24.29l-7.83-8.36c-3.38-3.61-7.96-5.44-12.55-5.44m-46.98-50.19c-4.2 0-8.43 1.54-11.74 4.64-6.93 6.49-7.28 17.37-0.8 24.29l7.84 8.36c6.49 6.93 17.36 7.29 24.29 0.79 6.93-6.48 7.28-17.36 0.8-24.29l-7.84-8.35c-3.38-3.62-7.96-5.44-12.55-5.44m-46.97-50.201c-4.21 0-8.43 1.531-11.75 4.64-6.93 6.493-7.28 17.361-0.79 24.301l7.82 8.36c6.47 6.92 17.36 7.29 24.3 0.8 6.93-6.5 7.28-17.37 0.79-24.3l-7.82-8.36c-3.38-3.609-7.96-5.441-12.55-5.441m-46.98-50.188c-4.2 0-8.42 1.528-11.73 4.629-6.94 6.488-7.3 17.36-0.82 24.289l7.83 8.371c6.48 6.93 17.37 7.309 24.29 0.809 6.93-6.481 7.3-17.348 0.82-24.289l-7.83-8.36c-3.39-3.628-7.97-5.449-12.56-5.449m-46.98-50.199c-4.21 0-8.43 1.527-11.74 4.637-6.94 6.48-7.29 17.359-0.81 24.301l7.83 8.371c6.49 6.918 17.36 7.289 24.3 0.8 6.93-6.492 7.29-17.371 0.8-24.3l-7.83-8.371c-3.38-3.61-7.96-5.438-12.55-5.438m-46.98-50.203c-4.2 0-8.42 1.543-11.73 4.641-6.94 6.492-7.3 17.359-0.82 24.289l7.83 8.371c6.49 6.929 17.36 7.3 24.29 0.808 6.93-6.476 7.3-17.347 0.81-24.289l-7.82-8.367c-3.39-3.621-7.97-5.453-12.56-5.453m-46.98-50.188c-4.2 0-8.42 1.528-11.73 4.641-6.94 6.477-7.3 17.348-0.82 24.289l7.83 8.359c6.48 6.95 17.36 7.309 24.29 0.809 6.94-6.48 7.3-17.348 0.82-24.277l-7.83-8.371c-3.38-3.621-7.96-5.45-12.56-5.45m-46.98-50.203c-4.21 0-8.42 1.543-11.74 4.641-6.93 6.492-7.29 17.371-0.8 24.301l7.83 8.371c6.48 6.918 17.36 7.289 24.29 0.801 6.93-6.481 7.29-17.364 0.8-24.301l-7.83-8.371c-3.38-3.61-7.96-5.442-12.55-5.442" fill="#6aba2f"/><path d="m2987.4 1997.8c100.43 467.83-257.38 911.48-737.6 911.48-473.06 0-837.49-433.73-737.62-911.48 90.23-433.4 524.65-697.83 524.65-840.98l0.02-159.73h425.91v159.73c0 143.15 434.44 407.58 524.64 840.98" fill="#dfdfdf"/><path d="m2870.9 2128.5c-14.68 0-26.58 11.92-26.58 26.62 0 327.77-266.69 594.45-594.47 594.45-14.7 0-26.62 11.91-26.62 26.62 0 14.7 11.92 26.62 26.62 26.62 357.13 0 647.68-290.54 647.68-647.69 0-14.7-11.9-26.62-26.63-26.62" fill="#f3f3f3"/><path d="m2462.8 705.93c0-29.41-23.83-53.239-53.24-53.239h-319.45c-29.41 0-53.24 23.829-53.24 53.239v246.8h425.93v-246.8" fill="#323136"/><path d="m2381.2 603.74c-6.87-22.34-27.51-37.59-50.89-37.59h-160.93c-23.37 0-44.02 15.25-50.89 37.59l-15.06 48.942h292.83l-15.06-48.942" fill="#28272b"/><path d="m2036.8 709.19h425.93v22.559h-425.93z" fill="#4f4e56"/><path d="m2036.8 777h425.93v22.559h-425.93z" fill="#4f4e56"/><path d="m2036.8 844.79h425.93v22.551h-425.93z" fill="#4f4e56"/><path d="m1896 2523.4c-155.3-188.57-283.96-809.74 275.07-858.55-66.54 148.65 2.24 279.55-39.92 476.98-42.15 197.44-235.15 381.57-235.15 381.57" fill="#6aba2f"/><path d="m2384 2523.4c57.32-80.19 93.18-350.53-122.01-459.23-68.78 93.19-55.46 354.95 122.01 459.23" fill="#6aba2f"/><path d="m2670.2 2186.2c-164.17-13.31-420.39-201.88-420.39-630.04 400.43 88.73 420.39 630.04 420.39 630.04" fill="#6aba2f"/><path d="m1904.8 2361.4s0.09-16.41 0.26-45.1c1.01-14.31 2.09-31.67 4.03-51.49 2.92-19.75 5.23-42.14 10.6-66.13 4.34-24.14 11.23-49.85 18.7-76.9 7.81-26.99 17.4-55 28.02-83.72 5.74-14.21 11.56-28.65 17.46-43.26 6.45-14.37 12.98-28.91 19.57-43.57 13.9-28.98 28.74-58.05 44.63-86.56 31.88-56.96 67.6-111.68 104.01-160.69 18.72-24.7 35.59-49.08 49.74-75.02 14.02-25.24 24.31-50.59 32.94-74.25 16.27-47.76 23.1-89.54 25.55-118.92 1.36-14.71 1.66-26.37 1.63-34.42 0.06-7.92-0.28-12.69-0.28-12.69l-26.55 2.1s0.35 3.4 0.44 10.85c0.13 7.32 0.05 18.24-0.96 32.14-1.82 27.75-7.59 67.61-22.27 113.38-7.83 22.64-17.17 47.02-30.12 71.32-6.46 12.22-13.24 23.99-21.21 36.39-8.34 12.13-16.84 24.52-25.49 37.15-35.53 50.74-70.05 107.11-100.59 165.54-15.24 29.25-29.37 59.01-42.56 88.64-6.21 14.98-12.39 29.83-18.47 44.53-5.53 14.89-10.99 29.61-16.36 44.08-9.9 29.26-18.73 57.74-25.83 85.15-6.74 27.46-12.93 53.49-16.61 77.88-4.71 24.24-6.37 46.83-8.74 66.7-1.37 19.98-1.97 37.45-2.57 51.77 0.65 28.71 1.03 45.1 1.03 45.1" fill="#429a39"/><path d="m2528.2 1979.8s-9.41-12.2-27.36-32.49c-8.9-10.15-19.7-22.49-32.1-36.63-12.26-14.24-26.19-30.14-40.59-48.14-14.52-17.87-29.64-37.7-44.33-59.49-14.76-21.72-29.8-45-43.1-70.24-6.75-12.6-13.73-25.29-19.37-38.86-6.03-13.36-12.37-26.75-17.07-40.97-10.67-27.83-19.24-56.99-25.85-86.48-6.99-29.47-10.34-59.57-13.44-89.16-0.96-29.75-2.21-58.87-1.42-88.05 0.14-57.86 0.28-111.84 0.38-158.12-0.51-92.56-0.86-154.26-0.86-154.26h-26.62s-0.33 61.7-0.85 154.26c0.12 46.28 0.25 100.26 0.38 158.12-0.24 28.69 1.58 59.27 3.25 90.2 3.79 30.75 7.93 61.95 15.78 92.48 7.41 30.52 16.9 60.65 29.17 89 5.42 14.48 12.42 28.11 19.14 41.68 6.34 13.72 13.98 26.53 21.36 39.2 14.74 25.32 30.55 48.85 46.99 69.98 16.15 21.33 32.57 40.56 48.18 57.78 31.09 34.65 59.45 60.95 78.62 79.92 19.35 18.78 29.71 30.27 29.71 30.27" fill="#429a39"/><path d="m2055.1 1030.4h386.56v126.45h-386.56z" fill="#28272b"/><path d="m2016.9 923.88h465.87v106.48h-465.87z" fill="#4f4e56"/><g clip-path="url(#b)"><path d="m2330.3 566.14h-80.47l80.46 7e-3c23.38 0 44.02 15.25 50.89 37.59l15.06 48.942h-146.41v0.011h159.72c29.41 0 53.24 23.829 53.24 53.239v217.95h19.97v106.48-106.48h-19.97v-217.95c0-29.418-23.83-53.27-53.24-53.27h-13.3l-15.05-48.922c-6.88-22.328-27.53-37.597-50.9-37.597" fill="url(#a)"/></g><path d="m2409.5 652.69h-159.72v56.5h212.96v-3.261c0-29.41-23.83-53.239-53.24-53.239m53.24 79.059h-212.96v45.25h212.96v-45.25m0 67.809h-212.96v45.23h212.96v-45.23m0 67.781h-212.96v56.539h212.96v-56.539" fill="#4b4a51"/><path d="m2330.3 566.15h-80.46v86.532h146.41l-15.06-48.942c-6.87-22.34-27.51-37.59-50.89-37.59" fill="#3c3a40"/><path d="m2249.8 709.19h212.96v22.559h-212.96z" fill="#686671"/><path d="m2249.8 777h212.96v22.559h-212.96z" fill="#686671"/><path d="m2249.8 844.79h212.96v22.551h-212.96z" fill="#686671"/><g clip-path="url(#d)"><path d="m2902.5 1765.7c37.37 71.3 67.55 148.57 84.93 232.08 0.96 4.49 1.89 8.99 2.77 13.47-0.4-2.2-0.82-4.39-1.25-6.57-0.47-2.33-1.02-4.6-1.52-6.9-17.38-83.51-47.56-160.78-84.93-232.08" fill="url(#a)"/></g><g clip-path="url(#c)"><path d="m2937.5 2465.2c-49.53 109.1-124.5 205.29-218.05 280.01 93.18-74.25 168.41-170.13 218.05-280.01m-684.58 444.01h-0.03 0.03m-0.55 0h-0.17 0.17m-0.58 0c-0.09 0.01-0.22 0.01-0.31 0.01 0.1 0 0.2 0 0.31-0.01m-0.64 0.01h-0.4 0.4m-0.64 0h-0.66 0.66" fill="url(#a)"/></g><path d="m2462.8 1030.4h-212.96 191.89v126.45h-178.14c0.12 21.44 0.26 46.52 0.41 74.4-0.1 46.28-0.24 100.26-0.38 158.12-0.79 29.18 0.46 58.3 1.42 88.05 2.98 28.47 6.2 57.41 12.66 85.81 373.49 107.06 392.53 622.97 392.53 622.97-164.17-13.31-420.39-201.88-420.39-630.04 0.51 0.12 1.05 0.24 1.56 0.35-0.54-2.48-1.06-4.96-1.56-7.45v535.06c3.72-7.29 7.79-13.97 12.21-19.95 215.19 108.7 179.33 379.04 122.01 459.23-66.09-38.84-109.42-99.52-134.22-165.2v391.39c327.78 0 594.47-266.68 594.47-594.45 0-14.7 11.9-26.62 26.58-26.62 14.73 0 26.63 11.92 26.63 26.62 0 357.15-290.55 647.69-647.68 647.69v106.48h0.66 0.24 0.4 0.33c0.09 0 0.22 0 0.31-0.01h0.41 0.17 0.52 0.03c176.37-0.7 338.43-61.93 466.53-164 93.55-74.72 168.52-170.91 218.05-280.01 42.74-94.61 66.51-199.59 66.51-310.15 0-14.94-0.54-29.75-1.4-44.47-0.29-4.9-0.73-9.72-1.12-14.57-0.76-9.66-1.64-19.28-2.72-28.84-0.71-5.91-1.44-11.77-2.27-17.61-1.07-7.65-2.29-15.24-3.59-22.81-0.88-5.19-1.75-10.38-2.69-15.54-0.88-4.48-1.81-8.98-2.77-13.47-17.38-83.51-47.56-160.78-84.93-232.08-2.13-4.07-4.28-8.11-6.46-12.14-157.77-291.89-433.25-482.77-433.25-596.76v-126.45" fill="#ebebeb"/><path d="m2870.9 2128.5c-14.68 0-26.58 11.92-26.58 26.62 0 327.77-266.69 594.45-594.47 594.45v53.24c357.13 0 647.68-290.54 647.68-647.69 0-14.7-11.9-26.62-26.63-26.62" fill="#f3f3f3"/><path d="m2262 2064.1c-4.42 5.98-8.49 12.66-12.21 19.95v274.08c24.8 65.68 68.13 126.36 134.22 165.2 57.32-80.19 93.18-350.53-122.01-459.23" fill="#85c927"/><path d="m2249.8 1556.1c0 428.16 256.22 616.73 420.39 630.04 0 0-19.04-515.91-392.53-622.97 0.25 1.12 0.51 2.24 0.78 3.35 6.61 29.49 15.18 58.65 25.85 86.48 4.7 14.22 11.04 27.61 17.07 40.97 5.64 13.57 12.62 26.26 19.37 38.86 13.3 25.24 28.34 48.52 43.1 70.24 14.69 21.79 29.81 41.62 44.33 59.49 14.4 18 28.33 33.9 40.59 48.14 12.4 14.14 23.2 26.48 32.1 36.63 17.95 20.29 27.36 32.49 27.36 32.49s-10.36-11.49-29.71-30.27c-19.17-18.97-47.53-45.27-78.62-79.92-15.61-17.22-32.03-36.45-48.18-57.78-16.44-21.13-32.25-44.66-46.99-69.98-7.38-12.67-15.02-25.48-21.36-39.2-6.72-13.57-13.72-27.2-19.14-41.68-12.27-28.35-21.76-58.48-29.17-89-1.33-5.16-2.55-10.34-3.68-15.54-0.51-0.11-1.05-0.23-1.56-0.35" fill="#85c927"/><path d="m2263.6 1156.8h-13.75v392.21c0.5 2.49 1.02 4.97 1.56 7.45 1.13 5.2 2.35 10.38 3.68 15.54 7.41 30.52 16.9 60.65 29.17 89 5.42 14.48 12.42 28.11 19.14 41.68 6.34 13.72 13.98 26.53 21.36 39.2 14.74 25.32 30.55 48.85 46.99 69.98 16.15 21.33 32.57 40.56 48.18 57.78 31.09 34.65 59.45 60.95 78.62 79.92 19.35 18.78 29.71 30.27 29.71 30.27s-9.41-12.2-27.36-32.49c-8.9-10.15-19.7-22.49-32.1-36.63-12.26-14.24-26.19-30.14-40.59-48.14-14.52-17.87-29.64-37.7-44.33-59.49-14.76-21.72-29.8-45-43.1-70.24-6.75-12.6-13.73-25.29-19.37-38.86-6.03-13.36-12.37-26.75-17.07-40.97-10.67-27.83-19.24-56.99-25.85-86.48-0.27-1.11-0.53-2.23-0.78-3.35-6.46-28.4-9.68-57.34-12.66-85.81-0.96-29.75-2.21-58.87-1.42-88.05 0.14-57.86 0.28-111.84 0.38-158.12-0.15-27.88-0.29-52.96-0.41-74.4" fill="#5fb033"/><path d="m2441.7 1030.4h-191.89v126.45h191.89v-126.45" fill="#3c3a40"/><path d="m2482.7 923.88h-232.93v106.48h232.93v-106.48" fill="#686671"/><path d="m3721.4 718.33c0-190.32-154.31-344.63-344.64-344.63-190.34 0-344.63 154.31-344.63 344.63 0 190.33 154.29 344.64 344.63 344.64 190.33 0 344.64-154.31 344.64-344.64" fill="#28272b"/><path d="m3382.5 517.97h-63.13v52.429h63.13v-52.429" fill="#f3f3f3"/><path d="m3400.5 505.32h-99.04v25.289h99.04v-25.289" fill="#f3f3f3"/><path d="m3562.6 849.61c0-31.328-25.38-56.738-56.71-56.738-31.36 0-56.74 25.41-56.74 56.738 0 31.332 25.38 56.731 56.74 56.731 31.33 0 56.71-25.399 56.71-56.731" fill="#f3f3f3"/><path d="m3505.9 915.63c4.7 0 9.29-0.488 13.73-1.438l-0.02 8e-3c-7.4 12.16-13.71 38-13.71 50.563 0-12.563-6.36-38.403-13.75-50.563l-0.01-8e-3c4.43 0.95 9.01 1.438 13.76 1.438" fill="#f3f3f3"/><path d="m3571.9 849.61c0-4.699-0.47-9.308-1.45-13.738h0.04c12.14 7.41 38.01 13.738 50.54 13.738-12.53 0-38.4 6.34-50.54 13.743l-0.04 0.019c0.98-4.449 1.45-9.062 1.45-13.762" fill="#f3f3f3"/><path d="m3505.9 783.59c-4.75 0-9.33 0.512-13.76 1.461l0.01-0.039c7.39-12.141 13.75-37.992 13.75-50.543 0 12.551 6.31 38.402 13.71 50.543l0.02 0.039c-4.44-0.949-9.03-1.461-13.73-1.461" fill="#f3f3f3"/><path d="m3439.9 849.61c0 4.7 0.5 9.313 1.44 13.762l-0.01-0.019c-12.16-7.403-38.03-13.743-50.58-13.743 12.55 0 38.42-6.328 50.58-13.738h0.01c-0.94 4.43-1.44 9.039-1.44 13.738" fill="#f3f3f3"/><path d="m3459.2 896.3c3.34 3.328 6.94 6.219 10.74 8.699h-0.02c-13.81 3.359-36.56 17.172-45.44 26.039 8.88-8.867 22.67-31.648 26.02-45.457v-0.023c2.47 3.8 5.37 7.41 8.7 10.742" fill="#f3f3f3"/><path d="m3552.6 896.3c3.35-3.332 6.25-6.942 8.71-10.742v0.023c3.33 13.809 17.15 36.59 26.02 45.457-8.87-8.867-31.63-22.68-45.44-26.039h-0.03c3.81-2.48 7.42-5.371 10.74-8.699" fill="#f3f3f3"/><path d="m3552.6 802.93c-3.32-3.34-6.93-6.219-10.74-8.711h0.03c13.81-3.348 36.57-17.137 45.44-26.028-8.87 8.891-22.69 31.618-26.02 45.481-2.46-3.813-5.36-7.41-8.71-10.742" fill="#f3f3f3"/><path d="m3459.2 802.93c-3.33 3.332-6.23 6.929-8.7 10.742-3.35-13.863-17.14-36.59-26.02-45.481 8.88 8.891 31.62 22.68 45.44 26.028h0.02c-3.8 2.492-7.4 5.371-10.74 8.711" fill="#f3f3f3"/><path d="m3447.5 799.62-1.93 0.961-0.48-0.961z" fill="#fff"/><path d="m3459.2 802.93c-3.33 3.332-6.23 6.929-8.7 10.742-0.87-3.582-2.44-7.75-4.44-12.133l9.07-1.918h0.58l-0.43-0.051 3.38-0.711-0.05 0.762h4.43c-1.28 1.078-2.62 2.098-3.84 3.309" fill="#fff"/><path d="m3459 793.96-6.06 2.988 0.73-9.199c1.89 0.969 3.78 1.84 5.64 2.641l-0.31 3.57" fill="#fff"/><path d="m3519.6 785.05c-3.16-0.68-6.44-1.051-9.75-1.25l2.01-17.223c2.22 7.133 4.9 13.801 7.72 18.434l0.02 0.039" fill="#f3f3f3"/><path d="m3508.5 753.85c0.44 1.937 0.88 3.886 1.4 5.839h-8.1c0.51-1.953 0.98-3.902 1.39-5.839h5.31" fill="#fff"/><path d="m3528.1 628.21 5-42.742h-60.68l2.87 0.222-3.1 39.68h55.91zm-59.24 39.988h54.23v2.891l4.64-39.879h-55.99zm-57.14-82.73 2.87 0.113-1.53 39.789h53.31l3.09-39.902zm51.29 82.73 2.91-36.988h-53.12l-1.44 36.988zm-53.31 42.84h49.98l2.88-37.008h-51.41zm-1.68 42.813h48.32l2.88-36.981h-49.76zm-54.13-168.38v39.902h53.33l1.54-39.902zm-5.82 174.22h-48.07l1.53 39.797-2.96 0.133h49.5zm0-42.82h-49.76l1.44 36.981h48.32zm0-42.84h-51.43l1.45 37.008h49.98zm0-42.82h-53.1l1.45 36.988h51.65zm0-45.742h-54.88l1.55 39.902h53.33zm-105.34 131.4 2.89 36.981h48.29l-1.45-36.981zm48.07-42.84h-51.41l2.88 37.008h49.96zm-1.67-42.82h-53.08l2.9 36.988h51.63zm-56.65-45.742 3.11 39.902h53.31l-1.55-39.789 2.87-0.113zm-58.28 45.742 4.67 39.898v-2.91h54.22l-2.88-36.988zm55.32-45.742h-60.69l5.02 42.801v-2.899h55.9l-3.09-39.68zm-45.66 128.46v-2.891h52.57l-2.87-37.008h-54.34zm5.04 42.859v-2.937h50.88l-2.89-36.981h-52.68zm5.02 42.832h49.41l-3.1-39.93h-51.01zm52.32 0h49.46l-1.55-39.93h-48.07l3.08 39.68zm107.65-131.42h51.64l1.44-36.988h-53.08zm0 42.84h49.97l1.43-37.008h-51.4zm0 42.813h48.3l1.45-36.981h-49.75zm0 45.769h49.48l-2.97-0.133 1.55-39.797h-48.06zm164.17-88.582v2.84l4.67-39.848h-54.33l-2.91 37.008zm6.25 69.012c-4.32-7.922-8.19-20.852-10.26-31.871l3.66-31.309h-52.65l-2.9 36.981h34.37c-0.44 1.957-0.93 3.886-1.47 5.839h-33.34l-1.87 23.848c-1.83-0.84-3.72-1.789-5.61-2.777l1.63-21.071h-48.08l-1.56 39.93h31.61c2.75 5.328 5 10.57 6.13 14.859v2.61h-265.61l-29.16-249.11h403.55l-25.02 213.76-3.42-1.691" fill="#f3f3f3"/><path d="m4052.2 2471.6c0-190.33-154.32-344.62-344.65-344.62-190.32 0-344.63 154.29-344.63 344.62s154.31 344.65 344.63 344.65c190.33 0 344.65-154.32 344.65-344.65" fill="#28272b"/><path d="m3707.5 2370.6c-55.75 0-101.07 45.34-101.07 101.07 0 55.74 45.32 101.08 101.07 101.08 55.7 0 101.06-45.34 101.06-101.08 0-55.73-45.36-101.07-101.06-101.07zm-0.02 245.15c-79.56 0-144.06-64.52-144.06-144.08s64.5-144.06 144.06-144.06c79.55 0 144.06 64.5 144.06 144.06s-64.51 144.08-144.06 144.08" fill="#f3f3f3"/><path d="m3750.7 2456.2c-8.51 0-15.39 6.89-15.39 15.39s6.88 15.4 15.39 15.4 15.4-6.9 15.4-15.4-6.89-15.39-15.4-15.39zm-87.77 0c-8.52 0-15.42 6.89-15.42 15.39s6.9 15.4 15.42 15.4c8.49 0 15.38-6.9 15.38-15.4s-6.89-15.39-15.38-15.39zm44.63 110.31c-52.35 0-94.93-42.58-94.93-94.92s42.58-94.92 94.93-94.92c52.32 0 94.91 42.58 94.91 94.92s-42.59 94.92-94.91 94.92" fill="#f3f3f3"/><path d="m3707.5 2639.3c11.99 0 23.63-1.28 34.91-3.68l-0.02 0.01c-18.81 30.9-34.89 96.53-34.89 128.37 0-31.84-16.06-97.47-34.87-128.37l-0.02-0.01c11.26 2.4 22.92 3.68 34.89 3.68" fill="#f3f3f3"/><path d="m3875.2 2471.6c0-11.96-1.26-23.64-3.64-34.89v0.01c30.89 18.81 96.52 34.88 128.36 34.88-31.84 0-97.47 16.08-128.35 34.91h-0.01c2.38-11.26 3.64-22.94 3.64-34.91" fill="#f3f3f3"/><path d="m3707.5 2304c-11.97 0-23.63 1.28-34.89 3.68l0.02-0.03c18.81-30.88 34.87-96.51 34.87-128.37 0 31.86 16.08 97.49 34.89 128.37l0.02 0.03c-11.28-2.4-22.92-3.68-34.91-3.68" fill="#f3f3f3"/><path d="m3539.9 2471.6c0 11.97 1.27 23.65 3.66 34.91h-0.03c-30.86-18.83-96.49-34.91-128.37-34.91 31.88 0 97.51-16.07 128.37-34.88l0.03-0.01c-2.39 11.25-3.66 22.93-3.66 34.89" fill="#f3f3f3"/><path d="m3589 2590.2c8.47 8.47 17.62 15.81 27.26 22.08-35.16 8.55-92.92 43.58-115.45 66.11 22.53-22.53 57.56-80.3 66.09-115.45 6.28 9.65 13.62 18.8 22.1 27.26" fill="#f3f3f3"/><path d="m3826 2590.2c8.48-8.46 15.82-17.61 22.1-27.26 8.55 35.15 43.56 92.92 66.1 115.45-22.54-22.53-80.3-57.57-115.45-66.11 9.63-6.27 18.77-13.61 27.25-22.08" fill="#f3f3f3"/><path d="m3826 2353.1c-8.48-8.48-17.62-15.83-27.25-22.1 35.15-8.52 92.91-43.57 115.45-66.09-22.54 22.52-57.57 80.3-66.1 115.44v0.02c-6.28-9.65-13.62-18.8-22.1-27.27" fill="#f3f3f3"/><path d="m3589 2353.1c-8.48 8.47-15.82 17.62-22.1 27.27v-0.02c-8.53-35.14-43.56-92.92-66.09-115.44 22.53 22.52 80.29 57.57 115.45 66.09-9.64 6.27-18.79 13.62-27.26 22.1" fill="#f3f3f3"/><path d="m1053.5 1555.5c0-190.33-154.31-344.64-344.65-344.64-190.33 0-344.63 154.31-344.63 344.64 0 190.32 154.3 344.64 344.63 344.64 190.34 0 344.65-154.32 344.65-344.64" fill="#28272b"/><path d="m695.62 1309h-80.195v21.89h80.195v-21.89" fill="#f3f3f3"/><path d="m655.51 1576.4c-11.078 0-20.09 9.01-20.09 20.09 0 11.11 9.012 20.1 20.09 20.1 11.093 0 20.109-8.99 20.109-20.1 0-11.08-9.016-20.09-20.109-20.09zm0 48.39c-15.625 0-28.293-12.66-28.293-28.3 0-15.61 12.668-28.3 28.293-28.3 15.64 0 28.301 12.69 28.301 28.3 0 15.64-12.661 28.3-28.301 28.3" fill="#f3f3f3"/><path d="m660.72 1568.8c1.644 0.31 3.226 0.79 4.765 1.38-1.539-0.59-3.125-1.06-4.765-1.38" fill="#fff"/><path d="m645.54 1570.1c1.535-0.59 3.125-1.07 4.777-1.38-1.648 0.32-3.242 0.79-4.777 1.38" fill="#fff"/><path d="m655.51 1561.3c-3.582 0-6.973 0.69-10.235 1.69l-9.078-243.01h38.614l-9.047 243.01c-3.254-1-6.661-1.69-10.254-1.69" fill="#f3f3f3"/><path d="m655.51 1624.8c-2.032 0-4.008-0.23-5.922-0.65 1.914 0.43 3.89 0.65 5.922 0.65" fill="#fff"/><path d="m661.25 1624.2c-1.852 0.38-3.777 0.59-5.742 0.59 1.965 0 3.89-0.21 5.742-0.59" fill="#fff"/><path d="m644.07 1622.4c1.715 0.76 3.52 1.35 5.383 1.78-1.875-0.41-3.668-1.02-5.383-1.78" fill="#fff"/><path d="m661.45 1624.2c1.789-0.38 3.516-0.92 5.156-1.62-1.64 0.7-3.367 1.26-5.156 1.62" fill="#fff"/><path d="m640.76 1636.5c0.488-2.56 1.019-5.01 1.582-7.35 4.078 1.64 8.508 2.61 13.168 2.61 4.531 0 8.843-0.93 12.832-2.5 0.547 2.28 1.086 4.68 1.578 7.19 1.23 5.97 2.297 12.47 3.086 19.32 0.887 6.86 1.394 14.09 1.332 21.57-0.078 7.49-0.902 15.22-1.86 23.08-0.953 7.86-1.835 15.85-2.441 23.84-1.211 15.96-2.266 31.93-3.762 46.91-1.304 14.97-2.765 28.95-4.007 40.94-2.547 23.95-4.692 39.92-4.692 39.92h-3.613s-2.195-15.96-4.848-39.9c-1.265-11.97-2.808-25.94-4.179-40.92-1.547-14.96-2.665-30.92-3.926-46.89-0.653-7.99-1.574-15.97-2.555-23.82-0.984-7.86-1.824-15.59-1.965-23.09-0.074-7.47 0.387-14.71 1.262-21.57 0.766-6.86 1.801-13.35 3.008-19.34" fill="#f3f3f3"/><path d="m773.69 1545.2c-24.254 16.61-32.235 26.2-57.782 36.93-8.812 3.83-17.793 7.06-25.672 9.38-1.304-9.07-6.019-16.95-12.871-22.42 5.84-5.55 13.145-11.74 20.914-17.5 23.5-17.85 164.65-79.01 177.84-84.42l1.824 3.14c-20.136 15.57-52.062 39.01-104.26 74.89" fill="#fff"/><path d="m631.2 1582.3c0.942-1.6 2.016-3.09 3.242-4.47-1.214 1.38-2.312 2.87-3.242 4.47" fill="#fff"/><path d="m638.74 1573.9c-1.515 1.12-2.918 2.4-4.168 3.79 1.266-1.4 2.653-2.67 4.168-3.79" fill="#fff"/><path d="m627.55 1593.3c0.445-3.94 1.683-7.64 3.586-10.93-1.879 3.27-3.141 6.99-3.586 10.93" fill="#fff"/><path d="m620.82 1591.5c-2.316-0.68-4.699-1.42-7.171-2.27-5.778-1.95-11.922-4.28-18.27-7.03-6.371-2.68-12.871-5.85-19.324-9.68-6.426-3.82-12.711-8.41-19.035-13.18-6.317-4.78-12.786-9.53-19.383-14.07-13.199-9.09-26.504-17.98-38.703-26.79-12.285-8.66-23.641-16.94-33.367-24.02-19.458-14.22-32.204-24.08-32.204-24.08l1.809-3.14s14.91 6.12 36.957 15.83c10.988 4.92 23.867 10.6 37.484 16.92 13.715 6.17 28.094 13.22 42.536 20.12 7.23 3.46 14.593 6.67 21.882 9.75 7.297 3.09 14.411 6.23 20.95 9.9 6.515 3.68 12.535 7.71 18.035 11.9 5.547 4.11 10.64 8.26 15.211 12.31 1.98 1.72 3.824 3.42 5.586 5.08-6.899 5.45-11.664 13.36-12.993 22.45" fill="#f3f3f3"/><path d="m835.9 1389.1h-57.953v15.8h57.953v-15.8" fill="#f3f3f3"/><path d="m806.92 1582.3c-8.012 0-14.52 6.52-14.52 14.53 0 8.02 6.508 14.51 14.52 14.51 8.02 0 14.531-6.49 14.531-14.51 0-8.01-6.511-14.53-14.531-14.53zm0 34.98c-11.281 0-20.441-9.17-20.441-20.45 0-11.29 9.16-20.44 20.441-20.44 11.301 0 20.449 9.15 20.449 20.44 0 11.28-9.148 20.45-20.449 20.45" fill="#f3f3f3"/><path d="m810.68 1576.8c1.179 0.23 2.332 0.57 3.441 1-1.109-0.43-2.262-0.76-3.441-1" fill="#fff"/><path d="m799.71 1577.8c1.113-0.43 2.258-0.77 3.453-1-1.187 0.24-2.34 0.57-3.453 1" fill="#fff"/><path d="m806.92 1571.4c-2.582 0-5.027 0.5-7.398 1.24l-6.559-175.61h27.902l-6.539 175.61c-2.359-0.73-4.808-1.24-7.406-1.24" fill="#f3f3f3"/><path d="m806.92 1617.3c-1.469 0-2.902-0.17-4.281-0.47 1.379 0.3 2.812 0.47 4.281 0.47" fill="#fff"/><path d="m811.06 1616.9c-1.332 0.28-2.723 0.43-4.141 0.43 1.418 0 2.809-0.15 4.141-0.43" fill="#fff"/><path d="m798.65 1615.5c1.231 0.53 2.543 0.96 3.887 1.27-1.351-0.31-2.656-0.74-3.887-1.27" fill="#fff"/><path d="m811.21 1616.8c1.281-0.28 2.539-0.67 3.731-1.18-1.192 0.51-2.45 0.9-3.731 1.18" fill="#fff"/><path d="m796.26 1625.7c0.343-1.85 0.73-3.62 1.14-5.32 2.95 1.2 6.153 1.89 9.516 1.89 3.273 0 6.387-0.68 9.266-1.81 0.41 1.67 0.789 3.39 1.14 5.19 0.895 4.33 1.645 9.01 2.239 13.97 0.632 4.96 1.003 10.18 0.957 15.58-0.055 5.42-0.657 11.02-1.344 16.68-0.696 5.68-1.324 11.47-1.77 17.23-0.883 11.53-1.621 23.09-2.711 33.9-0.941 10.82-2.004 20.92-2.898 29.58-1.848 17.29-3.383 28.84-3.383 28.84h-2.613s-1.598-11.53-3.512-28.83c-0.902-8.66-2.035-18.74-3.016-29.56-1.113-10.81-1.914-22.35-2.835-33.88-0.477-5.77-1.141-11.54-1.848-17.22s-1.313-11.27-1.414-16.68c-0.063-5.41 0.281-10.63 0.918-15.59 0.547-4.95 1.289-9.65 2.168-13.97" fill="#f3f3f3"/><path d="m822.13 1583.3c-0.895-1-1.891-1.92-2.973-2.74 1.082 0.82 2.071 1.73 2.973 2.74" fill="#fff"/><path d="m824.57 1586.7c1.379 2.37 2.246 5.04 2.555 7.89-0.309-2.85-1.199-5.53-2.555-7.89" fill="#fff"/><path d="m822.21 1583.4c0.883 0.99 1.66 2.08 2.328 3.23-0.668-1.15-1.449-2.24-2.328-3.23" fill="#fff"/><path d="m944.36 1523.1c-7.023 5.11-15.226 11.11-24.113 17.35-8.812 6.36-18.414 12.8-27.953 19.36-4.777 3.28-9.445 6.71-14.02 10.17-4.562 3.45-9.093 6.76-13.742 9.52-4.664 2.76-9.363 5.05-13.976 6.99-4.579 1.99-9.004 3.69-13.196 5.08-1.851 0.63-3.636 1.19-5.359 1.69-0.941-6.54-4.352-12.23-9.305-16.19 1.301-1.23 2.66-2.48 4.121-3.74 3.309-2.94 6.993-5.94 10.996-8.9 3.977-3.03 8.332-5.95 13.036-8.61 4.714-2.64 9.867-4.91 15.14-7.15 5.27-2.22 10.574-4.55 15.793-7.04 10.449-4.97 20.832-10.08 30.758-14.55 9.852-4.54 19.133-8.66 27.082-12.22 15.922-7.01 26.703-11.43 26.703-11.43l1.309 2.27s-9.219 7.12-23.274 17.4" fill="#f3f3f3"/><path d="m789.35 1586.6c0.672-1.16 1.465-2.22 2.34-3.23-0.875 1.01-1.668 2.07-2.34 3.23" fill="#fff"/><path d="m794.79 1580.5c-1.094 0.81-2.098 1.73-3.016 2.75 0.926-1.02 1.922-1.94 3.016-2.75" fill="#fff"/><path d="m786.71 1594.5c0.324-2.85 1.219-5.52 2.598-7.9-1.371 2.37-2.274 5.05-2.598 7.9" fill="#fff"/><path d="m773.69 1545.2c-24.254 16.61-32.235 26.2-57.782 36.93-8.812 3.83-17.793 7.06-25.672 9.38-1.304-9.07-6.019-16.95-12.871-22.42 5.84-5.55 13.145-11.74 20.914-17.5 23.5-17.85 164.65-79.01 177.84-84.42l1.824 3.14c-20.136 15.57-52.062 39.01-104.26 74.89" fill="#f3f3f3"/><path d="m732.23 1541.6c5.218 2.49 10.546 4.82 15.816 7.04 4.363 1.86 8.594 3.8 12.621 5.88-8.617 6.4-15.351 11.69-23.266 16.64l-1.652-1.21c-4.562-3.46-9.238-6.89-14.012-10.17-5.921-4.08-11.796-8.09-17.578-12.08 4.821-2.96 11.324-6.5 18.969-10.45 3.035 1.46 6.047 2.89 9.102 4.35" fill="#f3f3f3"/><path d="m759.47 1564.1c2.402-1.81 4.984-3.74 7.754-5.76 3.168 1.95 6.195 3.99 8.984 6.11 4.012 2.96 7.699 5.96 10.996 8.9 1.426 1.24 2.762 2.46 4.031 3.66-4.984 3.95-8.429 9.66-9.386 16.23-1.668-0.49-3.403-1.04-5.188-1.65-4.18-1.39-8.609-3.09-13.199-5.08-4.609-1.94-9.297-4.23-13.965-6.99-2.047-1.21-4.051-2.58-6.074-3.96 5.496-3.58 10.519-7.32 16.047-11.46" fill="#f3f3f3"/><path d="m698.04 1543.4c-1.41-0.99-2.898-1.99-4.266-2.99-8.875-6.24-17.093-12.24-24.113-17.35-14.062-10.28-23.269-17.4-23.269-17.4l1.316-2.27s10.766 4.42 26.691 11.43c7.942 3.56 17.235 7.68 27.082 12.22 4.532 2.06 9.176 4.24 13.864 6.48-7.129 3.75-13.051 7.12-17.305 9.88" fill="#f3f3f3"/><path d="m1467.9 718.33c0-190.32-154.32-344.63-344.65-344.63-190.32 0-344.64 154.31-344.64 344.63 0 190.33 154.31 344.64 344.64 344.64 190.33 0 344.65-154.31 344.65-344.64" fill="#6aba2f"/><path d="m1102.7 467.75c-65.29 79.852-96.34 155.04-89.85 217.46 4.99 47.758 29.94 77.051 50 93.187l11.06-13.718c-17.46-14.071-39.17-39.559-43.52-81.282-6-57.628 23.71-128.35 85.96-204.5l-13.65-11.148" fill="#f3f3f3"/><path d="m1067.2 755.46 6.22 5.039 5.57-6.879 5.8 4.699-5.58 6.879 6.21 5.031 5.56-6.89 51.14 41.43-26.5 32.66-51.1-41.41 5.57-6.911-6.23-5.039-5.56 6.891-5.77-4.66 5.58-6.922-6.23-5.027-5.59 6.886-5.99-4.867 26.47-32.691 6.03 4.879-5.6 6.902" fill="#fff"/><path d="m1260.2 795.59-129.15 159.3 11.34 9.211 129.15-159.33-11.34-9.18" fill="#fff"/><path d="m1263.2 815.08-112.4 138.7-11.34-9.211 112.41-138.66 11.33 9.172" fill="#f3f3f3"/><path d="m1244.1 949.04c2.21 1.801 3.49 4.301 3.76 6.93 0.27 2.601-0.46 5.34-2.23 7.531l-1.36 1.68c-0.81 0.98-1.8 1.769-2.9 2.422l-0.32 0.187c-1.06 0.543-2.23 0.91-3.44 1.07l-0.53 0.051c-0.98 0.07-1.96-0.058-2.9-0.269l-1.02-0.161c-1.22-0.378-2.36-0.949-3.37-1.781l-1.64-1.34-22.69-18.398 14.33-17.629 24.31 19.707" fill="#f3f3f3"/><path d="m1214.1 924.75-14.34 17.641-26.68-21.661 14.32-17.628 26.7 21.636v0.012" fill="#f3f3f3"/><path d="m1293.6 891.4 1.17 1.422c0.46 0.852 0.66 1.828 0.86 2.782 0.24 1.179 0.26 2.347 0.09 3.539l-0.12 1.441c-0.38 1.289-1.01 2.52-1.9 3.609l-1.34 1.668-0.04 0.039c-0.8 0.973-1.76 1.723-2.79 2.301l-0.57 0.34c-1 0.5-2.06 0.813-3.14 0.961l-0.78 0.09-2.48-0.219-1.29-0.223c-1.2-0.378-2.36-0.949-3.39-1.777l-19.34-15.66-5.01-4.051 14.32-17.66 10.41 8.43 13.95 11.281 1.39 1.687" fill="#f3f3f3"/><path d="m1262.2 865.43-14.32 17.652h-0.02l-26.68-21.613 14.32-17.68 26.7 21.641" fill="#f3f3f3"/><path d="m1199.8 708.42c-92.01-9.152-125.61-122.48-105-195.04l0.06-0.18c0.13 5.141 0.51 10.52 1.33 16.25 2.21 15.11 6.84 32.153 14.2 49.371 7.38 17.192 17.51 34.692 30.96 49.59 6.72 7.442 14.23 14.238 22.59 19.61 2.03 1.242 4.3 2.789 6.37 3.82 2.07 1.121 4.13 2.238 6.41 3.262 4.4 2.136 8.82 3.769 13.24 5.289 17.81 5.82 35.43 6.558 50.02 5.039 14.64-1.489 26.43-5 34.41-7.879 8.01-2.93 12.28-5.262 12.28-5.262s-4.4 2.082-12.51 4.52c-8.11 2.402-19.98 5.211-34.39 5.851-14.36 0.68-31.35-1.082-47.91-7.558-4.1-1.672-8.28-3.5-12.17-5.692-1.96-1-3.97-2.238-5.98-3.5-2.11-1.199-3.68-2.488-5.67-3.82-7.44-5.399-14.08-12.11-19.96-19.41-11.78-14.649-20.44-31.731-26.45-48.309-6.03-16.601-9.44-32.84-10.63-46.652-0.57-6.098-0.63-11.688-0.38-16.68 11.18 39.07 32.93 64.52 81.77 59.949 102.87-9.519 144.01 104.33 144.01 104.33-25.76-3.711-83.73 38.289-136.6 33.102" fill="#f3f3f3"/><path d="m1058.2 498.72c-2.91 1.492-7.19 3.301-12.21 5.613-5.08 2.207-10.94 4.867-17.41 7.059-3.18 1.289-6.6 2.129-9.99 3.218-3.43 0.922-6.93 1.821-10.48 2.352-3.52 0.68-7.1 1.129-10.605 1.277-3.527 0.203-6.976 0.184-10.332-0.027-3.324-0.402-6.605-0.531-9.625-1.27-3.058-0.562-5.918-1.25-8.515-2.082-2.661-0.687-4.997-1.597-7.11-2.328-2.152-0.691-3.949-1.492-5.41-2.172-2.969-1.328-4.723-2.019-4.723-2.019s1.481 1.109 4.164 3.012c1.344 0.98 3.008 2.058 5.032 3.148 1.988 1.141 4.218 2.52 6.882 3.539 1.317 0.551 2.665 1.141 4.082 1.75 1.481 0.461 3.008 0.922 4.563 1.422 3.129 1.059 6.582 1.57 10.137 2.148 3.586 0.379 7.297 0.762 11.09 0.539 3.78-0.109 7.63-0.488 11.39-1.16 3.78-0.648 7.47-1.656 11.06-2.687 3.55-1.16 7.05-2.371 10.28-3.84 3.28-1.34 6.33-2.871 9.18-4.391 2.91-1.422 5.49-3.09 7.91-4.511 4.8-2.938 8.6-5.7 11.22-7.598 2.63-1.961 4.09-3.133 4.09-3.133-58.36 84.723-119.4 49.953-136.05 4.422 0 0 26.445-27.68 49.961-27.68 23.497 0 62.677 30.129 86.087 23.258 0 0-1.73 0.731-4.67 2.141" fill="#f3f3f3"/><path d="m1246.2 801.34-112.43 138.68-45.6-36.981 112.43-138.66-2.81-2.27 48.41 39.231" fill="#f3f3f3"/><path d="m1091.5 887.49c2.36-11.699-1.86-24.527-12.17-32.898l-2.58-2.102c-15.53-12.59-18.44-34.726-6.48-49.449l28.79-35.539c11.98-14.762 34.22-16.469 49.75-3.891l2.58 2.102c10.31 8.34 23.76 9.828 34.7 5.098l-94.59 116.68" fill="#f3f3f3"/><path d="m1137.1 2471.6c0-190.33-154.28-344.63-344.62-344.63-190.33 0-344.63 154.3-344.63 344.63 0 190.34 154.3 344.64 344.63 344.64 190.34 0 344.62-154.3 344.62-344.64" fill="#6aba2f"/><path d="m828.32 2602.6 59.821 86.62 11.273 16.34h-66.644l-31.172-47.75c14.047-14.24 25.265-32.34 26.722-55.21" fill="#f3f3f3"/><path d="m865.19 2478.5-122.66-0.19 54.735 79.25c-13.692 6.36-29.289 16.25-42.199 28.97l-77.59-118.82-24.137-36.94 43.859-0.06 127.06-0.21-127.06-226.16 187.93 236.74 29.781 37.49-49.719-0.07" fill="#f3f3f3"/><path d="m823.7 2499.1c-1.828 78.34 72.742 47 91.211 49.3-7.328-36.4-46.023-75.57-91.211-49.3" fill="#f3f3f3"/><path d="m895.33 2528.3-1.109-0.78c-0.711-0.5-1.77-1.44-3.305-2.15-3.062-1.66-7.695-3.38-13.226-5.32-11.11-3.75-26.157-8.34-39.817-15.53-3.316-1.95-6.742-3.7-9.734-5.97-1.555-1.11-3.141-2.05-4.532-3.22-1.441-1.16-2.824-2.33-4.14-3.48-2.828-2.16-4.758-4.97-7.024-7.25-1.617-2.09-2.992-4.19-4.328-6.13l-6.574-0.06 0.828 1.67c1.832 2.48 3.594 5.31 5.817 8.01 2.539 2.43 4.8 5.42 7.902 7.69 2.93 2.38 6.023 4.86 9.449 6.74 3.317 2.21 6.981 3.82 10.57 5.59 14.481 6.63 29.856 10.34 41.141 13.44 5.637 1.55 10.332 2.82 13.438 4.25 1.656 0.56 2.699 1.33 3.48 1.83l1.164 0.67" fill="#f3f3f3"/><path d="m736.17 2695.6s-7.172-29 0.605-65.6c7.453-35.24 48.887-61.53 72.989-70.2-0.2 2.53-0.543 5.05-1.032 7.58-0.328 1.71-0.738 3.34-1.214 5.05-1.165 4.24-2.809 8.4-4.516 12.22-2.313 5.53-5.324 10.59-8.117 15.36-3.008 4.65-5.942 9.01-8.953 12.84-2.582 3.55-5.121 6.69-7.438 9.57-2.805 3.48-5.258 6.42-7.23 8.81-3.77 4.35-5.739 6.95-5.739 6.95l0.196 0.14s2.129-2.46 6.019-6.62c2.043-2.26 4.641-4.92 7.504-8.13 2.531-2.8 5.32-6.01 8.27-9.49 3.144-3.75 6.414-7.99 9.691-12.55 3.141-4.72 6.422-9.65 9.215-15.23 1.504-3.01 2.933-6.08 4.168-9.36 1.164-2.79 2.047-5.67 2.805-8.61 0.468-1.7 0.882-3.27 1.156-4.84 33.258 84.32-62.278 117.92-78.379 132.11" fill="#f3f3f3"/><path d="m800.6 2589.6c-1.84 3.62-3.793 7.11-5.715 10.41-2.383 3.68-4.707 7.1-7.074 10.29 2.343-3.22 4.675-6.64 7.042-10.3 1.93-3.3 3.899-6.79 5.747-10.4" fill="#fff"/><path d="m810.59 2576.9 0.133-0.38-0.118 0.36c-0.523 1.34-1.152 2.56-1.726 3.85 0.562-1.29 1.203-2.48 1.711-3.83" fill="#fff"/><path d="m769.38 2634.2c-2.344 2.57-3.613 4.04-3.613 4.04h-8e-3c0.031-0.05 1.301-1.5 3.621-4.04" fill="#fff"/><path d="m771.27 2631.2-1.465 1.7 1.433-1.69c0.977-1.19 2.086-2.51 3.278-3.96-1.172 1.45-2.282 2.76-3.246 3.95" fill="#fff"/><path d="m815.43 2558.6c-0.344 2.34-0.758 4.38-1.25 6.46l0.375-1.53v-0.08c-0.559-1.5-1.231-3.06-1.914-4.63-0.953 0.27-1.914 0.6-2.871 1.02-0.2 2.53-0.543 5.05-1.032 7.58-0.254 1.33-0.597 2.64-0.953 3.96 0.356-1.32 0.699-2.63 0.949-3.98 1.165-6.14 1.598-12.45 1.43-18.69 0-6.3-1.32-12.49-2.64-18.58-1.782-5.91-3.715-11.78-6.364-17.08-2.488-5.42-5.593-10.29-8.578-14.88-3.152-4.48-6.363-8.52-9.508-12.06-2.656-2.93-5.254-5.48-7.683-7.69h7.965c1.211 1.21 2.539 2.54 3.804 3.99 3.317 3.7 6.692 7.95 10.016 12.65 3.098 4.77 6.301 9.91 8.957 15.61 2.82 5.59 4.867 11.76 6.699 18.08 1.488 6.41 2.809 13.05 2.875 19.79 0.266 3.37-0.176 6.76-0.277 10.06" fill="#fff"/><path d="m765.56 2638.2-0.028-0.01 0.028 0.01" fill="#f3f3f3"/><path d="m4135.8 1555.5c0-190.33-154.29-344.64-344.63-344.64-190.33 0-344.63 154.31-344.63 344.64 0 190.32 154.3 344.64 344.63 344.64 190.34 0 344.63-154.32 344.63-344.64" fill="#6aba2f"/><g transform="matrix(.68807 0 0 -.68807 3617.7 1742.7)" fill="#f3f3f3"><path class="" d="m256 361.49c-8.277 0-15 6.727-15 15 0 8.278 6.723 15 15 15 8.273 0 15-6.722 15-15 0-8.273-6.723-15-15-15z" data-original="#000000"/><path class="" d="m507.6 245.89-241-240.99c-5.859-5.86-15.351-5.86-21.21 0l-241 240.99a14.985 14.985 0 0 0-3.253 16.347 14.988 14.988 0 0 0 13.859 9.258h46v226c0 8.293 6.707 15 14.996 15h360c8.293 0 15-6.707 15-15v-226h46c6.063 0 11.543-3.648 13.856-9.258a14.976 14.976 0 0 0-3.25-16.347zm-251.6 175.6c-24.813 0-45-20.183-45-45 0-24.812 20.188-44.996 45-44.996s45 20.184 45 44.996c0 24.817-20.188 45-45 45zm78.719-91.082c-6.266 5.25-15.746 4.531-21.121-1.902-27.22-32.594-80.625-35.024-110.59-5.012-5.86 5.86-15.356 5.86-21.211 0-5.86-5.844-5.86-15.351 0-21.21 19.832-19.848 46.184-30.79 74.207-30.79 31.188 0 60.57 13.77 80.625 37.793 5.3 6.356 4.45 15.82-1.906 21.121zm46.07-38.39c-6.336 5.304-15.82 4.472-21.125-1.907-25.793-30.894-63.574-48.618-103.66-48.618-36.008 0-69.887 14.063-95.406 39.594-5.856 5.86-15.352 5.86-21.207 0-5.86-5.86-5.86-15.352 0-21.211 31.183-31.2 72.593-48.383 116.61-48.383 48.996 0 95.184 21.652 126.69 59.399 5.317 6.359 4.454 15.82-1.902 21.125zm70.207-245.52c0-8.293-6.707-15-15-15h-60c-8.289 0-15 6.707-15 15v11.363l90 90z" data-original="#000000"/></g></g></g></svg>
