<?xml version="1.0" encoding="UTF-8"?>
<svg class="" width="512" height="512" enable-background="new 0 0 512 512" version="1.1" viewBox="0 0 365.72 365" xml:space="preserve" xmlns="http://www.w3.org/2000/svg"><g fill="#e5003f"><path class="" d="m356.34 296.35-286.61-286.61c-12.5-12.5-32.766-12.5-45.247 0l-15.105 15.082c-12.5 12.504-12.5 32.77 0 45.25l286.61 286.61c12.504 12.5 32.77 12.5 45.25 0l15.082-15.082c12.524-12.48 12.524-32.75 0.02-45.25z" data-original="#f44336"/><path class="" d="m295.99 9.734-286.61 286.61c-12.5 12.5-12.5 32.77 0 45.25l15.082 15.082c12.504 12.5 32.77 12.5 45.25 0l286.63-286.59c12.504-12.5 12.504-32.766 0-45.246l-15.082-15.082c-12.5-12.524-32.766-12.524-45.27-0.024z" data-original="#f44336"/></g></svg>
