<?xml version="1.0" encoding="UTF-8"?>
<svg version="1.1" viewBox="0 0 557.45 586.64" xmlns="http://www.w3.org/2000/svg">
<defs>
<clipPath id="b">
<path d="m3278.1 66.121-0.92-0.1914c-10.49-2.6406-21.06-5.0977-31.65-7.5586l-0.91-0.1914c-10.21-2.3711-20.43-4.6484-30.74-6.8399-2.19-0.4492-4.38-0.9101-6.47-1.371-10.22-2.0899-20.53-4.1875-30.83-6.1094-11.5-2.2774-22.99-4.3789-34.58-6.3789-13.13-2.2891-26.36-4.4805-39.58-6.5821-9.95-1.539-19.89-3-29.83-4.457l-0.82-0.1016c-22.44-3.1914-44.97-6.1093-67.77-8.6601-2.29-0.2695-4.56-0.4609-6.85-0.7305-9.85-1.0898-19.79-2.0976-29.73-3.0976-1.46-0.0899-2.84-0.2696-4.2-0.4532l-34.2-3.0078h-0.46c-11.96-1.0117-24-1.9218-36.03-2.75h-1.1c-11.21-0.82032-22.43-1.4492-33.75-2-26.54-1.5508-53.26-2.5586-80.18-3.1914-11.12-0.27734-22.34-0.55078-33.56-0.64063-12.4-0.17968-24.9-0.26953-37.4-0.26953h-0.09c-12.4 0-24.82 0.08985-37.22 0.26953-4.37 0-8.76 0.08985-13.22 0.1836-1.92 0-3.93 0.09765-5.94 0.09765-9.84 0.17188-19.7 0.44922-29.55 0.71875-10.58 0.27344-21.16 0.64063-31.74 1.0938-17.33 0.64844-34.75 1.4688-52.27 2.4688-5.11 0.27735-10.22 0.55079-15.33 0.91016-7.56 0.35938-15.13 0.82031-22.7 1.3672-5.57 0.37109-11.13 0.82031-16.7 1.1914l-2.46 0.17966c-13.5 33.02-26.08 61.672-36.76 82-26.37 50.532-129.07 187.72-129.07 187.72s-105.45-1.183-242.82 127.25c-137.28 128.44-297.91 301.38-295.45 435.1 1.74 95.781-15.96 156.43-24.35 211.53-3.38 21.8-5.2 42.68-3.83 64.49 1.82 28.73 9.21 59.56 8.94 93.41-0.46 56.73-6.66 116.11 18.61 146.12 40.22 47.8 159.26 4.75 183.16-92.49 23.89-97.33 35.3-301.65 75.34-299.73 40.14 1.91 41.69 151.6 95.14 308.21l25.36 170.03 10.21 327.83 0.73 65.4s-29 164.74 17.97 249.47c0 0 47.52 81.37 102.89 12.04 50.17-62.66 48.63-83.28 84.93-309.76 36.21-226.4 3.46-362.22 41.5-366.06 37.95-3.91 48.44 28.56 48.25 84.84-0.27 56.19 1.47 162.55 86.48 161.54 85.19-1.09 139.01-33.39 135-112.56-3.93-79.08-4.48-142.57 8.84-147.31 0 0-15.14 87.65 3.56 139.2 8.21 22.61 23.45 49.53 94.04 22.07 70.69-27.37 77.72-74.89 85.38-126.34 7.57-51.45 18.24-94.59 18.24-94.59s85.84 4.56 117.31-53.63c31.29-58.11 62.48-224.11 73.52-283.14 28.91-154.42-11.86-324.09-35.48-403.17-9.21-30.558-7.3-63.207 5.56-92.398 31.93-73.07 139.1-269.36 225.58-450.97"/>
</clipPath>
<clipPath id="a">
<path d="m2479.3 10.02c-14.26 34.992-25.64 60.723-36.77 82.012-26.4 50.489-129.04 187.75-129.04 187.75s-105.46-1.25-242.79 127.21c-137.33 128.46-297.96 301.42-295.54 435.09 2.43 133.67-33.01 199.04-28.16 276.07 1.8 28.7 9.25 59.54 8.92 93.4-0.45 56.72-6.66 116.1 18.6 146.05 40.31 47.83 159.3 4.8 183.2-92.49 23.9-97.26 35.32-301.57 75.4-299.68 40.07 1.879 41.65 151.56 95.1 308.22l25.33 170.05 10.24 327.8 0.72 65.36s-29.04 164.76 18.01 249.53c0 0 47.45 81.31 102.83 12.04 50.16-62.69 48.66-83.31 84.92-309.76 36.27-226.46 3.53-362.24 41.52-366.12 37.98-3.89 48.47 28.59 48.23 84.83-0.22 56.24 1.48 162.59 86.53 161.56 85.21-1.07 138.94-33.39 135-112.5-3.95-79.11-4.48-142.58 8.79-147.38 0 0-15.08 87.66 3.56 139.22 8.2 22.67 23.48 49.52 94.1 22.12 70.63-27.4 77.71-74.92 85.32-126.41 7.63-51.42 18.25-94.55 18.25-94.55s85.88 4.52 117.31-53.64c31.33-58.14 62.54-224.16 73.57-283.15 28.87-154.45-11.91-324.07-35.54-403.18-9.19-30.508-7.26-63.18 5.57-92.399 31.97-73.011 139.16-269.32 225.63-450.94l-798.81-56.109"/>
</clipPath>
</defs>
<g transform="matrix(1.3333 0 0 -1.3333 0 586.64)">
<g transform="scale(.1)">
<path d="m3834 332.41-1.5-1.301c-5.7-4.699-11.31-9.097-17-13.699-7.2-5.601-14.41-11.199-21.81-16.699-3.69-2.801-7.59-5.602-11.39-8.402-1.9-1.297-3.8-2.688-5.71-4.098-9.09-6.5-18.29-12.902-27.59-19.199-6.5-4.403-12.9-8.703-19.51-13-2.69-1.703-5.49-3.492-8.19-5.301-7.7-4.902-15.5-9.699-23.4-14.5-7.7-4.699-15.6-9.402-23.5-13.902-3.1-1.797-6.2-3.598-9.3-5.2-6.2-3.699-12.5-7.089-18.91-10.5-20.99-11.5-42.39-22.39-64.29-32.8-7.41-3.598-14.8-7.098-22.3-10.399-10.91-5.101-22-10-33.3-14.699-9.2-4-18.51-7.801-27.9-11.5-1.9-0.801-3.8-1.602-5.7-2.301-9.01-3.699-18.1-7.101-27.2-10.601l-0.4-0.2c-7.2-2.597-14.4-5.3-21.7-7.8-6.6-2.5-13.3-4.797-20-7.09-6.5-2.309-13.2-4.508-19.71-6.699l-2.79-0.911c-9.6-3.1988-19.4-6.3004-29.2-9.3004-0.8-0.2969-1.7-0.5977-2.61-0.7969-9.89-3-19.89-6-29.79-8.9023-1.91-0.4883-3.8-1.0977-5.61-1.5977-9.49-2.7031-19.09-5.3008-28.69-7.9023-10.3-2.8008-20.7-5.3985-31.1-8l-2.1-0.4883-0.9-0.2109c-10.5-2.6914-21.1-5.1016-31.7-7.6016l-0.9-0.1992c-10.2-2.3008-20.4-4.5977-30.8-6.8008-2.1-0.5-4.3-0.8984-6.4-1.3984-10.2-2.1016-20.5-4.1993-30.9-6.1016-11.51-2.2891-22.9-4.3984-34.5-6.3984-13.2-2.3008-26.4-4.3985-39.6-6.5-10-1.6016-19.91-3.0899-29.8-4.5l-0.9-0.1016c-22.4-3.1992-44.9-6.0977-67.7-8.6992-2.3-0.1992-4.6-0.3985-6.9-0.6992-9.8-1.1016-19.8-2.1016-29.7-3.1016-1.5-0.0977-2.8-0.2969-4.2-0.5l-34.2-3h-0.5c-11.9-1-24-1.8984-36.01-2.6992h-1.09c-11.2-0.80079-22.4-1.4883-33.7-2-26.6-1.5898-53.3-2.5977-80.21-3.1992-11.19-0.30078-22.39-0.5-33.59-0.60156-12.4-0.19922-24.9-0.28906-37.4-0.28906h-0.1c-12.4 0-24.81 0.089844-37.2 0.28906-4.4 0-8.81 0.10156-13.2 0.10156-1.91 0-3.9 0.10156-6.01 0.10156-9.79 0.19922-19.69 0.5-29.49 0.79687-10.6 0.20313-21.2 0.60157-31.81 1.1016-17.29 0.60156-34.69 1.3984-52.19 2.3984-5.1 0.30079-10.2 0.60157-15.31 0.90235-7.59 0.39844-15.19 0.89844-22.79 1.4102-5.51 0.39844-11.1 0.78907-16.6 1.1875l-2.5 0.20313c-5.7 0.39844-11.41 0.79687-17.1 1.2969h-0.1c-7.11 0.50001-14.3 1.1016-21.4 1.8008-41.9 3.5-83.9 7.8008-126 13.012-14.6 1.6992-29.2 3.6875-43.91 5.6875-12.59 1.7031-25.29 3.4023-37.99 5.4023-11.9 1.5977-23.9 3.3985-35.8 5.3008-13.5 2.0977-27.01 4.2969-40.41 6.5977-9.2 1.5-18.39 3.1015-27.59 4.6992-8.3 1.4023-16.6 3-24.9 4.4023-6.4 1.1993-12.8 2.3985-19.1 3.5977-9.7 1.8125-19.4 3.6016-29 5.6016-2.7 0.5-5.3 1-8 1.6093-11.3 2.1914-22.6 4.4922-33.9 6.7891-3.8 0.8008-7.6 1.7031-11.4 2.5-8.1 1.6016-16.2 3.4023-24.2 5.2031-7.3 1.5-14.7 3.1992-22.1 4.7969-19.2 4.4023-38.4 8.9023-57.6 13.402-30.7 7.398-61.4 15.301-92 23.5-17.2 4.5-34.3 9.301-51.5 14.098-13.2 3.8-26.4 7.5-39.5 11.41-12.2 3.59-24.3 7.191-36.5 10.89-1.7 0.5-3.5 1.102-5.4 1.602-11.4 3.598-22.9 7.098-34.3 10.809-1.5 0.39-3 0.89-4.4 1.289-11.2 3.601-22.2 7.203-33.3 10.812-2.7 0.891-5.4 1.789-8.1 2.688-9.6 3.101-19.2 6.3-28.7 9.601-25.5 8.699-50.9 17.602-76.1 26.801-13.2 4.801-26.3 9.699-39.4 14.598-11.5 4.402-23.1 8.812-34.7 13.41-64.9 25.09-128.6 52.191-190.6 80.691h2616" fill="#cbecd1"/>
<path d="m2700.2 0h-0.1c-12.4 0-24.8 0.082031-37.21 0.26953-3.46 0-6.92 0.050782-10.43 0.12891 3.48-0.027344 6.95-0.089844 10.43-0.089844 12.39-0.19922 24.8-0.28906 37.2-0.28906h0.1c12.5 0 25 0.089844 37.4 0.28906 10.85 0.089844 21.7 0.29297 32.54 0.58203 0.35 0.007813 0.7 0.007813 1.05 0.019531 1.95 0.050782 3.89 0.089844 5.84 0.14062-1.95-0.05078-3.9-0.10156-5.86-0.15234-11.13-0.26953-22.35-0.53906-33.57-0.62891-12.4-0.1875-24.9-0.26953-37.39-0.26953" fill="#e6f6e8"/>
<path d="m2737.6 0.30859c10.85 0.089844 21.7 0.29297 32.54 0.58203-10.84-0.28906-21.69-0.49219-32.54-0.58203" fill="#f2faf4"/>
<path d="m2627.6 0.91016c-4.47 0.12109-8.95 0.23828-13.42 0.37109-2.63 0.05859-5.27 0.14063-7.9 0.21875 2.63-0.07812 5.27-0.14062 7.91-0.19141 4.46-0.1289 8.93-0.26953 13.41-0.39843" fill="#e6f6e8"/>
<path d="m2594.3 1.8984c-3.94 0.14062-7.89 0.30078-11.84 0.47265-9.43 0.33985-18.88 0.73829-28.36 1.1992 9.47-0.44922 18.91-0.82812 28.31-1.1602 3.97-0.19141 7.93-0.35938 11.89-0.51172" fill="#e6f6e8"/>
<path d="m2847.4 3.8711c1.34 0.07813 2.67 0.16016 4.01 0.23829 0.81 0.03125 1.62 0.07031 2.43 0.10937-0.83-0.03906-1.65-0.07812-2.48-0.11719-1.32-0.08203-2.64-0.15234-3.96-0.23047" fill="#e6f6e8"/>
<path d="m2851.4 4.1094c0.81 0.03125 1.62 0.07031 2.43 0.10937-0.81-0.03906-1.62-0.07812-2.43-0.10937" fill="#f2faf4"/>
<path d="m2526.7 5.0195c-2.87 0.16016-5.74 0.32031-8.6 0.5 2.87-0.16797 5.73-0.32812 8.6-0.5" fill="#e6f6e8"/>
<path d="m2872.9 5.2812c4.07 0.25781 8.13 0.53906 12.19 0.82813-4.06-0.30079-8.12-0.57032-12.19-0.82813" fill="#e6f6e8"/>
<path d="m2872.9 5.2812c4.08 0.25781 8.15 0.53906 12.23 0.82813-4.06-0.28907-8.12-0.57032-12.19-0.82813h-0.04" fill="#f2faf4"/>
<path d="m2886.2 6.1094h0.07-0.07" fill="#f2faf4"/>
<path d="m2507.5 6.1289c-4.94 0.28125-9.89 0.58984-14.83 0.95312 4.94-0.33203 9.89-0.66015 14.83-0.95312" fill="#e6f6e8"/>
<path d="m2491.8 7.1406c-3.43 0.23046-6.86 0.48828-10.28 0.73828 3.43-0.25 6.87-0.48828 10.28-0.73828" fill="#e6f6e8"/>
<path d="m2478.1 8.1211c-0.87 0.0586-1.75 0.1211-2.62 0.17969l-2.46 0.17969c-1.94 0.16016-3.88 0.30078-5.83 0.44922 1.95-0.14063 3.89-0.28125 5.84-0.41797l2.5-0.20313c0.86-0.0664 1.71-0.1289 2.57-0.1875" fill="#e6f6e8"/>
<path d="m2439.2 11.148c-1.6 0.1407-3.19 0.293-4.78 0.4336-8.57 0.7266-17.14 1.4883-25.71 2.2774 8.57-0.7891 17.14-1.5391 25.7-2.25 1.59-0.1602 3.19-0.3086 4.79-0.461" fill="#e6f6e8"/>
<path d="m2991.5 15.5c1.65 0.1992 3.3 0.3594 4.94 0.5-1.65-0.168-3.29-0.3203-4.94-0.5" fill="#e6f6e8"/>
<path d="m3057.6 23.711c2.61 0.3594 5.22 0.7305 7.82 1.0977l0.9 0.1016c0.18 0.0195 0.36 0.0507 0.55 0.0781-0.2-0.0274-0.4-0.0586-0.6-0.0899l-0.82-0.0898c-2.61-0.3672-5.23-0.7383-7.85-1.0977" fill="#e6f6e8"/>
<path d="m3057.1 23.641c2.76 0.3907 5.52 0.7813 8.27 1.168l0.9 0.1016-0.9-0.1016c-2.6-0.3672-5.21-0.7383-7.82-1.0977-0.15-0.0312-0.3-0.0507-0.45-0.0703m9.17 1.2696c0.18 0.0195 0.37 0.0507 0.55 0.0781-0.19-0.0274-0.37-0.0586-0.55-0.0781" fill="#f2faf4"/>
<path d="m2286.2 27.379c-7.25 0.9414-14.5 1.9102-21.75 2.9024-4.2 0.5781-8.4 1.1601-12.6 1.7382 4.21-0.5781 8.42-1.1406 12.62-1.7109 7.27-0.9883 14.5-1.9766 21.73-2.9297" fill="#e6f6e8"/>
<path d="m3085.7 27.77c3.47 0.5391 6.95 1.0821 10.44 1.6407 6.69 1.0703 13.38 2.1289 20.08 3.2187-6.69-1.1094-13.39-2.1992-20.09-3.2578-3.48-0.5391-6.96-1.0703-10.43-1.6016" fill="#e6f6e8"/>
<path d="m3085.6 27.77c3.49 0.5313 6.98 1.0821 10.49 1.6407-3.49-0.5586-6.97-1.1016-10.44-1.6407h-0.05m10.49 1.6407c6.7 1.0703 13.4 2.1289 20.11 3.2304-0.01-0.0117-0.02-0.0117-0.03-0.0117-6.7-1.0898-13.39-2.1484-20.08-3.2187" fill="#f2faf4"/>
<path d="m2236.8 34.148c-3.4 0.5-6.81 1.0039-10.22 1.5118-5.84 0.8007-11.68 1.6484-17.53 2.5312 5.85-0.8711 11.69-1.6992 17.51-2.4805 3.41-0.539 6.83-1.0625 10.24-1.5625" fill="#e6f6e8"/>
<path d="m2153.8 47.02c-1.17 0.1993-2.33 0.4024-3.48 0.5899-5.77 0.9101-11.51 1.9023-17.25 2.9101 5.76-0.9882 11.52-1.9687 17.27-2.9101 1.15-0.1875 2.3-0.3906 3.46-0.5899" fill="#e6f6e8"/>
<path d="m2150.3 47.609c-5.75 0.9414-11.51 1.9219-17.27 2.9101h-0.02c5.77-0.9882 11.53-1.9687 17.29-2.9101" fill="#f2faf4"/>
<path d="m3206.5 49.582c0.14 0.0274 0.27 0.0586 0.41 0.0899 0.2 0.0469 0.39 0.0898 0.59 0.1367 1.63 0.3437 3.25 0.6914 4.86 1.043 5.81 1.25 11.56 2.5273 17.3 3.8086-7.35-1.6602-14.7-3.2891-22.11-4.8594-0.35-0.0703-0.7-0.1406-1.05-0.2188" fill="#e6f6e8"/>
<path d="m3206.5 49.582c0.14 0.0274 0.27 0.0586 0.41 0.0899-0.14-0.0313-0.27-0.0625-0.41-0.0899m5.86 1.2696c5.82 1.25 11.59 2.5273 17.33 3.8203-0.01 0-0.02 0-0.03-0.0117-5.74-1.2813-11.49-2.5586-17.3-3.8086" fill="#f2faf4"/>
<path d="m2108.7 54.801c-1.87 0.3281-3.74 0.668-5.61 1 1.87-0.332 3.74-0.6602 5.61-1" fill="#e6f6e8"/>
<path d="m3244.8 58.141c0.62 0.1407 1.24 0.2891 1.86 0.4297-0.62-0.1406-1.24-0.289-1.86-0.4297" fill="#e6f6e8"/>
<path d="m2084.8 59.141c-2.06 0.3907-4.11 0.7696-6.17 1.1485-3.2 0.6015-6.39 1.2109-9.59 1.8203 3.21-0.6094 6.42-1.1992 9.63-1.8008 2.03-0.3867 4.08-0.7773 6.13-1.168" fill="#e6f6e8"/>
<path d="m2078.7 60.309c-3.21 0.6016-6.42 1.1914-9.63 1.8008-0.02 0-0.03 0-0.04 0.0117 3.22-0.6094 6.44-1.2109 9.67-1.8125" fill="#f2faf4"/>
<path d="m3271.3 64.48c0.53 0.1289 1.07 0.2695 1.61 0.3984l0.15 0.0313-1.3-0.3282-0.46-0.1015" fill="#e6f6e8"/>
<path d="m3272.9 64.879h0.01l0.14 0.043v-0.0117l-0.15-0.0313" fill="#f2faf4"/>
<path d="m2042.9 67.25c-0.39 0.0898-0.78 0.1719-1.16 0.25-9.51 1.8398-19.03 3.7383-28.54 5.7188 9.51-1.9375 19.01-3.8594 28.52-5.6993 0.39-0.0898 0.79-0.1797 1.18-0.2695" fill="#e6f6e8"/>
<path d="m2042.9 67.25h-0.01c-0.39 0.0898-0.79 0.1797-1.18 0.2695 0.4-0.0898 0.8-0.1797 1.19-0.2695" fill="#f2faf4"/>
<path d="m2000.4 75.961c-1.32 0.2774-2.64 0.5586-3.96 0.8399-1.96 0.3984-3.91 0.8008-5.86 1.2109 1.96-0.4101 3.92-0.8125 5.88-1.2031 1.31-0.2695 2.62-0.5586 3.94-0.8477" fill="#e6f6e8"/>
<path d="m1989.6 78.191c-5.83 1.2188-11.63 2.4883-17.42 3.8086-0.41 0.082-0.81 0.1719-1.22 0.2617 0.41-0.0898 0.81-0.1719 1.21-0.25 5.77-1.3008 11.59-2.5898 17.43-3.8203" fill="#e6f6e8"/>
<path d="m3329.5 79.82c1.41 0.3985 2.81 0.7891 4.21 1.1914 1.14 0.3203 2.32 0.668 3.51 1.0196-1.18-0.3516-2.36-0.6915-3.5-1.0391-1.4-0.3906-2.81-0.7813-4.22-1.1719" fill="#e6f6e8"/>
<path d="m3329.4 79.801c1.43 0.4101 2.85 0.8086 4.27 1.2109 1.15 0.3203 2.33 0.6797 3.53 1.0196h-0.02c-1.19-0.3516-2.37-0.6993-3.51-1.0196-1.4-0.4023-2.8-0.7929-4.21-1.1914-0.02 0-0.04-0.0117-0.06-0.0195" fill="#f2faf4"/>
<path d="m3344.8 84.219c8.12 2.3906 16.27 4.8398 24.35 7.2929 0.11 0.0196 0.21 0.0469 0.31 0.0703-0.1-0.0312-0.2-0.0625-0.31-0.0898-8.04-2.4609-16.21-4.9219-24.35-7.2734" fill="#e6f6e8"/>
<path d="m3344.7 84.199c8.13 2.4024 16.3 4.8516 24.4 7.3125-8.08-2.4531-16.23-4.9023-24.35-7.2929-0.01-0.0079-0.03-0.0196-0.05-0.0196m24.4 7.3125c0.11 0.0196 0.21 0.0469 0.31 0.0703-0.1-0.0234-0.2-0.0507-0.31-0.0703" fill="#f2faf4"/>
<path d="m3371.4 92.199c0.1 0.043 0.2 0.0703 0.3 0.1094 2.25 0.6914 4.5 1.3828 6.75 2.082-2.23-0.6914-4.47-1.3906-6.71-2.082-0.11-0.0391-0.23-0.0664-0.34-0.1094" fill="#e6f6e8"/>
<path d="m3371.4 92.199c0.11 0.0313 0.21 0.0703 0.31 0.1094-0.1-0.0391-0.2-0.0664-0.3-0.1094h-0.01m0.31 0.1094c2.29 0.7031 4.59 1.4102 6.88 2.1328-0.04-0.0195-0.08-0.0312-0.13-0.0508-2.25-0.6992-4.5-1.3906-6.75-2.082" fill="#f2faf4"/>
<path d="m3395.8 99.91c1.73 0.5588 3.45 1.1288 5.16 1.6988l1.19 0.383c-0.39-0.133-0.77-0.273-1.16-0.383-1.73-0.57-3.46-1.14-5.19-1.6988" fill="#e6f6e8"/>
<path d="m3395.7 99.898c1.73 0.5706 3.46 1.1406 5.18 1.7106-1.71-0.57-3.43-1.14-5.16-1.6988 0-0.0118-0.01-0.0118-0.02-0.0118" fill="#f2faf4"/>
<path d="m3410 104.62c4.29 1.43 8.6 2.879 12.84 4.379 0.2 0.07 0.41 0.141 0.61 0.219 6.7 2.293 13.4 4.59 20 7.09 5.31 1.82 10.57 3.75 15.81 5.66-5.23-1.91-10.48-3.821-15.78-5.668-6.66-2.469-13.31-4.84-20.07-7.11-4.41-1.562-8.91-3.082-13.41-4.57" fill="#e6f6e8"/>
<path d="m3409.8 104.58c4.32 1.449 8.68 2.906 12.95 4.418-4.24-1.5-8.55-2.949-12.84-4.379-0.04-0.012-0.07-0.031-0.11-0.039m33.56 11.727c5.34 1.832 10.63 3.773 15.91 5.691-0.03-8e-3 -0.07-0.02-0.1-0.031-5.24-1.91-10.5-3.84-15.81-5.66" fill="#f2faf4"/>
<path d="m1858.8 108.53c-19.45 4.891-38.86 9.949-58.24 15.16-1 0.258-2.01 0.528-3.02 0.801 1-0.262 1.99-0.523 2.98-0.781 19.39-5.199 38.83-10.27 58.28-15.18" fill="#e6f6e8"/>
<path d="m3467.3 124.99c1.96 0.762 3.92 1.504 5.89 2.254-1.96-0.75-3.93-1.5-5.89-2.254" fill="#e6f6e8"/>
<path d="m3467.2 124.98c2.04 0.782 4.07 1.551 6.11 2.329-0.06-0.02-0.12-0.039-0.17-0.067-1.97-0.75-3.93-1.492-5.89-2.254-0.02 0-0.04-8e-3 -0.05-8e-3" fill="#f2faf4"/>
<path d="m3494.3 135.5c1.38 0.551 2.76 1.129 4.15 1.711 9.39 3.699 18.7 7.5 27.9 11.5 3.32 1.379 6.62 2.781 9.91 4.199-3.28-1.43-6.56-2.84-9.86-4.23-9.22-3.93-18.52-7.758-27.91-11.5-1.4-0.59-2.8-1.141-4.19-1.68" fill="#e6f6e8"/>
<path d="m3494.2 135.5c1.39 0.539 2.77 1.129 4.16 1.711-1.39-0.582-2.77-1.16-4.15-1.711h-0.01" fill="#f2faf4"/>
<path d="m1743.1 139.5c-7.92 2.25-15.8 4.5-23.67 6.801 7.87-2.289 15.76-4.531 23.67-6.801" fill="#e6f6e8"/>
<path d="m1743.2 139.48c-0.03 0.012-0.06 0.02-0.08 0.02-7.91 2.27-15.8 4.512-23.67 6.801h-0.01c7.9-2.301 15.83-4.551 23.76-6.821" fill="#f2faf4"/>
<path d="m1705.3 150.45c-10.8 3.172-21.55 6.403-32.29 9.633-1.45 0.457-2.97 0.918-4.49 1.379 1.56-0.449 3.05-0.93 4.47-1.352 10.8-3.269 21.53-6.468 32.31-9.66" fill="#e6f6e8"/>
<path d="m1662.2 163.41c-9.65 2.992-19.27 6-28.95 9.078-0.4 0.121-0.81 0.254-1.21 0.383 0.42-0.129 0.84-0.242 1.26-0.351 9.6-3.122 19.28-6.098 28.9-9.11" fill="#e6f6e8"/>
<path d="m3569.8 168.03c4.05 1.891 8.08 3.821 12.12 5.778 19.16 9.113 37.94 18.589 56.4 28.523 2.64 1.406 5.27 2.84 7.89 4.277 0.9 0.481 1.8 0.961 2.7 1.442 3.25 1.738 6.48 3.488 9.68 5.289-4.08-2.301-8.21-4.539-12.37-6.738-20.97-11.5-42.41-22.43-64.3-32.832-4.03-1.95-8.07-3.86-12.12-5.739" fill="#e6f6e8"/>
<path d="m3569.8 168.03c4.05 1.879 8.09 3.821 12.13 5.778 19.16 9.113 37.94 18.589 56.4 28.523-18.46-9.934-37.24-19.41-56.4-28.523-4.04-1.957-8.07-3.887-12.12-5.778h-0.01m79.12 40.02c3.35 1.789 6.67 3.59 9.96 5.441-0.1-0.051-0.19-0.101-0.28-0.152-3.2-1.801-6.43-3.551-9.68-5.289" fill="#f2faf4"/>
<path d="m1614.2 178.57c-6.19 2-12.37 4.012-18.59 6.051-0.12 0.039-0.24 0.078-0.36 0.121 0.13-0.043 0.25-0.082 0.38-0.121 6.2-2.019 12.37-4.031 18.57-6.051" fill="#e6f6e8"/>
<path d="m1595.6 184.62c-0.13 0.039-0.25 0.078-0.38 0.121 0.13-0.043 0.25-0.082 0.38-0.121" fill="#f2faf4"/>
<path d="m3660.2 214.27c1.63 0.929 3.26 1.878 4.88 2.839 0.48 0.25 0.95 0.5 1.43 0.75-0.48-0.257-0.96-0.519-1.44-0.769-1.62-0.949-3.24-1.891-4.87-2.82" fill="#e6f6e8"/>
<path d="m3659.7 213.98c1.81 1.032 3.6 2.071 5.39 3.129 0.49 0.262 0.98 0.52 1.47 0.782-0.01-0.012-0.03-0.02-0.04-0.032-0.48-0.25-0.95-0.5-1.43-0.75-1.62-0.961-3.25-1.91-4.88-2.839-0.17-0.098-0.34-0.188-0.51-0.29" fill="#f2faf4"/>
<path d="m3673.6 221.82c0.19 0.11 0.38 0.211 0.57 0.321 0.09 0.058 0.19 0.109 0.29 0.168 0.74 0.421 1.48 0.851 2.22 1.273 0.61 0.348 1.22 0.699 1.83 1.059-1.35-0.789-2.71-1.571-4.06-2.352-0.28-0.16-0.56-0.309-0.85-0.469" fill="#e6f6e8"/>
<path d="m3673.6 221.82c0.19 0.11 0.38 0.211 0.57 0.321-0.19-0.11-0.38-0.211-0.57-0.321m3.08 1.762c0.61 0.348 1.22 0.707 1.83 1.059-0.61-0.36-1.22-0.711-1.83-1.059" fill="#f2faf4"/>
<path d="m1429.6 243.54c-7.02 2.672-14.03 5.363-21.04 8.121-62.86 24.399-124.49 50.461-184.63 77.942h0.18c60.06-27.473 121.7-53.61 184.46-77.883 7.01-2.789 14.03-5.5 21.03-8.18m2413.1 96.063h-701.65c-39.93 77.66-73.11 142.05-88.59 177.49-12.86 29.191-14.77 61.84-5.56 92.398 2.2 7.371 4.55 15.532 6.98 24.383h1030.1v10h-1027.4c23.2 87.649 51.04 234.03 25.81 368.79-11.04 59.03-42.23 225.03-73.52 283.14-27.2 50.31-95.04 53.71-112.93 53.71-2.8 0-4.38-0.08-4.38-0.08s-10.67 43.14-18.24 94.59c-6.53 43.81-12.58 84.77-57.88 112.87v0.02c-7.89 4.91-16.98 9.42-27.47 13.49-21.3 8.26-37.56 11.59-50.11 11.59-29.08 0-38.26-17.88-43.99-33.71-15.68-43.36-7.5-112.23-4.51-133.06 0.02-0.02 0.03-0.05 0.04-0.07 0.57-3.88 0.94-6.06 0.94-6.06-4.9 1.75-7.93 11.46-9.6 27 0.01-0.01 0.01-0.01 0.01-0.02-2.86 26.65-1.73 70.39 0.77 120.37 0.69 13.85-0.39 26.26-3.09 37.33-12.73 52.16-61.66 74.29-131.93 75.19-0.41 0.01-0.8 0.01-1.2 0.01-29.31 0-48.58-12.92-61.24-32.11-0.01-0.01-0.01-0.02-0.02-0.03-0.03-0.04-0.05-0.08-0.08-0.12-23.45-35.69-24.11-92.98-23.97-129.33 0.06-13.6-0.51-25.81-1.95-36.46-4.19-30.97-15.68-48.65-40.33-48.65-1.9 0-3.88 0.1-5.94 0.31-38.04 3.84-5.29 139.66-41.5 366.06-10.91 68.07-18.41 117.55-24.91 155.15h594.1v2270.9c846.72-60.79 1069.4-324.51 1069.4-649.51-0.05-360.68-274.43-796.78-274.33-1114.5 0.02-35.79 3.51-70.13 11.27-102.64 116.76-489.18 434.85-913.02 435.03-1336.7 0.05-125.15-27.63-250.3-96.43-377.12-3.66-6.66-7.3-13.321-11.04-19.789-4.11-7.211-8.3-14.41-12.59-21.532-4.01-6.476-7.94-12.769-11.95-19.066-4.92-7.75-9.94-15.41-15.05-22.98-3.74-5.563-7.48-10.954-11.31-16.422-5.02-7.11-10.04-14.141-15.23-20.981-4.2-5.75-8.58-11.398-12.95-17.058-9.49-12.211-19.25-24.172-29.38-35.93-5.02-5.93-10.12-11.68-15.23-17.43l-0.09-0.179c-5.02-5.571-10.04-11.043-15.23-16.512l-0.74-0.91c-5.01-5.301-10.03-10.489-15.04-15.692-6.21-6.207-12.32-12.406-18.61-18.429-8.76-8.567-17.7-16.868-26.73-25.079l-0.73-0.64c-2.92-2.731-5.84-5.289-8.76-7.84-6.96-6.172-13.97-12.211-21.04-18.148m-1686.8 0h-953.68c-0.07 0.019-0.13 0.058-0.19 0.078-6.57 3.011-13.05 6.031-19.53 9.129-55.45 26.261-109.54 53.73-162.08 82.371-4.29 2.371-8.49 4.652-12.68 7.019-5.57 3.012-11.226 6.11-16.788 9.313-73.246 41.039-143.3 84.457-209.43 129.98-9.121 6.293-18.148 12.582-27.09 18.871-9.941 7.039-19.703 14.063-29.375 21.172-7.425 5.399-14.797 10.84-22.113 16.34h1159.2c57.96-79.812 136.44-159.48 208.48-226.88 30.25-28.277 58.97-50.289 85.33-67.386m-1459.6 299.27c-28.457 21.527-56.004 43.418-82.641 65.758-8.847 7.492-17.695 14.973-26.363 22.453-14.32 12.5-28.367 25.078-42.051 37.668-7.019 6.559-14.043 13.051-20.887 19.609-16.691 15.871-32.925 31.922-48.621 48.25-3.371 3.473-6.746 6.942-10.027 10.493-11.313 11.867-22.348 23.91-33.117 35.937l-1.184 1.281c-6.75 7.66-13.406 15.321-19.976 22.989-3.465 4.011-6.926 8.113-10.309 12.222-3.371 4.02-6.746 8.117-10.121 12.219-2.918 3.559-5.84 7.211-8.668 10.77-11.035 13.769-21.617 27.64-31.836 41.589-2.461 3.289-4.832 6.481-7.113 9.762-6.02 8.301-11.949 16.789-17.696 25.169-229.07 335.68-325.76 738.62-325.77 1143.1-0.015625 605.69 216.81 1214.8 530.65 1606.4 240.88 300.71 466.41 358.97 831.75 395.6v-2216.4h793.24c0.25-57.94 8.8-106.6 8.85-106.93l-0.73-65.37-3.04-97.67-7.19-230.12-19.52-130.99-5.82-39.08c-53.45-156.61-55-306.3-95.14-308.21-0.18-0.012-0.37-0.024-0.55-0.024-39.59 0-51.01 202.88-74.79 299.75-17.24 70.14-83.97 112.08-134.92 112.08-19.69 0-37.03-6.27-48.24-19.59-25.27-30.01-19.07-89.39-18.61-146.12 0.27-33.85-7.12-64.68-8.94-93.41-1.37-21.81 0.45-42.69 3.83-64.49 8-52.52 24.45-110.08 24.47-198.29 0-4.34-0.04-8.75-0.12-13.238-0.02-1.051-0.03-2.09-0.02-3.141 0.03-59.84 32.14-127.34 79.84-195.08h-1158.6v-5m130.28 520.23c61.051-76.77 105.4-165.06 142.09-257.34 0.781-1.961 2.66-3.153 4.648-3.153 0.614 0 1.239 0.11 1.848 0.352 2.563 1.019 3.816 3.93 2.797 6.5-38.508 96.829-85.543 189.74-151.71 269.92-2.664 3.33-5.395 6.56-8.102 9.75l-0.011 0.02c-0.536 0.62-1.075 1.25-1.614 1.87-4.086 9.13-8.867 17.98-14.261 26.54 15.628-8.78 31.136-14.25 46.164-14.25 19.839 0 38.832 9.53 56.148 33.56 14.024 19.46 14.793 57.3 14.789 92.3 0 2.54-4e-3 5.07-8e-3 7.58 3.403-2.49 6.821-4.94 10.239-7.34 39.199-27.63 69.629-73.96 96.726-113.52 0.46 3.68 42.59 102.19 68.07 130.06 18.9 20.65 43.11 39.77 47.9 67.35 0.52 2.94 0.76 5.91 0.76 8.89 0 17.05-8.19 34.09-21.88 44.36-7.66 5.73-18.45 8.15-29.61 8.15-5.09 0-10.27-0.51-15.25-1.43 11.68 3.99 23.12 8.59 33.72 14.87 16.38 9.68 30.82 23.89 37.04 41.87 1.97 5.69 2.97 11.78 2.97 17.85 0 13.11-4.68 26.11-14.36 34.8-8.49 7.61-28.38 13.17-45.48 13.17-1.44 0-2.87-0.04-4.27-0.12 17.06 7.08 33.28 15.83 45.53 29.4 10.21 11.31 16.52 27.05 16.53 42.05 0.01 17.01-8.08 33.06-27.77 40.61-5.99 2.3-12.31 3.36-18.67 3.36-6.45 0-12.94-1.09-19.14-3.08-6.53-2.1-13.23-4.72-19.85-7.77 8.24 8.45 14.96 18.36 19.6 29.21l0.32 0.76c2.04 4.91 2.98 9.78 2.98 14.46 0.03 20.8-18.32 37.77-38.84 37.77-6.61 0-13.44-1.76-19.96-5.73-11.74-7.15-23.36-14.09-34.324-19.97 25.034 13.66 45.584 35.42 57.754 61.22 2.79 5.92 5.17 12.48 5.16 18.91 0 2.42-0.35 4.82-1.13 7.15-3.45 10.3-14.68 15.71-25.76 15.71-2.87 0-5.73-0.36-8.44-1.1-13.2-3.57-38.217-15.41-48.045-24.91 3.441 29.74 52.475 38.34 53.485 68.26 0.01 0.26 0.01 0.52 0.01 0.77 0 10.66-7.6 20.93-17.84 23.94-3.25 0.96-7.725 1.49-12.534 1.49-6.648 0-13.922-1.02-19.41-3.34 9.246 7.4 17.808 15.74 21.715 26.73 1.093 3.08 1.621 6.41 1.621 9.75 4e-3 11.79-6.571 23.75-17.969 25.53-0.902 0.14-1.816 0.21-2.746 0.21-3.488 0-7.121-0.97-10.609-2.63 3.25 7.64 5.316 15.59 5.316 23.91 0 4.68-0.652 9.47-2.117 14.39-3.762 12.6-14.864 22.36-28.02 22.71-0.269 0.01-0.535 0.01-0.804 0.01-16.336 0-24.864-13.45-31.114-26.21-14.648-29.9-23.918-62.42-27.226-95.56-15.528 29.93-54.028 59.03-86.477 68.16-2.73 0.77-5.711 1.39-8.562 1.39-4.477 0-8.637-1.54-11.004-6.45-0.883-1.84-1.293-3.79-1.297-5.75-4e-3 -4.08 1.754-8.18 4.687-11.24 21.688-22.62 42.696-46.54 69.086-63.53-4.691 2.87-11.57 4.23-18.843 4.23-0.333 0-0.668 0-1.004-0.01-9.063-0.14-15.024-7.69-15.024-15.43 0-3.88 1.496-7.8 4.856-10.87 15.972-14.58 30.074-32.59 42.64-49.92-7.082 4.59-18.152 7.64-24.304 9.57-2.145 0.67-4.375 0.99-6.614 0.99-7.742 0-15.527-3.85-19.847-10.32-2.844-4.25-4.102-9.21-4.11-14.29-8e-3 -6.84 2.258-13.9 5.961-19.72 6.457-10.15 16.492-17.37 26.281-24.34 12.79-9.11 27.903-20.77 41.997-31.31-6.383 2.14-13.766 3.34-20.52 3.34-7.957 0-15.031-1.67-18.543-5.4-5.348-5.67-7.719-13.27-7.715-21.09 4e-3 -7.01 1.918-14.19 5.305-20.3 7.164-12.93 19.523-22.07 31.875-30.21 9.644-6.35 17.008-15.27 25.34-22.94-5.567 1.71-10.578 2.85-14.149 2.85-0.363 0-0.715-0.01-1.05-0.03-7.473-0.55-15.11-3.69-20.321-8.88-0.363 0.53-0.73 1.05-1.101 1.57-4.43 6.26-11.039 9.13-17.586 9.13-10 0-19.871-6.69-21.66-18.26-2.278-14.7-3.418-29.57-3.418-44.45 0-10 0.515-20 1.55-29.94-12.968 61.74-35.121 121.55-65.57 176.81-7.309 13.26-16.723 27.56-32.852 28.57-0.597 0.03-1.191 0.05-1.781 0.05-14.886 0-27.472-11.55-30.945-26.23-1.024-4.34-1.484-8.56-1.481-12.68 0.024-22.26 13.649-41.59 25.856-60.06 10.426-15.78 20.531-33.61 20.539-52.11 0-2.64-0.203-5.3-0.645-7.97-49.105 64.13-105.7 122.53-168.26 173.64-12.18 9.94-26.739 20.11-41.825 20.11-5.648 0-11.375-1.42-17.078-4.82-11.238-6.7-17.215-19.29-17.203-32.26 4e-3 -1.92 0.137-3.85 0.403-5.77 1.863-13.35 7.671-24.24 15.601-33.59-34.578 21.72-75.699 33.15-116.66 33.15-13.856 0-27.684-1.31-41.242-3.96-11.274-2.21-17.293-11.74-17.278-21.33 0.012-7.83 4.043-15.71 12.516-19.71l74.297-35.06c-5.574 0.74-11.188 1.1-16.789 1.1-32.258 0-64.367-11.92-89.395-32.32-5.355-4.37-7.75-10.27-7.75-16.12 0-10.9 8.278-21.65 21.125-22.15l110.09-4.28-53.68-49.54c-4.898-4.52-7.07-10.23-7.058-15.84 0.015-11.19 8.703-21.94 21.711-21.94 0.41 0 0.824 0.01 1.242 0.03l143.12 7.41c-15.039-2.7-29.531-8.55-42.297-16.98-6.469-4.28-9.429-10.89-9.418-17.5 0.016-9.74 6.485-19.49 17.68-21.79 32.777-6.74 66.254-10.13 99.719-10.13 22.468 0 44.933 1.53 67.191 4.6-24.172-6.75-46.855-18.66-66.281-34.54-5.278-4.31-7.731-10.34-7.723-16.34 0.016-8.76 5.293-17.48 14.711-20.73 59.887-20.7 123.63-47.79 181.75-65.54-2.258-0.32-4.746-0.46-7.414-0.46-16.328 0-39.59 5.22-61.344 8.05-1.046 0.14-2.078 0.21-3.078 0.21-11.769 0-20.164-9.12-21.453-19.31-47.617 29.2-102.74 49.6-155.82 59.59-26.91 5.07-54.27 7.56-81.637 7.56-86.492 0-173.05-24.87-245.73-71.87-7.969-5.14-16.571-11.82-16.571-21.62 0-1.5 0.2-3.08 0.637-4.73 2.719-10.33 12.688-16.91 23.207-16.91 1.25 0 2.512 0.1 3.766 0.29 59.359 9.03 117.83 23.84 174.33 44.15l-68.789-67.2c-5.149-5.03-7.399-11.12-7.407-17.08-0.019-12.64 10.036-24.68 23.864-24.68 2.023 0 4.136 0.26 6.304 0.81 60.954 15.58 116.4 53.45 151.23 105.97 1.027-3.69 1.504-7.38 1.508-11.05 0.015-20.43-14.641-40.11-30.84-53.96-23.375-20-52.465-35.66-60.207-68.18-0.77-3.22-1.145-6.5-1.145-9.75 4e-3 -14.06 7.078-27.59 20.11-33.59 4.246-1.95 8.504-2.79 12.714-2.79 12.032 0 23.704 6.84 33.762 14.03 47.215 33.68 89.899 68.29 112.91 121.53 8.387-18.21 12.188-35.83 12.18-53.31-8e-3 -23.58-6.945-46.92-18.902-71.16-7.578-15.36-16.817-34.65-16.821-50.54 0-10.36 3.922-19.28 14.782-24.73 3.886-1.95 8.289-2.86 12.765-2.86 9.797 0 19.973 4.36 25.985 11.74 45.812 56.24 62.761 158.37 80.742 158.37 2.434 0 4.883-1.87 7.426-5.97-9.688-37.7-19.371-75.42-29.055-113.12-2.066-8.05-4.082-16.63-4.094-24.87-0.011-6.02 1.047-11.86 3.922-17.2 3.18-5.9 8.445-8.7 14.758-8.7 15.512 0 37.336 16.91 49.957 46.28 0 0 23.891 55.29 36.75 74.55-2.117-15-3.145-29.25-3.145-43.07-3e-3 -24.22 3.137-47.13 9.055-70.46 2.223-8.77 9.477-13.08 16.781-13.08 7.582 0 15.223 4.65 17.36 13.78 3.648 15.59 5.367 30.73 5.363 45.39-4e-3 16.85-2.285 33.06-6.547 48.6m351.1 337.28c0-7.47-0.16-14.95-0.48-22.45-9.97-236.24-77.13-385.08-114.54-431.86 57.28 26.16 104.17 83.04 126.3 155.08-3.31-18.04-4.76-34.3-4.76-48.8-0.02-52.38 18.78-81.74 36.23-88.88 5.09-2.08 10.43-3.05 15.8-3.05 18.11 0 36.46 10.95 46.2 26.76 7.4 12 10.53 25.97 10.55 40.14 0.01 10.01-1.53 20.13-4.23 29.72-11.65 41.52-35.73 105.44-35.73 105.44 19.88-24.14 51.1-41.1 81.89-50.92 6.91-2.2 14.14-3.4 21.33-3.4 8.36 0 16.67 1.62 24.35 5.13 20.5 9.38 29.11 27.38 29.08 46.54-0.02 21.55-10.96 44.59-28.14 58.54-28.35 23.02-60.61 32.68-96.89 36.82-0.62 0.69-0.91 1.41-0.91 2.15-0.06 10.47 57.1 25.67 85.88 27.36 39.4 2.31 67.7 32.28 67.74 58.86 0.03 21.84-19.03 41.39-66.71 41.39-1.7 0-3.43-0.02-5.21-0.07-25.13-0.72-86.15-1.71-86.15-1.71 63.78 3.68 122.02 69.08 122.06 115.45 0 1.45-0.06 2.87-0.17 4.28-2.03 24.96-27.25 41.67-52.27 41.67-5.58 0-11.16-0.84-16.46-2.6-33.35-11.06-59.12-28.45-86.2-31.65 41.84 11.88 82.24 101.5 82.27 161.2 0.01 24.38-6.71 43.78-22.83 50.85-4.13 1.81-8.08 2.65-11.84 2.65-40.31 0-60.08-96.83-69.69-143.63-3.54 25.09-3.24 84.48-46.25 164.94-19.51 36.48-50.2 50.96-56.83 53.99-4.36 2-8.51 2.91-12.4 2.91-21.69 0-35.49-28.19-35.48-52.21 0-1.39 0.04-2.77 0.14-4.12 1.17-17.03 7.81-34.16 17.71-50.05 55.77-89.51 86.66-191.49 86.64-296.47m-282.64 65.78c-0.707 3.25-1.484 6.5-2.34 9.72 2.645-3.2 5.141-6.43 7.266-9.53-0.832-0.02-1.664-0.05-2.492-0.09-0.809-0.03-1.621-0.07-2.434-0.1" fill="#e1f4d3"/>
<path d="m3741.5 263.96c2.5 1.668 4.99 3.348 7.5 5.051 7.12 4.82 14.19 9.707 21.19 14.648-6.98-4.969-14.05-9.84-21.18-14.668-2.5-1.691-5-3.371-7.51-5.031" fill="#e6f6e8"/>
<path d="m3741.5 263.93c2.51 1.679 5.02 3.371 7.54 5.082 7.12 4.82 14.19 9.707 21.19 14.648-7-4.941-14.07-9.828-21.19-14.648-2.51-1.703-5-3.383-7.5-5.051-0.01-0.012-0.03-0.02-0.04-0.031" fill="#f2faf4"/>
<path d="m3784.1 293.65c1.53 1.133 3.08 2.262 4.62 3.383-1.54-1.133-3.08-2.261-4.62-3.383" fill="#e6f6e8"/>
<path d="m3802.5 307.38c3 2.301 5.99 4.609 8.97 6.922-2.98-2.332-5.97-4.629-8.97-6.922" fill="#e6f6e8"/>
<path d="m3834 332.41-1.5-1.301c-5.7-4.699-11.31-9.097-17-13.699-7.2-5.601-14.41-11.199-21.81-16.699-3.69-2.801-7.59-5.602-11.39-8.402-1.9-1.297-3.8-2.688-5.71-4.098-9.09-6.5-18.29-12.902-27.59-19.199-6.5-4.403-12.9-8.703-19.51-13-2.69-1.703-5.49-3.492-8.19-5.301-7.7-4.902-15.5-9.699-23.4-14.5-7.7-4.699-15.6-9.402-23.5-13.902-3.1-1.797-6.21-3.598-9.3-5.2-6.2-3.699-12.5-7.089-18.91-10.5-20.99-11.5-42.39-22.39-64.29-32.8-7.41-3.598-14.8-7.098-22.3-10.399-10.91-5.101-22-10-33.3-14.699-9.2-4-18.51-7.801-27.9-11.5-1.9-0.801-3.8-1.602-5.7-2.301-9.01-3.699-18.1-7.101-27.2-10.601l-0.4-0.2c-7.2-2.597-14.41-5.3-21.7-7.8-6.6-2.5-13.3-4.797-20-7.09-6.5-2.309-13.2-4.508-19.71-6.699l-2.79-0.911c-9.6-3.1988-19.4-6.3004-29.2-9.3004-0.8-0.2969-1.7-0.5977-2.61-0.7969-9.89-3-19.89-6-29.79-8.9023-1.91-0.4883-3.8-1.0977-5.61-1.5977-9.49-2.7031-19.09-5.3008-28.69-7.9023-10.3-2.8008-20.7-5.3985-31.1-8l-2.1-0.4883-0.9-0.2109c-10.5-2.6914-21.1-5.1016-31.7-7.6016l-0.9-0.1992c-10.2-2.3008-20.4-4.5977-30.8-6.8008-2.1-0.5-4.3-0.8984-6.41-1.3984-10.19-2.1016-20.49-4.1993-30.89-6.1016-11.51-2.2891-22.9-4.3984-34.5-6.3984-13.2-2.3008-26.4-4.3985-39.6-6.5-10.01-1.6016-19.91-3.0899-29.8-4.5l-0.9-0.1016c-22.4-3.1992-44.9-6.0977-67.7-8.6992-2.3-0.1992-4.6-0.3985-6.9-0.6992-9.8-1.1016-19.8-2.1016-29.7-3.1016-1.5-0.0977-2.8-0.2969-4.2-0.5l-34.2-3h-0.5c-11.91-1-24-1.8984-36.01-2.6992h-1.09c-11.2-0.80079-22.4-1.4883-33.7-2-26.6-1.5898-53.3-2.5977-80.21-3.1992-11.19-0.30078-22.39-0.5-33.59-0.60156-12.4-0.19922-24.9-0.28906-37.4-0.28906h-0.1c-12.4 0-24.81 0.089844-37.2 0.28906-4.4 0-8.81 0.10156-13.2 0.10156-1.91 0-3.9 0.10156-6.01 0.10156-9.79 0.19922-19.69 0.5-29.49 0.79687-10.61 0.20313-21.2 0.60157-31.81 1.1016-17.29 0.60156-34.69 1.3984-52.19 2.3984-5.1 0.30079-10.2 0.60157-15.31 0.90235-7.59 0.39844-15.19 0.89844-22.79 1.4102-5.51 0.39844-11.1 0.78907-16.6 1.1875l-2.5 0.20313c-5.7 0.39844-11.41 0.79687-17.1 1.2969h-0.1c-7.11 0.50001-14.3 1.1016-21.4 1.8008-41.9 3.5-83.9 7.8008-126 13.012-14.6 1.6992-29.2 3.6875-43.91 5.6875-12.59 1.7031-25.29 3.4023-37.99 5.4023-11.9 1.5977-23.9 3.3985-35.8 5.3008-13.5 2.0977-27.01 4.2969-40.41 6.5977-9.19 1.5-18.39 3.1015-27.59 4.6992-8.3 1.4023-16.6 3-24.9 4.4023-6.4 1.1993-12.8 2.3985-19.1 3.5977-9.7 1.8125-19.4 3.6016-29 5.6016-2.7 0.5-5.3 1-8 1.6093-11.3 2.1914-22.6 4.4922-33.9 6.7891-3.8 0.8008-7.6 1.7031-11.4 2.5-8.1 1.6016-16.2 3.4023-24.2 5.2031-7.3 1.5-14.7 3.1992-22.1 4.7969-19.2 4.4023-38.4 8.9023-57.6 13.402-30.7 7.398-61.4 15.301-92 23.5-17.2 4.5-34.3 9.301-51.5 14.098-13.2 3.8-26.4 7.5-39.5 11.41-12.2 3.59-24.3 7.191-36.5 10.89-1.7 0.5-3.5 1.102-5.4 1.602-11.4 3.598-22.9 7.098-34.3 10.809-1.5 0.39-3 0.89-4.4 1.289-11.2 3.601-22.2 7.203-33.3 10.812-2.7 0.891-5.4 1.789-8.1 2.688-9.6 3.101-19.2 6.3-28.7 9.601-25.5 8.699-50.9 17.602-76.1 26.801-13.2 4.801-26.3 9.699-39.4 14.598-11.5 4.402-23.1 8.812-34.7 13.41-64.9 25.09-128.6 52.191-190.6 80.691h2616" fill="#969796"/>
<path d="m696.38 638.87h3387.6-3387.6" fill="#fff"/>
<path d="m696.38 633.87h3387.6v10h-3387.6z" fill="#28272b"/>
<path d="m696.38 334.6h3387.6-3387.6" fill="#fff"/>
<path d="m696.38 329.6h3387.6v10h-3387.6z" fill="#28272b"/>
<path d="m3351.6 2367v5h-301.54v296.53h296.54v-301.53h5v5-5h5v306.53c0 1.32-0.53 2.61-1.46 3.54s-2.22 1.46-3.54 1.46h-306.54c-1.32 0-2.6-0.53-3.54-1.46-0.93-0.93-1.46-2.22-1.46-3.54v-306.53c0-1.32 0.53-2.61 1.46-3.54 0.94-0.93 2.22-1.46 3.54-1.46h306.54c1.32 0 2.61 0.53 3.54 1.46s1.46 2.22 1.46 3.54h-5" fill="#28272b"/>
<path d="m3739 2367v5h-301.54v296.53h296.54v-301.53h5v5-5h5v306.53c0 1.32-0.54 2.61-1.47 3.54s-2.22 1.46-3.53 1.46h-306.54c-1.31 0-2.6-0.53-3.53-1.46s-1.47-2.22-1.47-3.54v-306.53c0-1.32 0.54-2.61 1.47-3.54s2.22-1.46 3.53-1.46h306.54c1.31 0 2.6 0.53 3.53 1.46s1.47 2.22 1.47 3.54h-5" fill="#28272b"/>
<path d="m3320.4 2398.2h-244v244.01h244v-244.01" fill="#fff"/>
<path d="m3320.4 2398.2v5h-239v234.01h234v-239.01h5v5-5h5v249.01h-254v-254.01h254v5h-5" fill="#28272b"/>
<path d="m3198.4 2642.3v-244.01" fill="#fff"/>
<path d="m3193.4 2398.2h10v244.01h-10z" fill="#1d2a30"/>
<path d="m3707.7 2520.3c0-67.38-54.62-122.01-122-122.01s-122.01 54.63-122.01 122.01 54.63 122 122.01 122 122-54.62 122-122" fill="#fff"/>
<path d="m3707.7 2520.3h-5c-0.01-32.33-13.09-61.55-34.27-82.74-21.19-21.18-50.41-34.26-82.73-34.27-32.33 0.01-61.54 13.09-82.73 34.27-21.19 21.19-34.27 50.41-34.28 82.74 0.01 32.32 13.09 61.54 34.28 82.73 21.19 21.18 50.4 34.26 82.73 34.27 32.32-0.01 61.54-13.09 82.73-34.27 21.18-21.19 34.26-50.41 34.27-82.73h10c-0.01 70.14-56.86 126.99-127 127-70.14-0.01-127-56.86-127.01-127 0.01-70.15 56.87-127 127.01-127.01 70.14 0.01 126.99 56.86 127 127.01h-5" fill="#28272b"/>
<path d="m1367.4 1948.8h1567.1v2446h-1567.1z" fill="#fff"/>
<path d="m2934.5 1948.8v5.01h-1562.1v2436h1557.1v-2441h5v5.01-5.01h5v2451h-1577.1v-2456h1577.1v5h-5" fill="#28272b"/>
<path d="m2495.8 2329.6h-658.4c-94.96 0-171.94 76.99-171.94 171.95s76.98 171.94 209.79 171.94h658.4c57.11 0 134.1-76.98 134.1-171.94s-76.99-171.95-171.95-171.95" fill="#6aba2f"/>
<path d="m2495.8 2329.6v5h-658.4c-46.11 0.01-87.82 18.68-118.04 48.9-30.22 30.23-48.9 71.93-48.9 118.05 0.03 46.13 18.6 87.59 53.37 117.8 34.78 30.19 85.97 49.13 151.42 49.14h658.4c26.3 0.12 58.99-18.23 84.65-48.59 25.71-30.32 44.46-72.25 44.45-118.35-0.01-46.12-18.68-87.82-48.9-118.05-30.23-30.22-71.93-48.89-118.05-48.9v-10c97.73 0.01 176.94 79.22 176.95 176.95-0.02 48.85-19.76 92.9-46.82 124.81-27.11 31.87-61.47 52.02-92.28 52.13h-658.4c-67.35 0.01-121.06-19.54-157.97-51.58-36.93-32.02-56.85-76.53-56.82-125.36 0-97.73 79.22-176.94 176.94-176.95h658.4v5" fill="#100f0d"/>
<path d="m2619.4 2499.2c0-74.73-60.58-135.31-135.31-135.31-74.72 0-135.31 60.58-135.31 135.31 0 74.72 60.59 135.3 135.31 135.3 74.73 0 135.31-60.58 135.31-135.3" fill="#fff"/>
<path d="m1787.1 2468.8c0-7.68 3.24-12.12 9.95-12.12 6.84 0 9.96 4.44 9.96 12.12v44.37c0 7.56-3.12 12.12-9.96 12.12-6.71 0-9.95-4.56-9.95-12.12zm-9.24 43.9c0 12.83 6.36 21.1 19.19 21.1 12.96 0 19.31-8.27 19.31-21.1v-43.42c0-12.72-6.35-21.11-19.31-21.11-12.83 0-19.19 8.39-19.19 21.11v43.42" fill="#100f0d"/>
<path d="m1833.5 2449h-8.4v83.95h11.88l19.43-60.68v60.68h8.27v-83.95h-9.71l-21.47 67.88v-67.88" fill="#100f0d"/>
<path d="m2495.8 3665.9h-658.4c-94.96 0-171.94 76.98-171.94 171.95 0 94.96 76.98 171.94 209.79 171.94h658.4c57.11 0 134.1-76.98 134.1-171.94 0-94.97-76.99-171.95-171.95-171.95" fill="#fff"/>
<path d="m2495.8 3665.9v5h-658.4c-46.11 0-87.82 18.68-118.04 48.9s-48.9 71.93-48.9 118.05c0.03 46.13 18.6 87.59 53.37 117.8 34.78 30.19 85.97 49.14 151.42 49.14h658.4c26.3 0.12 58.99-18.23 84.65-48.59 25.71-30.32 44.46-72.25 44.45-118.35-0.01-46.12-18.68-87.83-48.9-118.05-30.23-30.22-71.93-48.9-118.05-48.9v-10c97.73 0 176.94 79.22 176.95 176.95-0.02 48.85-19.76 92.9-46.82 124.81-27.11 31.87-61.47 52.02-92.28 52.13h-658.4c-67.35 0.01-121.06-19.54-157.97-51.58-36.93-32.02-56.85-76.53-56.82-125.36 0-97.73 79.22-176.95 176.94-176.95h658.4v5" fill="#100f0d"/>
<path d="m2166.6 3665.9h-329.2c-94.96 0-171.94 76.98-171.94 171.95 0 94.96 76.98 171.94 209.79 171.94h291.35v-343.89" fill="#28272b"/>
<path d="m2336 3837.8c0-94.97-76.98-171.95-171.95-171.95s-171.95 76.98-171.95 171.95c0 94.96 76.98 171.94 171.95 171.94s171.95-76.98 171.95-171.94" fill="#fff"/>
<path d="m2336 3837.8h-5c0-46.12-18.68-87.83-48.9-118.05-30.23-30.22-71.93-48.9-118.05-48.9s-87.82 18.68-118.05 48.9c-30.22 30.22-48.9 71.93-48.9 118.05 0 46.11 18.68 87.82 48.9 118.04 30.23 30.22 71.93 48.9 118.05 48.9s87.82-18.68 118.05-48.9c30.22-30.22 48.9-71.93 48.9-118.04h10c0 97.72-79.22 176.94-176.95 176.94s-176.94-79.22-176.95-176.94c0.01-97.73 79.22-176.95 176.95-176.95s176.95 79.22 176.95 176.95h-5" fill="#1d2a30"/>
<path d="m1787.1 3809c0-7.68 3.24-12.11 9.96-12.11 6.83 0 9.95 4.43 9.95 12.11v44.37c0 7.56-3.12 12.12-9.95 12.12-6.72 0-9.96-4.56-9.96-12.12zm-9.23 43.9c0 12.83 6.36 21.1 19.19 21.1 12.95 0 19.31-8.27 19.31-21.1v-43.42c0-12.72-6.36-21.11-19.31-21.11-12.83 0-19.19 8.39-19.19 21.11v43.42" fill="#fff"/>
<path d="m1833.5 3789.2h-8.39v83.95h11.87l19.43-60.68v60.68h8.28v-83.95h-9.72l-21.47 67.88v-67.88" fill="#fff"/>
<path d="m2477.4 3809c0-7.68 3.24-12.11 9.96-12.11 6.83 0 9.95 4.43 9.95 12.11v44.37c0 7.56-3.12 12.12-9.95 12.12-6.72 0-9.96-4.56-9.96-12.12zm-9.23 43.9c0 12.83 6.35 21.1 19.19 21.1 12.95 0 19.3-8.27 19.3-21.1v-43.42c0-12.72-6.35-21.11-19.3-21.11-12.84 0-19.19 8.39-19.19 21.11v43.42" fill="#100f0d"/>
<path d="m2544.2 3834.1v-8.51h-19.31v-36.34h-9.36v83.95h33.35v-8.51h-23.99v-30.59h19.31" fill="#100f0d"/>
<path d="m2585 3834.1v-8.51h-19.31v-36.34h-9.36v83.95h33.35v-8.51h-23.99v-30.59h19.31" fill="#100f0d"/>
<path d="m2495.8 2987.5h-658.4c-94.96 0-171.94 76.98-171.94 171.94s76.98 171.94 171.94 171.94h658.4c94.96 0 171.95-76.98 171.95-171.94s-76.99-171.94-171.95-171.94" fill="#969796"/>
<path d="m2495.8 2987.5v5h-658.4c-46.11 0-87.82 18.67-118.04 48.89-30.22 30.23-48.9 71.93-48.9 118.05s18.68 87.82 48.9 118.05c30.22 30.21 71.93 48.89 118.04 48.89h658.4c46.12 0 87.82-18.68 118.05-48.89 30.22-30.23 48.89-71.93 48.9-118.05-0.01-46.12-18.68-87.82-48.9-118.05-30.23-30.22-71.93-48.89-118.05-48.89v-10c97.73 0 176.94 79.22 176.95 176.94-0.01 97.72-79.22 176.94-176.95 176.94h-658.4c-97.72 0-176.94-79.22-176.94-176.94s79.22-176.94 176.94-176.94h658.4v5" fill="#1d2a30"/>
<path d="m1966.1 3161.5c0-74.73-60.58-135.31-135.31-135.31-74.72 0-135.3 60.58-135.3 135.31s60.58 135.3 135.3 135.3c74.73 0 135.31-60.57 135.31-135.3" fill="#fff"/>
<path d="m2478.2 3134.4c0-7.68 3.25-12.12 9.96-12.12 6.83 0 9.96 4.44 9.96 12.12v44.37c0 7.55-3.13 12.11-9.96 12.11-6.71 0-9.96-4.56-9.96-12.11zm-9.23 43.89c0 12.83 6.35 21.11 19.19 21.11 12.95 0 19.31-8.28 19.31-21.11v-43.42c0-12.71-6.36-21.1-19.31-21.1-12.84 0-19.19 8.39-19.19 21.1v43.42" fill="#fff"/>
<path d="m2545.1 3159.5v-8.52h-19.31v-36.33h-9.35v83.95h33.34v-8.52h-23.99v-30.58h19.31" fill="#fff"/>
<path d="m2585.9 3159.5v-8.52h-19.31v-36.33h-9.35v83.95h33.34v-8.52h-23.99v-30.58h19.31" fill="#fff"/>
<path d="m3278.1 66.121-0.92-0.1914c-10.49-2.6406-21.06-5.0977-31.65-7.5586l-0.91-0.1914c-10.21-2.3711-20.43-4.6484-30.74-6.8399-2.19-0.4492-4.38-0.9101-6.47-1.371-10.22-2.0899-20.53-4.1875-30.83-6.1094-11.5-2.2774-22.99-4.3789-34.58-6.3789-13.13-2.2891-26.36-4.4805-39.58-6.5821-9.95-1.539-19.89-3-29.83-4.457l-0.82-0.1016c-22.44-3.1914-44.97-6.1093-67.77-8.6601-2.29-0.2695-4.56-0.4609-6.85-0.7305-9.85-1.0898-19.79-2.0976-29.73-3.0976-1.46-0.0899-2.84-0.2696-4.2-0.4532l-34.2-3.0078h-0.46c-11.96-1.0117-24-1.9218-36.03-2.75h-1.1c-11.21-0.82032-22.43-1.4492-33.75-2-26.54-1.5508-53.26-2.5586-80.18-3.1914-11.12-0.27734-22.34-0.55078-33.56-0.64063-12.4-0.17968-24.9-0.26953-37.4-0.26953h-0.09c-12.4 0-24.82 0.08985-37.22 0.26953-4.37 0-8.76 0.08985-13.22 0.1836-1.92 0-3.93 0.09765-5.94 0.09765-9.84 0.17188-19.7 0.44922-29.55 0.71875-10.58 0.27344-21.16 0.64063-31.74 1.0938-17.33 0.64844-34.75 1.4688-52.27 2.4688-5.11 0.27735-10.22 0.55079-15.33 0.91016-7.56 0.35938-15.13 0.82031-22.7 1.3672-5.57 0.37109-11.13 0.82031-16.7 1.1914l-2.46 0.17966c-13.5 33.02-26.08 61.672-36.76 82-26.37 50.532-129.07 187.72-129.07 187.72s-105.45-1.183-242.82 127.25c-137.28 128.44-297.91 301.38-295.45 435.1 1.74 95.781-15.96 156.43-24.35 211.53-3.38 21.8-5.2 42.68-3.83 64.49 1.82 28.73 9.21 59.56 8.94 93.41-0.46 56.73-6.66 116.11 18.61 146.12 40.22 47.8 159.26 4.75 183.16-92.49 23.89-97.33 35.3-301.65 75.34-299.73 40.14 1.91 41.69 151.6 95.14 308.21l25.36 170.03 10.21 327.83 0.73 65.4s-29 164.74 17.97 249.47c0 0 47.52 81.37 102.89 12.04 50.17-62.66 48.63-83.28 84.93-309.76 36.21-226.4 3.46-362.22 41.5-366.06 37.95-3.91 48.44 28.56 48.25 84.84-0.27 56.19 1.47 162.55 86.48 161.54 85.19-1.09 139.01-33.39 135-112.56-3.93-79.08-4.48-142.57 8.84-147.31 0 0-15.14 87.65 3.56 139.2 8.21 22.61 23.45 49.53 94.04 22.07 70.69-27.37 77.72-74.89 85.38-126.34 7.57-51.45 18.24-94.59 18.24-94.59s85.84 4.56 117.31-53.63c31.29-58.11 62.48-224.11 73.52-283.14 28.91-154.42-11.86-324.09-35.48-403.17-9.21-30.558-7.3-63.207 5.56-92.398 31.93-73.07 139.1-269.36 225.58-450.97" fill="#fff"/>
<g fill="#d9f1c8">
<g clip-path="url(#b)" fill="#d9f1c8">
<path d="m2588.7 3.9023c-17.33 0.64844-34.75 1.4688-52.27 2.4688-5.11 0.27735-10.22 0.55079-15.33 0.91016-7.56 0.35938-15.13 0.82031-22.7 1.3672-5.57 0.37109-11.13 0.82031-16.7 1.1914l-2.46 0.17966c-13.5 33.02-26.08 61.672-36.76 82-26.37 50.532-129.07 187.72-129.07 187.72h-0.1c-3.71 0-107.82 1.129-242.72 127.25-136.21 127.43-295.4 298.68-295.47 431.96-0.01 1.051 0 2.09 0.02 3.141 0.08 4.488 0.12 8.898 0.12 13.238-0.02 88.211-16.47 145.77-24.47 198.29 0 0 4.01 72.79 47.61 91.22 1.06 0.45 2.05 0.67 2.99 0.67 37.83 0-16.69-359.07 224.69-570.61 222.96-195.38 317.74-111.53 322.96-167.21 6.51-69.351 143.15-203.2 185.75-282.64 10.77-19.992 30.46-64.961 53.91-121.15" fill="#d9f1c8"/>
</g>
</g>
<g fill="#d9f1c8">
<g clip-path="url(#a)" fill="#d9f1c8">
<path d="m2494.7 1427.7c21.05 21.44 27.65 53.07 29.81 83.03s0.95 60.68 10.21 89.27c9.26 28.57 32.42 55.41 62.38 57.55 32.18 2.32 60.31-24.95 70.83-55.44 10.54-30.49 7.87-63.71 6.75-95.94-1.13-32.25-0.12-66.29 16.46-93.97 3.58 37.34 7.7 76.28 28.01 107.81 20.32 31.53 62.25 52.56 96.3 36.83 8.35 42.34-21.62 82.19-52.56 112.26-56.73 55.13-135.15 102.22-211.42 81.24-63.71-17.54-106.6-78.41-128.22-140.86-15.22-43.98-34.01-113.59-20.56-160.05 11.93-41.25 56.85-57.55 92.01-21.73"/>
<path d="m2452.5 1407.9c-12.79 0-24.78 5.17-34.1 14.32 24.17 0.36 35.48 18.01 39.61 48.68 1.44 10.65 2.01 22.86 1.95 36.46-0.14 36.35 0.52 93.64 23.97 129.33 0.03 0.04 0.05 0.08 0.08 0.12 0.01 0.01 0.01 0.02 0.02 0.03 12.66 19.18 31.93 32.09 61.24 32.09 0.41 0 0.81 0 1.22-0.01 70.29-0.88 119.17-23.03 131.91-75.17 2.7-11.07 3.78-23.48 3.09-37.33-2.5-49.98-3.63-93.72-0.77-120.37 0 0.01 0 0.01-0.01 0.02-5.04 16.96-6.41 35.19-6.42 53.3 0 5.61 0.14 11.21 0.33 16.75 0.45 12.84 1.14 25.84 1.14 38.76 0.01 19.51-1.55 38.84-7.89 57.18-10.11 29.28-36.44 55.58-67 55.58-1.27 0-2.55-0.04-3.83-0.14-29.96-2.14-53.12-28.98-62.38-57.55-9.26-28.59-8.05-59.31-10.21-89.27s-8.76-61.59-29.81-83.03c-13.42-13.67-28.25-19.75-42.14-19.75m238.58 4.25c-0.6 1.01-1.18 2.03-1.75 3.05-2.99 20.83-11.17 89.7 4.51 133.06 5.73 15.83 14.91 33.71 43.99 33.71 12.55 0 28.81-3.33 50.11-11.59 10.49-4.07 19.58-8.58 27.47-13.49-0.01-0.03-0.01-0.06-0.02-0.1-7.95 3.67-16.32 5.34-24.75 5.34-27.69 0-55.97-18-71.55-42.17-20.31-31.53-24.43-70.47-28.01-107.81"/>
<path d="m2172.7 2094.6c17.05-128.81 40.49-192.09 57.53-320.9-38.54-39.63-46.14-162.05-38.07-217.24 38.07-260.38-27.35-470.61-112.46-592.14-4.55-6.504-10.85-13.684-17.91-12.402-9.26 1.672-10.34 15.351-9.35 25.75 34.46 360.64 68.91 721.26 103.36 1081.9l16.9 35.03"/>
<path d="m2322.9 1112.1c-4.52 0-9.03 2.26-11.5 7.51-21.17 44.82-37.77 90.82-45.29 142.56-1.05 7.23-1.95 14.61-1.96 21.91 0 6.05 0.62 12.05 2.3 17.87 3.18 11.08 24.67 42.93 31.25 42.93 1.05 0 1.71-0.81 1.87-2.64 5.03-58.87 18.67-137.08 36.52-213.93 0.27-1.17 0.39-2.29 0.39-3.36-0.03-7.77-6.82-12.85-13.58-12.85"/>
<path d="m2580.4 1183.2c-2.41 0-4.82 1.26-5.99 4.11-14.08 34.37-24.81 68.8-27.28 107.59-0.18 2.85-0.33 5.72-0.32 8.59 0 5.67 0.58 11.3 2.57 16.57 2.56 6.8 17.55 25.59 21.87 25.59 0.73 0 1.16-0.54 1.16-1.77 0.2-41.52 5.83-98.58 14.6-153.11 0.07-0.4 0.1-0.79 0.1-1.16 0.02-3.97-3.34-6.41-6.71-6.41"/>
<path d="m2789.3 1205.7c5.32 1.44 9.69 6.33 8.37 13.44-6.9 37.06-11.89 72.77-13.82 101.31 2.07-28.5 7.15-64.19 14.1-101.25 1.38-7.36-3.22-12.31-8.65-13.5m-5.74 115.92c-0.21 0.36-0.51 0.52-0.89 0.52-0.13 0-0.25-0.02-0.39-0.05 0.14 0.04 0.27 0.06 0.4 0.06 0.37 0 0.67-0.17 0.88-0.53"/>
<path d="m2786 1205.3c-4.49 0-8.97 2.45-10.88 8.02-6.18 18-10.88 36.69-13.42 56.68-1.07 8.42-1.84 17.15 0.66 25.26 2.08 6.79 15.29 25.78 19.91 26.87-4.52-1.13-17.24-19.95-19.23-26.69-2.37-8.1-1.58-16.81-0.48-25.23 2.61-19.97 7.29-38.65 13.45-56.67 1.91-5.61 6.33-8.08 10.73-8.08 0.86 0 1.71 0.1 2.55 0.28-1.07-0.29-2.18-0.44-3.29-0.44m-2.16 115.19c-0.04 0.51-0.14 0.9-0.29 1.17 0.15-0.27 0.26-0.66 0.29-1.17"/>
<path d="m2786.8 1205.4c-4.4 0-8.82 2.47-10.73 8.08-6.16 18.02-10.84 36.7-13.45 56.67-1.1 8.42-1.89 17.13 0.48 25.23 1.99 6.74 14.71 25.56 19.23 26.69 0.14 0.03 0.26 0.05 0.39 0.05 0.38 0 0.68-0.16 0.89-0.52 0.15-0.27 0.25-0.66 0.29-1.17 1.93-28.54 6.92-64.25 13.82-101.31 1.32-7.11-3.05-12-8.37-13.44-0.84-0.18-1.69-0.28-2.55-0.28"/>
<path d="m2940.8 1189.6c-3.48 0-6.96 1.9-8.45 6.22-4.8 13.83-8.45 28.19-10.48 43.55-0.45 3.37-0.82 6.8-0.82 10.2-0.01 3.2 0.33 6.36 1.25 9.42 1.64 5.43 12.42 20.97 15.68 20.97 0.52 0 0.85-0.4 0.92-1.31 1.59-22.04 5.55-49.59 10.99-78.2 0.12-0.68 0.19-1.33 0.19-1.96 0.02-5.51-4.64-8.89-9.28-8.89"/>
<path d="m2063.5 951.78c-0.55 0-1.1 0.051-1.66 0.149-7.53 1.359-9.65 10.64-9.65 19.66 0 2.082 0.12 4.14 0.3 6.09 0.16 1.629 0.31 3.242 0.47 4.871 22.86 43.789 32.31 165.19 75.27 291.1l5.81 39.06 19.52 130.99 7.19 230.12 3.05 97.68 0.72 65.36c-0.05 0.33-8.6 48.99-8.85 106.93-0.02 3.31-0.01 6.65 0.04 10.01 0.23 18.95 1.43 38.65 4.15 57.77 3.08 21.72 8.13 42.69 15.95 61.02 16.72-114.45 38.43-177.62 54.47-298.88-29.62-30.46-40.96-109.82-40.96-169.98 0-18.11 1.02-34.49 2.89-47.26 7.62-52.13 11.09-102.24 11.09-150.04-0.01-190.96-55.48-344.9-123.55-442.1-4.19-5.992-9.86-12.551-16.25-12.551"/>
<path d="m2341 1700c-2.63 0-5.36 0.65-8.11 2.09 0 0 6.08 6.68 6.08 16.69 0 8.16-4.05 18.54-18.73 29.31-8.69 6.37-33.78 11.44-33.78 11.44-0.21 0.89-0.31 1.72-0.3 2.51 0.01 7.62 9.31 10.67 20.75 10.67 9.17 0 19.72-1.96 27.98-5.11 15.8-6.02 29.34-20.85 29.36-37.63 0-0.55-0.01-1.09-0.04-1.63-0.73-14.36-10.97-28.34-23.21-28.34"/>
</g>
</g>
<path d="m2483.9 11.898c-14.29 35.062-25.73 60.934-36.97 82.441-13.51 25.82-45.76 72.672-74.78 113.4-29 40.68-54.67 75.02-54.69 75.039l-1.51 2.02-2.53-0.02h-0.08c-2.92 0.039-105.47 0.77-239.26 125.86-68.04 63.64-141.76 138.2-198.31 213.24-56.62 75.012-95.77 150.58-95.66 215.19 0 0.981 0.01 1.95 0.02 2.918 0.08 4.461 0.12 8.852 0.12 13.172 0.01 58.731-7.25 104.09-14.45 143.11-7.22 39.04-14.3 71.66-14.29 105.17 0 4.77 0.15 9.56 0.45 14.4 1.69 27.46 8.92 57.79 8.94 91.51l-0.01 2.25v-0.01c-0.16 19.66-1 39.51-1 58.23 0 17.8 0.77 34.57 3.51 49.06 2.73 14.51 7.42 26.63 14.92 35.5 10.05 11.93 25.77 17.81 44.48 17.83 24.12 0.03 52.67-10.05 77.06-28.71 24.41-18.66 44.67-45.75 52.98-79.58 11.77-47.87 20.6-122.82 31.41-185.81 5.42-31.53 11.31-60.06 18.49-81.098 3.61-10.532 7.5-19.203 12.13-25.621 2.32-3.211 4.86-5.879 7.79-7.84 2.91-1.949 6.32-3.153 9.88-3.141l0.78 0.02c6.64 0.289 12.43 3.832 16.94 9.07 7.93 9.238 13.56 23.93 18.99 43.19 16.1 57.67 28.77 157.06 63.67 259.34l0.14 0.43 25.45 170.79 10.25 328.14 0.73 65.88-0.08 0.46c0 0.01-0.54 3.06-1.36 8.64-2.48 16.77-7.43 55.98-7.43 100.09-0.05 47.63 5.9 101 26.24 137.51l-4.37 2.42 4.32-2.52 0.22 0.36c1.19 1.97 7.3 11.55 16.62 20.4 9.35 8.92 21.72 16.8 35.22 16.75 12.24-0.04 26.52-6.12 42.55-26.07 24.89-31.21 36.36-50.78 46.72-91.57 10.31-40.8 19.03-102.62 37.16-215.86 18.07-112.86 18.96-203.07 20.05-265.82 0.56-31.41 1.13-55.89 4.07-73.35 1.49-8.74 3.52-15.77 6.89-21.24 3.28-5.47 8.6-9.34 14.94-9.9 2.21-0.22 4.34-0.34 6.42-0.34 8.97-0.01 16.84 2.18 23.26 6.56 9.66 6.59 15.59 17.5 19.16 31.25 3.57 13.8 4.9 30.74 4.91 50.52l-0.01 1.84c-0.01 1.9-0.01 3.87-0.01 5.88-0.03 28.42 1.15 66.93 12 97.6 5.41 15.35 13.17 28.63 24.08 37.99 10.92 9.34 25 15.04 44.24 15.08l1.15-0.01c40.57-0.49 73.39-8.27 95.61-24.21 22.16-15.97 34.56-39.79 34.66-75.27 0-2.53-0.07-5.12-0.2-7.77-1.46-29.29-2.45-56.45-2.45-79.39 0-19.57 0.71-36.03 2.54-48.3 0.92-6.15 2.1-11.25 3.8-15.38 0.85-2.06 1.84-3.9 3.13-5.5 1.29-1.59 2.96-3 5.07-3.76l8.09-2.93-1.46 8.48s-0.34 2.01-0.88 5.69c-1.6 11.04-4.81 36.77-4.81 64.71-0.02 23 2.22 47.53 9.02 66.27 2.77 7.7 6.27 15.35 12.02 20.9 5.76 5.52 13.73 9.45 27.27 9.51 11.66 0.01 27.38-3.13 48.3-11.26 34.47-13.42 52.64-31.16 63.69-51.84 11.03-20.71 14.71-44.87 18.5-70.63 7.66-51.68 18.32-94.92 18.34-95.02l0.99-4.01 4.13 0.22 1 0.03c0.69 0.02 1.72 0.04 3.06 0.04 8.58 0.01 29.6-0.84 51.46-7.75 21.92-6.93 44.38-19.74 57.12-43.35 15.17-28.04 30.91-84.07 43.93-140.01 13.06-56.01 23.61-112.2 29.13-141.68 6.99-37.39 9.87-75.761 9.87-113.53 0.01-116.75-27.52-227.81-45.29-287.3v0.012c-3.95-13.121-5.92-26.64-5.92-40.121 0-19.027 3.92-38 11.71-55.73 16.12-36.821 50.89-104.09 92.5-185.02 41.6-80.898 89.99-175.34 133.18-266.06 1.19-2.4883 4.17-3.5508 6.67-2.3711 2.49 1.1914 3.55 4.1719 2.36 6.6719-43.27 90.899-91.71 185.42-133.32 266.33-41.59 80.891-76.4 148.27-92.24 184.46-7.23 16.469-10.86 34.059-10.86 51.719 0 12.512 1.82 25.051 5.49 37.242l0.01 8e-3c17.93 60.051 45.69 171.86 45.71 290.16-0.01 38.281-2.92 77.25-10.04 115.37-5.52 29.51-16.1 85.83-29.22 142.11-13.18 56.34-28.71 112.4-44.87 142.49-14.46 26.73-39.59 40.78-62.91 48.13-23.38 7.37-45.25 8.21-54.47 8.22-2.87 0-4.51-0.08-4.59-0.09l0.26-4.99 4.86 1.2s-0.65 2.64-1.76 7.46c-3.33 14.46-10.71 48.26-16.4 86.62-3.82 25.73-7.49 51.08-19.56 73.86-12.06 22.8-32.74 42.51-68.9 56.48-21.67 8.4-38.48 11.92-51.92 11.93-15.54 0.06-26.71-4.95-34.23-12.33-7.55-7.34-11.5-16.54-14.46-24.68-7.44-20.65-9.6-46.02-9.62-69.67 0.01-38.26 5.81-71.94 5.84-72.1l4.92 0.85 1.71 4.7-0.71 0.65c-0.83 0.99-2.01 3.4-2.96 6.93-2.98 10.65-4.31 30.65-4.28 55.96 0 22.65 0.98 49.69 2.44 78.89 0.14 2.81 0.21 5.56 0.21 8.27 0.1 37.8-13.97 65.71-38.84 83.4-24.81 17.71-59.59 25.53-101.3 26.08l-1.28 0.01c-21.25 0.03-38.09-6.58-50.76-17.49-19.02-16.41-28.66-41.63-33.83-67.85-5.13-26.26-5.73-53.79-5.73-75.33 0-2.03 0-4.01 0.01-5.92l0.01-1.8c0.03-25.75-2.46-46.08-8.43-59.15-2.97-6.55-6.68-11.23-11.26-14.35-4.6-3.11-10.22-4.81-17.64-4.83-1.71 0-3.51 0.1-5.4 0.29-3.16 0.41-5.12 1.63-7.47 5.22-4.03 6.28-6.64 19.87-7.83 39.22-3.84 58.28 2.08 168.45-21.8 317.5-18.13 113.21-26.79 174.93-37.33 216.72-10.48 41.8-23.35 63.9-48.61 95.38-17.06 21.43-34.45 29.86-50.36 29.82-18.64-0.07-33.7-11.05-44.12-21.46-10.44-10.49-16.44-20.78-16.58-21.01l-0.02-0.04-0.03-0.05c-21.77-39.37-27.45-93.91-27.5-142.36 0-59.8 8.91-110.29 8.94-110.47l4.92 0.87-5 0.06-0.72-65.31-10.23-327.47-25.29-169.75 4.95-0.74-4.74 1.61c-26.86-78.76-40.65-155.61-52.72-212.73-6.02-28.54-11.64-52.18-18.04-68.339-3.18-8.082-6.58-14.242-9.98-18.121-3.45-3.91-6.48-5.461-9.86-5.648h0.01l-0.32-0.012c-1.4 0.012-2.72 0.399-4.34 1.469-3.02 1.953-6.66 6.609-10.04 13.59-5.98 12.191-11.41 31.061-16.26 53.511-14.65 67.48-24.59 167.14-39.35 227.33-8.93 36.32-30.64 65.28-56.62 85.13-26.01 19.85-56.28 30.74-83.13 30.77-20.71 0.02-39.7-6.64-52.13-21.38-9.06-10.76-14.17-24.59-17.1-40.1-2.92-15.52-3.67-32.83-3.68-50.91 0.01-19.01 0.85-38.88 1-58.31v-0.01l0.01-2.15c0.03-32.27-7.09-62.19-8.92-90.89-0.32-5.05-0.47-10.05-0.47-15.02 0.02-34.96 7.3-68.16 14.46-106.98 7.16-38.84 14.28-83.379 14.28-141.3 0-4.262-0.04-8.59-0.12-12.988-0.01-1.031-0.02-2.063-0.02-3.102 0.1-68.64 40.58-145.36 97.67-221.21 57.15-75.808 131.21-150.67 199.47-214.52 135.63-126.92 241.17-128.6 246.09-128.56h0.16l-0.04 5-4.01-2.992c0.02-0.019 6.41-8.559 16.43-22.207 15.04-20.461 38.22-52.352 60.09-83.812 21.85-31.438 42.45-62.59 52.1-81.059 11.01-21.062 22.34-46.66 36.57-81.582 1.04-2.5586 3.96-3.7891 6.52-2.7383 2.55 1.0391 3.78 3.9609 2.74 6.5078" fill="#28272b"/>
<path d="m1779.8 1240.7c5.68 6.88 16.08 15.52 35.05 24.06 20.43 9.25 35.31 15.05 45.92 23.7 5.28 4.33 9.42 9.53 12.03 15.95 2.63 6.41 3.79 13.87 3.79 22.91 0 5.44-0.42 11.48-1.22 18.28-0.32 2.74-2.8 4.7-5.54 4.38-2.75-0.32-4.71-2.8-4.39-5.55 0.77-6.52 1.15-12.18 1.15-17.11 0-8.21-1.06-14.31-3.04-19.11-2.97-7.15-7.97-12.02-16.65-17.2-8.63-5.12-20.69-10.17-36.16-17.13-20-9.01-31.76-18.48-38.65-26.81-1.76-2.13-1.46-5.28 0.67-7.04s5.28-1.46 7.04 0.67" fill="#1d2a30"/>
<path d="m1848 1185c6.59 3.1 13.59 6.03 21.03 8.71 2.59 0.94 3.94 3.8 3 6.4-0.93 2.6-3.8 3.94-6.4 3.01-7.73-2.79-15.02-5.84-21.89-9.07-2.5-1.17-3.57-4.15-2.39-6.65 1.17-2.5 4.15-3.57 6.65-2.4" fill="#1d2a30"/>
<path d="m1772.2 1127c11.07 13.41 30.69 33.2 60.52 50.03 2.4 1.35 3.25 4.4 1.9 6.81-1.36 2.4-4.41 3.25-6.82 1.9-31.12-17.57-51.63-38.23-63.31-52.38-1.76-2.13-1.46-5.28 0.67-7.04 2.13-1.75 5.28-1.45 7.04 0.68" fill="#1d2a30"/>
<path d="m2187.2 2063.3v-0.13c0.03-0.63 0-7.03 3.65-14.02 1.84-3.48 4.68-7.1 8.92-9.85s9.78-4.52 16.6-4.68c11.22-0.26 32.63-3.58 50.96-3.6 8.74 0.03 16.84 0.7 23.48 3.22 3.31 1.28 6.34 3.09 8.63 5.81 2.31 2.7 3.63 6.35 3.6 10.18 0 1.85-0.27 3.74-0.78 5.69-0.69 2.67-3.43 4.27-6.1 3.57s-4.27-3.43-3.57-6.1c0.32-1.25 0.45-2.3 0.45-3.16-0.03-1.79-0.44-2.73-1.25-3.75-1.2-1.5-4.07-3.09-8.44-4.05-4.32-0.99-9.92-1.41-16.02-1.41-17.29-0.01-38.26 3.25-50.71 3.59-5.28 0.15-8.82 1.42-11.41 3.09-3.85 2.49-5.86 6.18-6.94 9.54-0.53 1.66-0.81 3.19-0.94 4.28l-0.12 1.27-0.01 0.38h-4.84l4.84-0.13v0.13h-4.84l4.84-0.13c0.07 2.76-2.11 5.06-4.87 5.13s-5.06-2.11-5.13-4.87" fill="#1d2a30"/>
<path d="m2277.1 1780.8c9.76 1.52 20.55 2.56 31.79 2.56 12.09 0 24.69-1.2 37.1-4.26 2.68-0.66 5.39 0.97 6.05 3.65 0.67 2.68-0.97 5.39-3.65 6.06-13.35 3.29-26.75 4.55-39.5 4.55-11.86 0-23.15-1.09-33.33-2.68-2.73-0.43-4.6-2.99-4.17-5.71 0.43-2.73 2.98-4.6 5.71-4.17" fill="#1d2a30"/>
<path d="m2232.1 1769.1 1.14 0.44c2.34 0.9 8.2 3.02 16.53 5.34 2.66 0.74 4.22 3.49 3.48 6.15s-3.5 4.22-6.16 3.48c-11.57-3.22-18.63-6.1-18.77-6.15-2.56-1.05-3.79-3.97-2.74-6.52 1.04-2.56 3.96-3.79 6.52-2.74" fill="#1d2a30"/>
<path d="m2874.2 1408.1c1.8-13.86 7.26-36.46 12.3-55.86 5.04-19.36 9.64-35.36 9.64-35.38 0.77-2.66 3.54-4.19 6.19-3.43 2.66 0.76 4.19 3.53 3.43 6.19-0.01 0.01-1.14 3.96-2.91 10.35-5.31 19.08-16.27 60.14-18.73 79.4-0.35 2.74-2.86 4.68-5.6 4.32-2.73-0.35-4.67-2.85-4.32-5.59" fill="#1d2a30"/>
<path d="m2394.8 963.1c50.5-127.52 89.92-249.76 150.69-382.83 1.15-2.508 4.12-3.622 6.63-2.469 2.51 1.148 3.62 4.121 2.47 6.629-60.49 132.42-99.85 254.43-150.5 382.35-1.01 2.571-3.92 3.821-6.49 2.809-2.56-1.02-3.82-3.93-2.8-6.488" fill="#1d2a30"/>
<path d="m2343.6 1083.8c10.08-22.08 19.58-43.87 28.64-65.45 1.06-2.54 4-3.74 6.54-2.67 2.55 1.07 3.75 4 2.68 6.54-9.09 21.67-18.64 43.55-28.77 65.73-1.14 2.51-4.11 3.62-6.62 2.47-2.51-1.14-3.62-4.11-2.47-6.62" fill="#1d2a30"/>
<path d="m2949.3 1037.7 2.32-124.54c0.06-2.762 2.34-4.949 5.1-4.898 2.76 0.047 4.95 2.328 4.9 5.09l-2.32 124.53c-0.05 2.76-2.33 4.96-5.09 4.91-2.77-0.05-4.96-2.33-4.91-5.09" fill="#1d2a30"/>
<path d="m2948.2 1096.9 0.61-33.03c0.05-2.76 2.33-4.96 5.09-4.91s4.96 2.33 4.91 5.09l-0.62 33.03c-0.05 2.76-2.33 4.96-5.09 4.91s-4.95-2.33-4.9-5.09" fill="#1d2a30"/>
<path d="m2550.3 1380.7c-1.02-31.12-1.82-55.33-2.65-80.73l-0.04-2.28c0.03-16.22 5.4-33.78 11.99-50.86 6.6-17.05 14.52-33.62 19.93-47.23 19.69-49.39 29.26-110.44 42.77-163.06 0.69-2.67 3.41-4.28 6.09-3.59 2.67 0.68 4.28 3.41 3.59 6.08-13.38 51.96-22.91 113.34-43.16 164.27-5.61 14.08-13.48 30.54-19.9 47.14-6.43 16.57-11.33 33.29-11.31 47.25l0.04 1.96c0.83 25.39 1.63 49.6 2.64 80.72 0.09 2.76-2.07 5.07-4.83 5.16s-5.07-2.07-5.16-4.83" fill="#1d2a30"/>
<path d="m2630.5 988c9.41-39.52 18.82-79.031 28.22-118.56 0.64-2.679 3.34-4.339 6.02-3.703 2.69 0.641 4.35 3.332 3.71 6.024-9.4 39.519-18.81 79.027-28.22 118.55-0.64 2.691-3.34 4.351-6.03 3.711-2.68-0.641-4.34-3.34-3.7-6.02" fill="#1d2a30"/>
<path d="m2794.7 1327.7c-2-18.31-4-36.63-6.01-54.94-0.41-3.78-0.61-7.74-0.61-11.8 0.04-19.58 4.54-41.75 13.72-57.91l4.34 2.48-4.98-0.34 8.45-122.22c0.19-2.75 2.58-4.83 5.34-4.64 2.75 0.19 4.83 2.58 4.64 5.33l-8.46 122.22-0.64 2.14c-7.99 13.87-12.45 34.94-12.41 52.94 0 3.73 0.19 7.34 0.55 10.71 2.01 18.31 4.01 36.63 6.01 54.94 0.3 2.75-1.68 5.21-4.43 5.51-2.74 0.3-5.21-1.68-5.51-4.42" fill="#1d2a30"/>
<path d="m1778.6 781.58c38.85-93.148 108.07-173.22 194.63-225.12 2.37-1.422 5.44-0.652 6.86 1.719s0.65 5.441-1.72 6.859c-84.69 50.762-152.55 129.25-190.54 220.39-1.06 2.55-3.99 3.75-6.54 2.691-2.55-1.07-3.75-3.992-2.69-6.543" fill="#1d2a30"/>
<path d="m2197.6 419.28c24.89-10.922 49.78-21.832 74.66-32.742l2.01 4.582-4.84-1.281c2.58-9.75 3.19-18.699 4.39-29.039 1.77-15.512 5.05-33.813 18.67-60.25 13.62-26.492 37.48-61.352 80.57-111.36 1.8-2.089 4.96-2.32 7.05-0.519 2.09 1.797 2.33 4.957 0.52 7.047-57.06 66.211-79.59 105.14-89.22 132.12-4.83 13.512-6.49 24.082-7.66 34.109-1.17 10.012-1.79 19.582-4.65 30.449-0.38 1.461-1.43 2.692-2.82 3.301-24.89 10.91-49.78 21.821-74.66 32.731-2.53 1.109-5.48-0.039-6.59-2.571-1.11-2.527 0.04-5.48 2.57-6.589" fill="#1d2a30"/>
<path d="m3406.5 4003.8v134.62c0 2.76-2.24 5-5 5s-5-2.24-5-5v-134.62c0-2.76 2.24-5 5-5s5 2.24 5 5" fill="#1d2a30"/>
<path d="m3523.5 3777.7c0-67.39-54.62-122.01-122-122.01-67.39 0-122.01 54.62-122.01 122.01 0 67.38 54.62 122 122.01 122 67.38 0 122-54.62 122-122" fill="#fff"/>
<path d="m3105.1 3727.7c0 163.67 132.68 296.36 296.36 296.36s296.36-132.69 296.36-296.36h-592.72" fill="#6aba2f"/>
<path d="m3105.1 3727.7h5c0 80.47 32.6 153.28 85.34 206.02 52.74 52.73 125.55 85.34 206.02 85.34s153.28-32.61 206.03-85.34c52.73-52.74 85.33-125.55 85.33-206.02h5v5h-592.72v-5h5-5v-5h592.72c1.32 0 2.61 0.53 3.54 1.46s1.46 2.22 1.46 3.54c0 166.43-134.92 301.36-301.36 301.36s-301.36-134.93-301.36-301.36c0-1.32 0.53-2.61 1.46-3.54s2.22-1.46 3.54-1.46v5" fill="#1d2a30"/>
<path d="m3456.4 4018.9c-8.99 1.69-18.13 2.99-27.39 3.84-150.77-13.87-268.87-140.64-268.87-295.04h54.87c0 144.88 103.99 265.43 241.39 291.2" fill="#1d2a30"/>
<path d="m3456.4 4018.9 0.92 4.92c-9.14 1.71-18.42 3.03-27.85 3.9h-0.92c-153.33-14.12-273.4-143.02-273.41-300.02 0-1.32 0.53-2.61 1.46-3.54 0.94-0.93 2.22-1.46 3.54-1.46h54.87c1.32 0 2.61 0.53 3.54 1.46s1.46 2.22 1.46 3.54c-0.01 142.44 102.24 260.95 237.31 286.29 2.36 0.44 4.08 2.51 4.08 4.91s-1.72 4.48-4.08 4.92l-0.92-4.92-0.92 4.91c-139.74-26.2-245.46-148.78-245.47-296.11h5v5h-54.87v-5h5c-0.01 151.79 116.11 276.42 264.33 290.07l-0.46 4.97-0.46-4.97c9.1-0.84 18.08-2.12 26.93-3.78l0.92 4.91-0.92 4.91 0.92-4.91" fill="#28272b"/>
<path d="m3387 3411.5h10v120.34h-10z" fill="#28272b"/>
<path d="m3387 3334.1h10v38.719h-10z" fill="#28272b"/>
<path d="m3592.9 3496.6-85.8 85.8-7.07-7.07 85.8-85.81" fill="#28272b"/>
<path d="m3647.5 3442-33.98 33.98-7.07-7.07 33.98-33.98" fill="#28272b"/>
<path d="m3550.6 3685.5h38.77v10h-38.77z" fill="#28272b"/>
<path d="m3627 3685.5h121.4v10h-121.4z" fill="#28272b"/>
<path d="m3035.8 3685.5h124.35v10h-124.35z" fill="#28272b"/>
<path d="m3194.7 3685.5h34.57v10h-34.57z" fill="#28272b"/>
<path d="m3170.5 3476-33.98-33.98 7.07-7.07 33.98 33.98" fill="#28272b"/>
<path d="m3274.8 3580.3-83.65-83.64 7.08-7.08 83.64 83.65" fill="#28272b"/>
<path d="m793.7 1064.4c-9.297 36.64-11.738 72.25-5.91 113.53-12.859-19.26-36.75-74.55-36.75-74.55-17.762-41.33-53.73-57.97-64.715-37.58-6.82 12.65-3.406 28.14 0.172 42.07 9.684 37.7 19.367 75.42 29.055 113.12-21.352 34.42-36.164-88.55-88.168-152.4-8.762-10.75-26.356-15.1-38.75-8.88-27.528 13.82-10.477 49.9 2.039 75.27 20.824 42.22 26.418 81.7 6.722 124.47-23.007-53.24-65.691-87.85-112.91-121.53-13.582-9.7-30.094-18.77-46.476-11.24-16.036 7.39-23.051 26.17-18.965 43.34 7.742 32.52 36.832 48.18 60.207 68.18 19.109 16.34 36.078 40.8 29.332 65.01-34.832-52.52-90.277-90.39-151.23-105.97-23.933-6.11-40.433 23.68-22.761 40.95l68.789 67.2c-56.5-20.31-114.97-35.12-174.33-44.15-11.809-1.8-23.93 5.06-26.973 16.62-3.285 12.45 6.742 20.42 15.934 26.35 95.668 61.87 215.4 85.39 327.36 64.31 151.79-28.57 320.2-142.24 282.46-303.42-4.199-17.94-29.61-18.56-34.141-0.7" fill="#73cd91"/>
<path d="m810.48 1051.3c-7.304 0-14.558 4.31-16.781 13.08-5.918 23.33-9.058 46.24-9.055 70.46 0 13.82 1.028 28.07 3.145 43.07-12.859-19.26-36.75-74.55-36.75-74.55-12.621-29.37-34.445-46.28-49.957-46.28-6.313 0-11.578 2.8-14.758 8.7-2.875 5.34-3.933 11.18-3.922 17.2 0.012 8.24 2.028 16.82 4.094 24.87 9.684 37.7 19.367 75.42 29.055 113.12-2.543 4.1-4.992 5.97-7.426 5.97-17.981 0-34.93-102.13-80.742-158.37-6.012-7.38-16.188-11.74-25.985-11.74-4.476 0-8.879 0.91-12.765 2.86-10.86 5.45-14.782 14.37-14.782 24.73 4e-3 15.89 9.243 35.18 16.821 50.54 11.957 24.24 18.894 47.58 18.902 71.16 8e-3 17.48-3.793 35.1-12.18 53.31-23.007-53.24-65.691-87.85-112.91-121.53-10.058-7.19-21.73-14.03-33.762-14.03-4.21 0-8.468 0.84-12.714 2.79-13.032 6-20.106 19.53-20.11 33.59 0 3.25 0.375 6.53 1.145 9.75 7.742 32.52 36.832 48.18 60.207 68.18 16.199 13.85 30.855 33.53 30.84 53.96-4e-3 3.67-0.481 7.36-1.508 11.05-34.832-52.52-90.277-90.39-151.23-105.97-2.168-0.55-4.281-0.81-6.304-0.81-13.828 0-23.883 12.04-23.864 24.68 8e-3 5.96 2.258 12.05 7.407 17.08l68.789 67.2c-56.5-20.31-114.97-35.12-174.33-44.15-1.254-0.19-2.516-0.29-3.766-0.29-10.519 0-20.488 6.58-23.207 16.91-0.437 1.65-0.637 3.23-0.637 4.73 0 9.8 8.602 16.48 16.571 21.62 72.672 47 159.23 71.87 245.73 71.87 27.367 0 54.727-2.49 81.637-7.56 53.086-9.99 108.21-30.39 155.82-59.59-0.113-0.92-0.172-1.83-0.168-2.76 8e-3 -5.59 2.203-11.29 7.176-15.81 29.785-27.13 62.215-58.88 94.141-76.81 5.394-8.56 10.175-17.41 14.261-26.54-80.285 92.82-210.35 164.51-374.55 164.51-19.902 0-40.304-1.06-61.175-3.25-2.746-0.29-4.739-2.75-4.45-5.5 0.27-2.57 2.442-4.47 4.965-4.47 0.176 0 0.352 0.01 0.532 0.02 20.527 2.16 40.578 3.2 60.128 3.2 162.3-0.01 290.18-71.27 368.56-162.88l-0.016 0.02c2.715-3.2 5.395-6.37 7.946-9.57l0.05-0.06c2.715-3.29 5.403-6.61 8.055-9.94 4.262-15.54 6.543-31.75 6.547-48.6 4e-3 -14.66-1.715-29.8-5.363-45.39-2.137-9.13-9.778-13.78-17.36-13.78" fill="#6aba2f"/>
<path d="m381.94 1338.3c20.527 2.16 40.578 3.2 60.128 3.2 162.3-0.01 290.18-71.27 368.56-162.88l-0.016 0.02c2.715-3.2 5.395-6.37 7.946-9.57l0.05-0.06c65.239-79.05 111.86-170.99 150.15-267.28 1.019-2.563 3.93-3.821 6.496-2.801 2.563 1.019 3.816 3.93 2.797 6.5-38.512 96.829-85.555 189.75-151.73 269.95l-3.855-3.19 3.906 3.12c-2.672 3.35-5.414 6.59-8.133 9.79l-0.011 0.02c-80.153 93.72-210.86 166.38-376.16 166.38-19.902 0-40.304-1.06-61.175-3.25-2.746-0.29-4.739-2.75-4.45-5.5 0.289-2.74 2.747-4.73 5.497-4.45" fill="#28272b"/>
<path d="m253.5 1311.2c26.934 8.46 53.25 15.02 78.898 19.84 2.715 0.51 4.504 3.12 3.993 5.83-0.508 2.72-3.122 4.51-5.836 4-26.051-4.89-52.75-11.55-80.051-20.13-2.637-0.82-4.102-3.63-3.274-6.27 0.829-2.63 3.633-4.1 6.27-3.27" fill="#1d2a30"/>
<path d="m937.55 1464.5c5.996 25.15-29.274 37.66-40.789 14.51-8.016-16.11-13.707-33.36-16.653-51.12 33.02 66.87 23.993 151.39-18.843 211.89-11.196 15.81-36.282 10.01-39.246-9.13-5.891-38.01-4.18-77.21 5.222-114.5-10.906 75.89-35.656 149.76-72.66 216.92-7.309 13.26-16.723 27.56-32.852 28.57-15.656 0.96-29.117-10.92-32.726-26.18-6.551-27.75 9.91-50.85 24.375-72.74 11.914-18.04 23.41-38.75 19.894-60.08-49.105 64.13-105.7 122.53-168.26 173.64-16.743 13.67-37.973 27.76-58.903 15.29-12.902-7.7-18.871-23.15-16.8-38.03 4.292-30.8 29.601-48.48 53.414-64.4-49.161 51.68-126.09 73.64-195.71 60-20.465-4.02-23.625-32.13-4.762-41.04l74.297-35.06c-37.672 4.98-76.813-7.27-106.18-31.22-15.324-12.5-6.383-37.5 13.375-38.27l110.09-4.28-53.68-49.54c-14.976-13.82-4.457-38.81 15.895-37.75l169.75 8.79c-24.18 1.87-48.723-5.01-68.934-18.36-16.004-10.58-10.531-35.42 8.262-39.29 54.785-11.26 111.5-13.18 166.91-5.53-24.172-6.75-46.855-18.66-66.281-34.54-12.992-10.62-8.875-31.59 6.988-37.07 59.887-20.7 123.63-47.79 181.75-65.54-16.097-2.22-43.449 4.29-68.758 7.59-21.132 2.77-33.281-23.33-17.523-37.67 63.613-57.93 139.22-136.93 196.45-57.5 22.438 31.13 10.945 109.34 16.652 147.6 4.207 28.23 9.622 56.27 16.235 84.04" fill="#73cd91"/>
<path d="m848.52 1199.3c-15.028 0-30.536 5.47-46.164 14.25-31.926 17.93-64.356 49.68-94.141 76.81-4.973 4.52-7.168 10.22-7.176 15.81-0.019 11.25 8.801 22.07 21.621 22.07 1 0 2.032-0.07 3.078-0.21 21.754-2.83 45.016-8.05 61.344-8.05 2.668 0 5.156 0.14 7.414 0.46-58.117 17.75-121.86 44.84-181.75 65.54-9.418 3.25-14.695 11.97-14.711 20.73-8e-3 6 2.445 12.03 7.723 16.34 19.426 15.88 42.109 27.79 66.281 34.54-22.258-3.07-44.723-4.6-67.191-4.6-33.465 0-66.942 3.39-99.719 10.13-11.195 2.3-17.664 12.05-17.68 21.79-0.011 6.61 2.949 13.22 9.418 17.5 12.766 8.43 27.258 14.28 42.297 16.98l-143.12-7.41c-0.418-0.02-0.832-0.03-1.242-0.03-13.008 0-21.696 10.75-21.711 21.94-0.012 5.61 2.16 11.32 7.058 15.84l53.68 49.54-110.09 4.28c-12.847 0.5-21.125 11.25-21.125 22.15 0 5.85 2.395 11.75 7.75 16.12 25.028 20.4 57.137 32.32 89.395 32.32 5.601 0 11.215-0.36 16.789-1.1l-74.297 35.06c-8.473 4-12.504 11.88-12.516 19.71-0.015 9.59 6.004 19.12 17.278 21.33 13.558 2.65 27.386 3.96 41.242 3.96 40.957 0 82.078-11.43 116.66-33.15-7.93 9.35-13.738 20.24-15.601 33.59-0.266 1.92-0.399 3.85-0.403 5.77-0.012 12.97 5.965 25.56 17.203 32.26 5.703 3.4 11.43 4.82 17.078 4.82 15.086 0 29.645-10.17 41.825-20.11 62.558-51.11 119.15-109.51 168.26-173.64 0.442 2.67 0.645 5.33 0.645 7.97-8e-3 18.5-10.113 36.33-20.539 52.11-12.207 18.47-25.832 37.8-25.856 60.06-3e-3 4.12 0.457 8.34 1.481 12.68 3.473 14.68 16.059 26.23 30.945 26.23 0.59 0 1.184-0.02 1.781-0.05 16.129-1.01 25.543-15.31 32.852-28.57 30.449-55.26 52.602-115.07 65.57-176.81-1.035 9.94-1.55 19.94-1.55 29.94 0 14.88 1.14 29.75 3.418 44.45 1.789 11.57 11.66 18.26 21.66 18.26 6.547 0 13.156-2.87 17.586-9.13 0.371-0.52 0.738-1.04 1.101-1.57-2.844-2.83-4.965-6.27-5.949-10.24-0.426-1.72-0.625-3.44-0.629-5.15-0.012-10.45 7.348-20.43 15.254-27.89 4.824-4.56 13.934-13.64 21.738-23.06 0.856-3.22 1.633-6.47 2.34-9.72-13.672-0.61-27.613-1.66-39.406-9.35-8.395-5.49-14.344-14.56-14.344-24.57 0-0.08 4e-3 -0.16 4e-3 -0.24 0.293-29.71 47.098-40.83 47.133-69.98 0-0.94-0.047-1.9-0.145-2.88-9.351 10.24-22.433 21.17-35.027 21.17-4.301 0-8.543-1.27-12.559-4.28-6.605-4.97-10.062-12.97-10.05-21.14 0-2.18 0.25-4.38 0.753-6.53 11.301-48.19 48.59-82.79 87.965-111.61 4e-3 -2.51 8e-3 -5.04 8e-3 -7.58 4e-3 -35-0.765-72.84-14.789-92.3-17.316-24.03-36.309-33.56-56.148-33.56m-21.274 316.85m-284.52 172.99" fill="#8ed559"/>
<path d="m858.82 1315.5c14.102-29.4 26.125-59.8 35.989-90.84l-4e-3 0.01c21.984-69.61 33.125-142.7 33.125-215.72 0-22.798-1.086-45.599-3.266-68.279-0.266-2.75 1.75-5.191 4.496-5.461 2.75-0.261 5.195 1.75 5.457 4.5 2.211 23.012 3.313 46.122 3.313 69.24 0 74.04-11.293 148.12-33.59 218.73v0.01c-10.004 31.48-22.199 62.31-36.504 92.13-1.195 2.49-4.184 3.54-6.672 2.35s-3.539-4.18-2.344-6.67" fill="#28272b"/>
<path d="m480.63 1666.2c140.25-54.95 261.59-156.64 341.46-284.19 1.465-2.34 4.55-3.05 6.89-1.58 2.34 1.46 3.051 4.55 1.586 6.89-81.039 129.37-203.98 232.41-346.29 288.19-2.57 1.01-5.472-0.26-6.476-2.83-1.008-2.57 0.258-5.47 2.828-6.48" fill="#28272b"/>
<path d="m1062.7 1042.1c57.28 26.16 104.17 83.04 126.3 155.08-15.29-83.22 9.19-128.56 31.47-137.68 22.27-9.11 49.37 3.22 62 23.71 12.62 20.49 12.83 46.69 6.32 69.86-11.65 41.52-35.73 105.44-35.73 105.44 19.88-24.14 51.1-41.1 81.89-50.92 14.95-4.77 31.4-4.8 45.68 1.73 43.57 19.93 33.4 78.72 0.94 105.08-28.35 23.02-60.61 32.68-96.89 36.82-9.24 10.39 54.14 27.7 84.97 29.51 72.93 4.28 107.84 103.36-4.18 100.18-25.13-0.72-86.15-1.71-86.15-1.71 65.77 3.8 125.65 73.23 121.89 119.73-2.48 30.53-39.67 48.71-68.73 39.07-33.35-11.06-59.12-28.45-86.2-31.65 58.93 16.73 115.01 187.69 59.44 212.05-48.37 21.19-71.02-89.81-81.53-140.98-3.54 25.09-3.24 84.48-46.25 164.94-19.51 36.48-50.2 50.96-56.83 53.99-30.1 13.8-49.75-24.43-47.74-53.42 1.17-17.03 7.81-34.16 17.71-50.05 59.74-95.87 90.92-206.06 86.16-318.92-9.97-236.24-77.13-385.08-114.54-431.86" fill="#73cd91"/>
<path d="m1062.7 1042.1c37.41 46.78 104.57 195.62 114.54 431.86 0.32 7.5 0.48 14.98 0.48 22.45 0.02 104.98-30.87 206.96-86.64 296.47-9.9 15.89-16.54 33.02-17.71 50.05-0.1 1.35-0.14 2.73-0.14 4.12-0.01 24.02 13.79 52.21 35.48 52.21 3.89 0 8.04-0.91 12.4-2.91 6.63-3.03 37.32-17.51 56.83-53.99 43.01-80.46 42.71-139.85 46.25-164.94 9.61 46.8 29.38 143.63 69.69 143.63 3.76 0 7.71-0.84 11.84-2.65 16.12-7.07 22.84-26.47 22.83-50.85-0.03-59.7-40.43-149.32-82.27-161.2 27.08 3.2 52.85 20.59 86.2 31.65 5.3 1.76 10.88 2.6 16.46 2.6 25.02 0 50.24-16.71 52.27-41.67 0.11-1.41 0.17-2.83 0.17-4.28-0.04-46.37-58.28-111.77-122.06-115.45 0 0 61.02 0.99 86.15 1.71 1.78 0.05 3.51 0.07 5.21 0.07 47.68 0 66.74-19.55 66.71-41.39-0.04-26.58-28.34-56.55-67.74-58.86-28.78-1.69-85.94-16.89-85.88-27.36 0-0.74 0.29-1.46 0.91-2.15 36.28-4.14 68.54-13.8 96.89-36.82 17.18-13.95 28.12-36.99 28.14-58.54 0.03-19.16-8.58-37.16-29.08-46.54-7.68-3.51-15.99-5.13-24.35-5.13-7.19 0-14.42 1.2-21.33 3.4-30.79 9.82-62.01 26.78-81.89 50.92 0 0 24.08-63.92 35.73-105.44 2.7-9.59 4.24-19.71 4.23-29.72-0.02-14.17-3.15-28.14-10.55-40.14-9.74-15.81-28.09-26.76-46.2-26.76-5.37 0-10.71 0.97-15.8 3.05-17.45 7.14-36.25 36.5-36.23 88.88 0 14.5 1.45 30.76 4.76 48.8-22.13-72.04-69.02-128.92-126.3-155.08" fill="#8ed559"/>
<path d="m1125.1 1795.9c49.31-88.16 71.1-186.56 71.11-287.35 0-10.84-0.26-21.71-0.75-32.6-11.74-257.19-146.44-465.66-267.14-603.18-1.824-2.082-1.617-5.242 0.457-7.063 2.074-1.816 5.234-1.617 7.059 0.461 121.5 138.47 257.67 348.79 269.62 609.32 0.5 11.04 0.76 22.06 0.76 33.06 0 102.21-22.13 202.39-72.38 292.24-1.35 2.41-4.4 3.27-6.81 1.92s-3.27-4.4-1.92-6.81" fill="#28272b"/>
<path d="m883.72 1919.7c3.308 33.14 12.578 65.66 27.226 95.56 6.352 12.97 15.055 26.65 31.918 26.2 13.156-0.35 24.258-10.11 28.02-22.71 7.812-26.22-7.446-48.97-21.949-69.4-4.895 15.45 16.101 36.03 32.105 33.52 14.629-2.29 21.307-21.33 16.348-35.28-4.957-13.94-17.407-23.63-29.25-32.52 5.613 9.39 28.992 10.73 39.479 7.64 10.48-3.09 18.2-13.78 17.83-24.71-1.01-29.92-50.044-38.52-53.485-68.26 9.828 9.5 34.845 21.34 48.045 24.91 13.19 3.58 29.85-1.65 34.2-14.61 2.87-8.55-0.19-17.91-4.03-26.06-12.6-26.73-34.21-49.12-60.477-62.67 11.757 6.18 24.337 13.68 37.047 21.42 31.28 19.04 69.9-12.7 55.82-46.5l-0.32-0.76c-10.67-24.97-32.38-44.97-58.14-53.56 16.27 14.11 38.1 25.59 58.39 32.12 12.31 3.94 25.73 4.35 37.81-0.28 37.07-14.22 33.02-58.54 11.24-82.66-17.48-19.36-43.04-28.92-67.56-37.79 11.68 15.03 57.61 8.04 71.78-4.66 14.16-12.71 17.62-34.66 11.39-52.65-6.22-17.98-20.66-32.19-37.04-41.87-16.37-9.69-34.74-15.39-52.92-21.02 18.03 8.87 47.98 11.48 64.06-0.57 16.07-12.06 24.57-33.45 21.12-53.25-4.79-27.58-29-46.7-47.9-67.35-25.48-27.87-67.61-126.38-68.07-130.06-27.097 39.56-57.527 85.89-96.726 113.52-42.977 30.28-85.926 66.6-98.204 118.95-2.386 10.2 0.926 21.38 9.297 27.67 15.782 11.83 35.043-3.16 47.586-16.89 3.176 31.33-46.687 42.19-46.988 72.86-0.098 10.1 5.879 19.28 14.34 24.81 12.496 8.14 27.402 8.85 41.84 9.45 5.027 0.21 10.3 0.36 14.777-1.92 4.473-2.29 7.668-7.91 5.508-12.45s-10.586-4.3-11.227 0.68c-1.613 12.55-26.375 37.69-35.57 46.37-9.199 8.68-17.66 20.77-14.625 33.04 2.789 11.24 14.723 18.27 26.27 19.12 11.546 0.85 42.238-13.31 53.132-17.23-0.648-1.07-6.148 0.41-11.648 1.9-5.496 1.48-10.988 2.96-11.637 1.9-15.781 8.03-25.199 23.81-39.988 33.55-12.352 8.14-24.711 17.28-31.875 30.21-7.168 12.94-7.731 30.63 2.41 41.39 10.137 10.78 49.973 4.3 54.981-9.62-17.801 12.68-40.11 30.31-57.915 42.99-9.789 6.97-19.824 14.19-26.281 24.34-6.453 10.14-8.531 24.02-1.851 34.01 5.57 8.34 16.89 12.33 26.461 9.33 9.574-3.01 31.082-8.71 30.886-18.74-14.179 19.96-30.402 41.91-49.222 59.09-10.051 9.18-3.438 26.08 10.168 26.3 7.98 0.14 15.586-1.34 20.488-4.63-26.692 17.01-47.863 41.13-69.727 63.94-4.34 4.53-6.109 11.33-3.39 16.99 3.875 8.05 12.55 7.03 19.566 5.06 32.449-9.13 70.949-38.23 86.477-68.16" fill="#73cd91"/>
<path d="m1026.4 1211.9c-27.097 39.56-57.527 85.89-96.726 113.52-3.418 2.4-6.836 4.85-10.239 7.34-39.375 28.82-76.664 63.42-87.965 111.61-0.503 2.15-0.753 4.35-0.753 6.53-0.012 8.17 3.445 16.17 10.05 21.14 4.016 3.01 8.258 4.28 12.559 4.28 12.594 0 25.676-10.93 35.027-21.17 0.098 0.98 0.145 1.94 0.145 2.88-0.035 29.15-46.84 40.27-47.133 69.98 0 0.08-4e-3 0.16-4e-3 0.24 0 10.01 5.949 19.08 14.344 24.57 12.496 8.14 27.402 8.85 41.84 9.45 0.828 0.04 1.66 0.07 2.492 0.09-2.125 3.1-4.621 6.33-7.266 9.53-7.804 9.42-16.914 18.5-21.738 23.06-7.906 7.46-15.266 17.44-15.254 27.89 4e-3 1.71 0.203 3.43 0.629 5.15 2.789 11.24 14.723 18.27 26.27 19.12 0.335 0.02 0.687 0.03 1.05 0.03 3.571 0 8.582-1.14 14.149-2.85-8.332 7.67-15.696 16.59-25.34 22.94-12.352 8.14-24.711 17.28-31.875 30.21-3.387 6.11-5.301 13.29-5.305 20.3-4e-3 7.82 2.367 15.42 7.715 21.09 3.512 3.73 10.586 5.4 18.543 5.4 6.754 0 14.137-1.2 20.52-3.34-14.094 10.54-29.207 22.2-41.997 31.31-9.789 6.97-19.824 14.19-26.281 24.34-3.703 5.82-5.969 12.88-5.961 19.72 8e-3 5.08 1.266 10.04 4.11 14.29 4.32 6.47 12.105 10.32 19.847 10.32 2.239 0 4.469-0.32 6.614-0.99 6.152-1.93 17.222-4.98 24.304-9.57-12.566 17.33-26.668 35.34-42.64 49.92-3.36 3.07-4.856 6.99-4.856 10.87 0 7.74 5.961 15.29 15.024 15.43 0.336 0.01 0.671 0.01 1.004 0.01 7.273 0 14.152-1.36 18.843-4.23-26.39 16.99-47.398 40.91-69.086 63.53-2.933 3.06-4.691 7.16-4.687 11.24 4e-3 1.96 0.414 3.91 1.297 5.75 2.367 4.91 6.527 6.45 11.004 6.45 2.851 0 5.832-0.62 8.562-1.39 32.449-9.13 70.949-38.23 86.477-68.16 3.308 33.14 12.578 65.66 27.226 95.56 6.25 12.76 14.778 26.21 31.114 26.21 0.269 0 0.535 0 0.804-0.01 13.156-0.35 24.258-10.11 28.02-22.71 1.465-4.92 2.117-9.71 2.117-14.39 0-8.32-2.066-16.27-5.316-23.91 3.488 1.66 7.121 2.63 10.609 2.63 0.93 0 1.844-0.07 2.746-0.21 11.398-1.78 17.973-13.74 17.969-25.53 0-3.34-0.528-6.67-1.621-9.75-3.907-10.99-12.469-19.33-21.715-26.73 5.488 2.32 12.762 3.34 19.41 3.34 4.809 0 9.284-0.53 12.534-1.49 10.24-3.01 17.84-13.28 17.84-23.94 0-0.25 0-0.51-0.01-0.77-1.01-29.92-50.044-38.52-53.485-68.26 9.828 9.5 34.845 21.34 48.045 24.91 2.71 0.74 5.57 1.1 8.44 1.1 11.08 0 22.31-5.41 25.76-15.71 0.78-2.33 1.13-4.73 1.13-7.15 0.01-6.43-2.37-12.99-5.16-18.91-12.17-25.8-32.72-47.56-57.754-61.22 10.964 5.88 22.584 12.82 34.324 19.97 6.52 3.97 13.35 5.73 19.96 5.73 20.52 0 38.87-16.97 38.84-37.77 0-4.68-0.94-9.55-2.98-14.46l-0.32-0.76c-4.64-10.85-11.36-20.76-19.6-29.21 6.62 3.05 13.32 5.67 19.85 7.77 6.2 1.99 12.69 3.08 19.14 3.08 6.36 0 12.68-1.06 18.67-3.36 19.69-7.55 27.78-23.6 27.77-40.61-0.01-15-6.32-30.74-16.53-42.05-12.25-13.57-28.47-22.32-45.53-29.4 1.4 0.08 2.83 0.12 4.27 0.12 17.1 0 36.99-5.56 45.48-13.17 9.68-8.69 14.36-21.69 14.36-34.8 0-6.07-1-12.16-2.97-17.85-6.22-17.98-20.66-32.19-37.04-41.87-10.6-6.28-22.04-10.88-33.72-14.87 4.98 0.92 10.16 1.43 15.25 1.43 11.16 0 21.95-2.42 29.61-8.15 13.69-10.27 21.88-27.31 21.88-44.36 0-2.98-0.24-5.95-0.76-8.89-4.79-27.58-29-46.7-47.9-67.35-25.48-27.87-67.61-126.38-68.07-130.06" fill="#6aba2f"/>
<path d="m967.63 1672.9c39.931-147.26 55.771-275.51 55.771-387.12-0.01-213.36-57.857-365.91-116.61-474.32-1.316-2.43-0.418-5.461 2.012-6.781 2.426-1.309 5.461-0.411 6.777 2.019 59.348 109.43 117.84 263.9 117.82 479.08 0 112.55-15.98 241.71-56.123 389.73-0.722 2.67-3.468 4.24-6.132 3.52-2.665-0.72-4.239-3.47-3.516-6.13" fill="#28272b"/>
<path d="m912.22 1846.4c10.558-28.9 20.25-57.17 29.121-84.81 0.844-2.63 3.66-4.07 6.289-3.23s4.074 3.66 3.234 6.29c-8.914 27.77-18.648 56.16-29.25 85.18-0.949 2.59-3.82 3.93-6.414 2.98s-3.926-3.82-2.98-6.41" fill="#1d2a30"/>
<path d="m654.2 966.71 74.207-496.2h444.49v0.097l74.1 496.1h-592.8" fill="#fff"/>
<path d="m654.2 966.71-4.941-0.731 74.84-500.47h453.8v4.73l74.91 501.47h-604.41l0.86-5.731 4.941 0.731v-5h587l-73.3-490.73v-0.468h5v5h-440.18l-73.57 491.94-4.946-0.738v-5 5" fill="#28272b"/>
<path d="m729.2 468.91-4.929-0.82 21.894-131.68h41.051l12.801 42.301h301.88l12.9-42.301h41.05l22.94 139.1h-372.84l-82.633-1.723 0.95-5.699 4.929 0.82 0.106-5 76.75 1.602h360.96l-19.65-119.1h-25.15l-12.91 42.301h-316.71l-12.801-42.301h-25.152l-20.508 123.32-4.934-0.82 0.106-5-0.106 5" fill="#28272b"/>
<path d="m1165.5 470.51v-5h12.4v10.168l-12.46-0.168 0.06-10v5l0.07-5 7.4 0.097-0.07 5h-5v-0.097h5v5h-7.4v-5l0.07-5-0.07 5" fill="#100f0d"/>
<path d="m800.3 470.51v-5h5.699l0.375 9.988-1.301 0.102-0.242 0.019-4.641-0.109 0.11-10v5l0.113-4.992 4.152 0.089 1.059-0.078 0.375 4.981v5h-5.699v-5l0.113-4.992-0.113 4.992" fill="#100f0d"/>
</g>
</g>
</svg>
