<?xml version="1.0" encoding="UTF-8"?>
<svg class="" width="512" height="512" version="1.1" viewBox="0 0 24 24" xml:space="preserve" xmlns="http://www.w3.org/2000/svg"><path class="" d="m23.522 10.399-2.522-2.354v-6.045a1 1 0 0 0-1-1h-3a1 1 0 0 0-1 1v1.368l-3.317-3.099a1 1 0 0 0-1.365 0l-10.865 10.154a1.502 1.502 0 0 0 1.047 2.577h1.5v8.5c0 1.378 1.122 2.5 2.5 2.5h13c1.378 0 2.5-1.122 2.5-2.5v-8.5h1.5c0.827 0 1.5-0.673 1.5-1.5 0-0.402-0.161-0.785-0.478-1.101zm-7.655 2.778-4.5 6.5c-0.457 0.661-1.503 0.232-1.354-0.565l0.583-3.112h-1.846a0.751 0.751 0 0 1-0.617-1.177l4.5-6.5c0.461-0.664 1.501-0.223 1.354 0.565l-0.583 3.112h1.846c0.603 0 0.96 0.681 0.617 1.177z" fill="#28272b" data-original="#000000"/></svg>
