<?xml version="1.0" encoding="UTF-8"?>
<svg class="" width="386.13" height="384" enable-background="new 0 0 512 512" version="1.1" viewBox="0 0 18.1 18" xml:space="preserve" xmlns="http://www.w3.org/2000/svg"><path class="" d="m13 16h-8c-0.6 0-1 0.4-1 1s0.4 1 1 1h8c0.6 0 1-0.4 1-1s-0.4-1-1-1zm1.8-16h-11.6c-1.8 0-3.2 1.4-3.2 3.2v8.7c0 1.7 1.4 3.1 3.2 3.1h11.7c1.7 0 3.2-1.4 3.2-3.2v-8.6c-0.1-1.8-1.5-3.2-3.3-3.2zm-5.8 11c-0.6 0-1-0.4-1-1s0.4-1 1-1 1 0.4 1 1-0.4 1-1 1zm2.5-2.1c-0.2 0.2-0.5 0.3-0.7 0.3s-0.5-0.1-0.7-0.3c-0.6-0.6-1.6-0.6-2.1 0-0.4 0.4-1 0.4-1.4 0s-0.4-1 0-1.4c1.3-1.3 3.6-1.3 5 0 0.3 0.4 0.3 1-0.1 1.4zm1.8-1.7c-0.2 0.2-0.5 0.3-0.7 0.3-0.3 0-0.5-0.1-0.7-0.3-1.5-1.5-4.1-1.5-5.7 0-0.4 0.4-1 0.4-1.4 0s-0.4-1 0-1.4c1.1-1.2 2.6-1.8 4.2-1.8s3.1 0.6 4.2 1.7c0.4 0.4 0.4 1.1 0.1 1.5z" fill="#28272b" data-original="#000000"/></svg>
