<?xml version="1.0" encoding="UTF-8"?>
<svg class="" width="512" height="512" enable-background="new 0 0 512 512" version="1.1" viewBox="0 0 492.49 492" xml:space="preserve" xmlns="http://www.w3.org/2000/svg"><g fill="#29262b"><path class="" d="m304.14 82.473-270.98 271a10.799 10.799 0 0 0-2.816 4.949l-30.036 120.56a10.716 10.716 0 0 0 2.816 10.136 10.675 10.675 0 0 0 7.527 3.114 10.6 10.6 0 0 0 2.582-0.32l120.56-30.04a10.655 10.655 0 0 0 4.95-2.812l271-270.98zm172.74-36.95-30.164-30.163c-20.16-20.16-55.297-20.14-75.434 0l-36.949 36.95 105.6 105.6 36.949-36.949c10.07-10.066 15.617-23.465 15.617-37.715s-5.547-27.648-15.617-37.719z" fill="#29262b" data-original="#000000"/></g></svg>
