<?xml version="1.0" encoding="UTF-8"?>
<svg class="" width="458.67" height="458.67" fill-rule="evenodd" version="1.1" viewBox="0 0 21.5 21.5" xml:space="preserve" xmlns="http://www.w3.org/2000/svg"><g transform="translate(-1.25,-1.25)"><path class="" d="m12 1.25c-5.933 0-10.75 4.817-10.75 10.75s4.817 10.75 10.75 10.75 10.75-4.817 10.75-10.75-4.817-10.75-10.75-10.75zm2.235 4.397a0.75 0.75 0 0 0-1.34-0.591l-5.5 7.5a0.75 0.75 0 0 0 0.605 1.194h2.601l-0.839 4.616a0.749 0.749 0 0 0 1.356 0.559l5.5-8a0.751 0.751 0 0 0-0.618-1.175h-2.585z" fill="#28272b" data-original="#000000"/></g></svg>
