<?xml version="1.0" encoding="UTF-8"?>
<svg class="" width="512" height="512" enable-background="new 0 0 512 512" version="1.1" viewBox="0 0 32 32" xml:space="preserve" xmlns="http://www.w3.org/2000/svg"><path class="" d="M29 6h-1V3a1 1 0 0 0-2 0v3h-2V3a1 1 0 0 0-2 0v3h-1a1 1 0 0 0-1 1v4c0 1.654 1.346 3 3 3h.991c-.087 9.278-1.462 14-7.991 14-4.375 0-6.343-2.814-6.857-7.141C11.858 20.18 15 16.936 15 12c0-6.177-4.153-10-8-10a1 1 0 0 0-1 1c0 1.961-.934 3.564-1.923 5.262-1.71 2.935-3.649 6.261.053 11.328a1 1 0 1 0 1.615-1.179c-2.931-4.011-1.611-6.275.06-9.142.873-1.499 1.845-3.167 2.119-5.166C10.513 4.672 13 7.584 13 12c0 3.596-2.146 6.151-3.984 6.818-.027-2.257.287-4.83.955-7.582a1 1 0 0 0-1.944-.472 40.026 40.026 0 0 0-.496 2.354l-.826-.826a.999.999 0 1 0-1.414 1.414l1.883 1.883C6.366 23.204 8.46 30 16 30c8.869 0 9.924-7.759 9.993-16H27c1.654 0 3-1.346 3-3V7a1 1 0 0 0-1-1zm-1 5c0 .551-.449 1-1 1h-4c-.551 0-1-.449-1-1V8h6z" fill="#28282b" data-original="#000000"/></svg>
