<?xml version="1.0" encoding="UTF-8"?>
<svg class="" width="512" height="512" enable-background="new 0 0 512 512" version="1.1" viewBox="0 0 32 32" xml:space="preserve" xmlns="http://www.w3.org/2000/svg"><path class="" d="M30 7v3a3 3 0 0 1-3 3h-1c0 8.602-.772 17-10 17-11.133 0-9.668-14.886-7.309-19.481.063-.123-.087-.23-.194-.142C6.108 12.349 4.655 16.261 4.283 20-2.125 11.771 7 8.637 7 2c3.846 0 8.007 3.701 8.007 10.059 0 4.816-3.155 8.065-5.866 8.786C9.655 25.208 11.642 28 16 28c6.763 0 8-5.051 8-15h-1a3 3 0 0 1-3-3V7a1 1 0 0 1 1-1h1V3a1 1 0 0 1 2 0v3h2V3a1 1 0 0 1 2 0v3h1a1 1 0 0 1 1 1z" fill="#28282b" data-original="#000000"/></svg>
