<?xml version="1.0" encoding="UTF-8" standalone="no"?>
<svg
   version="1.1"
   width="464"
   height="464"
   x="0"
   y="0"
   viewBox="0 0 464 464"
   xml:space="preserve"
   class=""
   id="svg8"
   sodipodi:docname="login-icon.svg"
   xmlns:inkscape="http://www.inkscape.org/namespaces/inkscape"
   xmlns:sodipodi="http://sodipodi.sourceforge.net/DTD/sodipodi-0.dtd"
   xmlns="http://www.w3.org/2000/svg"
   xmlns:svg="http://www.w3.org/2000/svg"><defs
     id="defs12" /><sodipodi:namedview
     id="namedview10"
     pagecolor="#ffffff"
     bordercolor="#000000"
     borderopacity="0.25"
     inkscape:showpageshadow="2"
     inkscape:pageopacity="0.0"
     inkscape:pagecheckerboard="0"
     inkscape:deskcolor="#d1d1d1"
     showgrid="false" /><g
     id="g6"
     style="fill:#28272b;fill-opacity:1"
     inkscape:export-filename="login_icon.svg"
     inkscape:export-xdpi="96"
     inkscape:export-ydpi="96"
     transform="translate(-24,-24)"><path
       d="m 260.52,329.539 a 24,24 0 0 0 33.941,33.941 l 90.51,-90.51 a 24,24 0 0 0 0,-33.941 l -90.51,-90.509 a 24,24 0 0 0 -33.941,0 24,24 0 0 0 0,33.941 L 310.059,232 H 48 a 24,24 0 0 0 -24,24 24,24 0 0 0 24,24 h 262.059 z"
       fill="#000000"
       data-original="#000000"
       class=""
       id="path2"
       style="fill:#28272b;fill-opacity:1" /><path
       d="M 448,24 H 224 a 40,40 0 0 0 -40,40 v 32 a 24,24 0 0 0 48,0 V 72 H 440 V 440 H 232 v -24 a 24,24 0 0 0 -48,0 v 32 a 40,40 0 0 0 40,40 h 224 a 40,40 0 0 0 40,-40 V 64 A 40,40 0 0 0 448,24 Z"
       fill="#000000"
       data-original="#000000"
       class=""
       id="path4"
       style="fill:#28272b;fill-opacity:1" /></g></svg>
