<?xml version="1.0" encoding="UTF-8"?>
<svg class="" enable-background="new 0 0 512 512" version="1.1" viewBox="0 0 512 512" xml:space="preserve" xmlns="http://www.w3.org/2000/svg"><g transform="translate(-2.1992,-1.214)" fill="#f3f3f3" stroke="#f3f3f3"><path class="" d="m108.44 40.902c35.244 0 63.921 26.395 63.921 58.835 0 3.9744 3.4982 7.1905 7.8121 7.1905s7.8121-3.2161 7.8121-7.1905c0-40.367-35.683-73.215-79.544-73.215s-79.546 32.847-79.546 73.215v313.74c0 40.367 35.683 73.215 79.544 73.215s79.544-32.847 79.544-73.215c0-3.9744-3.4982-7.1905-7.8121-7.1905s-7.8121 3.2161-7.8121 7.1905c0 32.44-28.676 58.835-63.921 58.835-35.244 0-63.921-26.395-63.921-58.835v-313.74c2e-3 -32.44 28.678-58.835 63.923-58.835z" stroke-width="44.682" data-original="#000000"/><path class="" d="m485.3 255.94c0 14.601-6.447 28.271-17.631 37.668l-101.43 84.579c-14.834 12.349-34.795 14.835-52.114 6.757-17.397-8.155-28.271-25.164-28.271-44.348v-35.649h-119.92c-27.028 0-49.008-21.98-49.008-49.008s21.98-49.008 49.008-49.008h120.07v-35.494c0-19.261 10.795-36.193 28.193-44.348 17.397-8.155 37.358-5.592 52.114 6.757l101.36 84.501c11.185 9.323 17.632 23.07 17.632 37.593z" data-original="#000000"/></g></svg>
