<?xml version="1.0" encoding="UTF-8"?>
<svg version="1.1" viewBox="0 0 267.82 153.77" xmlns="http://www.w3.org/2000/svg">
<defs>
<clipPath id="a">
<path d="m0 2e3h2e3v-2e3h-2e3z"/>
</clipPath>
</defs>
<g transform="matrix(1.3333 0 0 -1.3333 -99.709 2621.6)">
<g clip-path="url(#a)">
<g transform="matrix(.19466 0 0 .19466 94.289 1910.7)" fill="#28282b">
<path d="m-51.332 6.0028c12.851 0 22.628 2.7947 29.329 8.3855 6.7 5.5895 10.051 14.368 10.051 26.334 0 12.079-3.3505 20.942-10.051 26.587-6.7011 5.6467-16.447 8.4694-29.239 8.4694h-17.086v-69.777zm-48.883 96.154h46.232c24.791 0.0559 43.629-5.1263 56.512-15.548 12.882-10.422 19.325-25.66 19.325-45.717 0-20.001-6.4736-35.226-19.417-45.675-12.944-10.45-31.873-15.645-56.786-15.591h-45.867z" fill="#28282b"/>
</g>
<g transform="matrix(.19466 0 0 .19466 114 1909)" fill="#28282b">
<path d="m-48.076 111.21h89.907v-26.377h-58.019v-22.08h40.842v-24.522h-40.842v-23.175h63.044v-26.378h-94.932z" fill="#28282b"/>
</g>
<g transform="matrix(.19466 0 0 .19466 139.07 1909)" fill="#28282b">
<path d="m-42.48 111.21h31.888v-96.154h55.643v-26.378h-87.531z" fill="#28282b"/>
</g>
<g transform="matrix(.19466 0 0 .19466 175.49 1895.3)" fill="#28282b">
<path d="m-34.35 88c4.9637 2.9771 8.8015 7.1905 11.512 12.64 2.7098 5.4497 4.0653 11.826 4.0653 19.131 0 7.4154-1.3554 13.904-4.0653 19.466-2.7109 5.5628-6.5644 9.8454-11.557 12.852-4.9961 3.005-10.814 4.5088-17.453 4.5088-6.5779 0-12.32-1.5038-17.222-4.5088-4.9053-3.0063-8.6805-7.277-11.33-12.809-2.6493-5.5336-3.9745-12.009-3.9745-19.423 0-7.3621 1.3252-13.779 3.9745-19.257s6.4245-9.6911 11.33-12.642c4.9021-2.9491 10.644-4.4237 17.222-4.4237 6.7011 0 12.532 1.4879 17.498 4.4663m-52.446-23.175c-10.02 5.3379-17.756 12.78-23.206 22.331-5.4531 9.5513-8.1775 20.479-8.1775 32.782 0 12.248 2.7244 23.175 8.1775 32.782 5.45 9.6072 13.202 17.093 23.252 22.458 10.051 5.3659 21.684 8.0488 34.902 8.0488 13.217 0 24.898-2.683 35.04-8.0488 10.142-5.3646 17.984-12.823 23.528-22.374 5.5428-9.5513 8.3142-20.422 8.3142-32.613 0-12.361-2.7558-23.344-8.2694-32.95-5.5126-9.6072-13.325-17.078-23.435-22.416-10.113-5.3379-21.837-8.0062-35.178-8.0062-13.279 0-24.929 2.6683-34.948 8.0062" fill="#28282b"/>
</g>
<g transform="matrix(.26247 0 0 .33475 191.42 1886.8)" fill="#28282b">
<path d="m-5.8477 60.383c-7.3231 1.2738-14.959 3.3323-22.905 6.1747l6.8557 13.819c6.0764-2.3201 12.608-4.2803 19.594-5.8806 6.9849-1.6011 13.31-2.4013 18.971-2.4013 2.6993 0 5.089 0.28556 7.1676 0.85744 2.0763 0.57112 3.6867 1.3473 4.8297 2.3278 1.1422 0.98049 1.7141 2.0902 1.7141 3.333 0 1.3055-0.65005 2.4741-1.9471 3.5033-1.3001 1.0285-3.1953 1.9919-5.6879 2.8904s-5.8435 1.9029-10.049 3.0142l-5.1431 1.3721c-7.2713 1.9277-13.257 3.8306-17.957 5.7088-4.702 1.879-8.4669 4.2307-11.296 7.0569-2.8324 2.8254-4.247 6.2799-4.247 10.364 0 4.0512 1.8039 7.5545 5.414 10.511 3.6101 2.9562 8.5311 5.2027 14.765 6.7381 6.232 1.5354 13.191 2.303 20.879 2.303 7.4268 0 14.283-0.58814 20.568-1.7636 6.283-1.1763 12.232-2.7441 17.842-4.7043l-6.9346-13.525c-3.2719 1.2738-6.9207 2.4013-10.946 3.381-4.0249 0.97972-7.9074 1.7311-11.646 2.2543-3.7401 0.52236-6.8054 0.78393-9.1936 0.78393-3.8957 0-6.9996-0.47361-9.3104-1.4208-2.3115-0.94799-3.4669-2.303-3.4669-4.0675 0-1.5028 1.3752-2.9082 4.1294-4.2145 2.7526-1.3071 7.3742-2.8262 13.867-4.5573l3.7401-0.97972c7.635-2.0585 13.932-4.158 18.892-6.297 4.9589-2.1405 8.8035-4.6796 11.531-7.6203 2.7263-2.9399 4.0899-6.4192 4.0899-10.438 0-3.8554-1.8178-7.3425-5.4534-10.462-3.6364-3.1202-8.6743-5.5626-15.114-7.3262-6.4401-1.7636-13.686-2.6466-21.736-2.6466-7.2202 0-14.491 0.63767-21.814 1.9115" fill="#28282b"/>
</g>
<g transform="matrix(.18026 0 0 .14886 148.31 1961.1)" stroke="#28282b" stroke-linecap="round" stroke-width="20.603">
<path d="m0 0h164.99c194.9 0 352.9-158 352.9-352.9s-158-352.9-352.9-352.9h-164.99" fill="none" stroke="#28282b" stroke-linecap="round" stroke-miterlimit="10" stroke-width="20.603" style="paint-order:markers fill stroke"/>
</g>
<g transform="matrix(.20173 0 0 .16052 224.77 1852.4)" stroke="#28282b" stroke-linecap="round" stroke-width="18.755">
<path d="m-16.503 0c111.22 76.115 184.21 204.02 184.21 348.97 0 146.1-74.141 274.87-186.85 350.76" fill="none" stroke="#28282b" stroke-linecap="round" stroke-miterlimit="10" stroke-width="18.755" style="paint-order:markers fill stroke"/>
</g>
<g transform="matrix(.18946 0 0 .15517 249.49 1854.2)" fill="none" stroke="#28282b" stroke-linecap="round" stroke-width="19.684" style="paint-order:normal">
<path d="m-17.572 0c89.927 87.631 145.77 210.07 145.77 345.55 0 140.14-59.751 266.32-155.17 354.47" fill="none" stroke="#28282b" stroke-linecap="round" stroke-miterlimit="10" stroke-width="19.684" style="paint-order:normal"/>
</g>
<path d="m101.02 1887.9h-5.1625v-4.7884h5.7533v-1.4384h-7.4679v13.281h7.1724v-1.4384h-5.4579v-4.1966h5.1625z" fill="#28282b"/>
<path d="m109.66 1881.7v13.325h1.8786l4.2697-6.7411c0.98848-1.5619 1.7595-2.9659 2.392-4.3297l0.0397 0.02c-0.15836 1.7789-0.19759 3.3999-0.19759 5.4756v5.575h1.621v-13.325h-1.7396l-4.2305 6.7614c-0.92938 1.483-1.8191 3.0047-2.4913 4.448l-0.059-0.019c0.0988-1.6805 0.13852-3.2817 0.13852-5.4965v-5.6935z" fill="#28282b"/>
<path d="m146.98 1888.7h1.754c1.8322 0 2.9944 1.0053 2.9944 2.5218 0 1.714-1.2414 2.4625-3.0538 2.4828-0.82775 0-1.4185-0.079-1.6946-0.1578zm-1.7144 6.0491c0.86734 0.1772 2.1083 0.2756 3.2908 0.2756 1.8327 0 3.0142-0.3349 3.842-1.0836 0.66946-0.5917 1.044-1.4976 1.044-2.5223 0-1.7531-1.1029-2.9157-2.5021-3.3883v-0.06c1.0247-0.3549 1.6353-1.3004 1.9504-2.6793 0.43343-1.852 0.74861-3.133 1.0247-3.6456h-1.7733c-0.21672 0.3746-0.5121 1.5176-0.88617 3.173-0.39434 1.8318-1.1043 2.5215-2.6604 2.5809h-1.6155v-5.7539h-1.7144z" fill="#28282b"/>
<text transform="scale(.94917 -1.0536)" x="169.11285" y="-1786.146" fill="#28282b" fill-rule="evenodd" font-family="sans-serif" font-size="18.165px" stroke="#28282b" stroke-width=".467" xml:space="preserve"><tspan x="169.11285" y="-1786.146" font-family="'Latin Modern Sans'" font-size="18.165px" stroke-width=".467">G</tspan></text>
<text transform="scale(.88471 -1.1303)" x="200.74828" y="-1664.8542" fill="#28282b" fill-rule="evenodd" font-family="'Latin Modern Sans'" font-size="17.144px" stroke="#28282b" stroke-width=".45717" xml:space="preserve"><tspan x="200.74828" y="-1664.8542" stroke-width=".45717">Y</tspan></text>
<path d="m135.57 1887.8h-5.1625v-4.7884h5.7533v-1.4385h-7.4679v13.281h7.1724v-1.4384h-5.4579v-4.1966h5.1625z" fill="#28282b"/>
</g>
</g>
</svg>
