<?xml version="1.0" encoding="UTF-8"?>
<svg data-name="Layer 1" version="1.1" viewBox="0 0 645.35 494.02" xmlns="http://www.w3.org/2000/svg">
<path d="m610.56 439.85 0.99774-22.434a72.456 72.456 0 0 1 33.796-8.555c-16.231 13.27-14.203 38.851-25.208 56.697a43.582 43.582 0 0 1-31.959 20.14l-13.583 8.3165a73.03 73.03 0 0 1 15.393-59.179 70.543 70.543 0 0 1 12.964-12.046c3.2532 8.578 7.5993 17.061 7.5993 17.061z" fill="#f2f2f2"/>
<circle cx="529.9" cy="438.22" r="54.434" fill="#6aba2f"/>
<path d="m507.69 416.93a51.145 51.145 0 0 1-3.6491 11.647c-9.6023 20.314 17.743 13.692 27.516 13.692 10.685 0 20.908 5.6185 19.346-19.346-0.66694-10.664-8.6616-19.346-19.346-19.346-9.1264 1e-5 -21.958 4.0565-23.867 13.354z" fill="#28272b"/>
<circle cx="529.95" cy="426.54" r="15.721" fill="#ffb6b6"/>
<path d="m519.28 410.52a18.008 18.008 0 0 1 27.378 15.716c-8.0107 2.0112-16.426 3.5504-24.969 0.48107l-2.0175-4.9375-1.1894 4.9412c-2.6016 1.0634-5.2099 1.9631-7.8182-0.0103a18.387 18.387 0 0 1 8.6158-16.191z" fill="#28272b"/>
<path d="m572.23 474.42a54.415 54.415 0 0 1-76.157 5.5039l4.669-13.028a14.01 14.01 0 0 1 11.9-8.1719l2.9703-0.18235 7.0826-6.1085s19.084-0.68141 18.801-1.0077l11.56 6.9531-0.01-0.048 4.5442 0.27833a14.004 14.004 0 0 1 11.9 8.1719z" fill="#3d3b41"/>
<path d="m108.87 54.531a54.434 54.434 0 1 1-54.338-54.531 54.294 54.294 0 0 1 54.338 54.531z" fill="#f2f2f2"/>
<path d="m29.205 36.727c2.2508-7.1734 7.3693-13.752 14.448-16.177 7.0792-2.425 17.445 1.2691 22.767 6.573 9.7349 9.702 12.111 43.032 5.4223 53.564-1.3303-0.0704-5.9207-0.1225-7.2672-0.17293l-1.9047-6.3483v6.2857q-3.2176-0.0994-6.4855-0.1373a28.226 28.226 0 0 1-27.867-27.529c-0.17423-6.9864 2.3e-4 -13.231 0.88724-16.058z" fill="#ccc"/>
<circle cx="53.627" cy="44.988" r="15.513" fill="#ccc"/>
<path d="m40.239 31.363 17.862-8.9441a22.451 22.451 0 0 1 13.15 18.601l0.44522 5.333-7.4798-1.904-0.81947-6.8193-1.2702 6.2873-3.4519-0.87829 0.0328-10.587-3.454 10.579-12.329-2.8325z" fill="#ccc"/>
<path d="m94.828 90.457a54.415 54.415 0 0 1-76.157 5.5039l4.669-13.028a14.01 14.01 0 0 1 11.9-8.1718l2.9703-0.18234 7.0826-6.1085s19.084-0.68141 18.801-1.0077l11.56 6.953-0.01-0.048 4.5442 0.27832a14.004 14.004 0 0 1 11.9 8.1719z" fill="#ccc"/>
<circle cx="54.822" cy="304.43" r="54.434" fill="#f2f2f2"/>
<path d="m32.606 283.14a51.145 51.145 0 0 1-3.6491 11.647c-9.6023 20.314 17.743 13.692 27.516 13.692 10.685 0 20.908 5.6185 19.346-19.346-0.66695-10.664-8.6616-19.346-19.346-19.346-9.1264 1e-5 -21.958 4.0566-23.867 13.354z" fill="#ccc"/>
<circle cx="54.872" cy="292.76" r="15.721" fill="#ccc"/>
<path d="m44.196 276.73a18.008 18.008 0 0 1 27.378 15.716c-8.0107 2.0112-16.426 3.5504-24.969 0.48106l-2.0175-4.9375-1.1894 4.9412c-2.6016 1.0634-5.2099 1.9631-7.8182-0.0103a18.387 18.387 0 0 1 8.6158-16.191z" fill="#ccc"/>
<path d="m97.147 340.63a54.415 54.415 0 0 1-76.157 5.5039l4.669-13.028a14.01 14.01 0 0 1 11.9-8.1719l2.9703-0.18235 7.0826-6.1085s19.084-0.68142 18.801-1.0077l11.56 6.953-0.01-0.048 4.5442 0.27832a14.004 14.004 0 0 1 11.9 8.1719z" fill="#ccc"/>
<circle cx="289.01" cy="220.98" r="88.134" fill="#f2f2f2"/>
<circle cx="292.61" cy="201.24" r="28.739" fill="#ccc"/>
<path d="m317.91 182.25s7.4826-14.304-8.9794-15.605c0 0-14.034-12.731-28.338-2.3273 0 0-7.8024 0-12.069 8.8294 0 0-6.1366-2.3273-7.4852 3.9012 0 0-4.4903 13.004 0 24.708s5.9818 13.004 5.9818 13.004-3.1505-14.524 14.809-15.824 34.437-12.552 35.933 1.7528 3.1421 7.8426 3.1421 7.8426 14.216-20.43-2.9948-26.282z" fill="#ccc" data-name="bf427902-b9bf-4946-b5d7-5c1c7e04535e"/>
<path d="m354.81 279.59a88.103 88.103 0 0 1-123.3 8.9113l7.5594-21.093a22.684 22.684 0 0 1 19.268-13.231l4.8091-0.29524 11.467-9.8902s30.898-1.1033 30.44-1.6316l18.716 11.258-0.0156-0.0777 7.3574 0.45062a22.674 22.674 0 0 1 19.268 13.231z" fill="#ccc"/>
<circle cx="143.86" cy="166.84" r="54.434" fill="#f2f2f2"/>
<circle cx="142.35" cy="156.21" r="17.376" fill="#ccc"/>
<path d="m184.69 203.26a54.415 54.415 0 0 1-76.157 5.5039l4.669-13.028a14.01 14.01 0 0 1 11.9-8.1719l2.9703-0.18235 7.0826-6.1085s19.084-0.68142 18.801-1.0077l11.56 6.953-0.01-0.048 4.5442 0.27832a14.004 14.004 0 0 1 11.9 8.172z" fill="#ccc"/>
<path d="m160.68 145.43a22.403 22.403 0 0 0-9.3819-12.765c-3.648-2.3333-8.2002-3.5245-12.333-2.2906s-7.5545 5.2898-7.284 9.672a4.2398 4.2398 0 0 0-4.2797 1.3216 9.8114 9.8114 0 0 0-2.0997 4.2513 27.028 27.028 0 0 0 0.25349 14.966l-0.0821 0.69834c2.0163-0.33356 3.5457-2.0636 4.4967-3.9068s1.4983-3.8881 2.5291-5.6862 2.7424-3.4021 4.7843-3.4582l-0.17994 3.1212 5.2703-2.7153q-0.62682 1.4994-1.2536 2.9988 2.3013-0.96189 4.6026-1.9237-0.25727 1.4418-0.5145 2.8836a6.848 6.848 0 0 1 9.428-3.0483 9.1 9.1 0 0 1 3.7202 5.2333 27.569 27.569 0 0 1 0.89087 6.5315 22.841 22.841 0 0 0 1.4329-15.884z" fill="#ccc"/>
<path d="m259.37 210.68v0.0324a1.4033 1.4033 0 0 1-0.0971-0.37245z" fill="#f2f2f2"/>
<path d="m259.37 210.72c0.0809 0.33995 0.17808 0.68 0.27522 1.0038a2.9935 2.9935 0 0 1-0.40477 0.0809z" fill="#f2f2f2"/>
<path d="m377.15 220.8a88.126 88.126 0 0 1-84.678 88.046v-176.09a88.107 88.107 0 0 1 84.678 88.046z" fill="#6aba2f"/>
<path d="m259.28 210.34 0.0971 0.34v0.0324a1.4033 1.4033 0 0 1-0.0971-0.37241z" fill="#ffb6b6"/>
<path d="m314.71 203.59a27.665 27.665 0 0 1-0.85806 6.8973v0.0162a28.172 28.172 0 0 1-21.388 20.595v-55.033a28.165 28.165 0 0 1 22.246 27.524z" fill="#a0616a"/>
<path d="m355.13 279.77a87.797 87.797 0 0 1-62.659 29.856v-66.172c6.8811-0.32384 13.115-0.66378 12.904-0.90668l18.717 11.253-0.0162-0.0809 7.3506 0.45329a22.641 22.641 0 0 1 19.267 13.228l4.2582 11.868z" fill="#3d3b41"/>
<path d="m259.37 210.72c0.0809 0.33995 0.17808 0.68 0.27522 1.0038a2.9935 2.9935 0 0 1-0.40477 0.0809z" fill="#2f2e41"/>
<path d="m313.94 211.85c-0.0324-0.45339-0.0486-0.89057-0.0809-1.3439v-0.0162a40.081 40.081 0 0 0-1.3601-9.2126c-1.0524-3.4-3.0277-6.6544-6.0229-8.4678-4.4849-2.72-10.783-1.2467-14.005 2.8334v-33.952a29.577 29.577 0 0 1 8.5973 3.7887 36.242 36.242 0 0 1 15.187 20.66 37.013 37.013 0 0 1-2.3153 25.711z" fill="#28272b"/>
<path d="m291.26 494.78a1.0588 1.0588 0 0 1-1.1096-1v-562a1.1156 1.1156 0 0 1 2.2192 0v562a1.0588 1.0588 0 0 1-1.1096 1z" fill="#2f2e41"/>
<path d="m401.82 193.48-30.658-7.5205-40.875-34.75 6.8066-10.806 37.028 23.589s24.498 6.2198 32.876 13.392z" fill="#ffb6b6"/>
<circle cx="331.71" cy="144.4" r="7.4689" fill="#ffb6b6"/>
<path d="m403.26 173.37-28.431-11.593-13.664 16.226 10.151 8.3637 27.673 7.1919 0.0196 0.0726c1.9434 7.1636 14.441 12.027 24.583 14.846a13.696 13.696 0 0 0 16.575-8.6528 13.726 13.726 0 0 0-3.225-14.126l-9.21-9.2351z" fill="#e6e6e6"/>
<polygon transform="translate(4.4359e-6 -69.218)" points="324.65 533.95 314.68 530.16 324.57 489.93 339.27 495.52" fill="#ffb6b6"/>
<path d="m328.43 462.45-2.8045-1.0671-9.2553-8.6186-7.5624 2.2194-8e-4 -3e-4a13.38 13.38 0 0 0-17.263 7.7472l-0.1546 0.40637 32.127 12.224z" fill="#28272b"/>
<polygon transform="translate(4.4359e-6 -69.218)" points="425.37 550.66 414.71 550.66 409.64 509.54 425.37 509.54" fill="#ffb6b6"/>
<path d="m428.09 477.96-3.0006-1.1e-4 -11.715-4.7642-6.2789 4.7635h-8.5e-4a13.38 13.38 0 0 0-13.379 13.379v0.43478l34.374 1e-3z" fill="#28272b"/>
<path d="m441.63 304.32s1.2448 14.938-1.8672 29.253c-1.9508 8.9737-2.6787 28.164-2.9504 41.237-0.1617 7.7817-3.6617 9.022-3.6617 9.022l2.3216 17.895-5.6681 65.041-20.54-1.8672-5.6017-131.33-36.917 29.191 1.0242 3.414c0.49787 1.6596-3.1753 1.4472-4.6442 2.3661l-3.6218 8.403a6.8042 6.8042 0 0 1-4.115 6.6012l-19.239 57.231-15-9 5-52 7-24 28.189-34.655 0.62241-9.9586 2.8008 0.11514 1.4262-4.1608 2.6195-7.1577z" fill="#28272b"/>
<path d="m442.7 307.46 0.11092-0.15561c5.9244-8.2943-2.9859-28.225-4.3298-31.115a7.2537 7.2537 0 0 0 4.9651-7.747l-0.57933-4.9246-0.60387-4.8304 4.3262-4.3262 0.0122-0.10789 2.4896-21.784 3.6199-14.469a31.766 31.766 0 0 0-9.0161-30.785l-8.3673-7.8892-10.169-15.046h-16.398l-5.6227 10.62a23.901 23.901 0 0 0-18.493 24.403l1.2743 27.854-4.9887 34.681-3e-3 6.2764-2.5983 2.8877a8.9858 8.9858 0 0 0-2.1315 7.7728l0.3417 1.7084a8.9858 8.9858 0 0 0-5.2468 6.3764l-0.9126 4.2584c-0.78075 1.0303-5.9342 7.9017-5.9342 9.7802 0 0.282 0.20818 0.55464 0.65493 0.85707 3.512 2.3781 22.923 7.2264 31.515 3.7886 9.1514-3.6591 45.53 1.8302 45.896 1.8861z" fill="#e6e6e6"/>
<circle cx="414.84" cy="137.7" r="21.718" fill="#ffb6b6"/>
<path d="m407.76 233.11-15.087 27.728-44.021 30.667-8.7137-9.3362 32.248-29.792s12.259-22.103 21.329-28.377z" fill="#ffb6b6"/>
<circle cx="342.43" cy="288.39" r="7.4689" fill="#ffb6b6"/>
<path d="m406.4 236.8 9.4872-22.77-3.4315-12.583a13.727 13.727 0 0 0-10.652-9.823 13.695 13.695 0 0 0-15.75 10.077c-2.5984 10.201-4.5939 23.463 0.65432 28.711l0.0532 0.0532-15.617 20.366 23 13z" fill="#e6e6e6"/>
<path d="m436.3 122.74c-1.7658-2.38-4.3038-4.0721-6.2452-6.3112a43.017 43.017 0 0 0-3.1472-3.7204 12.926 12.926 0 0 0-8.3556-2.985 21.085 21.085 0 0 0-17.212 8.1685q-2.3672-1.3879-4.7344-2.7758-0.9352 2.4615-1.8704 4.923a2.8696 2.8696 0 0 0-4.3733 3.5907c-0.37555-1.1605-2.0963-1.4067-3.045-0.64007a3.668 3.668 0 0 0-1.048 3.3407 6.7247 6.7247 0 0 0 5.0726 5.5623c2.0594 0.4588 4.4563-0.0232 6.1046 1.2939 1.3215 1.0559 1.7204 2.9786 3.069 3.9996 1.6618 1.2581 4.0106 0.67627 6.0762 0.95429a7.3008 7.3008 0 0 1 6.0413 7.8035 9.0473 9.0473 0 0 1 1.4127-3.246 3.0808 3.0808 0 0 1 3.1304-1.2145c1.8815 0.564 2.1893 3.1285 1.7333 5.039-1.2094 5.0669-5.7927 13.257-5.7927 13.257 5.9512 2.3475 13.041 0.12775 17.633-4.3268 4.5917-4.4546 6.9832-10.762 8.025-17.074 0.88334-5.3527 0.75816-11.281-2.4743-15.638z" fill="#3d3b41"/>
<path d="m632.89 492.59a1.1865 1.1865 0 0 1-1.1901 1.19h-280.29a1.19 1.19 0 1 1 0-2.38h280.29a1.1865 1.1865 0 0 1 1.1901 1.19z" fill="#ccc"/>
</svg>
