<?xml version="1.0" encoding="UTF-8"?>
<svg data-name="Layer 1" version="1.1" viewBox="0 0 904.51 587.86" xmlns="http://www.w3.org/2000/svg">
<path transform="translate(-147.74 -156.07)" d="m1030.8 515.1h-31.804a4.5005 4.5005 0 0 1-3.5347-1.7026 4.4081 4.4081 0 0 1-0.86279-3.7456 86.535 86.535 0 0 0-0.41992-40.004 4.471 4.471 0 0 1 2.4224-5.1309c13.284-6.2178 25.483-6.0557 36.257 0.48047a4.5265 4.5265 0 0 1 2.1431 3.1514 141.55 141.55 0 0 1 0.25928 43.08 4.4909 4.4909 0 0 1-4.4604 3.8716z" fill="#6aba2f"/>
<path transform="translate(-147.74 -156.07)" d="m1030.3 494.26h-24.318a2.2811 2.2811 0 0 1 0-4.5622h24.318a2.2811 2.2811 0 0 1 0 4.5622z" fill="#fff"/>
<path transform="translate(-147.74 -156.07)" d="m1030.3 486.26h-24.318a2.2811 2.2811 0 0 1 0-4.5622h24.318a2.2811 2.2811 0 0 1 0 4.5622z" fill="#fff"/>
<circle cx="246.15" cy="186.84" r="169" fill="#f2f2f2"/>
<circle cx="442.15" cy="318.84" r="32" fill="#f2f2f2"/>
<circle cx="603.15" cy="409.84" r="13" fill="#f2f2f2"/>
<path transform="translate(-147.74 -156.07)" d="m851.27 617.04c-5.4823-41.892-31.73-83.035-71.801-96.422a194.66 194.66 0 0 1 0.84589 133.64c-6.0376 16.659-14.488 34.559-8.601 51.271 3.6625 10.399 12.51 18.317 22.375 23.24 9.8654 4.9229 20.794 7.2294 31.585 9.4893l2.1321 1.7405c16.86-38.739 28.947-81.07 23.464-122.96z" fill="#f2f2f2"/>
<path transform="translate(-147.74 -156.07)" d="m779.07 521.41a166.38 166.38 0 0 1 41.961 93.372c0.77448 7.452 0.91159 15.079-0.67137 22.439a41.094 41.094 0 0 1-10.098 19.125c-4.5742 5.0907-9.8425 9.7683-13.1 15.882-3.4331 6.4444-3.5199 13.742-1.0978 20.549 2.9635 8.3279 8.7426 15.094 14.624 21.515 6.5302 7.1288 13.426 14.43 16.243 23.918 0.34134 1.1496 2.1052 0.55278 1.7644-0.59513-4.9014-16.508-21.016-25.8-28.768-40.647-3.6172-6.928-5.1684-14.988-1.866-22.347 2.8878-6.435 8.3164-11.263 12.992-16.378 4.9099-5.3702 8.6632-11.252 10.571-18.333 1.9514-7.2431 2.1122-14.891 1.5316-22.33a161.42 161.42 0 0 0-12.103-48.977 169.33 169.33 0 0 0-30.76-48.598c-0.80186-0.88642-2.0198 0.52378-1.2232 1.4044z" fill="#fff"/>
<path transform="translate(-147.74 -156.07)" d="m820.46 603.52a24.962 24.962 0 0 0 18.834-26.27c-0.10252-1.1937-1.9623-1.0904-1.8596 0.10482a23.115 23.115 0 0 1-17.569 24.401c-1.1639 0.2846-0.56212 2.0474 0.59513 1.7644z" fill="#fff"/>
<path transform="translate(-147.74 -156.07)" d="m812.92 654.07a48.113 48.113 0 0 1-21.662-27.571c-0.3454-1.1484-2.1094-0.55188-1.7644 0.59513a50.045 50.045 0 0 0 22.6 28.645c1.0364 0.60587 1.8576-1.0659 0.82682-1.6684z" fill="#fff"/>
<path transform="translate(-147.74 -156.07)" d="m801.93 552.55a14.13 14.13 0 0 1-13.394-0.594c-1.0283-0.6187-1.8484 1.0538-0.82682 1.6684a15.834 15.834 0 0 0 14.816 0.69 0.96232 0.96232 0 0 0 0.58464-1.1798 0.93574 0.93574 0 0 0-1.1798-0.58464z" fill="#fff"/>
<path transform="translate(-147.74 -156.07)" d="m658.07 596.28c0.63108 0.40459 1.2622 0.80918 1.8941 1.2295a186.08 186.08 0 0 1 23.911 18.423c0.585 0.51491 1.17 1.0456 1.739 1.5762a196.17 196.17 0 0 1 42.977 58.047 190.51 190.51 0 0 1 10.608 26.932c3.9323 12.752 7.1814 26.891 14.87 37.293a32.684 32.684 0 0 0 2.5662 3.1268l68.88-0.44095c0.156-0.07956 0.31294-0.14349 0.46974-0.22305l2.751 0.10814c-0.11361-0.48646-0.24191-0.98856-0.35553-1.475-0.06473-0.28246-0.14481-0.56483-0.20954-0.84729-0.048-0.18827-0.0968-0.37664-0.12937-0.54929-0.01575-0.06272-0.03227-0.12545-0.04791-0.17254-0.03257-0.17264-0.08115-0.32955-0.11362-0.48646q-1.0641-4.2129-2.1911-8.4254c-1e-4 -0.01573-1e-4 -0.01573-0.01555-0.03136-5.7794-21.384-13.395-42.473-23.969-61.736-0.31834-0.57945-0.636-1.1746-0.9858-1.7539a181.79 181.79 0 0 0-16.487-24.663 160.71 160.71 0 0 0-10.781-12.174 133.64 133.64 0 0 0-33.602-24.836c-24.788-12.886-53.422-17.7-79.773-9.5632-0.67389 0.20859-1.3333 0.41703-2.0072 0.64139z" fill="#f2f2f2"/>
<path transform="translate(-147.74 -156.07)" d="m658.23 597.15a166.38 166.38 0 0 1 89.72 49.289c5.105 5.4837 9.8063 11.491 12.974 18.321a41.094 41.094 0 0 1 3.4518 21.35c-0.58724 6.8186-1.9775 13.725-0.89706 20.568 1.1389 7.2125 5.4634 13.092 11.495 17.068 7.3802 4.8652 16.068 6.7883 24.63 8.3738 9.5061 1.7604 19.408 3.4382 27.37 9.318 0.96471 0.71242 2.0137-0.82614 1.0505-1.5375-13.853-10.23-32.314-7.9463-47.442-15.134-7.0592-3.3538-13.151-8.8554-14.944-16.719-1.5686-6.8766-0.141-14 0.51329-20.899 0.687-7.2439 0.14264-14.2-2.5973-21.002-2.8028-6.9581-7.2792-13.162-12.222-18.752a161.42 161.42 0 0 0-39.151-31.819 169.33 169.33 0 0 0-53.82-20.284c-1.1739-0.225-1.2973 1.6342-0.13107 1.8578z" fill="#fff"/>
<path transform="translate(-147.74 -156.07)" d="m740.71 637.79a24.962 24.962 0 0 0-0.77892-32.314c-0.80054-0.89136-2.2233 0.31075-1.4217 1.2033a23.115 23.115 0 0 1 0.66312 30.061c-0.758 0.928 0.78385 1.9732 1.5375 1.0505z" fill="#fff"/>
<path transform="translate(-147.74 -156.07)" d="m765.13 682.7a48.113 48.113 0 0 1-33.896-8.9721c-0.96719-0.709-2.0165 0.82936-1.0505 1.5375a50.045 50.045 0 0 0 35.291 9.2646c1.1923-0.14027 0.84149-1.9695-0.34436-1.83z" fill="#fff"/>
<path transform="translate(-147.74 -156.07)" d="m695.22 608.25a14.13 14.13 0 0 1-11.052 7.5901c-1.1935 0.12509-0.84138 1.9542 0.34436 1.83a15.834 15.834 0 0 0 12.246-8.3696 0.96232 0.96232 0 0 0-0.2435-1.294 0.93575 0.93575 0 0 0-1.294 0.2435z" fill="#fff"/>
<path transform="translate(-147.74 -156.07)" d="m988.43 453.32-9.315-90.164-2.4586-37.108 26.072-4.7144s3.9042 25.51 7.3197 40.481c3.3705 14.773-4.4902 89.526-4.6984 91.498a12.685 12.685 0 1 1-16.92 0.00806z" fill="#ffb8b8"/>
<polygon points="734.15 574.09 720.88 574.09 714.57 522.93 734.15 522.93" fill="#ffb6b6"/>
<path transform="translate(-147.74 -156.07)" d="m885.27 743.02-42.768-0.00158v-0.54094a16.647 16.647 0 0 1 16.646-16.646h0.00106l7.812-5.9266 14.576 5.9275 3.7333 1.5e-4z" fill="#28272b"/>
<polygon points="851.04 574.09 837.78 574.09 831.47 522.93 851.05 522.93" fill="#ffb6b6"/>
<path transform="translate(-147.74 -156.07)" d="m1002.2 743.02-42.768-0.00158v-0.54094a16.647 16.647 0 0 1 16.646-16.646h0.00106l7.812-5.9266 14.576 5.9275 3.7333 1.5e-4z" fill="#28272b"/>
<path transform="translate(-147.74 -156.07)" d="m978.62 456.35 11.156 105.98s14.851 106.12 12.062 120.76 0.69723 16.734 0.69723 16.734l-25.448-1.8124s0.69723-9.0642-3.4862-13.248-2.0917-16.734-2.0917-16.734l-49.365-172.63-29.981 90.641s-4.8807 99.706-5.5779 101.1-2.789 20.22-2.789 20.22h-25.798s3.4862-11.156-1.3945-14.642-9.0642-0.69722-4.8807-6.9724 5.5779-13.945 4.1835-17.431-1.3945-17.431-1.3945-17.431 2.0917-188.26 13.945-194.53 110.16-5e-5 110.16-5e-5z" fill="#28272b"/>
<circle cx="778.04" cy="58.259" r="27.439" fill="#ffb8b8"/>
<path transform="translate(-147.74 -156.07)" d="m1007.1 335.72-26.986 9.6781-8.219 2.9451-5.999-76.627 20.589 10.92a0.43133 0.43133 0 0 1 0.0906 0.09049 55.716 55.716 0 0 1 8.8625 13.149c11.291 22.954 11.663 39.845 11.663 39.845z" fill="#3d3b41"/>
<path transform="translate(-147.74 -156.07)" d="m821.22 446.85s27.428-85.219 27.907-86.241c3.5924-27.28 13.925-39.314 15.474-38.008l26.668 9.2387s-7.9323 25.119-13.303 40.039c-5.1319 14.257-40.278 80.08-41.265 81.799a12.685 12.685 0 1 1-15.481-6.8287z" fill="#ffb8b8"/>
<path transform="translate(-147.74 -156.07)" d="m904.08 276.65s-23.089-11.316-32.044 10.909c-5.8646 14.988-8.6418 21.526-12.558 37.138 0 0 23.535 3.531 31.082 16.831z" fill="#3d3b41"/>
<path transform="translate(-147.74 -156.07)" d="m988.1 467.9c-53.139 10.974-123.56-7.8928-123.56-7.8928l18.785-81.43-6.6786-85.218c-0.81558-10.421 5.12-20.19 14.354-23.651l12.75-4.7756 10.539-15.088 30.103 0.98771 12.034 15.84 9.4968 5.0384 20.589 10.92 0.0906 0.04525v0.04524l-6.4611 62.672-3.8965 37.788s11.835 42.5 9.4061 48.136c-2.4285 5.6274-0.317 2.9088 0.2719 5.9173 0.589 3.0086 2.3923 3.1989 2.6641 9.1253 0.28097 5.9175-0.48927 21.54-0.48927 21.54z" fill="#3d3b41"/>
<path transform="translate(-147.74 -156.07)" d="m955.55 204.56c-2.1683-2.1391 1.0958-7.8023 0.4792-10.785-0.70685-3.42-4.4755-3.5201-5.3745-6.8947-0.96724-3.6303-4.8351-5.6066-8.4116-6.7571a54.391 54.391 0 0 0-28.347-1.2983 108.2 108.2 0 0 0-12.263 3.7777c-2.7679 0.9741-0.09868-1.6766-2.8664-0.70253a4.3448 4.3448 0 0 0-2.5952 1.7219c-0.49756 0.9408 0.17345 2.4454 1.2203 2.2548q-5.0684 2.2352-10.137 4.4704 2.8427 2.9777 5.6853 5.9557c-2.694-0.7668-5.5663 2.4453-4.5042 5.0371a5.6934 5.6934 0 0 0 4.3565 3.0159c3.0436 0.59225 0.73505 3.4889 3.8354 3.4325s24.719-6.4115 26.227-3.7017c1.0732 1.9296 0.95519 4.4856 2.4876 6.0754 1.9606 2.0339 5.3839 1.2901 7.8794-0.03408 2.4954-1.3241 5.0263-3.144 7.8335-2.8265 2.9307 0.33141 5.1473 5.7473 5.8691 8.6071 0.72189 2.8598 0.26592 5.8688-0.19347 8.7824-0.60331 3.8264-6.6437 7.6527-7.247 11.479 6.704 1.854 13.895-4.0449 16.546-14.303-0.26409-6.4847 4.1408-12.748-0.47924-17.306z" fill="#28272b"/>
<path transform="translate(-147.74 -156.07)" d="m528.99 560.91c-80.774 0.00391-151.05-60.252-161.44-142.44l1.9844-0.251c10.254 81.171 79.677 140.68 159.45 140.69a161.36 161.36 0 0 0 20.273-1.2793c87.986-11.115 150.52-91.739 139.41-179.73l1.9844-0.251c11.253 89.08-52.063 170.71-141.14 181.96a163.74 163.74 0 0 1-20.526 1.295z" fill="#28272b"/>
<path transform="translate(-147.74 -156.07)" d="m533.33 594.36h-31.804a4.5005 4.5005 0 0 1-3.5347-1.7026 4.4081 4.4081 0 0 1-0.8628-3.7456 86.516 86.516 0 0 0-0.52-40.401 4.4768 4.4768 0 0 1 1.9512-4.8735c11.002-6.8159 22.983-6.603 36.628 0.65185a4.5507 4.5507 0 0 1 2.3682 3.2749 141.56 141.56 0 0 1 0.23437 42.924 4.4909 4.4909 0 0 1-4.4605 3.8716z" fill="#6aba2f"/>
<path transform="translate(-147.74 -156.07)" d="m388.33 424.36h-31.804a4.5005 4.5005 0 0 1-3.5347-1.7026 4.4081 4.4081 0 0 1-0.8628-3.7456 86.49 86.49 0 0 0-0.55517-40.536 4.509 4.509 0 0 1 1.7495-4.7383c16.354-11.762 29.232-11.42 38.279 1.0161a4.5192 4.5192 0 0 1 0.79151 1.9097 141.54 141.54 0 0 1 0.39648 43.925 4.4909 4.4909 0 0 1-4.4604 3.8716z" fill="#ccc"/>
<path transform="translate(-147.74 -156.07)" d="m518.47 564.51h-10.941a2.2811 2.2811 0 0 1 0-4.5622h10.941a2.2811 2.2811 0 0 1 0 4.5622z" fill="#fff"/>
<path transform="translate(-147.74 -156.07)" d="m531.85 573.53h-24.318a2.2811 2.2811 0 0 1 0-4.5622h24.318a2.2811 2.2811 0 0 1 0 4.5622z" fill="#fff"/>
<path transform="translate(-147.74 -156.07)" d="m378.47 392.51h-10.941a2.2811 2.2811 0 0 1 0-4.5622h10.941a2.2811 2.2811 0 0 1 0 4.5622z" fill="#fff"/>
<path transform="translate(-147.74 -156.07)" d="m378.47 400.51h-10.941a2.2811 2.2811 0 0 1 0-4.5622h10.941a2.2811 2.2811 0 0 1 0 4.5622z" fill="#fff"/>
<path transform="translate(-147.74 -156.07)" d="m378.47 408.51h-10.941a2.2811 2.2811 0 0 1 0-4.5622h10.941a2.2811 2.2811 0 0 1 0 4.5622z" fill="#fff"/>
<path transform="translate(-147.74 -156.07)" d="m816.37 461.93h-101.67a10.288 10.288 0 0 1-10.277-10.277v-62.616a10.288 10.288 0 0 1 10.277-10.277h101.67a10.288 10.288 0 0 1 10.277 10.277v62.616a10.288 10.288 0 0 1-10.277 10.277z" fill="#e6e6e6"/>
<path transform="translate(-147.74 -156.07)" d="m775.98 453.87h-54.125a9.6356 9.6356 0 0 1-9.625-9.6245v-47.79a9.6356 9.6356 0 0 1 9.625-9.6245h87.373a9.6352 9.6352 0 0 1 9.6245 9.6245v14.543a42.92 42.92 0 0 1-42.872 42.871z" fill="#fff"/>
<path transform="translate(-147.74 -156.07)" d="m800.51 413h-69.941a2.281 2.281 0 1 1 0-4.562h69.941a2.281 2.281 0 1 1 0 4.562z" fill="#6aba2f"/>
<path transform="translate(-147.74 -156.07)" d="m741.51 422.01h-10.941a2.2811 2.2811 0 0 1 0-4.5622h10.941a2.2811 2.2811 0 0 1 0 4.5622z" fill="#6aba2f"/>
<path transform="translate(-147.74 -156.07)" d="m760.89 431.03h-30.318a2.2811 2.2811 0 0 1 0-4.5622h30.318a2.2811 2.2811 0 1 1 0 4.5622z" fill="#6aba2f"/>
<circle cx="553.14" cy="221.45" r="21.506" fill="#28272b"/>
<path transform="translate(-147.74 -156.07)" d="m457.43 213.92a56.086 56.086 0 1 1 110.06 21.683l-1.9629-0.38651a54.085 54.085 0 1 0-106.13-20.91z" fill="#28272b"/>
<path transform="translate(-147.74 -156.07)" d="m478.73 249.3-31.776 1.3161a4.5005 4.5005 0 0 1-3.6021-1.5549 4.408 4.408 0 0 1-1.0171-3.7067 86.535 86.535 0 0 0-2.075-39.953 4.4711 4.4711 0 0 1 2.208-5.2267c13.016-6.7622 25.211-7.105 36.246-1.0204a4.5266 4.5266 0 0 1 2.2716 3.06 141.55 141.55 0 0 1 2.0418 43.032 4.4909 4.4909 0 0 1-4.2964 4.0528z" fill="#6aba2f"/>
<path transform="translate(-147.74 -156.07)" d="m477.38 228.51-24.297 1.0063a2.2811 2.2811 0 1 1-0.1888-4.5583l24.297-1.0063a2.2811 2.2811 0 0 1 0.18879 4.5583z" fill="#fff"/>
<path transform="translate(-147.74 -156.07)" d="m477.05 220.51-24.297 1.0063a2.2811 2.2811 0 0 1-0.18879-4.5583l24.297-1.0063a2.2811 2.2811 0 0 1 0.18879 4.5583z" fill="#fff"/>
<path transform="translate(-147.74 -156.07)" d="m686.69 239.24h-101.67a10.288 10.288 0 0 1-10.277-10.277v-62.616a10.288 10.288 0 0 1 10.277-10.277h101.67a10.288 10.288 0 0 1 10.277 10.277v62.616a10.288 10.288 0 0 1-10.277 10.277z" fill="#e6e6e6"/>
<path transform="translate(-147.74 -156.07)" d="m646.29 231.17h-54.125a9.6356 9.6356 0 0 1-9.625-9.6245v-47.79a9.6356 9.6356 0 0 1 9.625-9.6245h87.373a9.6352 9.6352 0 0 1 9.6245 9.6245v14.543a42.92 42.92 0 0 1-42.872 42.871z" fill="#fff"/>
<path transform="translate(-147.74 -156.07)" d="m670.82 190.3h-69.941a2.281 2.281 0 1 1 0-4.562h69.941a2.281 2.281 0 1 1 0 4.562z" fill="#6aba2f"/>
<path transform="translate(-147.74 -156.07)" d="m611.82 199.32h-10.941a2.2811 2.2811 0 0 1 0-4.5622h10.941a2.2811 2.2811 0 0 1 0 4.5622z" fill="#6aba2f"/>
<path transform="translate(-147.74 -156.07)" d="m631.2 208.33h-30.318a2.2811 2.2811 0 0 1 0-4.5622h30.318a2.2811 2.2811 0 0 1 0 4.5622z" fill="#6aba2f"/>
<circle transform="translate(-82.089 439.5) rotate(-58.134)" cx="568.56" cy="238.72" r="21.506" fill="#28272b"/>
<path transform="translate(-147.74 -156.07)" d="m282.07 406.5a94.031 94.031 0 0 1 175.9-66.538l-1.8711 0.708a92.031 92.031 0 1 0-172.16 65.122z" fill="#28272b"/>
<path transform="translate(-147.74 -156.07)" d="m364.33 313.36h-31.804a4.5005 4.5005 0 0 1-3.5347-1.7026 4.4081 4.4081 0 0 1-0.8628-3.7456 86.514 86.514 0 0 0-0.49707-40.309 4.4618 4.4618 0 0 1 2.0576-4.9375c11.521-6.706 23.823-6.5015 36.565 0.60986a4.5125 4.5125 0 0 1 2.293 3.2344 141.56 141.56 0 0 1 0.24267 42.979 4.4909 4.4909 0 0 1-4.4605 3.8716z" fill="#6aba2f"/>
<path transform="translate(-147.74 -156.07)" d="m349.47 282.51h-10.941a2.2811 2.2811 0 0 1 0-4.5622h10.941a2.2811 2.2811 0 0 1 0 4.5622z" fill="#fff"/>
<path transform="translate(-147.74 -156.07)" d="m362.85 291.53h-24.318a2.2811 2.2811 0 0 1 0-4.5622h24.318a2.2811 2.2811 0 0 1 0 4.5622z" fill="#fff"/>
<path transform="translate(-147.74 -156.07)" d="m259.69 405.24h-101.67a10.288 10.288 0 0 1-10.277-10.277v-62.616a10.288 10.288 0 0 1 10.277-10.277h101.67a10.288 10.288 0 0 1 10.277 10.277v62.616a10.288 10.288 0 0 1-10.277 10.277z" fill="#e6e6e6"/>
<path transform="translate(-147.74 -156.07)" d="m219.29 397.17h-54.125a9.6356 9.6356 0 0 1-9.625-9.6245v-47.79a9.6356 9.6356 0 0 1 9.625-9.6245h87.373a9.6352 9.6352 0 0 1 9.6245 9.6245v14.543a42.92 42.92 0 0 1-42.872 42.871z" fill="#fff"/>
<path transform="translate(-147.74 -156.07)" d="m243.82 356.3h-69.941a2.281 2.281 0 1 1 0-4.562h69.941a2.281 2.281 0 1 1 0 4.562z" fill="#6aba2f"/>
<path transform="translate(-147.74 -156.07)" d="m184.82 365.32h-10.941a2.2811 2.2811 0 0 1 0-4.5622h10.941a2.2811 2.2811 0 0 1 0 4.5622z" fill="#6aba2f"/>
<path transform="translate(-147.74 -156.07)" d="m204.2 374.33h-30.318a2.2811 2.2811 0 0 1 0-4.5622h30.318a2.2811 2.2811 0 0 1 0 4.5622z" fill="#6aba2f"/>
<circle transform="translate(-356.86 273.17) rotate(-58.134)" cx="281.56" cy="402.72" r="21.506" fill="#28272b"/>
<path transform="translate(-147.74 -156.07)" d="m473.33 373.36h-31.804a4.5005 4.5005 0 0 1-3.5347-1.7026 4.4081 4.4081 0 0 1-0.8628-3.7456 86.52 86.52 0 0 0-0.47949-40.24 4.4894 4.4894 0 0 1 2.124-4.978c15.45-8.8438 27.683-8.5996 37.4 0.74658a4.4406 4.4406 0 0 1 1.2788 2.4761 141.56 141.56 0 0 1 0.33838 43.572 4.4909 4.4909 0 0 1-4.4604 3.8716z" fill="#ff6584"/>
<path transform="translate(-147.74 -156.07)" d="m460.47 343.51h-10.941a2.2811 2.2811 0 0 1 0-4.5622h10.941a2.2811 2.2811 0 0 1 0 4.5622z" fill="#fff"/>
<path transform="translate(-147.74 -156.07)" d="m473.85 352.53h-24.318a2.2811 2.2811 0 0 1 0-4.5622h24.318a2.2811 2.2811 0 0 1 0 4.5622z" fill="#fff"/>
</svg>
