<?xml version="1.0" encoding="UTF-8"?>
<svg version="1.1" viewBox="0 0 1133.4 1043.2" xmlns="http://www.w3.org/2000/svg">
<g transform="matrix(1.3333 0 0 -1.3333 -289.35 1365.3)">
<g transform="scale(.1)">
<path d="m8910.8 2416.2h-6492.2c-137.25 0-248.51 111.26-248.51 248.5v5123.4c0 137.25 111.26 248.51 248.51 248.51h6492.2c137.24 0 248.5-111.26 248.5-248.51v-5123.4c0-137.24-111.26-248.5-248.5-248.5" fill="#c4c6c6"/>
<path d="m5779 2978.8c-655.53 0-1240.7 300.63-1625.6 771.38 54.76-49.6 112.17-96.37 171.96-140.03 363.46-301.56 830.27-482.84 1339.4-482.84 1159.3 0 2099.1 939.8 2099.1 2099.1 0 159.35-17.77 314.62-51.41 463.8 23.58 4.68 47.15 9.25 70.67 13.8 61.72-197.74 94.98-408.03 94.98-626.1 0-1159.3-939.79-2099.1-2099.1-2099.1m1855.1 2975.7c-62.7 169.54-146.66 328.76-248.66 474.43 118.26-140.47 218.46-296.68 296.97-465.02-16.08-3.16-32.17-6.29-48.31-9.41" fill="#a4a6a6"/>
<path d="m7763.8 5226.4c0-1159.3-939.79-2099.1-2099.1-2099.1s-2099.1 939.8-2099.1 2099.1c0 1159.3 939.78 2099.1 2099.1 2099.1s2099.1-939.79 2099.1-2099.1" fill="#f2f2f2"/>
<path d="m6435.8 5600.5c0 13.32 11.06 24.36 24.37 23.85 263.12-10.18 472.56-184.45 472.56-397.93 0-213.47-209.44-387.74-472.56-397.93-13.31-0.5-24.37 10.53-24.37 23.85v748.16" fill="#4d4d4d"/>
<path d="m4893.6 5600.5c0 13.32-11.06 24.36-24.38 23.85-263.12-10.18-472.55-184.45-472.55-397.93 0-213.47 209.43-387.74 472.55-397.93 13.32-0.51 24.38 10.53 24.38 23.85v748.16" fill="#4d4d4d"/>
<path d="m5798.8 3557.1h-268.04c-24.86 0-45 20.15-45 45v549.93h358.04v-549.93c0-24.85-20.15-45-45-45" fill="#4d4d4d"/>
<path d="m9159.3 6020.4v1767.6c0 137.25-111.26 248.51-248.5 248.51h-625.62c96.12 118.53 213.45 221.21 341.67 307.47 195.63 131.6 412.51 228.86 638.07 296 197.57 58.81 401.64 94.57 606.24 112.38 273.64 23.81 540.84 13.14 789.24 57.46 25.1-378.49 4.6-774.4-50.4-1144.6-31.1-209.23-67.7-420.43-140.8-617.86-116.3-314.39-329.1-594.02-622.66-783.14-184.75-119.03-429.11-223.82-687.24-243.87" fill="#d4d4d4"/>
<path d="m7783.1 5704c-27.9 89.36-61.6 176.14-100.67 259.92 143.93 28.33 285.33 59.22 418.05 105.89 120.85 42.5 234.63 88.12 313.26 174.84-273.08 325.28-398.37 744.07-384.27 1131 9.36 256.82 107.26 477.79 255.75 660.91h625.62c137.24 0 248.5-111.26 248.5-248.51v-1767.6c-29.19-2.27-58.56-3.46-88.03-3.46-133.45 0.01-269.18 24.32-400.92 82.4-89.09-77.11-179.02-155.06-288.48-213.83-131.98-70.88-286.24-123.94-442.92-150.92-51.33-10.52-103.46-20.5-155.89-30.64" fill="#a3a5a5"/>
<path d="m7712.4 5690.2c-20.41 90.49-46.63 178.67-78.31 264.31 16.14 3.12 32.23 6.25 48.31 9.41 39.07-83.78 72.77-170.56 100.67-259.92-23.52-4.55-47.09-9.12-70.67-13.8" fill="#888a8a"/>
<path d="m6894.2 5380.5c-50.16 95.79-145.67 172.55-264.99 213 75.33 60.94 168.07 113.47 220.06 139.91 212.47 108.06 468.67 160.21 713.32 207.34 23.86 4.6 47.71 9.17 71.49 13.76 31.68-85.64 57.9-173.82 78.31-264.31-177.88-35.24-356.28-75.85-514.36-148.8-62.34-28.76-180.52-105.38-303.83-160.9" fill="#c9c9c9"/>
<path d="m6663.8 5317.9c-42.2 0-80.32 9.82-111.32 33.45-90.24 68.81-21.57 162.64 76.74 242.15 119.32-40.45 214.83-117.21 264.99-213-79.18-35.65-160.46-62.6-230.41-62.6" fill="#404040"/>
<path d="m10098 7978c64.6 260.27 84.2 529.37 97.7 797.17 24.1 480.89 2.6 989.8-73.9 1464.8-298.76-162-618.21-258.33-931.44-396.83-228.1-100.86-448.16-220.82-653.25-362.99-228.58-158.46-438.39-344.59-616.97-558.13-288.67-345.19-484.93-772.46-438.7-1228.9 43.23-426.8 230.05-852.75 554.22-1138.7 193.92 384.39 666.17 1303.8 1106.4 2030.9 571.66 944.17 586.1 877.79 586.1 877.79s-878.92-1767.8-1023.6-2035.6c-92.71-171.67-265.39-623.6-437.69-944.82 444.17-119.42 905.31 141.46 1209.3 423.07 307.43 284.75 520.92 665.59 621.81 1072.3" fill="#6aba2f"/>
<path d="m6678.3 5810c162.32 135.67 373.9 226.43 581.23 312.56 160 66.48 321.89 132.12 470.09 222.82 130.67 79.96 252.88 163.88 308.07 314.05 78.07-67.63 178.4-109.11 281.44-116.39-94.18-117.52-181.92-240.32-299.43-337.56-115.61-95.65-252.65-175.47-393.29-228.15-217.12-89.84-447.54-168-627.67-302.1-99.13-73.81-358.92-362.19-508.22-266.36-144.98 93.06 97.76 325.9 187.78 401.13" fill="#6aba2f"/>
</g>
</g>
</svg>
