<?xml version="1.0" encoding="UTF-8"?>
<svg class="" width="512" height="512" enable-background="new 0 0 512 512" version="1.1" viewBox="0 0 101 100" xml:space="preserve" xmlns="http://www.w3.org/2000/svg"><g transform="matrix(1.234 0 0 1.2016 -10.929 -10.059)" fill="#29262b"><path class="" d="m34.306 21.125v-5.25c0-4.35 3.508-7.875 7.836-7.875h16.716c4.328 0 7.836 3.526 7.836 7.875v5.25h14.104c2.597 0 4.702 2.115 4.702 4.725s-2.105 4.725-4.702 4.725h-1.044v48.825c0 6.959-5.613 12.6-12.538 12.6h-33.432c-6.925 0-12.538-5.641-12.538-12.6v-48.825h-1.044c-2.597 0-4.702-2.115-4.702-4.725s2.105-4.725 4.702-4.725zm9.403 0v-2.675a1 1 0 0 1 1-1h11.582a1 1 0 0 1 1 1v2.675zm-6.112 26.916a4.5 4.5 0 1 1 9 0v20.463a4.5 4.5 0 1 1-9 0zm16.836 0a4.5 4.5 0 1 1 9 0v20.463a4.5 4.5 0 1 1-9 0z" clip-rule="evenodd" fill="#29262b" fill-rule="evenodd" data-original="#000000"/></g></svg>
