<?xml version="1.0" encoding="UTF-8"?>
<svg version="1.1" viewBox="0 0 666.67 666.67" xmlns="http://www.w3.org/2000/svg">
<defs>
<clipPath id="j">
<path d="m5e3 0h-187.41v538.56h-46.6v315.61h-91.78l0.85 15.269 2.41 172.4c0.29 20.82 4.22 41.33 11.24 60.88 1.01 2.8 1.88 5.63 3.01 8.37 1.34 3.23 2.78 6.67 4.3 10.26 0.43 1.03 0.9 2.15 1.35 3.2 1.18 2.77 2.39 5.6 3.65 8.56 0.44 0.99 0.88 2.03 1.32 3.04 1.43 3.31 2.88 6.7 4.41 10.21l0.9 2.07c1.84 4.27 3.75 8.64 5.73 13.16 48.75 111.7 132.99 299.34 129.61 353.42-3.93 62.92-68.12 476.24-99.49 626.22-5.88 28.12-30.9 42.84-58.8 42.84-4.13 0-8.32-0.33-12.52-0.97-4.67-0.72-9.03-2.77-13.1-6.01-2.51 1.26-5.13 2.35-7.83 3.27v230.76c0 5.25-0.28 10.41-0.78 15.52-0.17 1.75-0.49 3.45-0.71 5.19-0.44 3.31-0.88 6.62-1.52 9.87-0.4 2.08-0.94 4.1-1.42 6.15-0.67 2.8-1.34 5.61-2.15 8.36-0.66 2.21-1.42 4.37-2.16 6.53-0.85 2.47-1.72 4.93-2.69 7.34-0.91 2.29-1.91 4.54-2.93 6.79-0.98 2.13-1.99 4.24-3.05 6.32-1.21 2.38-2.47 4.71-3.8 7.01-1.03 1.79-2.1 3.54-3.19 5.27-1.56 2.47-3.13 4.89-4.81 7.26-0.97 1.36-1.98 2.67-2.99 4-1.97 2.61-3.96 5.19-6.09 7.67l-2.01 2.21c-29.09 32.69-71.37 53.39-118.58 53.39h-259.01l-148.03 373.53v-373.53 373.53l-143.01-360.84-754.52 439.79 0.19 73.89 62.12 36.18 0.34 0.17-0.34 0.51-30.51 51.44-270.39 455.47-514.38-299.57 90.45-152.36-28.44-16.47-62.16 104.7-240.64-125.81-3.77-2.19v-154.28l-1598.8-926.08 1470.3-857.07 371.04-216.28 4.97-97.101 1152 667.31c6.38-44.2 43.63-79.34 89.8-81.41l11.5-2.73c-36.02-1.3-67.47-23.04-82.39-54.28 0-0.01-0.01-0.02-0.02-0.04s-0.02-0.05-0.04-0.08c-0.03-0.06-0.06-0.13-0.09-0.19 0-0.01 0-0.01-0.01-0.02-3.61-7.65-6.24-15.86-7.7-24.48-0.64-3.8-1.06-7.68-1.24-11.62-0.06-1.43-0.1-2.85-0.1-4.27 0-50.35 39.98-92.64 90.77-94.92l27.6-6.55v-110.57c0-80.69 60.15-147.33 138.06-157.53l64.57-87.25c15.47-20.891 23.82-46.219 23.82-72.211v-47.918h-17.18v-270.31h-55.93v-538.56h-3871.2v5e3h5e3v-5e3m-353.56 1129.2h-1.65c0.44 1.51 0.79 3.07 1.19 4.6l0.08-0.9 0.13-1.28 0.12-1.15 0.07-0.7 0.06-0.57"/>
</clipPath>
<linearGradient id="d" x2="1" gradientTransform="matrix(-4460 4460 4460 4460 5600.8 -600.79)" gradientUnits="userSpaceOnUse">
<stop stop-color="#ababaa" offset="0"/>
<stop stop-color="#fff" offset="1"/>
</linearGradient>
<clipPath id="k">
<path d="m1888.5 2095 0.05 15.33 0.62 75.54 0.03 0.06-0.64-75.63-0.06-15.3m29.02 152.66 0.01 0.03 94.36 54.91-0.02-0.04-94.35-54.9"/>
</clipPath>
<clipPath id="i">
<path d="m3630.5 3124.3-29.87-17.36c11.94 6.94 3.42 14.81-0.16 24.08-2.92 7.54-2.08 14.76-10.5 19.62l29.86 17.35c8.42-4.85 7.58-12.07 10.5-19.62 3.59-9.26 12.11-17.13 0.17-24.07"/>
</clipPath>
<clipPath id="h">
<path d="m4812.6 0h-941.41v538.56h55.93v270.31h17.18v-135.15h671.36l0.83 59.211 4.32 308.91c0.34 23.78 5.16 47.27 14.25 69.25 0.03 0.07 0.06 0.14 0.08 0.21 0.02 0.04 0.04 0.08 0.05 0.11 0.02 0.06 0.05 0.12 0.07 0.18 5.67 13.68 13.06 30.73 21.46 50 48.75 111.72 132.99 299.35 129.61 353.42-3.93 62.92-68.11 476.24-99.48 626.22-3.54 16.88-13.96 28.93-27.76 35.86 4.07 3.24 8.43 5.29 13.1 6.01 4.2 0.64 8.39 0.97 12.52 0.97 27.9 0 52.92-14.72 58.8-42.84 31.37-149.98 95.56-563.3 99.49-626.22 3.38-54.08-80.86-241.72-129.61-353.42-1.98-4.52-3.89-8.89-5.73-13.16l-0.9-2.07c-1.53-3.51-2.98-6.9-4.41-10.21-0.44-1.01-0.88-2.05-1.32-3.04-1.26-2.96-2.47-5.79-3.65-8.56-0.45-1.05-0.92-2.17-1.35-3.2-1.52-3.59-2.96-7.03-4.3-10.26-1.13-2.74-2-5.57-3.01-8.37-7.02-19.55-10.95-40.06-11.24-60.88l-2.41-172.4-0.85-15.269h91.78v-315.61h46.6v-538.56m-166.61 1133.8c-0.4-1.53-0.75-3.09-1.19-4.6h1.65l-0.06 0.57-0.07 0.7-0.12 1.15-0.13 1.28-0.08 0.9m-56.21-4.6h-1.53c0.39 1.34 0.77 2.68 1.12 4.03 0.2-1.98 0.33-3.24 0.38-3.76v-0.01-0.02-0.01-0.01-0.01-0.01c0.01-0.01 0.01-0.01 0.01-0.02v-0.01-0.01-0.03-0.01-0.01s0-0.01 0.01-0.01v-0.05-0.01-0.03c0-0.01 0.01-0.01 0.01-0.01m4.82 1040v241.96 0.25 0.1 0.14 0.12 0.12 0.13 0.12 0.13c-0.01 0.04-0.01 0.07-0.01 0.11v0.13 0.11 0.14 0.1 0.14 0.09c-0.01 0.59-0.02 1.19-0.03 1.78v0.01c-1.98 86.03-72.34 155.16-158.84 155.16h-202.35 259.01c47.21 0 89.49-20.7 118.58-53.39l2.01-2.21c2.13-2.48 4.12-5.06 6.09-7.67 1.01-1.33 2.02-2.64 2.99-4 1.68-2.37 3.25-4.79 4.81-7.26 1.09-1.73 2.16-3.48 3.19-5.27 1.33-2.3 2.59-4.63 3.8-7.01 1.06-2.08 2.07-4.19 3.05-6.32 1.02-2.25 2.02-4.5 2.93-6.79 0.97-2.41 1.84-4.87 2.69-7.34 0.74-2.16 1.5-4.32 2.16-6.53 0.81-2.75 1.48-5.56 2.15-8.36 0.48-2.05 1.02-4.07 1.42-6.15 0.64-3.25 1.08-6.56 1.52-9.87 0.22-1.74 0.54-3.44 0.71-5.19 0.5-5.11 0.78-10.27 0.78-15.52v-230.76c-7.23 2.46-15.1 3.71-23.21 3.71-4.13 0-8.32-0.33-12.52-0.97-7.79-1.21-14.74-5.99-20.93-13.94"/>
</clipPath>
<linearGradient id="c" x2="1" gradientTransform="matrix(-4460 4460 4460 4460 5600.8 -600.79)" gradientUnits="userSpaceOnUse">
<stop stop-color="#9e9e9d" offset="0"/>
<stop stop-color="#f3f4f3" offset="1"/>
</linearGradient>
<clipPath id="g">
<path d="m4616.5 732.93 4.32 308.91c0.34 23.78 5.16 47.27 14.25 69.25-9.09-21.98-13.91-45.47-14.25-69.25l-4.32-308.91m18.65 378.37c0.02 0.04 0.03 0.07 0.05 0.11-0.01-0.03-0.03-0.07-0.05-0.11m0.12 0.29c5.67 13.69 13.04 30.71 21.46 50.01v-0.01c-8.4-19.27-15.79-36.32-21.46-50"/>
</clipPath>
<linearGradient id="a" x2="1" gradientTransform="matrix(-4460 4460 4460 4460 5600.8 -600.79)" gradientUnits="userSpaceOnUse">
<stop stop-color="#9b826d" offset="0"/>
<stop stop-color="#ecc5a6" offset="1"/>
</linearGradient>
<clipPath id="f">
<path d="m4589.8 1129.2m0 0.03v0.01-0.01m0 0.06c-0.01 0-0.01 0.01-0.01 0.01s0-0.01 0.01-0.01m-0.01 0.02v0.01-0.01m0 0.04v0.01-0.01m0 0.02c0 0.01 0 0.01-0.01 0.02 0.01-0.01 0.01-0.01 0.01-0.02m-0.01 0.03v0.01-0.01m0 0.02v0.01-0.01m0 0.03v0.01-0.01"/>
</clipPath>
<clipPath id="e">
<path d="m3600.8 1401.7c1.46 8.62 4.09 16.83 7.7 24.48-3.61-7.65-6.24-15.86-7.7-24.48m7.71 24.5c0.03 0.06 0.06 0.13 0.09 0.19-0.03-0.06-0.06-0.13-0.09-0.19m0.13 0.27c0.01 0.02 0.02 0.03 0.02 0.04 0-0.01-0.01-0.02-0.02-0.04"/>
</clipPath>
<linearGradient id="b" x2="1" gradientTransform="matrix(-4460 4460 4460 4460 5600.8 -600.79)" gradientUnits="userSpaceOnUse">
<stop stop-color="#a88c76" offset="0"/>
<stop stop-color="#fbd0b1" offset="1"/>
</linearGradient>
</defs>
<g transform="matrix(1.3333 0 0 -1.3333 0 666.67)">
<g transform="scale(.1)">
<g clip-path="url(#j)">
<path d="m5e3 0h-187.41v538.56h-46.6v315.61h-91.78l0.85 15.269 2.41 172.4c0.29 20.82 4.22 41.33 11.24 60.88 1.01 2.8 1.88 5.63 3.01 8.37 1.34 3.23 2.78 6.67 4.3 10.26 0.43 1.03 0.9 2.15 1.35 3.2 1.18 2.77 2.39 5.6 3.65 8.56 0.44 0.99 0.88 2.03 1.32 3.04 1.43 3.31 2.88 6.7 4.41 10.21l0.9 2.07c1.84 4.27 3.75 8.64 5.73 13.16 48.75 111.7 132.99 299.34 129.61 353.42-3.93 62.92-68.12 476.24-99.49 626.22-5.88 28.12-30.9 42.84-58.8 42.84-4.13 0-8.32-0.33-12.52-0.97-4.67-0.72-9.03-2.77-13.1-6.01-2.51 1.26-5.13 2.35-7.83 3.27v230.76c0 5.25-0.28 10.41-0.78 15.52-0.17 1.75-0.49 3.45-0.71 5.19-0.44 3.31-0.88 6.62-1.52 9.87-0.4 2.08-0.94 4.1-1.42 6.15-0.67 2.8-1.34 5.61-2.15 8.36-0.66 2.21-1.42 4.37-2.16 6.53-0.85 2.47-1.72 4.93-2.69 7.34-0.91 2.29-1.91 4.54-2.93 6.79-0.98 2.13-1.99 4.24-3.05 6.32-1.21 2.38-2.47 4.71-3.8 7.01-1.03 1.79-2.1 3.54-3.19 5.27-1.56 2.47-3.13 4.89-4.81 7.26-0.97 1.36-1.98 2.67-2.99 4-1.97 2.61-3.96 5.19-6.09 7.67l-2.01 2.21c-29.09 32.69-71.37 53.39-118.58 53.39h-259.01l-148.03 373.53v-373.53 373.53l-143.01-360.84-754.52 439.79 0.19 73.89 62.12 36.18 0.34 0.17-0.34 0.51-30.51 51.44-270.39 455.47-514.38-299.57 90.45-152.36-28.44-16.47-62.16 104.7-240.64-125.81-3.77-2.19v-154.28l-1598.8-926.08 1470.3-857.07 371.04-216.28 4.97-97.101 1152 667.31c6.38-44.2 43.63-79.34 89.8-81.41l11.5-2.73c-36.02-1.3-67.47-23.04-82.39-54.28 0-0.01-0.01-0.02-0.02-0.04s-0.02-0.05-0.04-0.08c-0.03-0.06-0.06-0.13-0.09-0.19 0-0.01 0-0.01-0.01-0.02-3.61-7.65-6.24-15.86-7.7-24.48-0.64-3.8-1.06-7.68-1.24-11.62-0.06-1.43-0.1-2.85-0.1-4.27 0-50.35 39.98-92.64 90.77-94.92l27.6-6.55v-110.57c0-80.69 60.15-147.33 138.06-157.53l64.57-87.25c15.47-20.891 23.82-46.219 23.82-72.211v-47.918h-17.18v-270.31h-55.93v-538.56h-3871.2v5e3h5e3v-5e3m-353.56 1129.2h-1.65c0.44 1.51 0.79 3.07 1.19 4.6l0.08-0.9 0.13-1.28 0.12-1.15 0.07-0.7 0.06-0.57" fill="url(#d)"/>
</g>
<path d="m4299.6 2772.1c-6.98 0-12.7 5.72-12.7 12.7v549.27c0 6.99 5.72 12.7 12.7 12.7s12.7-5.71 12.7-12.7v-549.27c0-6.98-5.72-12.7-12.7-12.7" fill="#100f0d"/>
<path d="m4650.9 3628.4c0 194.03-157.3 351.33-351.33 351.33s-351.33-157.3-351.33-351.33c0-194.04 157.3-351.34 351.33-351.34s351.33 157.3 351.33 351.34" fill="#f03d27"/>
<path d="m4299.6 3352.4c-152.22 0-276.04 123.83-276.04 276.05 0 152.21 123.82 276.04 276.04 276.04 152.21 0 276.05-123.83 276.05-276.04 0-152.22-123.84-276.05-276.05-276.05" fill="#fff"/>
<path d="m4355.3 2774.9c0 30.8-24.96 55.77-55.76 55.77s-55.77-24.97-55.77-55.77c0-30.79 24.97-55.76 55.77-55.76s55.76 24.97 55.76 55.76" fill="#f03d27"/>
<path d="m4297.4 3530.9c-23.03 0-30.22-10.47-29.75-24.2 1.26-36.69 58.3-36.7 59.57 0 0.48 13.73-6.73 24.2-29.82 24.2" fill="#96221e"/>
<path d="m4392.4 3534.1-0.85-1.06c-7.5-9.38-21.45-9.06-29.22 0.11-15.63 18.5-39 30.25-65.13 30.25-26.11 0-49.48-11.75-65.12-30.25-7.75-9.17-21.71-9.49-29.2-0.1l-0.87 1.08c-5.42 6.78-5.65 16.56-0.1 23.23 22.73 27.31 56.97 44.71 95.29 44.71 38.31 0 72.58-17.4 95.32-44.74 5.55-6.67 5.3-16.45-0.12-23.23" fill="#96221e"/>
<path d="m4437.5 3590.5c-6.8-8.49-19.43-9.01-27.01-1.22-28.7 29.51-68.85 47.85-113.26 47.85-44.4 0-84.54-18.34-113.23-47.85-7.59-7.8-20.23-7.28-27.02 1.21l-0.03 0.04c-5.62 7.04-5.28 17.24 1 23.71 35.27 36.34 84.65 58.91 139.28 58.91 54.66 0 104.04-22.6 139.28-58.94 6.27-6.47 6.62-16.67 0.99-23.71" fill="#96221e"/>
<path d="m4481.8 3645.9c-7.93-9.9-22.63-11.13-31.93-2.5-40.05 37.18-93.7 59.93-152.65 59.93-58.96 0-112.61-22.74-152.63-59.92-9.3-8.64-24-7.41-31.93 2.5-7.11 8.88-6.4 21.88 1.93 29.63 47.87 44.56 112.07 71.79 182.63 71.79 70.54 0 134.74-27.23 182.64-71.79 8.34-7.75 9.06-20.75 1.94-29.64" fill="#96221e"/>
<path d="m1503.7 3245.5c-6.99 0-12.7 5.72-12.7 12.7v631.3c0 6.99 5.71 12.7 12.7 12.7s12.7-5.71 12.7-12.7v-631.3c0-6.98-5.71-12.7-12.7-12.7" fill="#100f0d"/>
<path d="m1855 4183.8c0 194.03-157.3 351.33-351.34 351.33-194.03 0-351.33-157.3-351.33-351.33 0-194.04 157.3-351.34 351.33-351.34 194.04 0 351.34 157.3 351.34 351.34" fill="#f03d27"/>
<path d="m1503.7 3907.8c-152.21 0-276.04 123.83-276.04 276.05 0 152.21 123.83 276.04 276.04 276.04s276.05-123.83 276.05-276.04c0-152.22-123.84-276.05-276.05-276.05" fill="#fff"/>
<path d="m1559.4 3248.3c0 30.79-24.97 55.76-55.77 55.76s-55.76-24.97-55.76-55.76c0-30.81 24.96-55.78 55.76-55.78s55.77 24.97 55.77 55.78" fill="#f03d27"/>
<path d="m1638.5 4151.2c0-1.16-0.25-2.24-0.82-3.26-12.01-21.57-51.17-82.49-128.93-123.14-2-1.05-4.47-1.05-6.48-0.01-78.56 40.93-117.08 101.43-128.93 123.04-0.54 1-0.79 2.07-0.79 3.21v121.38c0 2.95 1.91 5.57 4.73 6.48l126.17 40.47c1.35 0.43 2.8 0.43 4.16 0l126.16-40.47c2.82-0.91 4.73-3.53 4.73-6.48zm-132.96 209.7-0.02-0.16v0.16l-171.89-55.13v-165.6s45.94-104.37 171.89-160.1v0.2l0.02-0.2c125.93 55.73 171.88 160.1 171.88 160.1v165.6l-171.88 55.13" fill="#96221e"/>
<path d="m1600.1 4250.7-93.01 29.84c-1 0.31-2.07 0.31-3.07 0l-93.01-29.84c-2.08-0.67-3.49-2.6-3.49-4.78v-89.48l0.59-2.37c8.73-15.93 37.13-60.54 95.05-90.71 1.47-0.76 3.29-0.76 4.77 0.01 57.33 29.97 86.2 74.89 95.06 90.78l0.6 2.41v89.36c0 2.18-1.41 4.11-3.49 4.78" fill="#96221e"/>
<path d="m700.44 2384.2c-6.981 0-12.7 5.71-12.7 12.69v851.76c0 6.99 5.719 12.7 12.7 12.7 6.988 0 12.703-5.71 12.703-12.7v-851.76c0-6.98-5.715-12.69-12.703-12.69" fill="#100f0d"/>
<path d="m1051.8 3543c0 194.03-157.3 351.33-351.33 351.33-194.03 0-351.33-157.3-351.33-351.33 0-194.04 157.3-351.33 351.33-351.33 194.04 0 351.33 157.29 351.33 351.33" fill="#f03d27"/>
<path d="m700.44 3266.9c-152.21 0-276.04 123.83-276.04 276.05 0 152.21 123.83 276.04 276.04 276.04 152.21 0 276.05-123.83 276.05-276.04 0-152.22-123.83-276.05-276.05-276.05" fill="#fff"/>
<path d="m756.21 2387c0 30.8-24.969 55.77-55.769 55.77-30.797 0-55.766-24.97-55.766-55.77s24.969-55.76 55.766-55.76c30.8 0 55.769 24.96 55.769 55.76" fill="#f03d27"/>
<path d="m794.18 3397.8h-205.8v158.25h205.8zm13.203 193.76h-232.2c-12.321 0-22.309-9.99-22.309-22.31v-184.66c0-12.31 9.988-22.31 22.309-22.31h232.2c12.32 0 22.308 10 22.308 22.31v184.66c0 12.32-9.988 22.31-22.308 22.31" fill="#96221e"/>
<path d="m795.98 3637v-19.71h-30.364v19.71c0 41.1-33.289 74.4-74.304 74.4-41.098 0-74.391-33.3-74.391-74.4v-19.71h-30.273v19.71c0 57.71 46.871 104.67 104.66 104.67 57.707 0 104.67-46.96 104.67-104.67" fill="#96221e"/>
<path d="m720.72 3499.3c0 17.37-15.035 31.21-32.793 29.25-13.656-1.51-24.68-12.75-25.949-26.44-0.793-8.56 2.089-16.45 7.246-22.29 4.754-5.36 7.754-12.05 7.754-19.22v-12.7c0-7.46 5.418-14.15 12.836-14.91 8.523-0.86 15.773 5.89 15.773 14.24v12.99c0 7.34 3.035 14.21 7.875 19.75 4.519 5.16 7.258 11.92 7.258 19.33" fill="#96221e"/>
<path d="m2493.2 3660.8c-6.98 0-12.7 5.71-12.7 12.7v369.82c0 6.99 5.72 12.7 12.7 12.7 6.99 0 12.7-5.71 12.7-12.7v-369.82c0-6.99-5.71-12.7-12.7-12.7" fill="#100f0d"/>
<path d="m2844.5 4337.7c0 194.03-157.29 351.32-351.33 351.32-194.03 0-351.33-157.29-351.33-351.32 0-194.04 157.3-351.34 351.33-351.34 194.04 0 351.33 157.3 351.33 351.34" fill="#f03d27"/>
<path d="m2493.2 4061.6c-152.21 0-276.04 123.84-276.04 276.05s123.83 276.04 276.04 276.04 276.05-123.83 276.05-276.04-123.84-276.05-276.05-276.05" fill="#fff"/>
<path d="m2548.9 3663.6c0 30.8-24.98 55.78-55.78 55.78s-55.76-24.98-55.76-55.78c0-30.79 24.96-55.76 55.76-55.76s55.78 24.97 55.78 55.76" fill="#f03d27"/>
<path d="m2565.5 4290.1-3.27 47.13h79.68l8.19-47.13zm-7.92 114.18h72.74l6.54-37.9h-76.65zm-2.01 28.6-2.09 30.4h66.56l5.27-30.4zm-107.33-142.78 2.44 47.13h79.8l2.43-47.13zm5.9 114.18h72.79l2.02-37.9h-76.81zm3.06 59h66.69l1.59-30.4h-69.87zm-32.16-30.4h-69.75l5.27 30.4h66.59zm-4.58-66.5h-76.67l6.57 37.9h72.73zm-5.27-76.28h-84.62l8.13 47.13h79.75zm265.08-6.39-10.51 53.99-5.44 27.89-8.1 41.55-4.41 22.66-7.89 40.47c-1.76 9.03-11.08 16.2-20.85 16.2h-265.5c-9.78 0-19.1-7.17-20.86-16.2l-7.88-40.47-4.42-22.66-8.1-41.55-5.43-27.89-10.52-53.99c-2.77-14.18 5.21-25.98 17.88-25.98h98.77c7.43 0 12.91-6.94 11.19-14.17l-6.17-20.04c-2.82-9.15-11.28-15.39-20.85-15.39-7.42 0-13.44-6.02-13.44-13.44s6.02-13.44 13.44-13.44h178.27c7.43 0 13.44 6.02 13.44 13.44s-6.01 13.44-13.44 13.44c-9.57 0-18.02 6.24-20.85 15.39l-6.17 20.04c-1.72 7.23 3.76 14.17 11.19 14.17h98.77c12.68 0 20.65 11.8 17.88 25.98" fill="#96221e"/>
<path d="m3455.3 3380.5c-6.98 0-12.7 5.72-12.7 12.7v549.27c0 6.99 5.72 12.7 12.7 12.7s12.7-5.71 12.7-12.7v-549.27c0-6.98-5.72-12.7-12.7-12.7" fill="#100f0d"/>
<path d="m3806.6 4236.8c0 194.03-157.29 351.32-351.33 351.32-194.03 0-351.33-157.29-351.33-351.32 0-194.04 157.3-351.34 351.33-351.34 194.04 0 351.33 157.3 351.33 351.34" fill="#f03d27"/>
<path d="m3455.3 3960.8c-152.21 0-276.04 123.83-276.04 276.05 0 152.21 123.83 276.04 276.04 276.04s276.05-123.83 276.05-276.04c0-152.22-123.84-276.05-276.05-276.05" fill="#fff"/>
<path d="m3511.1 3383.3c0 30.8-24.97 55.77-55.77 55.77s-55.77-24.97-55.77-55.77 24.97-55.77 55.77-55.77 55.77 24.97 55.77 55.77" fill="#f03d27"/>
<path d="m3524.1 4207.3c-9.04-12.39-23.43-34.29-33.19-59.95h-81.13c-14.82 38.99-40.24 69.16-41.49 70.63-17.47 20.08-26.98 45.49-26.98 71.78 0 60.12 48.91 109.04 109.03 109.04 60.13 0 109.04-48.92 109.04-109.04 0-26.29-9.52-51.7-26.79-71.55l-8.68-9.97zm61.9 82.46c0 74.91-60.74 135.65-135.66 135.65-74.91 0-135.64-60.74-135.64-135.65 0-34.08 12.58-65.19 33.34-89.02l-0.02-0.01s31.65-37.2 42.32-79.99h120c10.67 42.79 42.33 79.99 42.33 79.99l-0.01 0.01c20.74 23.83 33.34 54.94 33.34 89.02" fill="#96221e"/>
<path d="m3448.5 4320.8h41.83l-38.51-40.3h48.25l-75.87-76.18 24.12 53.28h-47.64l47.82 63.2" fill="#96221e"/>
<path d="m3512.6 4111.6h-125.85c-6.9 0-12.47-5.59-12.47-12.48s5.57-12.47 12.47-12.47h125.85c6.89 0 12.48 5.58 12.48 12.47s-5.59 12.48-12.48 12.48" fill="#96221e"/>
<path d="m3512.6 4072.2h-125.85c-6.9 0-12.47-5.58-12.47-12.48 0-6.88 5.57-12.47 12.47-12.47h125.85c6.89 0 12.48 5.59 12.48 12.47 0 6.9-5.59 12.48-12.48 12.48" fill="#96221e"/>
<path d="m4556.3 2224.8-1022.8-592.48-375.61-217.56-725.12-420.05-1841.3 1073.4 2123.5 1230 1841.3-1073.3" fill="#90c224"/>
<path d="m4556.3 2224.8 4.96-97.1-2123.4-1230.1-4.96 97.109 2123.4 1230.1" fill="#e5611b"/>
<path d="m2438.1 3056.6-629.02-364.36-64.9-519.34 982.79-572.82-549.3-318.23-115.87-70.84 371.04-216.28 1776.8 1029.3-1771.6 1032.6" fill="#f4efe8"/>
<path d="m2437.8 897.63-1841.3 1073.3-4.961 97.11 1841.3-1073.3 4.96-97.109" fill="#be4b1f"/>
<path d="m2675.4 2449.8 96.63 56.36v-54.57l-96.63-56.35-0.19-0.09 0.09 54.65h0.1" fill="#e0d8c9"/>
<path d="m3187.1 2693.9-72.73-42.36v54.56l72.73 42.37v-54.57" fill="#f03d27"/>
<path d="m2675.2 2449.7 0.15 0.07 96.67 56.39v60.6l342.36 199.76v-60.45l72.7 42.41 1.25 472.61-511.89-298.78-1.01-394.36-0.23-78.25" fill="#e0d8c9"/>
<path d="m2772.7 2783.1 342.06 199.67-0.43-271.81-342.33-199.84 0.7 271.98" fill="#323434"/>
<path d="m3114.8 2982.7-0.4-271.73-48.01-28.08-232.36 135.92 280.77 163.89" fill="#191817"/>
<path d="m3114.6 2982.6-0.2-146.04-342.08-199.61 0.41 146.14 341.87 199.51" fill="#f4efe8"/>
<path d="m3114.6 2982.6-0.2-146.04-342.08-199.61 0.41 146.14 341.87 199.51" fill="#f4efe8"/>
<path d="m3114.8 2982.7-0.4-271.78-48.23-28.15 0.48 271.79 48.15 28.14" fill="#f4efe8"/>
<path d="m3114.8 2982.7-0.4-329.64-48.23 29.71 0.48 271.79 48.15 28.14" fill="#cbbb9b"/>
<path d="m2190.3 3148.4v-473.23l484.94-280.05 0.21 78.21 1.01 394.35-8.74 16.2-233.01 392.52-240.64-125.81-3.77-2.19" fill="#cbbb9b"/>
<path d="m2676.6 2867.8 46.3-78.23 14.76 8.55 512.34 299.01 0.06 35.41v0.68l-30.51 51.44-514.1-300.04-28.85-16.82" fill="#b92d22"/>
<path d="m2434.8 3340.6 514.39 299.57-281.04-146.31-536.5-311.77 303.15 158.51" fill="#b92d22"/>
<path d="m2723 2789.6-46.34 78.27-241.96 408.63-244.76-127.98-58.21 33.58 303.16 158.51 270.66-455.95 30.56-51.5-13.11-43.56" fill="#96221e"/>
<path d="m2434.8 3340.6 270.67-455.94 30.56-51.49 514.05 299.41 0.34 0.17-0.34 0.51-30.51 51.44-270.39 455.47-514.38-299.57" fill="#f03d27"/>
<path d="m2450.9 2623.7-45.67 77.16-238.5 402.79-241.27-126.16-57.37 33.1 298.82 156.25 266.8-449.43 30.12-50.77-12.93-42.94" fill="#96221e"/>
<path d="m1813.3 1784.3 0.13 0.06 869.01 505.97 1.57 608.76-869.14-506.03-1.31-508.01-0.26-100.75" fill="#e0d8c9"/>
<path d="m2066.3 2334.3-1.31-204.1-176.61-102.72-0.14-0.07 0.28 82.93 1.03 121.11 176.75 102.85" fill="#323434"/>
<g clip-path="url(#k)">
<path d="m1888.5 2095h123.39v207.6h-123.39z" fill="#ece8df"/>
</g>
<path d="m1891.6 2040.7h-3.28l0.16 54.35 0.06 15.3 0.64 75.63 28.32 61.73 94.35 54.9-120.25-261.91" fill="#45494b"/>
<path d="m1928 2050.5 127.46 277.42 10.86 6.34-0.62-102.02-63.69-138.67-74.01-43.07" fill="#45494b"/>
<path d="m2053.9 2327-1.21-187.71-164.4-95.62-0.05-16.34 0.14 0.07 176.61 102.72 1.31 204.1-12.4-7.22" fill="#cbbb9b"/>
<path d="m1813.4 1784.4 869.01 505.97v100.55l-868.75-505.76-0.26-100.76" fill="#f03d27"/>
<path d="m2111.9 2671.2v-712.05l277.89-161.5-1.17 722.83-276.72 150.72" fill="#cbbb9b"/>
<path d="m1188.6 2754.7v-609.61l624.7-360.75 0.26 100.75 1.31 508.01-11.28 20.86-300.15 505.64-309.99-162.07-4.85-2.83" fill="#cbbb9b"/>
<path d="m1188.6 2245.6v-100.56l624.7-360.75 0.13 0.06 0.26 100.76-0.13-0.07-0.26-0.2-624.7 360.76" fill="#96221e"/>
<path d="m1815.2 2393.2 59.64-100.77 19.03 11.02 869.72 506.29 0.07 45.61v0.88l-39.29 66.26-872.01-507.62-37.16-21.67" fill="#b92d22"/>
<path d="m1503.6 3002.2 872.38 507.02-571.77-309.59-691.11-401.63 390.5 204.2" fill="#b92d22"/>
<path d="m1874.8 2292.4-59.68 100.83-311.69 526.4-315.3-164.88-74.99 43.26 390.52 204.2 348.67-587.35 39.36-66.34-16.89-56.12" fill="#96221e"/>
<path d="m1503.6 3002.2 388.04-653.65 871.93 506.8 0.44 0.22-0.44 0.66-39.29 66.26-348.31 586.73-872.37-507.02" fill="#f03d27"/>
<path d="m2389.8 1797.6-277.89 161.5v98.59l277.73-161.41 0.16-98.68" fill="#96221e"/>
<path d="m2854.8 2780.4v-0.08l-0.58-714.51-115.59-66.76v340.84l-1.76 85.24-220.72-129.51 0.26-323.71 0.07-101.1-126.73-73.12-1.09 722.71v0.08l232.79 381.89 233.35-121.97" fill="#e0d8c9"/>
<path d="m2389.7 1898.7 126.74 73.21v-101.02l-126.66-73.2-0.08 101.01" fill="#ea3021"/>
<path d="m2854.2 2166.9v-101.1l-115.59-66.76v101.11l115.59 66.75" fill="#ea3021"/>
<path d="m2738.6 2301v-272.44l-222.15-128.16-0.07 71.49-0.26 322.42 220.72 129.5 1.76-122.81" fill="#96221e"/>
<path d="m2738.6 2301v-301.97l-19.94 18.64v243.55l-1.34 151.11 19.52 11.48 1.76-122.81" fill="#cbbb9b"/>
<path d="m2641 2941.6-362.71 211.6 40.13-7.49 600.71-349.55-278.13 145.44" fill="#ea3021"/>
<path d="m2641 2941.6 278.13-145.44-53.39-30.83-224.58 117.44-254.87-418.18-24.08 13.72 278.79 463.29" fill="#f14627"/>
<path d="m2641 2941.6-254.75-429.13-108.01 63.05v577.72l362.76-211.64" fill="#ea3021"/>
<path d="m2386.3 2464.5v47.89l-108.01 63.05v-48.15l108.01-62.79" fill="#96221e"/>
<path d="m1857.3 3122.4-114.35 66.02 113.6 66.01 114.35-66.01zm-156.33 66.02 156.46-90.33 155.45 90.33-156.46 90.34-155.45-90.34" fill="#ebe5d8"/>
<path d="m1856.6 3254.4 114.35-66.01-113.6-66.02-114.35 66.02 113.6 66.01" fill="#cbbb9b"/>
<path d="m1856.6 3230.1-92.58-53.8-21.02 12.14 113.6 66.01 114.35-66.01-21.02-12.22-93.33 53.88" fill="#a99472"/>
<path d="m2012.9 3188.4-0.94-329.97-149.6-84.49-4.91 324.13 155.45 90.33" fill="#e0d8c9"/>
<path d="m1857.5 3098.1 4.91-324.13-162.31 275.23 0.94 139.23 156.46-90.33" fill="#cbbb9b"/>
<path d="m2712.4 3502.2-246.86-143.78 258.83-436 21.03-35.44 43.74-22.92 0.02-0.02 36.41 21.21-113.17 616.95" fill="#ea3021"/>
<path d="m2681.4 2700.6-1.18-181.62-157.15-91.4-0.12-0.06 0.24 73.79 0.92 107.76 157.29 91.53" fill="#323434"/>
<path d="m2523 2469.8 0.09 31.53 0.56 67.22 0.03 0.06-0.58-67.3-0.1-31.51m25.89 153.74v0.01l83.96 48.87-0.01-0.03-83.95-48.85" fill="#ece8df"/>
<path d="m2525.9 2439.4h-2.92l0.09 30.47 0.1 31.51 0.58 67.3 25.21 54.93 83.95 48.85-107.01-233.06" fill="#45494b"/>
<path d="m2558.2 2448.1 113.42 246.86 9.67 5.64-0.56-90.79-56.67-123.39-65.86-38.32" fill="#45494b"/>
<path d="m2670.3 2694.2-1.07-167.04-146.28-85.08-0.05-14.53 0.12 0.06 157.16 91.4 1.17 181.61-11.05-6.42" fill="#cbbb9b"/>
<path d="m2559.2 2128.3c9.02 5.22 16.36 1.03 16.39-9.4 0.03-10.37-7.27-23-16.28-28.21-9.09-5.24-16.43-1.06-16.46 9.3-0.03 10.44 7.27 23.07 16.35 28.31" fill="#f03d27"/>
<path d="m3063 3290.2-74.27 124.97-2.88 4.98-42.77 71.89-343.58-197.98 42.75-71.93 41.17-69.43 8.31-13.83 27.77-46.8 12.1-20.58 343.66 197.98-12.26 20.73" fill="#191817"/>
<path d="m2748.5 3070.7-16.91 0.84-132.1 222.57 343.58 197.98 16.91-0.83-211.48-420.56" fill="#96221e"/>
<path d="m3079.9 3289.4-74.25 124.98-2.9 4.98-42.76 71.89-343.57-197.99 42.73-71.93 41.17-69.43 8.32-13.83 27.77-46.8 12.1-20.58 343.66 197.98-12.27 20.73" fill="#323434"/>
<path d="m2682.5 3181.8-23.41 39.49-8.07 13.68 8.1-13.65 23.4-39.46-0.02-0.06" fill="#d53123"/>
<path d="m2682.5 3181.9-23.4 39.46-8.1 13.65-0.66 1.1 44.84 102.59 74.8 43.05-87.48-199.85" fill="#4f5557"/>
<path d="m2962 3487.9-1.99 3.35 0.02 0.01 1.97-3.36" fill="#f36536"/>
<path d="m2747.1 3073-10.71 18.19-17.67 29.66 0.04 0.09 17.63-29.72 10.71-18.22" fill="#d53123"/>
<path d="m2748.5 3070.7-1.39 2.35-10.71 18.22-17.63 29.72 135.18 309.15h0.1l105.94 61.1 1.99-3.35 0.71-1.21-171.14-391.18-43.05-24.8" fill="#4f5557"/>
<path d="m2883.9 3148.7 0.01 0.04 104.99 60.48-0.04-0.1h-0.1l-104.86-60.42m121.72 265.69v0.01l-2.9 4.98-0.27 0.46 0.3-0.5 2.87-4.95" fill="#f36536"/>
<path d="m2883.9 3148.7 118.54 271.1 0.27-0.46 2.9-4.98v-0.02l41.98-70.74v-0.09l-58.7-134.33-104.99-60.48" fill="#4f5557"/>
<path d="m2900.5 3446.5 39.62-66.71 56.37 32.5-39.65 66.68zm-64.66-37.25 39.63-66.74 56.41 32.53-39.61 66.72zm109.44-38.19 36.08-60.76 56.31 32.44-36.03 60.79zm-180.04-2.49 39.63-66.76 62.37 35.96-39.63 66.74zm115.4-34.76 36.07-60.76 56.42 32.51-36.08 60.76zm-184.77-5.22 39.64-66.76 61.12 35.24-39.63 66.75zm290.63-26.95 36.92-62.19 56.32 32.46-36.94 62.18zm-176.47-8.52 36.06-60.76 62.38 35.95-36.07 60.76zm-181.12-3.11 39.64-66.79 58.73 33.86-39.64 66.77zm292.95-25.64 36.9-62.17 56.46 32.52-36.96 62.17zm-181.2-11.22 36.07-60.76 61.13 35.23-36.07 60.76zm110.59-29.47 36.91-62.17 62.39 35.96-36.93 62.16zm-177.55-9.11 36.03-60.79 58.78 33.87-36.09 60.76zm108.19-30.87 36.91-62.16 61.14 35.24-36.92 62.16zm-66.92-38.57 36.83-62.18 58.79 33.86-36.94 62.15zm21.47-53.87-27.77 46.8-8.32 13.83-41.17 69.43-42.73 71.93 343.57 197.99 42.76-71.89 2.89-4.98 74.26-124.98 12.27-20.73-343.66-197.98-12.1 20.58" fill="#fff"/>
<path d="m1075.2 2243.8-57.8-33.48-50.113 29.21 57.793 33.49 50.12-29.22" fill="#be4b1f"/>
<path d="m1075.2 2243.8 0.13-285.93-57.79-33.48-0.14 285.93 57.8 33.48" fill="#be4b1f"/>
<path d="m1017.6 1924.4-50.116 29.22-0.137 285.92 50.113-29.21 0.14-285.93" fill="#96221e"/>
<path d="m843.85 2163.9 191.76-97.84v581.67z" fill="#5c7627"/>
<path d="m1035.6 2647.8v-581.67l191.75 97.84z" fill="#7ba72a"/>
<path d="m1475.7 2006.4-57.53-33.33-49.87 29.08 57.52 33.32 49.88-29.07" fill="#be4b1f"/>
<path d="m1475.7 2006.4 0.13-284.59-57.52-33.32-0.14 284.58 57.53 33.33" fill="#be4b1f"/>
<path d="m1418.3 1688.5-49.88 29.07-0.13 284.59 49.87-29.08 0.14-284.58" fill="#96221e"/>
<path d="m1245.4 1926.9 190.86-97.37v578.94z" fill="#5c7627"/>
<path d="m1436.3 2408.4v-578.94l190.86 97.37z" fill="#7ba72a"/>
<path d="m1847.1 1790.8-57.52-33.32-49.89 29.07 57.53 33.32 49.88-29.07" fill="#be4b1f"/>
<path d="m1847.1 1790.8 0.14-284.59-57.53-33.32-0.13 284.59 57.52 33.32" fill="#be4b1f"/>
<path d="m1789.7 1472.9-49.88 29.07-0.13 284.59 49.88-29.07 0.13-284.59" fill="#96221e"/>
<path d="m1616.8 1711.3 190.85-97.37v578.93z" fill="#5c7627"/>
<path d="m1807.6 2192.8v-578.93l190.86 97.37z" fill="#7ba72a"/>
<path d="m4124.8 2541.5-57.52-33.32-49.89 29.08 57.53 33.32 49.88-29.08" fill="#be4b1f"/>
<path d="m4124.8 2541.5 0.13-284.58-57.52-33.33-0.13 284.59 57.52 33.32" fill="#be4b1f"/>
<path d="m4067.4 2223.6-49.88 29.09-0.14 284.58 49.89-29.08 0.13-284.59" fill="#96221e"/>
<path d="m3894.5 2462 190.86-97.37v578.94l-190.86-481.57" fill="#5c7627"/>
<path d="m4085.3 2943.5v-578.94l190.85 97.37-190.85 481.57" fill="#7ba72a"/>
<path d="m3698.2 3150.9-16.49-9.86-6.13-3.66-11.94-7.14-29.97 18.07 34.56 20.04 29.97-17.45" fill="#bc9f72"/>
<path d="m3698.2 3150.9 14.53-633.23-50.06-43.68 0.97 656.25 34.56 20.66" fill="#cbbb9b"/>
<path d="m3662.6 2474-43.41 38.24 14.42 636.08 29.96-18.07-0.97-656.25" fill="#e0d8c9"/>
<path d="m3805.2 3175.5c0.08-8.65-4.57-16.7-12.12-20.94l-139.58-79.97-0.27 63.23-63.31 38.06 139.5 79.88c7.55 4.32 16.87 4.24 24.42-0.25l31.52-18.99c6.11-3.64 11.03-8.82 14.42-14.75 3.39-6.01 5.25-12.8 5.34-19.83v-0.09l0.08-26.35" fill="#e0d8c9"/>
<path d="m3805.2 3175.5c0.08-8.65-4.57-16.7-12.12-20.94l-139.58-79.97-0.27 63.23 94.51 54.46 18.73 10.85 33.31 18.64c3.39-6.01 5.25-12.8 5.34-19.83v-0.09l0.08-26.35" fill="#cbbb9b"/>
<path d="m3653.4 3074.6-63.31 38.04-0.26 63.24 63.32-38.04 0.25-63.24" fill="#be4b1f"/>
<g clip-path="url(#i)">
<path d="m3590 3150.6 29.86 17.35 0.15-0.08-29.87-17.36-0.14 0.09" fill="#c63322"/>
<path d="m3590.1 3150.5 29.87 17.36 0.59-0.36-29.87-17.35-0.59 0.35" fill="#cc3522"/>
<path d="m3590.7 3150.2 29.87 17.35 0.55-0.36-29.87-17.36-0.55 0.37" fill="#d13622"/>
<path d="m3591.2 3149.8 29.87 17.36 0.48-0.34-29.86-17.36-0.49 0.34" fill="#d63622"/>
<path d="m3591.7 3149.4 29.86 17.36 0.46-0.35-29.86-17.36-0.46 0.35" fill="#db3722"/>
<path d="m3592.2 3149.1 29.86 17.36 0.41-0.34-29.87-17.36-0.4 0.34" fill="#df3821"/>
<path d="m3592.6 3148.8 29.87 17.36 0.38-0.33-29.86-17.36-0.39 0.33" fill="#e43921"/>
<path d="m3593 3148.4 29.86 17.36 0.35-0.33-29.87-17.35-0.34 0.32" fill="#e93921"/>
<path d="m3593.3 3148.1 29.87 17.35 0.32-0.3-29.88-17.36-0.31 0.31" fill="#ed3a21"/>
<path d="m3593.6 3147.8 29.88 17.36 0.29-0.31-29.86-17.36-0.31 0.31" fill="#f03a24"/>
<path d="m3594 3147.5 29.86 17.36 0.27-0.3-29.87-17.35-0.26 0.29" fill="#f03d27"/>
<path d="m3594.2 3147.2 29.87 17.35 0.25-0.29-29.87-17.36-0.25 0.3" fill="#f14b3a"/>
<path d="m3594.5 3146.9 29.87 17.36 0.24-0.3-29.87-17.35-0.24 0.29" fill="#f25342"/>
<path d="m3594.7 3146.6 29.87 17.35 0.32-0.42-29.87-17.36-0.32 0.43" fill="#f25a4a"/>
<path d="m3595 3146.2 29.87 17.36 0.32-0.46-29.87-17.36-0.32 0.46" fill="#f35e50"/>
<path d="m3595.3 3145.7 29.87 17.36 0.28-0.43-29.87-17.36-0.28 0.43" fill="#f36455"/>
<path d="m3595.6 3145.3 29.87 17.36 0.51-0.88-29.87-17.36-0.51 0.88" fill="#f35e50"/>
<path d="m3596.1 3144.4 29.87 17.36 0.22-0.42-29.87-17.36-0.22 0.42" fill="#f25a4a"/>
<path d="m3596.4 3144 29.87 17.36 0.2-0.41-29.88-17.36-0.19 0.41" fill="#f25342"/>
<path d="m3596.5 3143.6 29.88 17.36 0.17-0.38-29.87-17.36-0.18 0.38" fill="#f14b3a"/>
<path d="m3596.7 3143.2 29.87 17.36 0.17-0.39-29.88-17.36-0.16 0.39" fill="#f03d27"/>
<path d="m3596.9 3142.8 29.88 17.36 0.18-0.48-29.86-17.36-0.2 0.48" fill="#f03a24"/>
<path d="m3597.1 3142.3 29.86 17.36 0.19-0.49-29.86-17.36-0.19 0.49" fill="#ed3a21"/>
<path d="m3597.3 3141.8 29.86 17.36 0.22-0.65-29.86-17.36-0.22 0.65" fill="#e93921"/>
<path d="m3597.5 3141.2 29.86 17.36 0.26-0.79-29.88-17.35-0.24 0.78" fill="#e43921"/>
<path d="m3597.7 3140.4 29.88 17.35 0.33-1.14-29.87-17.36-0.34 1.15" fill="#df3821"/>
<path d="m3598.1 3139.3 29.87 17.36c0.41-1.51 0.78-3.07 1.22-4.65l-29.87-17.36c-0.44 1.59-0.8 3.14-1.22 4.65" fill="#db3722"/>
<path d="m3599.3 3134.6 29.87 17.36 0.38-1.32-29.87-17.36-0.38 1.32" fill="#df3821"/>
<path d="m3599.7 3133.3 29.87 17.36 0.29-0.92-29.87-17.36-0.29 0.92" fill="#e43921"/>
<path d="m3600 3132.4 29.87 17.36 0.27-0.76-29.88-17.35-0.26 0.75" fill="#e93921"/>
<path d="m3600.2 3131.6 29.88 17.35 0.23-0.64 0.03-0.06-29.87-17.36-0.02 0.07-0.25 0.64" fill="#ed3a21"/>
<path d="m3600.5 3130.9 29.87 17.36 0.31-0.77-29.86-17.36-0.32 0.77" fill="#f03a24"/>
<path d="m3600.8 3130.1 29.86 17.36 0.34-0.77-29.87-17.36-0.33 0.77" fill="#f03d27"/>
<path d="m3601.1 3129.4 29.87 17.36 0.35-0.76-29.88-17.36-0.34 0.76" fill="#f14b3a"/>
<path d="m3601.5 3128.6 29.88 17.36 0.75-1.54-29.87-17.35-0.76 1.53" fill="#f25342"/>
<path d="m3602.2 3127.1 29.87 17.35c0.69-1.38 1.43-2.73 2.09-4.05l-29.87-17.36c-0.67 1.32-1.39 2.67-2.09 4.06" fill="#f25a4a"/>
<path d="m3604.3 3123 29.87 17.36 0.55-1.12-29.87-17.36-0.55 1.12" fill="#f25342"/>
<path d="m3604.9 3121.9 29.87 17.36 0.42-0.9-29.88-17.36-0.41 0.9" fill="#f14b3a"/>
<path d="m3605.3 3121 29.88 17.36 0.22-0.52-29.87-17.36-0.23 0.52" fill="#f03d27"/>
<path d="m3605.5 3120.5 29.87 17.36 0.21-0.51-29.87-17.36-0.21 0.51" fill="#f03a24"/>
<path d="m3605.7 3120 29.87 17.36 0.19-0.51-29.87-17.36-0.19 0.51" fill="#ed3a21"/>
<path d="m3605.9 3119.5 29.87 17.36 0.18-0.51-29.87-17.35-0.18 0.5" fill="#e93921"/>
<path d="m3606.1 3119 29.87 17.35 0.12-0.38-29.87-17.36-0.12 0.39" fill="#e43921"/>
<path d="m3606.2 3118.6 29.87 17.36 0.11-0.36-29.87-17.36-0.11 0.36" fill="#df3821"/>
<path d="m3606.3 3118.2 29.87 17.36 0.1-0.36-29.87-17.36-0.1 0.36" fill="#db3722"/>
<path d="m3606.4 3117.8 29.87 17.36 0.09-0.37-29.88-17.35-0.08 0.36" fill="#d63622"/>
<path d="m3606.5 3117.5 29.88 17.35 0.07-0.36-29.87-17.36-0.08 0.37" fill="#d13622"/>
<path d="m3606.6 3117.1 29.87 17.36 0.06-0.35-29.87-17.36-0.06 0.35" fill="#cc3522"/>
<path d="m3606.6 3116.8 29.87 17.36 0.04-0.32-29.86-17.36-0.05 0.32" fill="#c63322"/>
<path d="m3606.7 3116.4 29.86 17.36 0.04-0.3-29.87-17.36-0.03 0.3" fill="#c23222"/>
<path d="m3606.7 3116.2 29.87 17.36 0.02-0.31-29.86-17.36-0.03 0.31" fill="#bc3022"/>
<path d="m3606.8 3115.8 29.86 17.36 0.02-0.3-29.87-17.36-0.01 0.3" fill="#b72f22"/>
<path d="m3606.8 3115.5 29.87 17.36v-0.3l-29.86-17.36-0.01 0.3" fill="#b12e22"/>
<path d="m3606.8 3115.2 29.86 17.36-0.01-0.3-29.86-17.36 0.01 0.3" fill="#ab2e21"/>
<path d="m3606.8 3114.9 29.86 17.36-0.02-0.3-29.86-17.36 0.02 0.3" fill="#a62c20"/>
<path d="m3606.8 3114.6 29.86 17.36-0.04-0.36-29.86-17.36 0.04 0.36" fill="#a12a20"/>
<path d="m3606.7 3114.3 29.86 17.36-0.06-0.42-29.87-17.36 0.07 0.42" fill="#9c2a1f"/>
<path d="m3606.6 3113.9 29.87 17.36-0.09-0.41-29.87-17.36 0.09 0.41" fill="#97281e"/>
<path d="m3606.6 3113.4 29.87 17.36-0.12-0.41-29.86-17.36 0.11 0.41" fill="#91271e"/>
<path d="m3606.4 3113 29.86 17.36-0.15-0.41-29.86-17.36 0.15 0.41" fill="#8d261d"/>
<path d="m3606.3 3112.6 29.86 17.36-0.29-0.68-29.87-17.36 0.3 0.68" fill="#87251c"/>
<path d="m3606 3112 29.87 17.36-0.59-0.98-29.87-17.35 0.59 0.97" fill="#82241b"/>
<path d="m3605.4 3111 29.87 17.35c-0.96-1.39-2.5-2.75-4.77-4.07l-29.87-17.36c2.28 1.33 3.81 2.68 4.77 4.08" fill="#7d231a"/>
</g>
<path d="m3599.4 3150.6c8.41-4.86 7.57-12.08 10.49-19.62 6.67-17.24 30.44-29.66-92.36-40.22-110.47-9.48-206.48-6.05-229.57 7.28-2.6 1.5-4.26 3.11-4.93 4.85-6.68 17.24 87.49 39.8 210.28 50.37 69.12 5.92 95.26 3.59 106.09-2.66" fill="#e0d8c9"/>
<path d="m3633 3584.2c13.43-7.75 23.92-145.91 23.47-308.58-0.36-125.22-6.85-135.92-15.94-130.67-2.72 1.57-5.67 4.56-8.75 6.34-3.11 1.8-6.08 2.22-8.8 3.79-9.11 5.27-15.52 23.39-15.17 148.63 0.47 162.67 11.72 288.27 25.19 280.49" fill="#e0d8c9"/>
<path d="m3661.7 3113.6c10.81-6.24 36.85-34.03 105.77-119.69 122.34-152.1 216.06-283.08 209.32-292.57-0.69-0.96-2.36-0.64-4.94 0.85-23.08 13.33-118.8 120.6-228.86 257.39-122.35 152.1-98.64 137.11-91.85 146.58 2.95 4.15 2.17 12.28 10.56 7.44" fill="#e0d8c9"/>
<path d="m3626.8 3184.4c28.93-16.71 52.27-57.2 52.18-90.45s-23.59-46.7-52.53-29.99c-28.93 16.7-52.33 57.23-52.23 90.47 0.1 33.25 23.64 46.67 52.58 29.97" fill="#cbbb9b"/>
<path d="m3626.7 3155.1c14.87-8.59 26.86-29.4 26.82-46.49-0.04-17.08-12.12-24-27-15.41-14.86 8.59-26.89 29.41-26.84 46.5s12.15 23.98 27.02 15.4" fill="#e0d8c9"/>
<g clip-path="url(#h)">
<path d="m4812.6 0h-941.41v538.56h55.93v270.31h17.18v-135.15h671.36l0.83 59.211 4.32 308.91c0.34 23.78 5.16 47.27 14.25 69.25 0.03 0.07 0.06 0.14 0.08 0.21 0.02 0.04 0.04 0.08 0.05 0.11 0.02 0.06 0.05 0.12 0.07 0.18 5.67 13.68 13.06 30.73 21.46 50 48.75 111.72 132.99 299.35 129.61 353.42-3.93 62.92-68.11 476.24-99.48 626.22-3.54 16.88-13.96 28.93-27.76 35.86 4.07 3.24 8.43 5.29 13.1 6.01 4.2 0.64 8.39 0.97 12.52 0.97 27.9 0 52.92-14.72 58.8-42.84 31.37-149.98 95.56-563.3 99.49-626.22 3.38-54.08-80.86-241.72-129.61-353.42-1.98-4.52-3.89-8.89-5.73-13.16l-0.9-2.07c-1.53-3.51-2.98-6.9-4.41-10.21-0.44-1.01-0.88-2.05-1.32-3.04-1.26-2.96-2.47-5.79-3.65-8.56-0.45-1.05-0.92-2.17-1.35-3.2-1.52-3.59-2.96-7.03-4.3-10.26-1.13-2.74-2-5.57-3.01-8.37-7.02-19.55-10.95-40.06-11.24-60.88l-2.41-172.4-0.85-15.269h91.78v-315.61h46.6v-538.56m-166.61 1133.8c-0.4-1.53-0.75-3.09-1.19-4.6h1.65l-0.06 0.57-0.07 0.7-0.12 1.15-0.13 1.28-0.08 0.9m-56.21-4.6h-1.53c0.39 1.34 0.77 2.68 1.12 4.03 0.2-1.98 0.33-3.24 0.38-3.76v-0.01-0.02-0.01-0.01-0.01-0.01c0.01-0.01 0.01-0.01 0.01-0.02v-0.01-0.01-0.03-0.01-0.01s0-0.01 0.01-0.01v-0.05-0.01-0.03c0-0.01 0.01-0.01 0.01-0.01m4.82 1040v241.96 0.25 0.1 0.14 0.12 0.12 0.13 0.12 0.13c-0.01 0.04-0.01 0.07-0.01 0.11v0.13 0.11 0.14 0.1 0.14 0.09c-0.01 0.59-0.02 1.19-0.03 1.78v0.01c-1.98 86.03-72.34 155.16-158.84 155.16h-202.35 259.01c47.21 0 89.49-20.7 118.58-53.39l2.01-2.21c2.13-2.48 4.12-5.06 6.09-7.67 1.01-1.33 2.02-2.64 2.99-4 1.68-2.37 3.25-4.79 4.81-7.26 1.09-1.73 2.16-3.48 3.19-5.27 1.33-2.3 2.59-4.63 3.8-7.01 1.06-2.08 2.07-4.19 3.05-6.32 1.02-2.25 2.02-4.5 2.93-6.79 0.97-2.41 1.84-4.87 2.69-7.34 0.74-2.16 1.5-4.32 2.16-6.53 0.81-2.75 1.48-5.56 2.15-8.36 0.48-2.05 1.02-4.07 1.42-6.15 0.64-3.25 1.08-6.56 1.52-9.87 0.22-1.74 0.54-3.44 0.71-5.19 0.5-5.11 0.78-10.27 0.78-15.52v-230.76c-7.23 2.46-15.1 3.71-23.21 3.71-4.13 0-8.32-0.33-12.52-0.97-7.79-1.21-14.74-5.99-20.93-13.94" fill="url(#c)"/>
</g>
<path d="m3717.8 1853.5-14.56 3.46c4.71 1.63 9.57 2.91 14.56 3.78v-7.24" fill="#e4e0d8"/>
<path d="m4620.8 1041.8c0.34 23.78 5.16 47.27 14.25 69.25 38.28 92.53 155.24 340.39 151.27 403.92-3.93 62.92-68.11 476.24-99.48 626.22-6.76 32.29-38.72 46.89-71.32 41.87-130.9-20.19-25.75-1053.9-25.75-1053.9h-817.45l148.15-200.18c15.47-20.891 23.82-46.219 23.82-72.211v-183.07h671.36l5.15 368.12" fill="#fab35f"/>
<g clip-path="url(#g)">
<path d="m4616.5 732.93 4.32 308.91c0.34 23.78 5.16 47.27 14.25 69.25-9.09-21.98-13.91-45.47-14.25-69.25l-4.32-308.91m18.65 378.37c0.02 0.04 0.03 0.07 0.05 0.11-0.01-0.03-0.03-0.07-0.05-0.11m0.12 0.29c5.67 13.69 13.04 30.71 21.46 50.01v-0.01c-8.4-19.27-15.79-36.32-21.46-50" fill="url(#a)"/>
</g>
<g clip-path="url(#f)">
<path d="m4589.8 1129.2m0 0.03v0.01-0.01m0 0.06c-0.01 0-0.01 0.01-0.01 0.01s0-0.01 0.01-0.01m-0.01 0.02v0.01-0.01m0 0.04v0.01-0.01m0 0.02c0 0.01 0 0.01-0.01 0.02 0.01-0.01 0.01-0.01 0.01-0.02m-0.01 0.03v0.01-0.01m0 0.02v0.01-0.01m0 0.03v0.01-0.01" fill="url(#a)"/>
</g>
<path d="m4444.2 692.39v151.49c0 66.43-53.86 120.29-120.29 120.29h-429.44l-38.54 52.078c6.81-0.89 13.76-1.35 20.82-1.35h558.99c72.26 0 133.26 48.24 152.53 114.28h1.53s-0.01 0-0.01 0.01v0.03 0.01 0.05c-0.01 0-0.01 0.01-0.01 0.01v0.01 0.01 0.03 0.01 0.01c0 0.01 0 0.01-0.01 0.02v0.01 0.01 0.01 0.01 0.02 0.01c-0.05 0.51-0.18 1.78-0.38 3.76 3.41 12.95 5.23 26.55 5.23 40.57v717.7l62.12-729.89c-8.42-19.29-15.79-36.31-21.46-50-0.02-0.06-0.04-0.12-0.07-0.18-0.02-0.04-0.03-0.07-0.05-0.11-0.02-0.07-0.05-0.14-0.08-0.21-9.09-21.98-13.91-45.47-14.25-69.25l-4.32-308.91-172.31-40.539" fill="#f79043"/>
<path d="m4435.7 2570h-558.99c-87.75 0-158.88-71.13-158.88-158.88v-1237.3c0-87.74 71.13-158.88 158.88-158.88h558.99c87.75 0 158.88 71.14 158.88 158.88v1237.3c0 87.75-71.13 158.88-158.88 158.88" fill="#323434"/>
<path d="m3870.4 808.87h838.88v-270.31h-838.88v270.31" fill="#f4efe8"/>
<path d="m4025.1 594.49v214.38h-154.65v-270.31h838.88v55.933h-684.23" fill="#e0d8c9"/>
<path d="m4755.9 0v538.56h-941.4v-538.56h941.4" fill="#323434"/>
<path d="m4066.2 0v538.56h-251.66v-538.56h251.66" fill="#191817"/>
<path d="m4755.9 0v538.56h-74.56v-538.56h74.56" fill="#596062"/>
<path d="m4460 2568-573.44-1553h549.15c87.75 0 158.88 71.14 158.88 158.88v1237.3c0 79.47-58.41 145.11-134.59 156.83" fill="#191817"/>
<path d="m3756.2 1252.5v1131.8c0 10.6 8.6 19.2 19.21 19.2h761.66c10.61 0 19.21-8.61 19.21-19.21v-1131.8c0-10.61-8.6-19.22-19.21-19.22h-761.66c-10.61 0-19.21 8.61-19.21 19.22" fill="#ea3021"/>
<path d="m4470.4 1277.2h-546.86c17.71 16.41 29.25 39.47 30.42 65.35 1.68 37.43-18.82 70.97-49.8 87.82l615.28 948.12v-1052.2c0-27.09-21.95-49.05-49.04-49.05" fill="#cf2c23"/>
<path d="m4391.3 2002.4-229.19 230.11-229.18-230.11h58.24l17.81 17.89v-215.87h82.54v80.11h141.19v-80.11h82.52v215.87l17.83-17.89h58.24" fill="#96221e"/>
<path d="m3863.2 1441.7-164.47 39.02c-52.21 2.35-96.85-38.46-99.19-90.67s38.46-96.85 90.67-99.19l164.47-39.02c52.21-2.35 96.85 38.45 99.2 90.67 2.34 52.22-38.47 96.85-90.68 99.19" fill="#fab35f"/>
<g clip-path="url(#e)">
<path d="m3600.8 1401.7c1.46 8.62 4.09 16.83 7.7 24.48-3.61-7.65-6.24-15.86-7.7-24.48m7.71 24.5c0.03 0.06 0.06 0.13 0.09 0.19-0.03-0.06-0.06-0.13-0.09-0.19m0.13 0.27c0.01 0.02 0.02 0.03 0.02 0.04 0-0.01-0.01-0.02-0.02-0.04" fill="url(#b)"/>
</g>
<path d="m3859 1251.8c-1.42 0-2.85 0.03-4.28 0.1l-164.47 39.02c-50.79 2.28-90.77 44.57-90.77 94.92 0 1.42 0.04 2.84 0.1 4.27 0.18 3.94 0.6 7.82 1.24 11.62 1.46 8.62 4.09 16.83 7.7 24.48 0.01 0.01 0.01 0.01 0.01 0.02 0.03 0.06 0.06 0.13 0.09 0.19 0.02 0.03 0.03 0.06 0.04 0.08s0.02 0.03 0.02 0.04c6.72-43.82 43.77-78.56 89.66-80.62l164.46-39.03c1.44-0.06 2.86-0.09 4.28-0.09 37.44 0 70.43 22.12 85.81 54.33 0.93-6.03 1.31-12.23 1.03-18.56-1.17-25.88-12.71-48.94-30.42-65.35-17.04-15.8-39.8-25.42-64.5-25.42" fill="#f79043"/>
<path d="m3848.5 1422.9-11.06 2.46c-8.73 1.93-17.42-3.42-19.62-12.09l-26.96-106.83c-2.27-8.98 3.29-18.07 12.32-20.15l38.79-8.93c40.02-1.79 74.23 29.49 76.03 69.5 1.8 40.02-29.47 74.24-69.5 76.04" fill="#f8d7b4"/>
<path d="m3823.4 1361c2.79 19.31 0.52 37.68-5.49 52.53l-0.08-0.2-26.96-106.83c-0.58-2.29-0.64-4.59-0.26-6.78 16.21 12.15 28.92 34.46 32.79 61.28" fill="#fff"/>
<path d="m3852.6 1634.4-164.47 39.02c-52.21 2.34-96.85-38.47-99.19-90.67-2.35-52.22 38.45-96.86 90.67-99.2l164.46-39.03c52.22-2.34 96.86 38.46 99.2 90.68 2.35 52.21-38.46 96.85-90.67 99.2" fill="#fab35f"/>
<path d="m3588.9 1582.7c0 0.08 0 0.16 0.01 0.24-0.01-0.08-0.01-0.16-0.01-0.24" fill="#e44e1d"/>
<path d="m3848.3 1444.4c-1.42 0-2.85 0.03-4.28 0.09l-164.46 39.03c-46.17 2.07-83.42 37.21-89.8 81.41-0.64 4.43-0.97 8.94-0.97 13.52 0 1.42 0.03 2.84 0.1 4.27 0 0.08 0 0.16 0.01 0.24 0.49 10.32 2.69 20.16 6.22 29.34 7.53-42.89 44.11-76.61 89.29-78.64l164.47-39.02c1.43-0.07 2.85-0.1 4.27-0.1 40.03 0 74.91 25.32 88.69 61.19 1.17-6.67 1.69-13.53 1.38-20.56-2.28-50.79-44.56-90.78-94.92-90.77" fill="#f79043"/>
<path d="m3841.7 1615.5-11.25 1.3c-8.89 1.02-16.98-5.21-18.26-14.06l-15.77-109.04c-1.32-9.17 5.14-17.63 14.34-18.77l39.5-4.86c39.99 2.35 70.79 37 68.44 76.99s-37 70.79-77 68.44" fill="#f8d7b4"/>
<path d="m3823.2 1551.2c0.78 19.5-3.39 37.53-10.9 51.67l-0.05-0.2-15.77-109.04c-0.34-2.34-0.15-4.64 0.44-6.78 14.87 13.76 25.2 37.27 26.28 64.35" fill="#fff"/>
<path d="m3846.2 1823.1-164.47 39.02c-52.21 2.34-96.85-38.46-99.19-90.67-2.35-52.22 38.46-96.86 90.67-99.2l164.46-39.03c52.22-2.33 96.86 38.47 99.2 90.69 2.35 52.2-38.45 96.84-90.67 99.19" fill="#fab35f"/>
<path d="m3627.2 1686.6c-26.94 16.93-44.74 46.94-44.74 80.55 0-33.61 17.8-63.62 44.74-80.55m-44.64 84.82c0.02 0.49 0.05 0.98 0.08 1.46-0.03-0.49-0.06-0.97-0.08-1.46m0.08 1.52c0 0.06 0.01 0.12 0.01 0.19 0-0.07-0.01-0.13-0.01-0.19m0.03 0.43v0.01-0.01" fill="#efc19d"/>
<path d="m3842 1633.1c-1.41 0-2.84 0.03-4.28 0.09l-164.46 39.02c-16.9 0.76-32.6 5.94-46.03 14.38-26.94 16.93-44.74 46.94-44.74 80.55 0 1.42 0.03 2.84 0.1 4.27 0.02 0.49 0.05 0.97 0.08 1.46v0.06c0 0.06 0.01 0.12 0.01 0.19 0.01 0.08 0.01 0.16 0.02 0.24v0.01c0.96 14.55 5.27 28.12 12.04 40.12-1-51.17 39.25-94.49 90.65-96.79l164.47-39.02c1.43-0.07 2.86-0.1 4.28-0.1 35.18 0 66.36 19.59 82.76 48.69l0.02-2.4c-0.04-1.05-0.11-2.09-0.19-3.12-0.01-0.11-0.01-0.22-0.02-0.33-3.99-49.14-45.49-87.32-94.71-87.32" fill="#f79043"/>
<path d="m3830.8 1804.7-11.25 1.3c-8.89 1.03-16.98-5.2-18.26-14.05l-15.76-109.04c-1.33-9.17 5.13-17.64 14.33-18.77l39.5-4.86c40 2.35 70.8 37 68.43 76.99-2.35 39.99-36.99 70.79-76.99 68.43" fill="#f8d7b4"/>
<path d="m3812.3 1740.5c0.78 19.5-3.39 37.53-10.9 51.67l-0.05-0.2-15.76-109.04c-0.34-2.34-0.16-4.64 0.44-6.78 14.86 13.76 25.19 37.27 26.27 64.35" fill="#fff"/>
<path d="m3836.1 2081.9-92.44 15.3c-52.17 3.26-97.51-36.76-100.77-88.93-3.25-52.16 36.76-97.51 88.93-100.76l92.44-15.29c52.16-3.26 97.51 36.75 100.77 88.91 3.25 52.17-36.76 97.51-88.93 100.77" fill="#fab35f"/>
<path d="m3830.2 1892c-1.96 0-3.95 0.06-5.94 0.19l-68.1 11.26 68.1-11.26c1.99-0.13 3.98-0.19 5.94-0.19 49.63 0 91.69 38.93 94.83 89.1 0 0.1 0.01 0.2 0.02 0.29-0.01-0.09-0.02-0.19-0.02-0.29-3.14-50.17-45.2-89.1-94.83-89.1m94.86 89.64v0.04-0.04" fill="#e72923"/>
<path d="m3642.9 2008.3c0.01 0.07 0.01 0.14 0.01 0.21 0-0.07 0-0.14-0.01-0.21" fill="#efc19d"/>
<path d="m3830.2 1892c-1.96 0-3.95 0.06-5.94 0.19l-68.1 11.26-24.34 4.03c-50.13 3.12-89.04 45.12-89.11 94.68-0.01 2.02 0.05 4.04 0.18 6.08 0.01 0.07 0.01 0.14 0.01 0.21 0.53 8 2.14 15.66 4.51 22.99 11.72-36.02 44.46-63.23 84.41-65.72l92.44-15.3c1.99-0.13 3.96-0.19 5.93-0.19 41.63 0 77.86 27.47 90.33 65.93 3.52-10.85 5.22-22.46 4.54-34.48v-0.04c0-0.08-0.01-0.16-0.01-0.25-0.01-0.09-0.02-0.19-0.02-0.29-3.14-50.17-45.2-89.1-94.83-89.1" fill="#f79043"/>
<path d="m3821.1 2057.1-11.25 1.3c-8.88 1.02-16.98-5.21-18.26-14.05l-15.76-109.05c-1.33-9.17 5.14-17.63 14.34-18.77l39.5-4.86c39.99 2.35 70.79 37 68.44 76.99-2.36 40-37.01 70.79-77.01 68.44" fill="#f8d7b4"/>
<path d="m3802.6 1992.9c0.78 19.5-3.39 37.53-10.9 51.68l-0.05-0.2-15.76-109.05c-0.34-2.34-0.16-4.64 0.44-6.77 14.86 13.75 25.19 37.26 26.27 64.34" fill="#fff"/>
<path d="m4313.4 1681.1h-302.65c-16.49 0-29.86-13.37-29.86-29.85v-78.33c0-16.49 13.37-29.86 29.86-29.86h302.65c16.49 0 29.86 13.37 29.86 29.86v78.33c0 16.48-13.37 29.85-29.86 29.85" fill="#fff"/>
<g transform="scale(10)">
<text transform="matrix(1 0 0 -1 401.84 157.73)" fill="#96221e" font-family="NexaBold" font-size="9.3473px" xml:space="preserve"><tspan x="0 6.8422384 14.179885 22.274664" y="0">HOME</tspan></text>
</g>
<path d="m4211.2 1126c0 35.73-28.97 64.7-64.71 64.7s-64.71-28.97-64.71-64.7c0-35.74 28.97-64.72 64.71-64.72s64.71 28.98 64.71 64.72" fill="#323434"/>
<path d="m1771.2 174.36c0-4.398 0.68-8.129 2.05-11.218 1.36-3.09 3.23-5.422 5.6-6.969 2.38-1.57 4.97-2.352 7.78-2.352 2.85 0 5.45 0.739 7.81 2.219 2.35 1.492 4.23 3.762 5.64 6.82 1.4 3.082 2.1 6.922 2.1 11.5 0 4.313-0.7 8.02-2.1 11.141-1.41 3.09-3.3 5.48-5.7 7.121s-5.02 2.461-7.87 2.461c-2.96 0-5.62-0.852-7.95-2.523-2.33-1.68-4.15-4.09-5.43-7.25-1.29-3.137-1.93-6.789-1.93-10.95zm31.88-23.8v1.601c-2.18-2.488-4.33-4.519-6.44-6.078-2.12-1.57-4.42-2.762-6.89-3.562-2.47-0.829-5.17-1.219-8.1-1.219-3.89 0-7.48 0.808-10.78 2.461-3.3 1.636-6.16 3.976-8.58 7.027s-4.24 6.621-5.49 10.742c-1.24 4.117-1.87 8.578-1.87 13.36 0 10.129 2.48 18.039 7.42 23.691 4.95 5.66 11.46 8.488 19.53 8.488 4.67 0 8.61-0.808 11.82-2.398 3.2-1.602 6.33-4.07 9.38-7.391v23.918c0 3.321 0.66 5.832 1.99 7.531 1.32 1.711 3.21 2.559 5.66 2.559 2.46 0 4.34-0.777 5.67-2.34 1.33-1.578 1.99-3.867 1.99-6.918v-71.472c0-3.09-0.71-5.399-2.14-6.95-1.42-1.539-3.26-2.308-5.52-2.308-2.21 0-4.05 0.801-5.49 2.39-1.44 1.61-2.16 3.899-2.16 6.868" fill="#323434"/>
<path d="m1842.8 179.46h29.39c-0.39 5.539-1.9 9.687-4.49 12.437s-6 4.133-10.24 4.133c-4.03 0-7.35-1.39-9.94-4.179-2.59-2.801-4.16-6.93-4.72-12.391zm31.7-9.211h-31.7c0.04-3.668 0.78-6.91 2.23-9.719 1.44-2.82 3.36-4.929 5.76-6.359 2.39-1.434 5.03-2.133 7.92-2.133 1.94 0 3.71 0.231 5.31 0.672 1.61 0.469 3.16 1.18 4.67 2.141 1.5 0.968 2.88 2.019 4.15 3.128 1.26 1.11 2.9 2.622 4.92 4.508 0.83 0.711 2.02 1.071 3.57 1.071 1.66 0 3.01-0.457 4.03-1.368 1.03-0.921 1.55-2.191 1.55-3.859 0-1.461-0.58-3.16-1.72-5.141-1.16-1.953-2.89-3.832-5.2-5.632-2.32-1.797-5.22-3.289-8.73-4.477-3.5-1.203-7.53-1.781-12.08-1.781-10.4 0-18.5 2.969-24.27 8.91-5.78 5.918-8.67 13.98-8.67 24.148 0 4.789 0.71 9.231 2.13 13.332 1.43 4.098 3.51 7.598 6.24 10.528 2.73 2.929 6.09 5.172 10.09 6.742 4 1.559 8.43 2.328 13.3 2.328 6.33 0 11.76-1.309 16.29-3.988 4.53-2.68 7.93-6.121 10.18-10.352 2.25-4.238 3.39-8.57 3.39-12.949 0-4.078-1.17-6.719-3.51-7.93-2.32-1.199-5.62-1.82-9.85-1.82" fill="#323434"/>
<path d="m1948.4 162.49c0-4.468-1.09-8.297-3.27-11.476-2.17-3.203-5.38-5.614-9.64-7.25-4.25-1.653-9.43-2.461-15.52-2.461-5.82 0-10.81 0.89-14.96 2.668-4.16 1.773-7.23 4.011-9.2 6.672-1.98 2.679-2.97 5.359-2.97 8.05 0 1.778 0.63 3.301 1.9 4.571 1.27 1.258 2.87 1.898 4.81 1.898 1.7 0 3-0.418 3.91-1.25 0.92-0.828 1.79-2.012 2.61-3.5 1.66-2.898 3.66-5.039 5.98-6.469 2.31-1.429 5.46-2.14 9.46-2.14 3.25 0 5.91 0.73 7.99 2.16 2.07 1.461 3.11 3.109 3.11 4.969 0 2.851-1.08 4.922-3.23 6.23-2.16 1.301-5.72 2.551-10.66 3.75-5.58 1.371-10.12 2.832-13.63 4.352-3.5 1.519-6.3 3.539-8.4 6.027-2.09 2.492-3.14 5.563-3.14 9.203 0 3.238 0.97 6.297 2.91 9.207 1.94 2.883 4.8 5.18 8.58 6.903 3.77 1.73 8.33 2.589 13.68 2.589 4.2 0 7.97-0.429 11.3-1.312 3.35-0.859 6.15-2.039 8.38-3.508 2.24-1.449 3.93-3.07 5.1-4.851 1.17-1.79 1.75-3.532 1.75-5.231 0-1.859-0.62-3.379-1.87-4.578-1.24-1.18-3.01-1.781-5.31-1.781-1.66 0-3.08 0.48-4.24 1.429-1.17 0.95-2.51 2.383-4.01 4.27-1.23 1.582-2.66 2.851-4.33 3.812-1.66 0.95-3.92 1.418-6.77 1.418-2.93 0-5.36-0.621-7.3-1.879-1.94-1.242-2.91-2.781-2.91-4.648 0-1.711 0.71-3.102 2.14-4.191 1.42-1.09 3.34-1.993 5.76-2.7 2.41-0.711 5.73-1.57 9.97-2.601 5.02-1.238 9.13-2.711 12.32-4.399 3.18-1.691 5.59-3.722 7.24-6.031 1.64-2.308 2.46-4.949 2.46-7.922" fill="#323434"/>
<path d="m1973 197.99v-46.844c0-3.238-0.77-5.699-2.32-7.359-1.54-1.66-3.5-2.488-5.87-2.488-2.38 0-4.31 0.847-5.79 2.551-1.48 1.699-2.23 4.14-2.23 7.296v46.372c0 3.191 0.75 5.609 2.23 7.242 1.48 1.617 3.41 2.429 5.79 2.429 2.37 0 4.33-0.812 5.87-2.429 1.55-1.633 2.32-3.891 2.32-6.77zm-8.01 16.727c-2.26 0-4.19 0.703-5.79 2.09-1.6 1.371-2.41 3.332-2.41 5.882 0 2.289 0.82 4.18 2.47 5.661 1.64 1.488 3.55 2.23 5.73 2.23 2.1 0 3.95-0.684 5.57-2.031 1.63-1.34 2.44-3.301 2.44-5.86 0-2.5-0.79-4.461-2.38-5.851-1.58-1.41-3.46-2.121-5.63-2.121" fill="#323434"/>
<path d="m1997 174.78c0-6.582 1.43-11.539 4.3-14.91s6.58-5.051 11.13-5.051c2.69 0 5.23 0.739 7.62 2.172 2.4 1.449 4.35 3.629 5.86 6.539 1.5 2.91 2.25 6.43 2.25 10.59 0 6.598-1.45 11.758-4.36 15.43-2.91 3.679-6.74 5.531-11.49 5.531-4.63 0-8.34-1.773-11.13-5.293-2.79-3.519-4.18-8.527-4.18-15.008zm46.96 20.528v-47.067c0-5.383-0.59-10.023-1.73-13.89-1.14-3.872-2.99-7.082-5.52-9.622-2.53-2.519-5.85-4.41-9.94-5.628-4.1-1.243-9.19-1.84-15.29-1.84-5.58 0-10.57 0.777-14.96 2.34-4.39 1.57-7.77 3.578-10.15 6.046-2.37 2.473-3.57 5.024-3.57 7.633 0 1.981 0.68 3.59 2.03 4.84 1.34 1.25 2.97 1.867 4.86 1.867 2.38 0 4.46-1.047 6.24-3.136 0.86-1.071 1.77-2.161 2.69-3.25 0.94-1.09 1.97-2.02 3.09-2.793 1.13-0.758 2.48-1.34 4.07-1.719 1.58-0.36 3.4-0.551 5.46-0.551 4.19 0 7.45 0.57 9.77 1.742 2.32 1.18 3.94 2.809 4.87 4.91 0.93 2.09 1.47 4.329 1.63 6.731 0.16 2.398 0.27 6.238 0.35 11.558-2.49-3.5-5.36-6.16-8.64-7.968-3.26-1.821-7.15-2.731-11.66-2.731-5.42 0-10.16 1.379-14.22 4.149-4.05 2.781-7.17 6.652-9.34 11.64-2.18 4.989-3.27 10.739-3.27 17.27 0 4.859 0.66 9.269 1.99 13.18 1.33 3.929 3.22 7.23 5.67 9.921 2.45 2.688 5.28 4.707 8.49 6.079 3.2 1.371 6.72 2.05 10.56 2.05 4.59 0 8.57-0.89 11.94-2.64 3.35-1.77 6.49-4.532 9.38-8.289v2.211c0 2.796 0.68 4.98 2.07 6.519 1.39 1.551 3.17 2.32 5.35 2.32 3.12 0 5.2-1.031 6.22-3.062 1.04-2.039 1.56-4.981 1.56-8.82" fill="#323434"/>
<path d="m2069.7 198.22v-1.957c2.84 3.758 5.96 6.519 9.35 8.289 3.38 1.758 7.27 2.64 11.66 2.64 4.28 0 8.09-0.929 11.46-2.8 3.36-1.86 5.88-4.493 7.54-7.879 1.07-1.992 1.76-4.133 2.07-6.41 0.32-2.313 0.49-5.231 0.49-8.793v-30.161c0-3.238-0.75-5.699-2.24-7.359-1.48-1.66-3.41-2.488-5.78-2.488-2.42 0-4.38 0.847-5.88 2.551-1.5 1.699-2.26 4.14-2.26 7.296v27.012c0 5.352-0.74 9.43-2.22 12.262-1.49 2.82-4.44 4.25-8.88 4.25-2.89 0-5.52-0.863-7.89-2.59-2.38-1.73-4.12-4.09-5.23-7.102-0.79-2.41-1.18-6.91-1.18-13.519v-20.313c0-3.277-0.77-5.75-2.29-7.386-1.52-1.653-3.49-2.461-5.9-2.461-2.34 0-4.26 0.847-5.76 2.551-1.51 1.699-2.26 4.14-2.26 7.296v46.844c0 3.078 0.67 5.387 2.02 6.906 1.35 1.532 3.19 2.293 5.52 2.293 1.43 0 2.71-0.332 3.86-1.019 1.15-0.672 2.07-1.68 2.76-3.024 0.7-1.339 1.04-2.988 1.04-4.929" fill="#323434"/>
<path d="m2136.6 179.46h29.39c-0.4 5.539-1.89 9.687-4.49 12.437-2.59 2.75-6 4.133-10.24 4.133-4.03 0-7.35-1.39-9.94-4.179-2.59-2.801-4.16-6.93-4.72-12.391zm31.7-9.211h-31.7c0.05-3.668 0.78-6.91 2.23-9.719 1.44-2.82 3.36-4.929 5.76-6.359 2.39-1.434 5.03-2.133 7.92-2.133 1.94 0 3.71 0.231 5.32 0.672 1.59 0.469 3.15 1.18 4.66 2.141 1.49 0.968 2.88 2.019 4.16 3.128 1.26 1.11 2.9 2.622 4.92 4.508 0.83 0.711 2.01 1.071 3.56 1.071 1.66 0 3.01-0.457 4.04-1.368 1.03-0.921 1.54-2.191 1.54-3.859 0-1.461-0.57-3.16-1.73-5.141-1.14-1.953-2.88-3.832-5.19-5.632-2.32-1.797-5.22-3.289-8.72-4.477-3.51-1.203-7.54-1.781-12.09-1.781-10.4 0-18.49 2.969-24.28 8.91-5.77 5.918-8.66 13.98-8.66 24.148 0 4.789 0.71 9.231 2.13 13.332 1.43 4.098 3.51 7.598 6.24 10.528 2.73 2.929 6.1 5.172 10.09 6.742 4 1.559 8.43 2.328 13.3 2.328 6.33 0 11.75-1.309 16.29-3.988 4.53-2.68 7.93-6.121 10.19-10.352 2.25-4.238 3.38-8.57 3.38-12.949 0-4.078-1.17-6.719-3.51-7.93-2.32-1.199-5.61-1.82-9.85-1.82" fill="#323434"/>
<path d="m2202.5 174.36c0-4.398 0.67-8.129 2.04-11.218 1.37-3.09 3.24-5.422 5.62-6.969 2.37-1.57 4.96-2.352 7.77-2.352 2.85 0 5.45 0.739 7.8 2.219 2.36 1.492 4.24 3.762 5.64 6.82 1.41 3.082 2.11 6.922 2.11 11.5 0 4.313-0.7 8.02-2.11 11.141-1.4 3.09-3.3 5.48-5.7 7.121-2.39 1.641-5.01 2.461-7.86 2.461-2.97 0-5.62-0.852-7.96-2.523-2.33-1.68-4.14-4.09-5.43-7.25-1.28-3.137-1.92-6.789-1.92-10.95zm31.87-23.8v1.601c-2.18-2.488-4.32-4.519-6.44-6.078-2.12-1.57-4.41-2.762-6.88-3.562-2.47-0.829-5.18-1.219-8.11-1.219-3.88 0-7.47 0.808-10.77 2.461-3.3 1.636-6.16 3.976-8.58 7.027-2.41 3.051-4.24 6.621-5.49 10.742-1.24 4.117-1.87 8.578-1.87 13.36 0 10.129 2.47 18.039 7.42 23.691 4.95 5.66 11.46 8.488 19.53 8.488 4.67 0 8.61-0.808 11.82-2.398 3.2-1.602 6.33-4.07 9.37-7.391v23.918c0 3.321 0.66 5.832 1.99 7.531 1.33 1.711 3.22 2.559 5.67 2.559s4.34-0.777 5.67-2.34c1.32-1.578 1.99-3.867 1.99-6.918v-71.472c0-3.09-0.71-5.399-2.14-6.95-1.42-1.539-3.26-2.308-5.52-2.308-2.21 0-4.04 0.801-5.49 2.39-1.45 1.61-2.17 3.899-2.17 6.868" fill="#323434"/>
<path d="m2301.4 173.89c0-6.461 1.48-11.411 4.42-14.871 2.95-3.461 6.82-5.2 11.61-5.2 4.07 0 7.59 1.77 10.53 5.309 2.95 3.551 4.42 8.609 4.42 15.23 0 4.27-0.6 7.95-1.83 11.039-1.23 3.094-2.97 5.481-5.22 7.161-2.26 1.671-4.89 2.523-7.9 2.523-3.09 0-5.84-0.852-8.25-2.523-2.42-1.68-4.32-4.118-5.7-7.309-1.38-3.18-2.08-6.969-2.08-11.359zm-0.77 48.14v-24.75c3.04 3.16 6.15 5.59 9.32 7.27 3.17 1.679 7.09 2.519 11.76 2.519 5.38 0 10.09-1.281 14.16-3.828 4.04-2.562 7.19-6.262 9.43-11.101 2.24-4.852 3.36-10.602 3.36-17.25 0-4.911-0.63-9.399-1.87-13.5-1.25-4.102-3.06-7.653-5.44-10.649-2.37-3.023-5.25-5.344-8.63-6.98-3.39-1.653-7.12-2.461-11.19-2.461-2.5 0-4.84 0.289-7.04 0.89-2.2 0.59-4.07 1.36-5.61 2.34-1.54 0.969-2.85 1.957-3.95 3-1.09 1.02-2.52 2.578-4.3 4.629v-1.601c0-3.047-0.73-5.348-2.2-6.93-1.46-1.559-3.32-2.328-5.58-2.328-2.29 0-4.12 0.769-5.49 2.328-1.36 1.582-2.05 3.883-2.05 6.93v70.761c0 3.282 0.67 5.77 1.99 7.45 1.33 1.679 3.18 2.519 5.55 2.519 2.5 0 4.42-0.797 5.76-2.398 1.35-1.61 2.02-3.891 2.02-6.86" fill="#323434"/>
<path d="m2604.4 205.78h3.87v4.867c0 5.094 0.62 9.114 1.92 12.114 1.27 2.988 3.46 5.16 6.54 6.527 3.07 1.352 7.26 2.043 12.6 2.043 9.5 0 14.21-2.301 14.21-6.961 0-1.492-0.5-2.781-1.51-3.851-0.97-1.059-2.14-1.59-3.48-1.59-0.63 0-1.74 0.101-3.3 0.371-1.48 0.199-2.83 0.34-3.89 0.34-2.92 0-4.8-0.879-5.66-2.59-0.8-1.731-1.22-4.192-1.22-7.41v-3.86h3.96c6.19 0 9.26-1.84 9.26-5.59 0-2.621-0.81-4.32-2.47-5.031-1.63-0.719-3.89-1.07-6.79-1.07h-3.96v-42.942c0-3.187-0.75-5.628-2.31-7.296-1.51-1.704-3.46-2.543-5.89-2.543-2.3 0-4.19 0.839-5.73 2.543-1.54 1.668-2.28 4.109-2.28 7.296v42.942h-4.46c-2.43 0-4.27 0.531-5.59 1.64-1.31 1.071-1.97 2.489-1.97 4.231 0 3.91 2.72 5.82 8.15 5.82" fill="#323434"/>
<path d="m2657.4 164.7v-13.551c0-3.269-0.83-5.75-2.33-7.378-1.55-1.661-3.5-2.461-5.86-2.461-2.39 0-4.3 0.82-5.79 2.5-1.49 1.652-2.26 4.101-2.26 7.339v45.141c0 7.281 2.63 10.93 7.88 10.93 2.71 0 4.64-0.84 5.83-2.547 1.19-1.711 1.85-4.211 1.98-7.551 1.93 3.34 3.91 5.84 5.93 7.551 2.08 1.707 4.77 2.547 8.19 2.547 3.43 0 6.7-0.84 9.91-2.547 3.22-1.711 4.81-3.981 4.81-6.781 0-1.961-0.68-3.621-2.03-4.879-1.38-1.313-2.84-1.961-4.41-1.961-0.63 0-2.07 0.398-4.33 1.129-2.28 0.711-4.31 1.082-6.02 1.082-2.38 0-4.33-0.641-5.82-1.86-1.52-1.281-2.69-3.113-3.53-5.543-0.81-2.468-1.37-5.41-1.7-8.777-0.31-3.391-0.45-7.523-0.45-12.383" fill="#323434"/>
<path d="m2767.7 179.49h29.38c-0.4 5.528-1.89 9.688-4.47 12.406-2.63 2.774-6.01 4.141-10.27 4.141-4.03 0-7.34-1.379-9.95-4.18-2.57-2.8-4.17-6.91-4.69-12.367m31.71-9.222h-31.71c0.04-3.668 0.78-6.93 2.21-9.731 1.45-2.801 3.37-4.918 5.76-6.359 2.4-1.418 5.03-2.121 7.94-2.121 1.93 0 3.71 0.211 5.29 0.691 1.62 0.43 3.16 1.172 4.68 2.129 1.52 0.961 2.88 1.992 4.16 3.133 1.24 1.09 2.9 2.597 4.92 4.488 0.85 0.699 2.04 1.082 3.55 1.082 1.68 0 3.02-0.461 4.06-1.383 1.04-0.918 1.51-2.187 1.51-3.859 0-1.469-0.55-3.168-1.71-5.121-1.1-1.981-2.84-3.848-5.19-5.66-2.31-1.789-5.25-3.289-8.72-4.457-3.48-1.204-7.55-1.793-12.1-1.793-10.41 0-18.48 2.961-24.28 8.89-5.78 5.942-8.69 14.012-8.69 24.172 0 4.789 0.74 9.238 2.18 13.34 1.42 4.121 3.49 7.598 6.22 10.551 2.73 2.937 6.09 5.179 10.09 6.738 3.99 1.551 8.45 2.332 13.31 2.332 6.3 0 11.74-1.332 16.33-4.031 4.5-2.653 7.91-6.102 10.14-10.34 2.24-4.25 3.4-8.551 3.4-12.961 0-4.051-1.2-6.691-3.51-7.91-2.34-1.211-5.62-1.82-9.84-1.82" fill="#323434"/>
<path d="m2866.6 174.55c0 4.281-0.66 7.961-1.96 11.019-1.31 3.078-3.13 5.422-5.42 7.051-2.3 1.649-4.89 2.481-7.7 2.481-4.46 0-8.24-1.782-11.31-5.282-3.07-3.531-4.62-8.718-4.62-15.578 0-6.41 1.53-11.461 4.6-15.043 3.04-3.578 6.79-5.359 11.33-5.359 2.68 0 5.19 0.789 7.48 2.32 2.32 1.578 4.15 3.922 5.52 7.039 1.39 3.153 2.08 6.93 2.08 11.352m-31.78 23.558v-1.949c3.04 3.75 6.21 6.52 9.53 8.27 3.25 1.781 6.99 2.672 11.14 2.672 4.97 0 9.6-1.301 13.8-3.86 4.19-2.594 7.49-6.351 9.93-11.293 2.43-4.969 3.66-10.808 3.66-17.578 0-4.98-0.7-9.57-2.1-13.75s-3.36-7.672-5.81-10.5c-2.45-2.82-5.34-5.012-8.68-6.551-3.39-1.5-6.95-2.261-10.8-2.261-4.61 0-8.53 0.933-11.65 2.793-3.15 1.828-6.15 4.589-9.02 8.168v-24.329c0-7.101-2.59-10.691-7.77-10.691-3.07 0-5.06 0.91-6.07 2.738-0.95 1.883-1.46 4.532-1.46 8.082v69.961c0 3.078 0.66 5.36 2 6.91 1.34 1.5 3.2 2.278 5.53 2.278 2.3 0 4.16-0.778 5.6-2.34 1.47-1.578 2.17-3.82 2.17-6.77" fill="#323434"/>
<path d="m2907.3 198.03v-46.902c0-3.219-0.78-5.668-2.32-7.32-1.56-1.68-3.5-2.5-5.88-2.5s-4.29 0.839-5.8 2.543c-1.46 1.73-2.23 4.16-2.23 7.277v46.43c0 3.183 0.77 5.582 2.23 7.222 1.51 1.649 3.42 2.438 5.8 2.438s4.32-0.789 5.88-2.438c1.54-1.64 2.32-3.89 2.32-6.75m-8.03 16.739c-2.27 0-4.18 0.71-5.77 2.089-1.62 1.391-2.43 3.332-2.43 5.852 0 2.301 0.83 4.18 2.49 5.687 1.64 1.461 3.53 2.223 5.71 2.223 2.12 0 3.97-0.672 5.58-2 1.63-1.359 2.45-3.34 2.45-5.91 0-2.5-0.8-4.441-2.37-5.84-1.59-1.391-3.46-2.101-5.66-2.101" fill="#323434"/>
<path d="m2959.5 148.7-14.28 23.543-8.79-8.301v-12.902c0-3.129-0.83-5.519-2.49-7.187-1.6-1.704-3.53-2.543-5.66-2.543-2.49 0-4.47 0.82-5.88 2.5-1.41 1.652-2.15 4.101-2.15 7.339v69.141c0 3.59 0.72 6.32 2.07 8.223 1.4 1.898 3.41 2.82 5.96 2.82 2.5 0 4.45-0.852 5.94-2.57 1.45-1.692 2.21-4.211 2.21-7.512v-39.34l18.22 19.141c2.26 2.359 3.95 4.008 5.16 4.871 1.2 0.867 2.63 1.297 4.32 1.297 2.03 0 3.71-0.649 5.09-1.93 1.33-1.289 2-2.91 2-4.828 0-2.371-2.21-5.563-6.59-9.512l-8.61-7.89 16.63-26.149c1.21-1.961 2.12-3.39 2.64-4.41 0.53-1 0.81-1.988 0.81-2.879 0-2.59-0.71-4.59-2.13-6.101-1.39-1.481-3.27-2.211-5.52-2.211-1.99 0-3.53 0.511-4.59 1.601-1.07 1.07-2.55 3.02-4.36 5.789" fill="#323434"/>
<path d="m2994.8 141.31c-2.46 0-4.55 0.793-6.34 2.382-1.78 1.547-2.68 3.778-2.68 6.649 0 2.41 0.86 4.492 2.56 6.219 1.72 1.75 3.8 2.621 6.3 2.621 2.48 0 4.6-0.871 6.4-2.578 1.73-1.723 2.62-3.832 2.62-6.262 0-2.82-0.89-5.051-2.62-6.621-1.8-1.617-3.88-2.41-6.24-2.41" fill="#323434"/>
<path d="m3075.4 161.37c0-2-0.6-4.172-1.82-6.473-1.2-2.296-3.05-4.476-5.53-6.546-2.47-2.082-5.58-3.77-9.35-5.032-3.76-1.261-8.01-1.91-12.69-1.91-10.04 0-17.86 2.942-23.49 8.762-5.6 5.848-8.41 13.68-8.41 23.488 0 6.672 1.28 12.539 3.87 17.66 2.55 5.09 6.28 9.039 11.13 11.821 4.88 2.808 10.73 4.191 17.46 4.191 4.22 0 8.06-0.602 11.59-1.84 3.5-1.211 6.45-2.812 8.9-4.742 2.42-1.961 4.29-4.02 5.56-6.199 1.3-2.199 1.92-4.262 1.92-6.172 0-1.918-0.7-3.578-2.14-4.918-1.47-1.34-3.22-2.02-5.24-2.02-1.37 0-2.48 0.348-3.38 1.028-0.9 0.703-1.9 1.82-3 3.39-1.98 2.993-4.03 5.262-6.22 6.75-2.14 1.512-4.87 2.25-8.21 2.25-4.76 0-8.64-1.847-11.58-5.597-2.92-3.723-4.4-8.883-4.4-15.34 0-3.051 0.39-5.871 1.14-8.422 0.74-2.551 1.82-4.73 3.26-6.531 1.44-1.789 3.15-3.149 5.16-4.09 2.02-0.949 4.26-1.399 6.64-1.399 3.26 0 6.05 0.739 8.36 2.239 2.36 1.523 4.4 3.801 6.16 6.902 1 1.809 2.06 3.231 3.19 4.258 1.14 1.031 2.56 1.57 4.23 1.57 1.97 0 3.62-0.769 4.91-2.269 1.32-1.5 1.98-3.121 1.98-4.809" fill="#323434"/>
<path d="m3207.1 173.06v-21.539c0-3.411-0.75-5.938-2.31-7.668-1.56-1.704-3.57-2.551-6.11-2.551-2.45 0-4.46 0.847-5.94 2.551-1.54 1.73-2.32 4.257-2.32 7.668v25.812c0 4.098-0.14 7.27-0.4 9.539-0.28 2.199-1.06 4.09-2.27 5.508-1.23 1.48-3.18 2.203-5.82 2.203-5.31 0-8.79-1.82-10.48-5.512-1.67-3.601-2.53-8.832-2.53-15.66v-21.89c0-3.372-0.77-5.911-2.26-7.649-1.55-1.711-3.55-2.57-6.03-2.57s-4.48 0.859-6.04 2.57c-1.57 1.738-2.35 4.277-2.35 7.649v46.371c0 3.058 0.69 5.371 2.1 6.941 1.42 1.609 3.28 2.387 5.55 2.387 2.23 0 4.07-0.758 5.58-2.219 1.47-1.488 2.21-3.539 2.21-6.148v-1.543c2.83 3.339 5.84 5.82 9.03 7.39 3.22 1.621 6.76 2.403 10.7 2.403 4.07 0 7.57-0.813 10.49-2.43 2.93-1.633 5.33-4.09 7.25-7.363 2.74 3.312 5.68 5.781 8.81 7.39 3.13 1.602 6.59 2.403 10.39 2.403 4.41 0 8.26-0.891 11.46-2.622 3.19-1.742 5.59-4.25 7.18-7.468 1.37-2.953 2.06-7.563 2.06-13.852v-31.64c0-3.411-0.76-5.938-2.3-7.668-1.54-1.704-3.59-2.551-6.12-2.551-2.46 0-4.46 0.859-6.03 2.57-1.56 1.738-2.35 4.277-2.35 7.649v27.261c0 3.489-0.14 6.27-0.43 8.36-0.3 2.109-1.11 3.879-2.39 5.289-1.33 1.429-3.32 2.152-5.96 2.152-2.14 0-4.17-0.66-6.09-1.922-1.92-1.238-3.42-2.98-4.5-5.078-1.17-2.742-1.78-7.582-1.78-14.523" fill="#323434"/>
<path d="m2452.7 178.17-0.01 0.109 0.01-0.109" fill="#323434"/>
<path d="m2453.5 172.99h0.01c-0.31 1.477-0.55 2.949-0.74 4.387 0.19-1.457 0.43-2.93 0.73-4.387" fill="#323434"/>
<path d="m2458.9 157.95-0.11 0.211 0.11-0.211" fill="#323434"/>
<path d="m2458.4 158.96-0.41 0.828 0.41-0.828" fill="#323434"/>
<path d="m2455 167.2c0.79-2.5 1.75-4.918 2.86-7.238-1.13 2.359-2.07 4.801-2.84 7.238h-0.02" fill="#323434"/>
<path d="m2515.4 240.27c3.13 0 5.45-0.239 8.09-0.688l0.76 4.77s-7.32 2.25-16.94 1.457l-0.76 2.601c2.99 0.621 5.24 3.289 5.24 6.461 0 3.641-2.97 6.59-6.61 6.59s-6.6-2.949-6.6-6.59c0-3.172 2.24-5.84 5.23-6.461l0.83-2.89c-10.21-1.411-18.34-5.391-18.34-5.391l1.44-4.41c6.18 2.051 11.54 3.301 16.4 3.832 4.76 0.508 8.34 0.719 11.26 0.719" fill="#323434"/>
<path d="m2458.8 216.16 0.04 0.051 0.7 0.891-1.95 1.418-3.05 2.222c-0.17-0.242-4.97-4.652-8.76-12.801l-0.56 0.739c-1.14 1.242-2.72 1.879-4.74 1.851h-0.09c-1.25 0-2.11 0.41-2.67 0.918 0.56 0.699 0.89 1.602 0.89 2.571 0 2.312-1.87 4.179-4.18 4.179-2.3 0-4.18-1.867-4.18-4.179 0-2.309 1.88-4.18 4.18-4.18l1.04 0.129c1.03-1.137 2.67-2.129 5.05-2.078 1.23 7e-3 2.13-0.309 2.74-0.981l0.99-2.668-0.02-0.031c-2.72-7.43-1.94-16.691-1.94-16.691l6.61-0.25c0.13 3.359 0.62 9.25 2.32 13.929 3.29 9.063 7.41 14.731 7.58 14.961" fill="#323434"/>
<path d="m2573 234.76c-2.31 0-4.18-1.871-4.18-4.18l0.15-1.043c-1.16-1.027-2.15-2.668-2.11-5.07 0.02-1.227-0.3-2.117-0.97-2.719l-1.85-0.879c-4.92 6.891-10.97 11.09-10.97 11.09l-4.74-5.09c3.59-3.25 7.25-7.332 10.8-12.43 2.46-3.519 4.99-8.062 7.1-12.589l6.4 3.039s-2.92 7.218-7.03 13.691l2.07 1.207c1.25 1.133 1.86 2.731 1.82 4.731-0.01 1.3 0.42 2.179 0.93 2.769 0.71-0.547 1.61-0.898 2.58-0.898 2.31 0 4.19 1.871 4.19 4.191 0 2.309-1.88 4.18-4.19 4.18" fill="#323434"/>
<path d="m2556.3 177.24c-8.81-4.293-23.3-9.961-42.38-12.621-7.49-1.039-14.75-1.43-21.43-1.43-8.69 0-16.37 0.661-22.27 1.399-6.72 0.851-11.98 1.879-15.2 2.609 0.77-2.437 1.71-4.879 2.84-7.238l0.08-0.172 0.41-0.828 0.4-0.801 0.11-0.211c1.89-3.57 4.17-6.84 6.75-9.679 9-9.84 18.17-11.399 18.26-11.411l0.14-7e-3 0.14-0.051c0.08-0.039 8.21-2.66 20.57-2.66 12.15 0 24.09 2.449 35.46 7.3 8.42 4.301 16.39 10.848 20.34 16.68 3.05 4.52 5.25 9.328 6.56 14.328 0.69 2.672 1.25 6.922 0.92 11.41-2.47-1.66-6.4-4.039-11.7-6.617" fill="#323434"/>
<path d="m2486.8 218.67c9.73 0 17.61-7.883 17.61-17.613 0-9.707-7.88-17.579-17.61-17.579-9.71 0-17.6 7.872-17.6 17.579 0 9.73 7.89 17.613 17.6 17.613zm51.51-0.43c6.01 0 10.9-4.883 10.9-10.902 0-6-4.89-10.891-10.9-10.891-6 0-10.89 4.891-10.89 10.891 0 6.019 4.89 10.902 10.89 10.902zm-76.68-4.172c-0.26-0.371-4.08-5.781-7.1-14.082-2.26-6.218-2.16-15.258-2.16-15.367v-0.019c0-2.122 0.12-4.231 0.36-6.321l0.01-0.109 0.09-0.793c0.19-1.438 0.43-2.91 0.74-4.387 4.38-1.113 30.49-7.203 59.68-3.14 18.29 2.546 32.18 7.957 40.62 12.039 7.01 3.398 11.51 6.48 13.25 7.75-1.73 6.418-6.51 16.5-10.89 22.781-12.54 17.91-26.04 22.508-32.99 23.648-2.64 0.43-4.76 0.692-7.77 0.692-2.79 0-6.26-0.231-10.89-0.723-4.65-0.48-9.82-1.699-15.83-3.73-8.42-2.809-16.04-7.239-22.04-12.789l-0.21-0.188c-0.88-0.812-2.74-2.543-4.87-5.262" fill="#323434"/>
</g>
</g>
</svg>
