<?xml version="1.0" encoding="UTF-8"?>
<svg class="" width="512" height="512" enable-background="new 0 0 512 512" version="1.1" viewBox="0 0 26 26" xml:space="preserve" xmlns="http://www.w3.org/2000/svg"><g fill="#28272b"><path class="" d="M21.485 21.485c4.68-4.678 4.68-12.292 0-16.97a1 1 0 1 0-1.414 1.414c3.9 3.9 3.9 10.243 0 14.142a1 1 0 1 0 1.414 1.414zM5.929 5.929a1 1 0 1 0-1.414-1.414c-4.68 4.678-4.68 12.292 0 16.97a1 1 0 1 0 1.414-1.414c-3.9-3.9-3.9-10.243 0-14.142z" data-original="#000000"/><path class="" d="m18.657 18.656c3.12-3.119 3.12-8.194 0-11.313a1 1 0 1 0-1.414 1.414 6.008 6.008 0 0 1 0 8.485 1 1 0 1 0 1.414 1.414zm-9.899 0a1 1 0 0 0 0-1.414 6.008 6.008 0 0 1 0-8.485 1 1 0 1 0-1.414-1.414c-3.12 3.119-3.12 8.194 0 11.313a1 1 0 0 0 1.414 0z" data-original="#000000"/><path class="" d="M13 17c2.206 0 4-1.794 4-4s-1.794-4-4-4-4 1.794-4 4 1.794 4 4 4zm0-6c1.103 0 2 .897 2 2s-.897 2-2 2-2-.897-2-2 .897-2 2-2z" data-original="#000000"/></g></svg>
