<?xml version="1.0" encoding="UTF-8"?>
<svg class="" width="512" height="512" enable-background="new 0 0 512 512" version="1.1" viewBox="0 0 480.16 480.16" xml:space="preserve" xmlns="http://www.w3.org/2000/svg"><path class="" d="M449.532 192.1c-3.25 0-.92.93-42.53-26.06v76.864c0 4.12-3.133 7.533-7.231 7.958-25.005 2.591-48.185 13.594-66.208 31.618-14.554 14.554-5.133 39.429 15.223 40.901 3.997.289 7.222 3.398 7.49 7.396.684 10.208 7.937 19.033 17.902 21.613 3.646.944 6.176 4.154 6.176 7.92-.001 13.285 8.59 25.134 21.04 29.332 3.312 1.117 5.602 4.146 5.604 7.641.004 6.788.003 10.684-.005 10.707-.21 26.28-21.66 47.59-47.99 47.59h-38c-8.284 0-15-6.716-15-15V307.05c0-18.485-14.985-33.47-33.47-33.47h-87.06c-18.485 0-33.47 14.985-33.47 33.47v133.53c0 8.284-6.716 15-15 15h-37c-26.51 0-48-21.49-48-48V165.09l-39.65 25.72c-3.7 2.41-8.66 1.35-11.06-2.36-2.41-3.7-1.35-8.66 2.36-11.06 122.25-79.31 185.62-120.44 186.43-120.96 23.5-15.25 53.87-15.25 77.37 0 207.34 134.51 89.65 58.15 186.44 120.96 6.679 4.33 3.559 14.71-4.361 14.71zm-50.53-167.52h-84.728c-4.262 0-7.982 3.218-8.255 7.471a7.999 7.999 0 0 0 7.983 8.529v22.634c0 2.71 1.38 5.241 3.653 6.716 29.57 19.184 42.25 27.414 67.992 44.114 5.322 3.453 12.355-.366 12.355-6.711V40.58c5.778 0 8.744-3.754 8.983-7.471a7.999 7.999 0 0 0-7.983-8.529zm12.34 320.68c-13.27 0-20.05 16.16-10.6 25.61 5.86 5.86 15.35 5.86 21.21 0 9.46-9.46 2.65-25.61-10.61-25.61zm66.47-51.47c-36.74-36.74-96.2-36.73-132.93 0a7.997 7.997 0 0 0 0 11.32c3.12 3.12 8.19 3.12 11.31 0 30.49-30.49 79.83-30.49 110.31 0 3.113 3.113 8.183 3.126 11.31 0a7.997 7.997 0 0 0 0-11.32zm-103.24 29.7c-3.12 3.13-3.12 8.19 0 11.31a8.006 8.006 0 0 0 11.32.01c14.07-14.08 36.84-14.07 50.91-.01 3.13 3.13 8.19 3.13 11.31.01a7.997 7.997 0 0 0 0-11.32c-20.32-20.32-53.21-20.32-73.54 0z" fill="#28272b" data-original="#000000"/></svg>
