<?xml version="1.0" encoding="UTF-8"?>
<svg class="" width="469.33" height="426.67" version="1.1" viewBox="0 0 22 20" xml:space="preserve" xmlns="http://www.w3.org/2000/svg"><g transform="translate(-1,-2)" fill="#28272b"><g fill="#28272b"><path class="" d="m4 7a5 5 0 1 1 10 0 5 5 0 0 1-10 0zm10.65 4.132c-0.256 0.35-0.084 0.868 0.35 0.868a5 5 0 1 0 0-10c-0.434 0-0.606 0.517-0.35 0.868 0.85 1.158 1.35 2.586 1.35 4.132s-0.5 2.974-1.35 4.132zm5.35 10.868a1 1 0 0 1-1-1v-2c0-1.5-0.494-2.971-1.38-4.17-0.239-0.324-0.023-0.83 0.38-0.83a5 5 0 0 1 5 5v2a1 1 0 0 1-1 1zm-17.536-6.536a5 5 0 0 1 3.536-1.464h6a5 5 0 0 1 5 5v2a1 1 0 0 1-1 1h-14a1 1 0 0 1-1-1v-2a5 5 0 0 1 1.464-3.535z" fill="#28272b" data-original="#000000"/></g></g></svg>
